<?xml version="1.0" encoding="utf-8"?>
<!-- Generator: Adobe Illustrator 23.0.3, SVG Export Plug-In . SVG Version: 6.00 Build 0)  -->
<svg version="1.1" id="Layer_1" xmlns="http://www.w3.org/2000/svg" xmlns:xlink="http://www.w3.org/1999/xlink" x="0px" y="0px"
	 viewBox="0 0 2039.3 529.8" style="enable-background:new 0 0 2039.3 529.8;" xml:space="preserve">
<title>GPlogo</title>
<g>
	<path d="M177.8,432.2c0-0.1,0,0.4-0.3,2.1C177.6,433.6,177.7,432.9,177.8,432.2C177.8,432.2,177.8,432.2,177.8,432.2z"/>
	<path d="M68.2,482C68.9,482.6,69.7,483.2,68.2,482L68.2,482z"/>
	<path d="M227.2,266.9c-8.3-14.2-23.7-21.7-39.8-22.3c-15.1-0.6-30.4,4.3-38.8,17.6c-5.7,9.2-8.9,22.2-8.9,32.8c0,4,0.4,8,1,12
		c-20-3.7-40,1.8-55.8,14.4v-33.7c0-7.9-6.9-15.4-15-15c-8.1,0.4-15,6.6-15,15v103.6c-0.2,5.9-0.1,11.8,0,17.8
		c0.2,7.8,6.8,15.4,15,15c8.2-0.4,15-6.6,15-15v-16.6c0.1-4.3,0.4-8.7,0.8-13c0.1-0.7,0.3-2.1,0.3-2.3c0.1-0.9,0.3-1.7,0.5-2.6
		c0.4-2.1,0.9-4.2,1.5-6.3c0.5-1.9,1.2-3.7,1.8-5.6c0-0.1,0.1-0.2,0.2-0.3c0.6-1.1,1.1-2.3,1.7-3.4c1-1.9,2.2-3.6,3.3-5.4
		c0.1-0.2,0.2-0.4,0.3-0.5c0,0,0.1-0.1,0.1-0.1c0.7-0.9,1.4-1.7,2.2-2.5c2.8-3.2,6-6.1,9.6-8.5c1.9-1.2,3.9-2.3,5.9-3.3
		c0.4-0.2,1.5-0.6,1.9-0.7c1.1-0.4,2.3-0.8,3.4-1.1c0.9-0.2,1.8-0.5,2.7-0.7c0.3-0.1,2.6-0.3,2.7-0.4c1.8-0.1,3.7-0.2,5.5-0.2
		c1.1,0,2.2,0.2,3.3,0.2c0.1,0,0.2,0,0.2,0c0.1,0,0.2,0.1,0.4,0.1c2.2,0.5,4.3,0.9,6.4,1.6c0.8,0.3,1.6,0.6,2.5,0.8
		c0.2,0.1,0.4,0.1,0.5,0.2c0,0,0.1,0,0.1,0c2.1,1,4.2,2.1,6.2,3.3c0.9,0.5,1.8,1.1,2.6,1.7c0.1,0.1,0.2,0.2,0.3,0.2
		c0,0,0.1,0.1,0.1,0.1c1.7,1.5,3.4,3.1,5,4.7c1,1,1.9,2,2.7,2.9c0.1,0.1,0.1,0.2,0.2,0.3c0.2,0.3,0.4,0.6,0.6,0.8
		c-3.8-3.3-9.6-3.4-13.4,0.1c-4.1,3.7-4.4,10.1-0.6,14.2c3.7,4.1,10.1,4.4,14.2,0.6c3.7-3.4,4.3-9.1,1.5-13.2c0,0,0,0,0,0
		c0.8,1.1,1.5,2.2,2.3,3.3c2.5,3.8,4.7,7.9,6.6,12c0.1,0.2,0.2,0.5,0.3,0.8c0.3,0.8,0.6,1.6,1,2.5c0.8,2.3,1.6,4.6,2.3,7
		c1.2,4.2,2.2,8.5,2.9,12.8c0.1,0.6,0.2,1.3,0.3,1.9c0.1,0.4,0.1,0.9,0.1,1.1c0.2,2.3,0.5,4.6,0.6,7c0.5,7.9,0.4,15.9-0.3,23.8
		c-0.2,1.8-0.3,3.6-0.5,5.4c0,0.2-0.2,1.6-0.3,2.1c-0.5,3-1,6-1.6,9c-0.8,4.1-1.9,8.1-3.3,12c-0.3,0.9-0.7,1.7-1,2.6
		c1.7-4.1-0.2-8.8-4.2-10.5s-8.8,0.2-10.5,4.2s0.2,8.8,4.2,10.5c3.7,1.6,8.1,0.1,10.1-3.4c-1.1,2.2-2.2,4.4-3.5,6.6
		c-1.1,1.9-2.3,3.8-3.6,5.6c-0.3,0.4-0.6,0.8-0.8,1.2c-0.2,0.3-1.4,1.8-1.6,2c-2.7,3.2-5.7,6.2-8.8,9c-1.3,1.1-2.6,2.2-3.9,3.3
		c-0.3,0.2-2.5,1.8-3.1,2.2c-3.3,2.2-6.7,4.3-10.2,6.1c-1.2,0.6-2.3,1.1-3.5,1.7c0.4-0.2-1.8,0.7-2.9,1.1c-3,1-6.1,1.9-9.3,2.5
		c-0.1,0-0.2,0-0.3,0.1c-0.1,0-0.3,0-0.5,0c-1.2,0-2.3,0.1-3.5,0.1c-1.3,0-2.7-0.1-4-0.2c-0.9-0.1-1.8-0.2-2.7-0.2c0,0,0,0,0,0
		c-6.4-1.1-12.6-2.8-18.7-4.9l-1.9-0.8c0,0-0.1,0-0.1,0c-0.1,0-0.1,0-0.2-0.1c-1.4-0.7-2.9-1.3-4.3-2c-3.4-1.7-6.7-3.6-9.9-5.6
		c-1.6-1-3.1-2-4.6-3.1l-1.8-1.3c0.2,0.1,0.3,0.2,0.5,0.3c-0.2-0.2-0.4-0.3-0.5-0.4c-3.1-2.6-6.1-5.2-8.9-8.1
		c-2.6-2.7-5-5.6-7.5-8.4c0,0,0,0,0,0c-0.1-0.1-0.1-0.2-0.2-0.3c-0.5-0.7-1-1.3-1.4-2c-1.4-2-2.8-4.1-4.1-6.2
		c-2.1-3.5-3.9-7.1-5.7-10.7c-0.2-0.4-0.7-1.5-0.8-1.8c-0.2-0.4-0.4-0.9-0.5-1.3c-1-2.5-1.9-5.1-2.7-7.7c-1.3-4.3-2.4-8.6-3.2-13
		c-0.2-1.2-0.4-2.4-0.6-3.6c0-0.3-0.2-1.3-0.2-1.5c-0.3-2.7-0.6-5.4-0.7-8.1c-0.7-12.2-0.7-24.5,0-36.8c1.1-22.9,4.9-45.6,11.3-67.5
		c11.6-39.6,31.5-76,53.1-111.7c7.1-11.7,14.9-23.2,20.5-35.8c9-20,13.7-41.1,16-62.8c0.7-7,1.1-14,0.9-21c0-1.3,0.1-2.6,0.1-3.9
		c0.1-1.7,0.2-3.4,0.4-5.1c0.1-0.8,0.3-1.5,0.4-2.3c0.5-2.5,1.1-5.1,1.9-7.5c0.4-1.2,0.8-2.3,1.2-3.4c-0.8,2.8,0,0,0.6-1.2
		c1-2,2.2-3.7,3.4-5.6c0.2-0.2,0.4-0.4,0.6-0.7c0.8-0.9,1.6-1.7,2.5-2.6c0.2-0.2,0.8-0.7,1.2-1.1c0.5-0.3,1.1-0.8,1.3-0.9
		c1-0.7,2-1.3,3.1-1.8c0.3-0.2,1.6-0.8,2.2-1.1c0.5-0.2,1.1-0.4,1.3-0.5c1-0.3,1.9-0.6,2.9-0.9c0.8-0.2,1.5-0.3,2.3-0.6c0,0,0,0,0,0
		c0.9,0,1.8,0,2.7-0.1c0,0,0,0,0,0c0.8,0.2,1.5,0.4,2.3,0.6c0.1,0,0.2,0.1,0.3,0.1c0.1,0.1,0.2,0.1,0.3,0.2c0.6,0.4,1.2,0.8,1.9,1.2
		c0.1,0.1,1.2,0.9,1.7,1.5c0.7,0.7,1.3,1.3,1.9,2c0,0,0.6,0.8,0.9,1c0.4,0.7,1.8,2.8,2.5,3.7c1.6,2.5,2.7,5.2,3.4,8
		c0.5,1.6,0.9,3.2,1.3,4.8c0.2,0.8,0.3,1.6,0.5,2.3c0.1,0.3,0.1,0.5,0.1,0.6c0.3,3.2,0.3,6.3,0.1,9.5c0-0.3-0.4,2-0.6,2.8
		c-0.3,1-0.6,2-0.9,3c0.1-0.3-0.7,1.5-1.2,2.3c-0.3,0.5-0.6,1-0.9,1.5c0,0.1-0.1,0.1-0.1,0.2c-1,0.8-1.9,1.9-2.7,2.8c0,0,0,0,0,0
		c1-1.2,0.8-2.9-0.4-3.9c-1.2-1-2.9-0.8-3.9,0.4c-1,1.2-0.8,2.9,0.4,3.9c0.7,0.6,1.7,0.8,2.6,0.5c-0.1,0.1-0.2,0.1-0.2,0.1
		c-6.9,4.3-9.6,13.4-5.4,20.5c4,6.8,13.6,9.7,20.5,5.4l0,0c31.9-20.1,28.6-69.9,2.5-93.6C166-4.4,134.3,4.8,117.1,26
		c-7.2-9.4-16.9-16.8-28.7-20.8C71.7-0.6,53.1,4.5,41.7,18C25.1,37.4,19.2,64.2,31.1,87.5c4.8,8.9,11.8,16.4,20.4,21.7
		c6.9,4.3,16.5,1.5,20.5-5.4c4-7.2,1.6-16.3-5.4-20.5c-0.8-0.5-1.6-1-2.4-1.6c-0.1-0.1-0.2-0.2-0.3-0.3c-1.2-1.3-2.5-2.5-3.7-3.8
		c-0.3-0.4-0.8-1-1-1.3c-0.6-0.9-1.2-1.8-1.7-2.8c0,0.1-0.6-1.2-1-1.9c-0.3-0.8-1.1-2.9-1.2-3.3c-1.1-3.2-1.4-6.7-1-10.1
		c-0.2,2,0.6-3.2,0.5-2.8c0.2-1.1,0.5-2.2,0.9-3.2c0.9-2.8,2.1-5.5,3.7-8.1c0.7-1.2,1.5-2.5,2.3-3.7c0.2-0.3,1.1-1.5,1.4-1.8
		c1.2-1.4,2.5-2.6,3.9-3.9c0.1-0.1,0.2-0.1,0.2-0.1c0.8-0.4,1.6-0.9,2.3-1.3c0.9-0.2,1.7-0.4,2.5-0.7c0.4,0,0.9,0,1.4,0
		c0.4,0,0.8,0,1.2,0c1.2,0.3,2.4,0.5,3.6,0.8c1,0.3,2,0.6,3.1,1c0.6,0.3,1.1,0.5,1.7,0.8c1.6,0.8,3.2,1.8,4.6,2.9
		c-0.5-0.3,2.4,2.3,3,2.8c0.6,0.7,1.5,1.6,2.2,2.4c0.1,0.1,0.1,0.2,0.2,0.2c0.1,0.1,0.1,0.2,0.2,0.4c1.4,2,2.7,4.1,3.8,6.3
		c0.5,1,1,2,1.5,3.1c0,0.1,0.1,0.1,0.1,0.2c0.1,0.2,0.1,0.4,0.2,0.7c0.7,2.3,1.5,4.5,2.1,6.8c0.6,2.2,1,4.4,1.3,6.7
		c0,0.4,0.1,0.8,0.1,1c0.1,1.6,0.2,3.2,0.3,4.8c0,0.4,0,0.9,0,1.3c0,0.6,0,1.3,0,1.9c0,4-0.2,8.1-0.6,12.1c-0.2,1.9-0.3,3.8-0.5,5.7
		c-0.1,0.9-0.6,4.9-0.6,4.6c-0.6,4.4-1.4,8.8-2.3,13.1c-1.1,5.1-2.4,10.2-3.9,15.2c-1.5,5.1-3.3,10-5.4,14.9c-2.8,6-6,11.7-9.4,17.4
		c-8.6,14.3-17.4,28.5-25.6,43.1c-22.6,40.1-41.7,83-49.1,128.7c-7.2,44.6-10.5,95.6,12.3,136.5c15.9,28.6,44.2,51,76.2,58.8
		c13.9,3.4,28.4,4.2,42.1-0.3c16.4-5.4,31.2-14.8,43.2-27.3c24.8-25.8,31.9-63,29.4-97.8c-1.7-23.8-9.7-49.7-25.1-68.5
		c-3.9-6-7.5-12.7-9.5-17.9c-1.5-4-2.7-8.1-3.6-12.2c-0.2-0.8-0.3-1.6-0.4-2.4c0-0.2-0.1-0.6-0.1-1.1c-0.1-1.9-0.2-3.9-0.2-5.8
		c0-0.8,0-1.6,0.1-2.3c0-0.2,0.1-0.4,0.1-0.6c0.4-1.5,0.8-3,1.2-4.5c0.4-1.5,0.9-3,1.4-4.5c0.3-0.8,0.6-1.6,0.9-2.4
		c0-0.1,0.1-0.1,0.1-0.2c0.1-0.1,0.4-0.8,0.8-1.5c0,0,0,0,0,0c0.3-0.3,0.6-0.6,1-1c0.3-0.2,0.5-0.3,0.8-0.5c0.2-0.1,0.4-0.2,0.6-0.3
		c0.1-0.1,0.3-0.1,0.5-0.2c1.2-0.2,2.4-0.6,3.6-0.9c-0.2,0.1,3.7-0.2,4.2-0.2c0.5,0,4.8,0.3,4.3,0.1c0.9,0.2,1.7,0.3,2.6,0.6
		c0.7,0.2,3.7,1.5,3.2,1.2c0.7,0.4,1.4,0.8,2.1,1.2c-1.1-0.6,1.7,1.3,2.3,1.9c0.3,0.3,0.6,0.7,1,1.1c0.1,0.1,0.2,0.2,0.3,0.4
		c0.3,0.6,1.8,3.9,1.5,2.7c0.4,1.1,0.7,2.3,1,3.5c0,0,0,0.1,0,0.1c0,0.7,0.1,1.4,0.1,2.1c0,0.8-0.8,5.9-0.1,2.7
		c-0.5,3.2-1.6,6.4-3.1,9.3c-3.7,7.2-1.9,16.3,5.4,20.5c6.7,3.9,16.8,1.9,20.5-5.4l0,0C233.9,301,236.4,282.6,227.2,266.9z
		 M140.8,44.2C140.2,45.1,140.3,44.8,140.8,44.2L140.8,44.2z M133.4,64C133.5,63,133.4,63.5,133.4,64L133.4,64z M133.3,64.3
		c0,0.1,0,0.2,0,0.3C133.3,64.5,133.3,64.4,133.3,64.3z M67.1,34.9C65.9,36,66.5,35.3,67.1,34.9L67.1,34.9z M75.4,32.8
		c0.3,0,0.5,0,0.8,0.1C76.2,32.9,75.8,32.9,75.4,32.8z M178,394.8C177.8,393.5,177.9,394.1,178,394.8L178,394.8z M175.2,276.5
		c-0.2,0.2-0.3,0.4-0.4,0.5c0,0-0.1,0-0.1,0.1C174.9,276.7,175.1,276.5,175.2,276.5z M174.6,277.2c0,0,0-0.1,0.1-0.1c0,0,0,0,0,0
		C174.7,277.1,174.7,277.2,174.6,277.2z"/>
	<path d="M724,498.5c-0.1,0-0.2,0-0.2-0.1C723.8,498.5,723.9,498.5,724,498.5C724,498.5,724,498.5,724,498.5z"/>
	<path d="M763.6,67.9c-0.1-0.4-0.1-0.8-0.2-1.2c0-0.2,0,0,0.2,1.3C763.6,68,763.6,68,763.6,67.9C763.6,68,763.6,68,763.6,67.9z"/>
	<path d="M712.3,491.8c0.2,0.3,0.4,0.6,0.6,0.9C712.6,492.3,712.4,492,712.3,491.8z"/>
	<path d="M855.3,75.1c0-0.1,0-0.2-0.1-0.4c0,0.2,0.1,0.4,0.1,0.5C855.3,75.2,855.3,75.2,855.3,75.1z"/>
	<path d="M812.5,494.3C812.6,494.3,812.6,494.3,812.5,494.3c0.5,0.3,0.9,0.5,1.3,0.8C813.7,495,813.3,494.7,812.5,494.3z"/>
	<path d="M887.5,382.8c-0.2-57.9-0.4-115.7-0.5-173.6c0-24.1,0-48.3,0-72.4c0.1-28,1.5-56.6-5.5-84c-3.2-12.8-9-25.9-18.8-35
		C852.4,8.3,839.6,4.1,825.9,3c-18.5-1.6-35,5-46.1,20c-0.3,0.4-0.5,0.7-0.7,1.1c-5.3-7.4-12.2-13.4-21.1-17.2
		C736.8-2,708.2,4.6,693.1,22c-15.5,17.8-15.6,44.5-6.2,65.3c4.6,9.9,12.4,18,22.2,22.8c7.2,3.6,16.2,1.9,20.5-5.4
		c3.9-6.7,1.9-16.9-5.4-20.5v0c-1.8-0.8-3.5-1.8-5.1-2.9c-0.3-0.3-1.1-0.9-1.3-1.2c-0.5-0.6-1-1.1-1.6-1.7c-0.3-0.4-0.7-0.9-0.8-1.2
		c-0.5-0.9-1-1.9-1.6-2.7c-0.1-0.2-0.2-0.3-0.2-0.4c-0.5-1.3-0.9-2.5-1.3-3.8c-0.4-1.5-0.8-3.1-1-4.6c0,0-0.3-2.5-0.4-2.8
		c-0.1-0.9-0.1-1.9-0.2-2.9c-0.1-2.4-0.1-4.9,0-7.3c0,0,0-0.5,0-1.1c0.1-0.5,0.5-2.6,0.6-2.9c0.2-0.7,0.5-1.4,0.7-2.1
		c-1.2,3.5,0,0.2,0.4-0.6c0.4-0.7,0.8-1.3,1.2-2c0.1-0.1,0.1-0.2,0.2-0.4c1.3-1.2,2.6-2.7,3.8-4c0.2-0.2,0.4-0.4,0.5-0.5
		c0.1-0.1,0.3-0.2,0.5-0.3c1.2-0.7,2.2-1.4,3.4-2.1c0.5-0.3,1-0.5,1.5-0.8c-0.1,0.1,2.4-1,2.6-1c2.3-0.7,4.6-1.3,6.9-1.7
		c-0.6,0.1,4.3-0.2,5.1-0.2c1.1,0,2.2,0.1,3.3,0.1c0.1,0,0.3,0,0.4,0c0.1,0,0.3,0.1,0.5,0.2c1,0.3,5.3,2,3.8,1.1
		c1.3,0.7,2.6,1.4,3.9,2.2c0.7,0.6,1.4,1.2,2,1.9c0.5,0.5,1,1.1,1.5,1.6c0.1,0.1,0.2,0.2,0.3,0.3c0.1,0.2,0.2,0.3,0.3,0.5
		c0.9,1.4,1.8,2.8,2.6,4.3c0.5,0.9,2.6,6.2,1.4,2.7c1.5,4.1,2.8,8.2,3.8,12.4c0.4,1.7,0.7,3.5,1,5.2c0.1,0.4,0.1,0.8,0.2,1.2
		c0,0.2,0.1,0.8,0.2,1.2c0,0.2,0.1,0.4,0.1,0.6c0-0.2-0.1-0.3-0.1-0.4c0.3,2.7,0.6,5.4,0.7,8.1c0,0.9,0,1.8,0,2.8
		c0.4,33.4,0.2,66.8,0.3,100.2c0.1,53.3,0.1,106.6,0,159.8c0,21.4,0,42.9,0,64.3c-0.1,0.7-0.2,1.3-0.2,2c0,4.5,0,9,0.1,13.4
		c0,10.1-0.1,20.1-0.2,30.2c0,3,0,5.9-0.3,8.9c-0.1,0.7-0.2,1.4-0.2,2.1c0,0.3,0,0.5-0.1,0.7c-0.3,1.6-0.5,3.1-0.9,4.6
		c-0.8,3.9-1.9,7.7-3.3,11.5c0,0.1-0.3,0.8-0.5,1.3c-0.3,0.6-0.6,1.3-0.6,1.4c-0.8,1.7-1.7,3.4-2.7,5c-0.3,0.5-1.6,2.3-2.1,3.1
		c-0.4,0.5-0.9,1.1-0.9,1.1c-0.7,0.8-1.5,1.7-2.3,2.5c-0.7,0.7-1.6,1.4-2.3,2.1c-1.5,1-3.1,2-4.8,2.9c-0.7,0.4-1.4,0.7-2.1,1
		c3.4-1.5-0.4,0-1,0.2c-0.8,0.2-1.6,0.5-2.4,0.7c-0.3,0.1-2,0.4-2.9,0.6c-0.8,0.1-2.4,0.2-2.3,0.2c-1,0-1.9,0.1-2.9,0.1
		c-1.6,0-3.1-0.1-4.7-0.2c-0.2,0-0.7-0.1-1.1-0.2c0.2,0,0.4,0.1,0.7,0.2c-0.2,0-0.5-0.1-0.7-0.2c-0.4-0.1-0.6-0.1-0.2,0
		c-1.5-0.3-3.1-0.8-4.6-1.3c-0.4-0.2-1-0.4-1.3-0.6c-0.8-0.5-1.7-1-2.5-1.5c0.5,0.2-1.8-1.7-2.5-2.4c-0.7-0.7-1.5-2.2-0.6-0.9
		c-0.2-0.3-0.4-0.6-0.6-0.9c-0.5-0.8-0.8-1.6-1.2-2.3c-0.6-1.9-0.9-3.9-1.5-5.8c-0.1-1-0.1-2.1-0.2-3.1c-0.1-2.2,0-4.4,0.1-6.6
		c0-1.2,0.2-2.4,0.2-3.6c0-0.3,0-0.5,0-0.7c0-0.1,0-0.1,0-0.2c0.4-2.4,0.9-4.9,1.6-7.2c0.3-1,0.7-2.1,1.1-3.1c0,0,0,0,0,0
		c0.1-0.1,0.2-0.3,0.3-0.5c0.5-0.9,3.9-5.7,1.9-3.3c1.3-1.5,2.7-2.9,4.2-4.2c0.2-0.1,0.4-0.2,0.7-0.3c1.3-0.6,2.5-1.4,3.7-2.1
		c7.2-3.7,9.3-13.8,5.4-20.5c-4.3-7.3-13.3-9.1-20.5-5.4c-22.1,11.2-29.7,35.8-28.6,59.2c1,21.6,14.1,40.8,35.9,46
		c21.3,5.1,45.7-1.1,60.1-18.2c2-2.4,3.8-4.9,5.5-7.5c1.8,3,3.7,5.9,5.9,8.7c22,27.4,71.1,24,90.2-5c12.2-18.5,11.3-42.3,11.2-63.6
		C887.6,421.9,887.5,402.4,887.5,382.8z M709,483.2c0-0.2,0-0.3,0-0.5C709.7,485.4,709,484.3,709,483.2z M748.3,493
		C748.3,493,748.3,493,748.3,493C749,492.6,750.2,491.8,748.3,493z M827.1,33.1C828,33.1,827.7,33.1,827.1,33.1L827.1,33.1z
		 M821.8,498.4c0,0,0.1,0,0.2,0C821.9,498.4,821.9,498.4,821.8,498.4z M857.3,466.3c-0.1,1.7-0.3,3.5-0.5,5.2
		c-0.1,0.6-0.2,1.2-0.3,1.8c-0.6,3.5-1.5,7-2.6,10.4c0,0.1-0.2,0.7-0.4,1.1c0,0,0,0.1,0,0.1c-0.1,0.2-0.2,0.5-0.3,0.7
		c0.1-0.2,0.1-0.4,0.2-0.6c-0.7,1.3-1.4,2.7-2.2,4c0,0.1-0.1,0.5-0.5,0.9c-0.1,0.1-0.3,0.3-0.4,0.4c-0.1,0.1-0.1,0.2-0.2,0.4
		c0-0.1,0.1-0.2,0.1-0.3c-0.9,1-1.9,1.9-2.8,2.9c-0.6,0.4-1.2,0.8-1.8,1.2c-1.2,0.7-2.4,1.3-3.6,1.9c3.7-1.8-1.1,0.3-2.1,0.6
		c-1.8,0.5-3.6,0.9-5.4,1.2c0.1-0.1-2.9,0.3-3.7,0.3c-2,0.1-4.1,0.2-6.1,0.1c-0.8,0-1.5-0.1-2.2-0.1c-1.7-0.4-3.3-0.9-5-1.3
		c-0.1,0-0.1,0-0.2,0c-0.4-0.2-0.9-0.4-1.3-0.6c-0.7-0.4-1.4-0.9-2.1-1.4c0.2,0.2-0.4,0.1-0.9-0.4c-0.1-0.1-0.2-0.2-0.4-0.3
		c-0.1-0.1-0.2-0.1-0.4-0.2c0.1,0.1,0.2,0.1,0.3,0.2c-0.5-0.4-1-0.8-1.4-1.3c-0.6-0.6-1.2-1.2-1.7-1.8c-0.1-0.1-0.4-0.4-0.6-0.7
		c-0.3-0.4-0.7-1-0.8-1.1c-0.4-0.6-0.8-1.2-1.1-1.8c-0.8-1.4-1.6-2.8-2.3-4.2c-0.3-0.7-2.1-5-1.3-2.7c-0.6-1.6-1.2-3.2-1.7-4.8
		c-1.1-3.5-2.1-7-2.8-10.6c-0.4-1.7-0.7-3.3-1-5c-0.2-1.1-0.4-2.1-0.5-3.2c0-0.2-0.2-1.6-0.4-2.4c1.2,6.2,7.2,10.3,13.4,9.2
		c6.3-1.1,10.5-7.2,9.4-13.5c-1.1-6.3-7.2-10.5-13.5-9.4c-5.8,1-9.9,6.3-9.5,12.1c-0.1-1.1-0.3-2.2-0.4-3.4
		c-0.2-1.8-0.4-3.6-0.5-5.5c-0.4-4.6-0.7-9.3-0.8-13.9c-0.2-4-0.3-8-0.3-12.1c0-18.4,0.1-36.8,0.1-55.1c0-57.1,0-114.1,0-171.2
		c0-29.8,0.1-59.7-0.1-89.5c0.2-0.9,0.2-1.9,0.2-2.9l0,0c-0.4-8.7-0.4-17.3,0.2-26c0.1-1.8,0.3-3.6,0.5-5.4c0-0.4,0.1-0.8,0.1-1.2
		c0-0.2,0.2-1.5,0.3-2c0.6-4,1.5-7.9,2.5-11.7c0.5-1.7,1.1-3.4,1.7-5.1c0.1-0.3,0.2-0.7,0.4-1.1c0.2-0.4,0.4-0.8,0.6-1.2
		c0.6-1.3,1.3-2.6,2.1-3.9c0.5-0.8,1-1.5,1.5-2.3c0.1-0.1,0.1-0.2,0.2-0.3c0,0,0,0,0,0c1.2-1,2.2-2.1,3.2-3.3c0,0,0.1-0.1,0.1-0.1
		c0.3-0.2,0.6-0.4,1-0.6c0.9-0.6,4.5-1.9,3.1-1.6c1.3-0.4,2.6-0.7,4-1.1c0.7,0,1.3-0.1,2-0.1c1.7-0.1,3.4,0,5.1,0.1
		c0.9,0,1.7,0.1,2.6,0.2c0.6,0.2,1.8,0.2,2.3,0.3c2.4,0.5,4.8,1.1,7.1,1.9c0.1,0,0.2,0.1,0.3,0.1c0,0,0,0,0,0c1.2,0.7,2.5,1.3,3.7,2
		c0.3,0.2,0.5,0.4,0.8,0.6c-0.2-0.3-0.2-0.4,0.4,0.1c0.2,0.2,0.4,0.3,0.6,0.5c0.2,0.1,0.5,0.3,0.7,0.4c-0.1,0-0.1,0-0.2,0
		c0.1,0.1,0.2,0.2,0.3,0.3c0.8,0.8,1.6,1.6,2.4,2.5c0.2,0.2,0.4,0.5,0.6,0.7c1.3,2.3,2.7,4.2,3.8,6.5c0.2,0.5,0.5,1,0.7,1.5
		c0.5,1.3,1,2.6,1.4,4c2,6.5,3.5,13.1,4.5,19.8c0,0.2,0.1,0.3,0.1,0.5c0-0.3-0.1-0.6-0.1-0.8c0,0.4,0.1,0.8,0.1,1.1
		c0.1,0.6,0.1,0.5,0,0.2c0.1,0.6,0.1,1.3,0.2,1.9c0.2,2,0.4,4,0.6,6c0.4,4.6,0.6,9.1,0.8,13.7c0.4,11.3,0.2,22.5,0.1,33.8
		c-0.1,21.3-0.1,42.5-0.1,63.8c0.1,55.1,0.2,110.1,0.4,165.2c0.1,21.9,0.2,43.7,0.2,65.6C857.7,438.9,858.3,452.7,857.3,466.3z"/>
	<path d="M853.3,485.1c0,0,0-0.1,0.1-0.1c0.1-0.4,0.3-0.8,0.4-1.2c0,0,0,0,0-0.1C853.9,483.7,853.7,484,853.3,485.1z"/>
	<path d="M850.2,490.4C850.2,490.4,850.2,490.4,850.2,490.4c0.3-0.5,0.7-0.9,0.9-1.3c0,0,0,0,0,0C851.1,489,850.7,489.3,850.2,490.4
		z"/>
	<path d="M841.4,39c-0.2-0.2-0.3-0.3-0.5-0.5c-0.3-0.2-0.7-0.4-1-0.7C840.2,38.3,840.9,39.1,841.4,39z"/>
	<path d="M321.7,423.9c0,0.3,0.1,0.6,0.1,0.8C321.8,424.5,321.7,424.2,321.7,423.9C321.7,424,321.7,424,321.7,423.9z"/>
	<path d="M264.8,486.7C264.8,486.7,264.8,486.7,264.8,486.7c0.1-0.5-0.1-1.1-0.4-1.4C264.6,485.8,264.7,486.3,264.8,486.7z"/>
	<path d="M308.2,387.9c0.4,0.5,0.6,0.8,0.6,0.9C308.6,388.5,308.4,388.2,308.2,387.9C308.2,387.9,308.2,387.9,308.2,387.9z"/>
	<path d="M263.2,471.2c0.6-1.1,0.5-2,0.4-2.2C263.5,469.8,263.4,470.6,263.2,471.2C263.2,471.2,263.2,471.2,263.2,471.2z"/>
	<path d="M413,425.2c-6.7-2.5-14-3.4-21.1-2.6c-7.8,0.7-15.4,6.4-15,15c0.3,7.5,6.6,15.8,15,15h0c1.6-0.2,3.3-0.3,5-0.2
		c0.4,0,1.8,0.1,2.6,0.1c0.8,0.2,2.1,0.4,2.4,0.5c0.5,0.1,0.8,0.3,1.2,0.4c0,0,0,0,0.1,0.1c0.8,0.6,1.6,1.1,2.5,1.5
		c0.1,0.1,0.2,0.1,0.2,0.2c0.2,0.2,1.1,1.1,1.7,1.7c0.3,0.5,0.7,1,1,1.5c0.5,0.8,1,1.7,1.4,2.6c0.1,0.1,0.1,0.2,0.1,0.3
		c0,0,0,0,0,0.1c0.6,2.2,1.4,4.3,1.9,6.5c0,0.2,0.2,1,0.4,1.7c0,0.3,0,0.6,0.1,1.2c0.2,2,0.3,4,0.3,6c0,1.6-0.1,3.1-0.2,4.7
		c-0.1,0.3-0.1,0.6-0.2,0.9c-0.2,0.6-0.9,2.2-1.3,3.3c0.4-0.8,1-1.3-0.1,0.8c0,0.1-0.1,0.1-0.1,0.2c0,0.1,0,0.2,0,0.2
		c0-0.1,0-0.1,0-0.2c-0.6,1-1.1,2-1.7,3c0,0.1-0.1,0.1-0.1,0.2c-0.9,0.8-1.8,1.7-2.6,2.6c-0.1,0.1-0.2,0.2-0.3,0.3
		c-0.1,0-0.1,0.1-0.2,0.1c-1.3,0.8-2.8,1.5-4.2,2.3c-0.8,0.2-1.6,0.5-2.4,0.8c-1.6,0.5-3.1,0.8-4.7,1.1c-3,0.6-1.2,0.2-0.5,0.1
		c-1.1,0.1-2.2,0.2-3.3,0.2c-1.8,0.1-3.6,0-5.5-0.1c3.4,0-0.9-0.3-2.1-0.6c-1.2-0.3-4.9-2.2-2.2-0.7c-1.3-0.7-2.6-1.3-3.9-2.1
		c-0.6-0.4-4.2-3-3.2-2.2c-2.4-2-4.7-4.2-6.7-6.6c-0.4-0.5-2.3-2.9-2-2.4c-1-1.5-2.1-3-3-4.5c-1.7-2.7-3.2-5.5-4.5-8.4
		c0.3,0.7-1.1-2.9-1.3-3.4c-0.6-1.7-1.1-3.4-1.5-5.1c-0.4-1.7-0.7-3.3-1.1-5c0-0.1,0-0.1,0-0.2c0-0.4-0.1-0.9-0.1-1.3
		c-0.1-1.2-0.2-2.4-0.2-3.7c-0.1-1-0.1-2.1-0.2-3.1c0.3-4.6,0.3-9.2,0-13.8c0.1-3.1,0.4-6.2,0.7-9.2c0-0.4,0.1-0.9,0.2-1.3
		c0-0.1,0-0.2,0-0.3c0.2-1.3,0.4-2.7,0.7-4c0.6-3.2,1.3-6.3,2.2-9.4c0.9-3.1,1.9-6,3-8.9c1-2.7,0.2-0.5,0,0.1
		c0.4-0.8,0.7-1.5,1.1-2.3c0.7-1.5,1.5-3.1,2.4-4.6s1.8-3,2.7-4.4c0.5-0.7,1-1.4,1.5-2.1c0,0,0.1-0.1,0.1-0.1
		c2.3-2.7,4.8-5.3,7.5-7.7c5-4.5,10-9,14.9-13.7c10.1-9.8,19.7-20.4,27.3-32.3c17.7-27.4,20.4-59.8,12.4-90.9
		c-8.3-32.2-24.7-61.6-41.6-90c-7.4-12.3-14.9-24.6-21.6-37.3c-1.5-2.8-2.9-5.6-4.3-8.5c-0.7-1.5-1.4-3-2.1-4.5l-0.7-1.7
		c-0.1-0.1-0.1-0.2-0.1-0.3c-0.1-0.1-0.1-0.3-0.2-0.5c-2.2-5.4-3.9-11-5.2-16.7c-0.3-1.2-0.5-2.4-0.7-3.6c0-0.4-0.1-0.8-0.1-1.3
		c-0.3-3.2-0.3-6.4-0.1-9.5c0.1-1.6,0.2-3.2,0.4-4.8c0,0.2,0.4-2.5,0.6-3.1c0.7-3.5,1.7-7,3-10.3c0.4-0.8,0.8-1.5,1.2-2.3
		c0.7-1.3,1.5-2.6,2.3-3.8c0.3-0.5,0.6-0.9,1-1.4c0.2-0.2,0.3-0.4,0.5-0.5c1.3-1.3,2.6-2.7,4-3.9c0.1-0.1,0.2-0.2,0.3-0.3
		c0.4-0.3,0.8-0.5,1.2-0.8c1.4-0.9,3-1.7,4.5-2.5c0.1-0.1,0.4-0.2,0.6-0.3c0.4-0.2,0.9-0.3,1.3-0.5c1.7-0.6,3.5-1,5.3-1.4
		c1.3-0.3,5.4-0.5,1.3-0.4c1.2,0,2.4-0.2,3.5-0.2c0.7,0.1,1.3,0.1,2,0.1c0.1,0,0.1,0,0.2,0c0.7,0.2,1.4,0.5,1.9,0.8
		c0.6,0.4,1.2,0.8,1.9,1.1c0.3,0.2,0.6,0.4,1,0.6c0,0,0.1,0.1,0.1,0.1c0.1,0.1,0.2,0.2,0.4,0.3c-0.1,0-0.1-0.1-0.2-0.1c0,0,0,0,0,0
		c2.2,2,5.9,5.9,6.8,7c2.3,2.8,4.2,5.9,5.9,9.2c0,0.2,0.8,2,1,2.7c0.4,1.5,0.8,2.9,1,4.4c0,0.1,0.2,2.1,0.2,2.9
		c0,1.6-0.2,3.2-0.2,4.7c-0.1,0.6-0.2,1.2-0.4,1.8c-0.2,0.8-0.4,1.6-0.6,2.4c-0.1,0.2-0.3,1-0.5,1.6c-0.4,0.7-1.1,2.3-1.3,2.6
		c-0.5,0.9-2.9,3.6-1.5,2.2c-0.7,0.7-1.4,1.5-2.2,2.2c0.1-0.2-2,1.3-2.8,1.7c-7.1,3.8-9.4,13.7-5.4,20.5c4.2,7.2,13.4,9.2,20.5,5.4
		c16-8.6,24.5-26.7,24.3-44.4c-0.1-18.6-10-36.6-24.1-48.5c-13.3-11.2-29-13.4-45.5-8.3c-11.7,3.7-21.2,10.5-28.3,19.6
		c-1.7-2.1-3.5-4.2-5.5-6.1c-12.4-11.8-31-18.4-48-15.6c-16.7,2.8-31.1,18.3-38.4,32.9c-8.2,16.5-8.6,36.2,0.2,52.6
		c4.1,7.5,10.3,13.7,17.8,17.8c7.1,3.9,16.3,1.8,20.5-5.4c4-6.8,1.8-16.7-5.4-20.5c-0.6-0.3-2.7-1.8-2.8-1.8c-0.7-0.7-1.4-1.6-2.2-2
		c0,0-0.1,0-0.1,0c-0.4-0.6-0.8-1.1-1.1-1.7c-0.3-0.5-0.6-1-0.9-1.5c-0.4-0.8-1.3-3.9-0.5-0.8c-0.4-1.4-0.9-2.7-1.3-4.1
		c-0.3-1.2-0.6-3.7-0.5-2.4c-0.1-1.4-0.2-2.7-0.2-4.1c0-0.8,0.1-1.7,0.1-2.5c0-0.2,0-0.3,0-0.4c0,0,0,0,0,0c0.4-1.4,0.6-2.9,1-4.4
		c0.1-0.5,1.1-3.1,1.2-3.4c1.6-3.3,3.6-6.3,5.9-9.2c2-2.3,4.1-4.5,6.3-6.6c0.1-0.1,0.5-0.4,0.8-0.7c0.2-0.2,0.4-0.3,0.5-0.3
		c0.7-0.4,1.3-0.7,1.9-1.1c0,0,0.1-0.1,0.1-0.1c1.1-0.2,2.2-0.6,3.3-0.9c0.2,0,0.4,0,0.7,0c1.4,0,2.7,0.1,4,0.2
		c-3.5-0.2-0.3,0,1.3,0.4c1.6,0.4,3.1,0.8,4.6,1.2c0.8,0.2,1.5,0.5,2.3,0.8c0.1,0,0.2,0.1,0.3,0.1c1.3,0.7,2.7,1.4,3.9,2.2
		c0.7,0.5,1.4,0.9,2.1,1.4c0,0,0,0,0,0c0.1,0.1,0.2,0.2,0.4,0.4c1,1,2.1,2,3.1,3.1c0.1,0.1,0.6,0.6,0.9,1c0.3,0.3,0.5,0.7,0.6,0.9
		c0.8,1.2,1.6,2.5,2.3,3.8c0.4,0.8,0.8,1.5,1.2,2.3c0.1,0.2,0.2,0.3,0.3,0.5c0,0,0,0.1,0,0.1c1.2,3.1,2.2,6.4,2.9,9.7
		c0.1,0.5,0.6,3.7,0.7,3.8c0.2,1.6,0.3,3.2,0.4,4.8c0.2,3.2,0.1,6.4-0.1,9.6c0,0.4-0.1,0.7-0.1,1.1c-0.3,1.4-0.5,2.9-0.8,4.3
		c-1.3,5.8-3.4,11.1-5.3,16.7c0,0,0,0,0,0.1c-0.2,0.4-0.4,0.9-0.6,1.3c-0.7,1.5-1.4,3-2.1,4.5c-1.5,3.1-3,6.1-4.6,9.1
		c-3.4,6.4-7,12.6-10.6,18.8c-16.3,27.6-33.2,54.7-44.9,84.7c-11.8,30.4-17.7,64.7-5,95.8c10.9,26.6,31.4,46.4,52.4,65.3
		c2.5,2.3,4.8,4.7,7,7.2c0,0,0.1,0.1,0.1,0.2c0,0,0-0.1-0.1-0.1c0,0,0,0.1,0.1,0.1c0.3,0.4,0.8,1.2,0.6,0.9c0.1,0.2,0.3,0.4,0.4,0.6
		c1.1,1.6,2.1,3.3,3.1,5c0.8,1.5,1.6,3,2.4,4.6c0.3,0.6,0.5,1.2,0.8,1.7c0,0.1,0.1,0.1,0.1,0.2c1.2,3,2.2,6.1,3.1,9.2
		c0.8,2.9,1.5,5.9,2.1,8.9c0.3,1.5,0.5,3.1,0.8,4.6c0,0.1,0,0.2,0,0.3c0-0.3-0.1-0.5-0.1-0.9c0,0.3,0.1,0.6,0.1,0.9
		c0.1,0.7,0.2,1.5,0.1,0.7c0,0.2,0,0.4,0.1,0.5c0.6,5.3,0.9,10.5,0.9,15.8c0,3.5-0.1,7.1-0.3,10.6c-0.1,0.9-0.1,1.9-0.2,2.8
		c-0.1,0.7-0.1,1.3-0.2,1.9c0,0.1,0,0.2-0.1,0.3c-0.4,1.7-0.7,3.4-1.1,5s-1,3.4-1.5,5.1c-0.3,0.8-0.6,1.7-0.9,2.5
		c1.1-3.3-0.8-6.9-4.1-7.9s-6.9,0.8-7.9,4.1c-1.1,3.3,0.8,6.9,4.1,7.9c3,0.9,6.1-0.4,7.5-3.1c-0.2,0.5-0.4,1-0.5,1.1
		c-0.4,0.8-0.8,1.6-1.2,2.5c-1,1.8-2,3.6-3.1,5.4c-0.9,1.4-1.8,2.7-2.7,4c-0.1,0.1-0.1,0.2-0.2,0.3c-0.4,0.5-0.8,1-1.3,1.5
		c-1.2,1.4-2.4,2.7-3.7,3.9c-0.7,0.6-1.3,1.2-1.9,1.8c-0.1,0.1-0.6,0.5-1.1,0.9c1.5-1.6,1.7-4.2,0.3-6c-1.6-2-4.4-2.3-6.4-0.7
		s-2.3,4.4-0.7,6.4c1.4,1.8,3.9,2.2,5.8,1.1c-0.7,0.5-1.4,1-2.2,1.4c-1.2,0.7-2.4,1.4-3.7,2c1-0.5-1.5,0.6-2.4,0.9
		c-0.8,0.2-1.6,0.4-2.4,0.6c-0.3,0.1-0.5,0.1-0.7,0.2c-1.7,0.1-3.3,0.1-5,0.1c-0.8,0-1.7-0.1-2.5-0.2c-0.5,0-0.7,0-0.8,0
		c-1.6-0.2-3.1-0.6-4.6-1c-0.8-0.2-1.7-0.5-2.5-0.8c-0.1,0-0.3-0.1-0.4-0.1c-1.3-0.8-2.6-1.4-3.9-2.2c-0.2-0.1-0.4-0.2-0.6-0.3
		c0,0-0.1-0.1-0.1-0.1c-0.8-0.9-1.8-1.9-2.7-2.7c-0.1-0.1-0.2-0.2-0.3-0.2c-0.2-0.3-0.3-0.5-0.3-0.6c-0.5-0.8-1-1.7-1.5-2.5
		c0,0,0-0.1-0.1-0.1c0,0.1,0,0.1,0,0.2c0-0.1,0-0.2,0-0.3c-0.2-0.4-0.4-0.9-0.6-1.2c-0.5-0.9-0.1-0.8,0.2-0.2
		c-0.4-1-0.9-2.1-1.1-2.7c-0.1-0.3-0.1-0.5-0.1-0.8c-0.1-1.6-0.2-3.2-0.2-4.7c0-1.8,0.1-3.8,0.2-5.7c0,0,0-0.1,0-0.1
		c0,0,0,0.1-0.1,0.1c0,0,0-0.1,0.1-0.1c0-0.5,0.1-1,0.1-1.4c0-0.6,0.2-0.8,0.3-0.7c0-0.4,0.1-0.7,0.1-1c0.5-2.2,1.3-4.3,1.9-6.5
		c0.6-1.1,1.1-2.3,1.8-3.4c0.2-0.3,0.8-1.1,1.1-1.5c0.4-0.5,0.9-1,1.1-1.1c0.4-0.3,0.7-0.6,0.9-0.9c0.7-0.4,1.6-0.9,2.1-1.1
		c0.2-0.1,0.5-0.2,0.7-0.3c0.9-0.2,1.7-0.4,2.6-0.6c-0.3,0.1,1.8-0.2,3-0.2c1.6,0,3.3,0.1,5,0.2c7.8,0.7,15.3-7.4,15-15
		c-0.4-8.7-6.6-14.2-15-15l0.1-0.2c-16-1.5-30.8,4.6-40.4,17.5c-7,9.4-9.7,21.5-10.4,33c-1.4,25.1,13.9,47.9,39.4,52.9
		c19.7,3.9,37.2-0.8,52.1-14.2c4.9-4.4,9.4-9.7,13.2-15.4c8.7,13.6,21.1,24.5,36.8,29.2c27.6,8.3,62.8-8,67.2-38.1
		C445.4,463.3,437.8,434.8,413,425.2z M407.9,457.2c0.2,0.2,0.3,0.4,0.3,0.4C408.2,457.6,408.1,457.4,407.9,457.2z M385.4,32.5
		c-0.6,0-1.2,0-1.1,0C384.6,32.4,385,32.4,385.4,32.5z M372.4,35.1C373,34.9,373.6,34.7,372.4,35.1L372.4,35.1z M372.3,35.2
		c-0.1,0.1-0.3,0.1-0.5,0.2C372,35.3,372.2,35.2,372.3,35.2z M289.5,32.9c0,0,0.1,0,0.1,0C289.6,32.9,289.5,32.9,289.5,32.9z
		 M303.5,35.3C302.9,35,302.2,34.6,303.5,35.3L303.5,35.3z M270.3,454.8c-0.4,0.4-0.8,0.7-0.8,0.6
		C269.5,455.3,269.8,455.1,270.3,454.8z M267.5,491.2c-0.2,0-0.6-0.6-0.8-1.1C267.1,490.6,267.8,491.2,267.5,491.2z M289.8,497.6
		C289,497.7,288.8,497.6,289.8,497.6L289.8,497.6z M367.6,387.8C367.3,388.3,366,389.8,367.6,387.8L367.6,387.8z M318.4,355.7
		c-5.6-5.1-11.2-10.2-16.5-15.6c-2.4-2.4-4.7-4.9-7-7.4c-1.1-1.3-2.2-2.5-3.3-3.8c-0.5-0.6-3-3.8-2.9-3.6c-4-5.4-7.5-11.1-10.5-17.1
		c-0.4-0.9-0.8-1.8-1.2-2.7c0,0,0,0,0,0c-0.5-1.6-1.2-3.2-1.7-4.7c-1.2-3.7-2.2-7.4-2.9-11.3c-0.2-1.1-0.4-2.2-0.5-3.3
		c0.1,0.6,0.3,2.9,0,0c-0.2-1.8-0.3-3.7-0.4-5.5c-0.2-4.4,0-8.8,0.4-13.2c0.1-0.9,0.2-1.7,0.3-2.6c0.1-0.4,0.1-1.1,0.2-1.3
		c0.4-2.2,0.8-4.4,1.2-6.5c1-4.9,2.4-9.8,3.9-14.6c1.3-4.3,2.8-8.6,4.4-12.8c0.8-2.2,1.7-4.4,2.6-6.6c-0.3,0.6-0.9,2,0.3-0.8
		c0.5-1.2,1-2.4,1.6-3.6c3.7-8.2,7.8-16.3,12.1-24.3c8.1-14.9,17.1-29.3,25.7-43.9c4.7-8,9.6-16.4,13.9-24.9
		c0.9,1.8,1.8,3.6,2.8,5.4c15.8,29.8,35.3,57.4,49.1,88.3c3.3,7.5,6.2,15.2,8.6,23c1.4,4.5,2.7,9.1,3.7,13.8
		c0.5,2.2,0.9,4.4,1.3,6.5c0.1,0.4,0.4,2.7,0.4,2.4c0.1,1,0.2,2,0.3,3c0.4,4.1,0.5,8.3,0.3,12.5c-0.1,1.8-0.2,3.7-0.4,5.5
		c0,0.6-0.4,3,0,0c-0.2,1.3-0.4,2.6-0.7,3.9c-0.7,3.4-1.5,6.7-2.6,10c-0.5,1.6-1.1,3.2-1.7,4.8c0,0.1-0.1,0.2-0.1,0.3
		c-0.4,1-0.9,2-1.4,3c-3,6.1-6.6,11.8-10.6,17.2c0.7-1-2,2.6-2.4,3c-1.1,1.3-2.2,2.6-3.3,3.8c-2.5,2.9-5.2,5.6-7.9,8.4
		c-11.2,11.3-24.3,20.9-33.3,34.2c-0.9,1.3-1.7,2.6-2.5,4C332.6,370.2,326.2,362.7,318.4,355.7z M353.6,456.3
		C353.5,455.5,353.4,454.1,353.6,456.3L353.6,456.3z M408.3,490.9c0,0-0.1,0.1-0.1,0.1C408.2,491,408.2,491,408.3,490.9z"/>
	<path d="M411.2,485.6c-0.1,0.3-0.3,0.7-0.2,1c0,0,0,0,0,0C411,486.3,411,486,411.2,485.6z"/>
	<path d="M390.8,35.2c-0.7-0.5-1.4-0.7,0.3,0.3c-0.1-0.1-0.1-0.1-0.2-0.2C390.9,35.2,390.8,35.2,390.8,35.2z"/>
	<path d="M482,486.7C482.1,486.7,482.1,486.7,482,486.7c0.1-0.5-0.1-1.1-0.4-1.4C481.9,485.8,482,486.3,482,486.7z"/>
	<path d="M480.5,471.2c0.6-1.1,0.5-2,0.4-2.2C480.8,469.8,480.7,470.6,480.5,471.2C480.5,471.2,480.5,471.2,480.5,471.2z"/>
	<path d="M525.4,387.9c0.4,0.5,0.6,0.8,0.6,0.9C525.9,388.5,525.7,388.2,525.4,387.9C525.5,387.9,525.5,387.9,525.4,387.9z"/>
	<path d="M539,424c0,0.3,0.1,0.6,0.1,0.8C539.1,424.5,539,424.2,539,424C539,424,539,424,539,424z"/>
	<path d="M608.1,35.2c-0.7-0.5-1.4-0.7,0.3,0.3c-0.1-0.1-0.1-0.1-0.2-0.2C608.2,35.2,608.1,35.2,608.1,35.2z"/>
	<path d="M628.5,485.6c-0.1,0.3-0.3,0.7-0.2,1c0,0,0,0,0,0C628.3,486.3,628.4,486,628.5,485.6z"/>
	<path d="M630.3,425.1c-6.7-2.5-14-3.4-21.1-2.6c-7.8,0.7-15.4,6.4-15,15c0.3,7.5,6.6,15.8,15,15l0,0.1c1.7-0.2,3.3-0.3,5-0.2
		c0.4,0,1.8,0.1,2.6,0.1c0.8,0.2,2.1,0.4,2.4,0.5c0.5,0.1,0.8,0.3,1.2,0.4c0,0,0,0,0.1,0.1c0.8,0.6,1.6,1.1,2.5,1.5
		c0.1,0.1,0.2,0.1,0.2,0.2c0.2,0.2,1.1,1.1,1.7,1.7c0.3,0.5,0.7,1,1,1.5c0.5,0.8,1,1.7,1.4,2.6c0.1,0.1,0.1,0.2,0.1,0.3
		c0,0,0,0,0,0.1c0.6,2.2,1.4,4.3,1.9,6.5c0,0.2,0.2,1,0.4,1.7c0,0.3,0,0.6,0.1,1.2c0.2,2,0.3,4,0.3,6c0,1.6-0.1,3.1-0.2,4.7
		c-0.1,0.3-0.1,0.6-0.2,0.9c-0.2,0.6-0.9,2.2-1.3,3.3c0.4-0.8,1-1.3-0.1,0.8c0,0.1-0.1,0.1-0.1,0.2c0,0.1,0,0.2,0,0.2
		c0-0.1,0-0.1,0-0.2c-0.6,1-1.1,2-1.7,3c0,0.1-0.1,0.1-0.1,0.2c-0.9,0.8-1.8,1.7-2.6,2.6c-0.1,0.1-0.2,0.2-0.3,0.3
		c-0.1,0-0.1,0.1-0.2,0.1c-1.3,0.8-2.8,1.5-4.2,2.3c-0.8,0.2-1.6,0.5-2.4,0.8c-1.6,0.5-3.1,0.8-4.7,1.1c-3,0.6-1.2,0.2-0.5,0.1
		c-1.1,0.1-2.2,0.2-3.3,0.2c-1.8,0.1-3.6,0-5.5-0.1c3.4,0-0.8-0.3-2.1-0.6s-4.9-2.2-2.2-0.7c-1.3-0.7-2.6-1.3-3.9-2.1
		c-0.6-0.4-4.2-3-3.2-2.2c-2.4-2-4.7-4.2-6.7-6.6c-0.4-0.5-2.3-2.9-2-2.4c-1-1.5-2.1-3-3-4.5c-1.7-2.7-3.2-5.5-4.5-8.4
		c0.3,0.7-1.1-2.9-1.3-3.4c-0.6-1.7-1.1-3.4-1.5-5.1c-0.4-1.7-0.7-3.3-1.1-5c0-0.1,0-0.1,0-0.2c0-0.4-0.1-0.9-0.1-1.3
		c-0.1-1.2-0.2-2.4-0.2-3.7c-0.1-1-0.1-2.1-0.2-3.1c0.3-4.6,0.3-9.2,0-13.8c0.1-3.1,0.4-6.2,0.7-9.2c0-0.4,0.1-0.9,0.2-1.3
		c0-0.1,0-0.2,0-0.3c0.2-1.3,0.4-2.7,0.7-4c0.6-3.2,1.3-6.3,2.2-9.4c0.9-3.1,1.9-6,3-8.9c1-2.7,0.2-0.5,0,0.1
		c0.4-0.8,0.7-1.5,1.1-2.3c0.7-1.5,1.5-3.1,2.4-4.6s1.8-3,2.7-4.4c0.5-0.7,1-1.4,1.5-2.1c0,0,0.1-0.1,0.1-0.1
		c2.3-2.7,4.8-5.3,7.5-7.7c5-4.5,10-9,14.9-13.7c10.2-9.8,19.7-20.4,27.3-32.3c17.7-27.4,20.4-59.8,12.4-90.9
		c-8.3-32.2-24.7-61.6-41.6-90c-7.4-12.3-14.9-24.6-21.7-37.3c-1.5-2.8-2.9-5.6-4.3-8.5c-0.7-1.5-1.4-3-2.1-4.5l-0.7-1.7
		c-0.1-0.1-0.1-0.2-0.1-0.3c-0.1-0.1-0.1-0.3-0.2-0.5c-2.2-5.4-3.9-11-5.2-16.7c-0.3-1.2-0.5-2.4-0.7-3.6c0-0.4-0.1-0.8-0.1-1.3
		c-0.3-3.2-0.3-6.4-0.1-9.5c0.1-1.6,0.2-3.2,0.4-4.8c0,0.2,0.4-2.5,0.6-3.1c0.7-3.5,1.7-7,3-10.3c0.4-0.8,0.8-1.5,1.2-2.3
		c0.7-1.3,1.5-2.6,2.3-3.8c0.3-0.5,0.6-0.9,1-1.4c0.2-0.2,0.3-0.4,0.5-0.5c1.3-1.3,2.6-2.7,4-3.9c0.1-0.1,0.2-0.2,0.3-0.3
		c0.4-0.3,0.8-0.5,1.2-0.8c1.4-0.9,3-1.7,4.5-2.5c0.1-0.1,0.4-0.2,0.6-0.3c0.4-0.2,0.9-0.3,1.3-0.5c1.7-0.6,3.5-1,5.3-1.4
		c1.3-0.3,5.4-0.5,1.3-0.4c1.2,0,2.3-0.2,3.5-0.2c0.7,0.1,1.3,0.1,2,0.1c0.1,0,0.1,0,0.2,0c0.7,0.2,1.4,0.5,1.9,0.8
		c0.6,0.4,1.2,0.8,1.9,1.1c0.3,0.2,0.6,0.4,1,0.6c0,0,0.1,0.1,0.1,0.1c0.1,0.1,0.2,0.2,0.4,0.3c-0.1,0-0.1-0.1-0.2-0.1c0,0,0,0,0,0
		c2.2,2,5.9,5.9,6.8,7c2.3,2.8,4.2,5.9,5.9,9.2c0,0.2,0.8,2,1,2.7c0.4,1.5,0.8,2.9,1,4.4c0,0.1,0.2,2.1,0.2,2.9
		c0,1.6-0.2,3.2-0.2,4.7c-0.1,0.6-0.2,1.2-0.4,1.8c-0.2,0.8-0.4,1.6-0.6,2.4c-0.1,0.2-0.3,1-0.5,1.6c-0.4,0.7-1.1,2.3-1.3,2.6
		c-0.5,0.9-2.9,3.6-1.5,2.2c-0.7,0.7-1.4,1.5-2.2,2.2c0.1-0.2-2,1.3-2.8,1.7c-7.1,3.8-9.4,13.7-5.4,20.5c4.2,7.2,13.4,9.2,20.5,5.4
		c16-8.6,24.5-26.7,24.3-44.4c-0.2-18.6-10-36.6-24.1-48.5c-13.3-11.2-29-13.4-45.5-8.3c-11.7,3.7-21.2,10.6-28.4,19.7
		c-1.7-2.2-3.5-4.2-5.5-6.1c-12.4-11.8-31-18.4-48-15.6c-16.7,2.8-31.1,18.3-38.4,32.8c-8.2,16.5-8.6,36.2,0.2,52.6
		c4.1,7.5,10.3,13.7,17.8,17.9c7.1,3.8,16.3,1.8,20.5-5.4c4-6.8,1.8-16.7-5.4-20.5c-0.6-0.3-2.7-1.8-2.8-1.8c-0.7-0.7-1.4-1.6-2.2-2
		c0,0-0.1,0-0.1,0c-0.4-0.6-0.8-1.1-1.1-1.7c-0.3-0.5-0.6-1-0.9-1.6c-0.4-0.8-1.3-3.9-0.5-0.8c-0.4-1.4-0.9-2.7-1.3-4.1
		c-0.3-1.2-0.6-3.7-0.5-2.4c-0.1-1.4-0.2-2.7-0.2-4.1c0-0.8,0.1-1.7,0.1-2.5c0-0.2,0-0.3,0-0.4c0,0,0,0,0,0c0.4-1.4,0.6-2.9,1-4.3
		c0.1-0.5,1.1-3.1,1.2-3.4c1.6-3.3,3.6-6.3,5.9-9.2c2-2.3,4.1-4.5,6.3-6.6c0.1-0.1,0.5-0.4,0.8-0.7c0.2-0.2,0.4-0.3,0.5-0.3
		c0.7-0.4,1.3-0.7,1.9-1.2c0,0,0.1-0.1,0.1-0.1c1.1-0.2,2.2-0.6,3.3-0.9c0.2,0,0.4,0,0.7,0c1.4,0,2.7,0.1,4,0.2
		c-3.5-0.2-0.3,0,1.3,0.4s3.1,0.8,4.6,1.2c0.8,0.2,1.5,0.5,2.3,0.8c0.1,0,0.2,0.1,0.3,0.1c1.3,0.7,2.7,1.4,3.9,2.2
		c0.7,0.5,1.4,0.9,2.1,1.4c0,0,0,0,0,0c0.1,0.1,0.2,0.2,0.4,0.4c1,1,2.1,2,3.1,3.1c0.1,0.1,0.6,0.6,0.9,1c0.3,0.3,0.5,0.7,0.6,0.9
		c0.8,1.2,1.6,2.5,2.3,3.8c0.4,0.8,0.8,1.5,1.2,2.3c0.1,0.2,0.2,0.3,0.3,0.5c0,0,0,0.1,0,0.1c1.2,3.1,2.2,6.4,2.9,9.6
		c0.1,0.5,0.6,3.7,0.7,3.8c0.2,1.6,0.3,3.2,0.4,4.8c0.2,3.2,0.1,6.4-0.1,9.5c0,0.4-0.1,0.7-0.1,1.1c-0.3,1.4-0.5,2.9-0.8,4.3
		c-1.3,5.8-3.4,11.1-5.3,16.7c0,0,0,0,0,0.1c-0.2,0.4-0.4,0.9-0.6,1.3c-0.7,1.5-1.4,3-2.1,4.5c-1.5,3.1-3,6.1-4.6,9.1
		c-3.4,6.4-7,12.6-10.6,18.8c-16.3,27.6-33.2,54.7-44.9,84.7c-11.8,30.4-17.7,64.7-5,95.8c10.9,26.6,31.4,46.4,52.4,65.3
		c2.5,2.3,4.8,4.7,7,7.2c0,0,0.1,0.1,0.1,0.2c0,0,0-0.1-0.1-0.1c0,0,0.1,0.1,0.1,0.1c0.3,0.4,0.8,1.2,0.6,0.9
		c0.1,0.2,0.3,0.4,0.4,0.6c1.1,1.6,2.1,3.3,3.1,5c0.8,1.5,1.6,3,2.4,4.6c0.3,0.6,0.5,1.2,0.8,1.7c0,0.1,0.1,0.1,0.1,0.2
		c1.2,3,2.2,6.1,3.1,9.2c0.8,2.9,1.5,5.9,2.1,8.9c0.3,1.5,0.5,3.1,0.8,4.6c0,0.1,0,0.2,0,0.3c0-0.3-0.1-0.5-0.1-0.9
		c0,0.3,0.1,0.6,0.1,0.9c0.1,0.6,0.2,1.5,0.1,0.7c0,0.2,0,0.4,0.1,0.5c0.6,5.3,0.9,10.5,0.9,15.8c0,3.5-0.1,7.1-0.3,10.6
		c-0.1,0.9-0.1,1.9-0.2,2.8c-0.1,0.7-0.1,1.3-0.2,1.9c0,0.1,0,0.2-0.1,0.3c-0.3,1.7-0.7,3.4-1.1,5s-1,3.4-1.5,5.1
		c-0.3,0.8-0.6,1.7-0.9,2.5c1.1-3.3-0.8-6.9-4.1-7.9s-6.9,0.8-7.9,4.1c-1.1,3.3,0.8,6.9,4.1,7.9c3,0.9,6.1-0.4,7.5-3.1
		c-0.2,0.5-0.4,1-0.5,1.1c-0.4,0.8-0.8,1.6-1.2,2.5c-1,1.8-2,3.6-3.1,5.4c-0.9,1.4-1.8,2.7-2.7,4c-0.1,0.1-0.1,0.2-0.2,0.3
		c-0.4,0.5-0.8,1-1.3,1.5c-1.2,1.4-2.4,2.7-3.7,3.9c-0.7,0.6-1.3,1.2-1.9,1.8c-0.1,0.1-0.6,0.5-1.1,0.9c1.5-1.6,1.7-4.2,0.3-6
		c-1.6-2-4.4-2.3-6.4-0.7c-2,1.6-2.3,4.4-0.7,6.4c1.4,1.8,3.9,2.2,5.8,1.1c-0.7,0.5-1.4,1-2.2,1.4c-1.2,0.7-2.4,1.4-3.7,2
		c1-0.5-1.5,0.6-2.4,0.9c-0.8,0.2-1.6,0.4-2.4,0.6c-0.3,0.1-0.5,0.1-0.7,0.2c-1.7,0.1-3.3,0.1-5,0.1c-0.8,0-1.7-0.1-2.5-0.2
		c-0.5,0-0.7,0-0.8,0c-1.6-0.2-3.1-0.6-4.6-1c-0.8-0.2-1.7-0.5-2.5-0.8c-0.1,0-0.3-0.1-0.4-0.1c-1.3-0.8-2.6-1.4-3.9-2.2
		c-0.2-0.1-0.4-0.2-0.6-0.3c0,0-0.1-0.1-0.1-0.1c-0.8-0.9-1.8-1.9-2.7-2.7c-0.1-0.1-0.2-0.2-0.3-0.2c-0.2-0.3-0.3-0.5-0.3-0.6
		c-0.5-0.8-1-1.7-1.5-2.5c0,0,0-0.1-0.1-0.1c0,0.1,0,0.1,0,0.2c0-0.1,0-0.2,0-0.3c-0.2-0.4-0.4-0.9-0.6-1.2
		c-0.5-0.9-0.1-0.8,0.2-0.2c-0.4-1-0.9-2.1-1.1-2.7c-0.1-0.3-0.1-0.5-0.1-0.8c-0.1-1.6-0.2-3.2-0.2-4.7c0-1.8,0.1-3.8,0.2-5.7
		c0,0,0-0.1,0-0.1c0,0,0,0.1-0.1,0.1c0,0,0-0.1,0.1-0.1c0-0.5,0.1-1,0.1-1.4c0-0.6,0.2-0.8,0.3-0.7c0-0.4,0.1-0.7,0.1-1
		c0.5-2.2,1.3-4.3,1.9-6.5c0.6-1.1,1.2-2.3,1.8-3.4c0.2-0.3,0.8-1.1,1.1-1.5c0.4-0.5,0.9-1,1.1-1.1c0.4-0.3,0.7-0.6,0.9-0.9
		c0.7-0.4,1.6-0.9,2.1-1.1c0.2-0.1,0.5-0.2,0.7-0.3c0.9-0.2,1.7-0.4,2.6-0.6c-0.3,0.1,1.8-0.2,3-0.2c1.6,0,3.3,0.1,5,0.2
		c7.8,0.7,15.3-7.4,15-15c-0.4-8.7-6.6-14.2-15-15l0.1-0.2c-16-1.5-30.8,4.6-40.4,17.5c-7,9.4-9.7,21.5-10.4,33
		c-1.4,25.1,13.9,47.9,39.4,52.9c19.7,3.9,37.2-0.8,52.1-14.2c4.9-4.4,9.4-9.7,13.2-15.4c8.7,13.6,21.1,24.4,36.7,29.1
		c27.6,8.3,62.8-8,67.2-38.1C662.7,463.2,655,434.7,630.3,425.1z M625.2,457.2c0.2,0.2,0.3,0.4,0.3,0.4
		C625.5,457.6,625.4,457.4,625.2,457.2z M602.7,32.5c-0.6,0-1.2,0-1.1,0C601.9,32.4,602.3,32.4,602.7,32.5z M589.7,35.1
		C590.3,34.9,590.9,34.7,589.7,35.1L589.7,35.1z M589.7,35.2c-0.1,0.1-0.3,0.1-0.5,0.2C589.3,35.3,589.5,35.2,589.7,35.2z
		 M506.8,32.9c0,0,0.1,0,0.1,0C506.9,32.9,506.8,32.9,506.8,32.9z M520.8,35.3C520.2,35,519.5,34.6,520.8,35.3L520.8,35.3z
		 M487.6,454.8c-0.4,0.4-0.8,0.7-0.8,0.6C486.8,455.3,487.1,455.1,487.6,454.8z M484.8,491.2c-0.2,0-0.6-0.6-0.8-1.1
		C484.4,490.6,485,491.3,484.8,491.2z M507.1,497.6C506.3,497.7,506.1,497.7,507.1,497.6L507.1,497.6z M585,387.8
		C584.6,388.3,583.3,389.8,585,387.8L585,387.8z M535.7,355.7c-5.6-5.1-11.2-10.2-16.5-15.6c-2.4-2.4-4.7-4.9-7-7.4
		c-1.1-1.3-2.2-2.5-3.3-3.8c-0.5-0.6-3-3.8-2.9-3.6c-4-5.4-7.5-11.1-10.5-17.1c-0.4-0.9-0.8-1.8-1.2-2.7c0,0,0,0,0,0
		c-0.5-1.6-1.2-3.2-1.7-4.7c-1.2-3.7-2.2-7.5-2.9-11.3c-0.2-1.1-0.4-2.2-0.5-3.3c0.1,0.6,0.3,2.9,0,0c-0.2-1.8-0.3-3.7-0.4-5.5
		c-0.2-4.4,0-8.8,0.4-13.2c0.1-0.9,0.2-1.7,0.3-2.6c0.1-0.4,0.1-1.1,0.2-1.3c0.4-2.2,0.8-4.4,1.2-6.5c1-4.9,2.4-9.8,3.9-14.6
		c1.3-4.3,2.8-8.6,4.4-12.8c0.8-2.2,1.7-4.4,2.6-6.6c-0.3,0.6-0.9,2,0.3-0.8c0.5-1.2,1-2.4,1.6-3.6c3.7-8.2,7.8-16.3,12.1-24.3
		c8.1-14.9,17.1-29.3,25.7-43.9c4.7-8,9.6-16.3,13.9-24.9c0.9,1.8,1.8,3.6,2.8,5.4c15.8,29.8,35.3,57.4,49.1,88.3
		c3.3,7.5,6.2,15.2,8.6,23c1.4,4.5,2.7,9.1,3.7,13.8c0.5,2.2,0.9,4.4,1.3,6.5c0.1,0.4,0.4,2.7,0.4,2.4c0.1,1,0.2,2,0.3,3
		c0.4,4.1,0.5,8.3,0.3,12.5c-0.1,1.8-0.2,3.7-0.4,5.5c0,0.6-0.4,3,0,0c-0.2,1.3-0.4,2.6-0.7,3.9c-0.7,3.4-1.5,6.7-2.6,10
		c-0.5,1.6-1.1,3.2-1.7,4.8c0,0.1-0.1,0.2-0.1,0.3c-0.4,1-0.9,2-1.4,3c-3,6.1-6.6,11.8-10.6,17.2c0.7-1-2,2.6-2.4,3
		c-1.1,1.3-2.2,2.6-3.3,3.8c-2.5,2.9-5.2,5.6-7.9,8.4c-11.2,11.3-24.3,20.9-33.3,34.2c-0.9,1.3-1.7,2.6-2.5,4
		C549.9,370.2,543.5,362.7,535.7,355.7z M570.9,456.3C570.8,455.5,570.7,454.1,570.9,456.3L570.9,456.3z M625.6,490.9
		c0,0-0.1,0.1-0.1,0.1C625.5,491,625.5,491,625.6,490.9z"/>
	<path d="M1719.2,449.7c0.1,0.1,0.3,0.1,0.4,0.2C1719.4,449.8,1719.3,449.7,1719.2,449.7C1719.2,449.7,1719.2,449.7,1719.2,449.7z"
		/>
	<path d="M1711,419.1c-7.8,0.7-15.4,6.4-15,15c0.3,7.6,6.6,15.7,15,15l-0.1,0c1.7-0.1,4,0.3,5.6-0.1c0.7,0.2,1.5,0.4,2.2,0.5
		c0.1,0,0.3,0.1,0.4,0.1c-0.3-0.1-0.6-0.3-1.1-0.5c0.4,0.2,0.7,0.4,1.1,0.6c0.6,0.2,1.1,0.5,0.3,0.2c0.1,0.1,0.3,0.1,0.4,0.2
		c0.6,0.3,1,0.7,1.6,0.9c0,0.1,0.1,0.1,0.1,0.2c0.8,1,2.9,4,0.9,0.6c0.7,1.1,1.5,2.2,2.2,3.3c0.3,0.7,0.7,1.4,1.1,2.1
		c0.5,1.4,1,2.8,1.4,4.3c0.4,1.3,0.7,2.7,0.9,4c0.1,0.7,0.2,1.4,0.4,2.1c0.3,2.7,0.4,5.4,0.4,8.2c0,0.6,0,1.2,0,1.9
		c-0.4-2.9-2.5-5.4-5.5-6.1c-4-1-7.9,1.4-8.9,5.4s1.4,7.9,5.4,8.9c3.6,0.9,7.4-1.1,8.7-4.6c-0.2,0.6-1.2,3.5-1.1,3.6
		c-0.6,1.1-1.1,2.2-1.8,3.2c-0.2,0.3-0.6,0.9-0.9,1.2c-0.2,0.3-0.4,0.5-0.7,0.8c-0.9,1-2,1.9-3,2.8c1.5-1.3-1.6,1-2.4,1.5
		c-0.9,0.5-1.9,1-2.8,1.5c-0.1,0.1-0.2,0.1-0.2,0.1c-0.1,0-0.3,0.1-0.4,0.1c-2,0.6-3.9,1.2-6,1.7c-0.2,0-0.9,0.2-1.5,0.3
		c-0.9,0.1-2.9,0.2-2.7,0.2c-2,0.1-4,0.1-6,0c-0.4,0-0.9-0.1-1.3-0.1c-0.1-0.1-2.1-0.4-2.4-0.5c-1.5-0.4-3-0.9-4.5-1.4
		c3.4,1.1-0.4-0.3-1.4-0.9c0,0-0.1-0.1-0.2-0.2c1.9,0.8,4.2,0.2,5.4-1.6c1.5-2.1,1-4.9-1.1-6.3c-2.1-1.5-4.9-1-6.3,1.1
		c-1.3,1.9-1.1,4.4,0.6,5.9c0,0,0,0,0,0c-1.2-1.1-2.2-2.4-3.3-3.5c-0.4-0.7-0.8-1.4-1.3-2c-0.7-1.2-1.4-2.5-2-3.8
		c-0.1-0.3-0.2-0.5-0.4-0.8c-0.1-0.2-0.2-0.5-0.3-0.7c-0.6-1.8-1.2-3.5-1.7-5.3c-1-3.7-1.7-7.4-2.4-11.1c0-0.1,0-0.1,0-0.2
		c-0.1-0.9-0.2-1.7-0.3-2.6c-0.2-1.9-0.4-3.7-0.5-5.6c-0.5-7.3-0.3-14.8-0.4-22.1c0-0.8-0.1-1.7-0.2-2.5c-1-26.6-8.6-54.2-27.9-73.1
		c-10.9-10.7-22.8-20.3-32.9-31.8c-1-1.2-2-2.3-3-3.5c-0.4-0.5-2.9-3.7-2.7-3.4c-2.1-2.8-4.1-5.7-6-8.7c-1.9-3-3.7-6.1-5.3-9.3
		c-0.8-1.6-1.6-3.3-2.4-5c-0.1-0.3-0.4-0.9-0.6-1.4c-0.3-0.9-0.7-1.7-1-2.6c-7-18.7-8.3-33.1-7.9-52.7c0.1-4.2,0.4-8.3,0.8-12.5
		c0.3-3,0.1-0.6,0,0c0.2-1.1,0.3-2.2,0.5-3.3c0.4-2.3,0.9-4.7,1.4-7c0.8-3.7,1.8-7.3,3-10.9c0.6-1.7,1.2-3.5,1.8-5.2
		c0.3-1,0.7-1.9,1.1-2.8c0.1-0.2,0.1-0.4,0.2-0.5c0-0.1,0.1-0.2,0.2-0.3c3-6.7,6.5-13.3,10.4-19.5c1.8-2.9,3.7-5.7,5.7-8.5
		c1-1.4,2-2.7,3-4.1l1.7-2.2c-0.2,0.2-0.3,0.4-0.4,0.6c0.2-0.3,0.5-0.7,0.8-1c8.3-10.4,17.4-20.2,26.3-30c14.3-15.9,30-33.7,33-55.5
		c0.4-1.3,0.6-2.6,0.6-4.1c0-3.5,0.1-7,0.3-10.5c0.1-1.5,0.2-2.9,0.3-4.4c0.1-0.8,0.2-1.5,0.3-2.3c0-0.1,0-0.2,0.1-0.4
		c0.6-2.9,1.2-6,2-9c0.4-1.2,0.9-2.3,1.2-3.5c0.3-0.6,0.6-1.3,0.9-1.9c0.6-1.2,1.4-2.3,2-3.4c-0.1,0.2-0.3,0.3-0.5,0.5
		c0.2-0.2,0.4-0.4,0.5-0.6c0,0,0,0,0,0c0.3-0.5,0.8-1,0.8-0.9c0.7-0.8,1.6-1.5,2.3-2.2c0.6-0.4,1.1-0.8,1.7-1.1c1-0.6,4.7-2,1.2-0.8
		c1.3-0.4,2.5-0.9,3.8-1.2c0.4-0.1,2.4-0.5,3.3-0.8c0.5-0.1,1.1-0.2,1.3-0.2c1.1-0.1,2.3-0.2,3.4-0.2c2-0.1,4.1,0,6.1,0.1
		c0.2,0,0.6,0.1,1,0.1c0.5,0.1,1.1,0.2,1.6,0.3c1.8,0.4,3.6,0.9,5.4,1.4c0.2,0.1,0.8,0.3,1.2,0.5c0.6,0.3,1.8,0.9,1.8,0.9
		c1.5,0.8,2.8,1.7,4.2,2.6c-2.3-1.5,0.2,0.2,1.1,1.1c0.3,0.3,1.7,1.8,2.3,2.5c0.5,0.8,1.7,2.7,2,3.2c0.2,0.5,0.4,0.9,0.6,1.2
		c0,0.1,0,0.2,0.1,0.3c0.2,1.3,0.6,2.6,1,3.8c0,0,0,0.1,0,0.1c0,0.4,0.1,0.7,0.1,1.1c0.1,1.3,0.1,2.7,0.1,4c0,2.4-0.2,4.8-0.4,7.3
		c0,0.1,0,0.1,0,0.2c0,0.1,0,0.2-0.1,0.3c-0.3,1.7-0.7,3.4-1.1,5c-0.3,1.3-0.8,2.6-1.2,3.9c-0.2,0.6-0.5,1.3-0.7,1.9
		c1.4-3.8,0.2-0.7-0.2,0.1c-0.6,1.1-1.2,2.1-1.9,3.1c-0.4,0.5-0.9,1-1.3,1.4c-0.1,0.1-0.2,0.2-0.3,0.3c-0.3,0.3-0.8,0.6-0.9,0.7
		c-0.4,0.3-1,0.6-1.5,0.9c-0.7,0.1-1.4,0.3-2.1,0.6c-0.1,0-0.2,0.1-0.3,0.1c-2,0.1-3.9,0.1-5.9-0.1c-7.8-0.7-15.3,7.4-15,15
		c0.4,8.7,6.6,14.3,15,15l0,0.1c20,1.7,35.6-10.2,42.9-28.1c5.4-13.2,7.2-30.9,2.7-44.7c-6.2-19.2-23.4-32.4-43.2-35.4
		c-18.6-2.8-40.1,0.6-52.7,15.9c-0.7,0.9-1.4,1.8-2.1,2.7c-0.9-1.1-1.9-2.2-2.9-3.2c-7-7-15.8-12.1-25.3-14.7
		c-11.7-3.2-23.7-1-34.4,4.5c-15.7,8.1-29.4,23.6-33.2,41.1c-3.5,16-1.4,33.7,9.8,46.3c5.9,6.4,13.7,10.7,22.3,12.4
		c7.7,1.5,16.6-2.2,18.4-10.5c1.7-7.5-2.2-16.8-10.5-18.5c-1.6-0.3-3.2-1-4.8-1.3c-0.5-0.3-1-0.6-1.6-0.9c-0.1,0-0.1-0.1-0.2-0.1
		c-0.4-0.3-1-0.8-1.1-0.9c-0.3-0.3-0.6-0.7-0.9-1c0.7,0.9,0.9,1.5-0.1-0.1c-0.1-0.1-0.2-0.2-0.3-0.4c0.1,0.1,0.2,0.2,0.3,0.3
		c0,0,0,0,0,0c-0.5-0.8-0.9-1.6-1.4-2.4c0,0-0.6-1.3-0.9-2.4c-0.2-0.6-0.5-1.5-0.7-2.3c0-0.1,0-0.3,0-0.5c0-1-0.1-2-0.2-3
		c0-1.3,0.1-2.7,0.1-4c0-0.3,0-0.5,0-0.8c0-0.1,0-0.1,0-0.2c0.7-2.8,1.4-5.5,2.2-8.2c0.1-0.2,0.2-0.4,0.3-0.6c0.6-1,1.3-2.1,1.9-3.1
		c0.5-0.6,1.1-1.3,1.6-1.9c1.8-2.1,3.8-4,5.8-5.9c2.7-2.3,5.6-4.2,8.8-5.8c-0.5,0.3,3.4-1.1,3.9-1.2c0.2-0.1,0.8-0.2,1.2-0.2
		c1.2-0.1,2.3-0.1,3.5,0c-0.6,0-2.7-0.7,0.4,0.1c0.9,0.2,1.9,0.5,2.8,0.8c0.5,0.2,1,0.3,1.5,0.5c-0.5-0.2,0,0,0.5,0.2
		c0.2,0.1,0.3,0.1,0.5,0.2c-0.2-0.1-0.3-0.1-0.5-0.2c0.2,0.1,0.4,0.1,0.5,0.2c1.5,0.8,3,1.6,4.5,2.5c0.3,0.2,0.7,0.4,1,0.7
		c0.1,0.1,1.5,1.3,1.9,1.6c1.2,1.1,2.2,2.3,3.2,3.5c0,0,0.1,0.1,0.1,0.1c0.6,0.9,1.2,1.7,1.7,2.7c0.9,1.5,1.6,3,2.4,4.5
		c0.5,1.2,0.9,2.5,1.3,3.8c0.5,1.7,1,3.5,1.4,5.2c0.1,0.6,0.9,5.1,0.8,4.3c0.4,3.6,0.6,7.2,0.5,10.8c0,0.6-0.3,1.8-0.3,2.5
		c-0.5,2.2-1.1,4.3-1.9,6.4c0,0,0,0.1,0,0.1c-0.5,0.9-0.9,2-1.4,2.9c-1.1,2.1-2.4,4.2-3.7,6.2c-1.3,2-2.7,4-4.1,5.9
		c-0.1,0.1-0.2,0.2-0.2,0.3c0,0-0.1,0.1-0.1,0.1c-1,1.2-1.9,2.3-2.8,3.5c-3.5,4.2-7.1,8.2-10.7,12.2c-17.4,19.2-35.3,38.5-47.3,61.6
		c-16.2,31.1-20,65.3-15,99.8c4.5,30.9,19.7,57.8,41,80.1c9.7,10.2,21.3,18.6,30.6,29.2c0.5,0.6,1,1.2,1.5,1.7
		c0.1,0.1,0.1,0.2,0.2,0.4c1.1,1.6,2.2,3.2,3.2,4.9c0.9,1.5,1.7,3,2.5,4.5c0.4,0.8,0.7,1.5,1.1,2.3c0.1,0.2,0.2,0.4,0.3,0.6
		c0.1,0.1,0.1,0.3,0.2,0.5c2.4,6.5,4.3,13.2,5.5,20.1c0.2,0.9,0.5,3.1,0.5,3.1c0.1,1.2,0.3,2.3,0.4,3.5c0.3,3,0.5,6,0.6,9.1
		c0.1,4.4,0.1,8.9-0.2,13.3c-0.1,1.2-0.1,2.3-0.2,3.5c0,0.5-0.1,1-0.1,1.5c0.1-0.6,0,0.3-0.1,0.9c0,0.2,0,0.4-0.1,0.6
		c0-0.2,0-0.4,0-0.5c0,0.1,0,0.2,0,0.2c-0.3,1.2-0.5,2.5-0.8,3.8c-0.8,3.2-1.8,6.3-3,9.4c0.1-0.4-1.7,3.4-1.9,4
		c-1,1.8-2,3.6-3.1,5.4c-0.6,1-1.2,1.9-1.9,2.9c-0.1,0.1-0.5,0.7-0.8,1.1c-0.3,0.4-0.9,1.1-1,1.3c-0.6,0.7-1.2,1.3-1.8,2
		c-1.4,1.5-2.8,2.9-4.3,4.2c-0.4,0.4-0.8,0.7-1.3,1.1c-0.3,0.2-1.4,1-1.9,1.4c-1.4,0.9-2.9,1.7-4.4,2.6c-0.1,0.1-0.2,0.1-0.4,0.2
		c-0.6,0.2-1.2,0.5-1.8,0.7c-1.4,0.4-2.7,0.7-4.1,1c1.8-0.4,0.8-0.1,0,0c-0.2,0-0.4,0.1-0.6,0.1c0.2-0.1,0.4-0.1,0.6-0.1
		c-0.1,0-0.2,0-0.3,0c-1.4,0-2.8,0-4.2,0c-1,0-2-0.1-3.1-0.2c-0.3,0-0.6-0.1-0.8-0.1c-1.8-0.3-3.6-0.8-5.4-1.3c0,0-1.4-0.5-2.1-0.7
		c-0.2-0.1-0.4-0.2-0.5-0.3c-1.1-0.6-2.1-1.2-3.1-1.9c1.2,0.7-1.5-1.2-2.2-1.9c-0.3-0.3-0.6-0.6-0.9-1c-0.6-0.9-1.2-1.8-1.7-2.7
		c-0.3-0.5-1.1-2.4-1.3-2.6c-0.1-0.3-0.2-0.6-0.2-0.7c-0.2-0.7-0.4-1.2-0.5-1.8c-0.1-0.3-0.1-0.5-0.1-0.8c0-0.1,0-0.3-0.1-0.4
		c-0.2-3.6,0.3-7.2,0.4-10.7c0-0.1,0-0.1,0-0.2c0-0.5,0-1,0-1.5c0,0.4,0,0.7,0,1c0-0.5,0.1-1,0.2-1.5c0.2-1.1,0.5-2.2,0.8-3.3
		c0.2-0.9,0.5-1.7,0.8-2.5c-0.1,0-0.1,0.1-0.2,0.1c0.2-0.3,0.3-0.6,0.4-0.9c0-0.1,0.1-0.2,0.1-0.3c0.2-0.7,0.3-0.8,0.3-0.6
		c0,0,0-0.1,0.1-0.1c0.6-1.2,1.2-2.2,1.9-3.3c0.1-0.1,0.2-0.2,0.2-0.4c0,0,0,0,0,0c0.8-0.8,1.7-1.6,2.4-2.4c0,0,0,0,0,0
		c0.5-0.3,1.1-0.6,1.2-0.7c0.2-0.1,0.4-0.3,0.7-0.4c1.2-0.2,2.5-0.7,3.7-1c0.5,0,1-0.1,1.5-0.1c2-0.1,4.1,0,6.1,0.2
		c7.8,0.7,15.3-7.4,15-15c-0.4-8.7-6.6-14.2-15-15l0.2,0.1c-16.9-1.5-32.6,5.4-41.9,19.6c-3.1,4.7-5.3,10.2-6.8,15.8
		c-0.3-1.9-0.7-3.8-1.2-5.6c-5.7-21.5-24.3-33.9-46.3-32.9c-7.8,0.3-15.4,6.7-15,15c0.3,7.8,6.6,15.4,15,15c2.1-0.1,4.2,0,6.2,0
		c0.1,0,0.1,0,0.1,0c0.1,0,0.2,0.1,0.3,0.1c0.7,0.2,1.3,0.3,2,0.5c0.5,0.1,1.1,0.2,1.6,0.4c0.1,0,0.1,0.1,0.2,0.1
		c0.7,0.5,1.4,0.9,2.2,1.3c0.4,0.3,1.1,0.9,1.7,1.5c0.1,0.2,0.2,0.4,0.4,0.7c0.2,0.5,0.6,0.9,0.8,1.3c0.1,0.2,0.3,0.5,0.4,0.7
		c0-0.1,0-0.1,0.1-0.2c0,0,0,0.2,0.1,0.5c0.2,0.3,0.3,0.6,0.5,0.9c0.4,0.8,0.2,0.7-0.1,0.4c0.4,1,0.8,2.2,0.9,2.4
		c0.3,1.2,0.5,2.3,0.8,3.5c0.2,2,0.3,4.1,0.3,6.1c0,1.5-0.1,3-0.2,4.4c0,0.6,0,1.2-0.1,1.8c0.1-0.6,0.2-0.3-0.1,1.4c0,0,0,0,0,0
		c0,0.3-0.1,0.6-0.1,0.9c0-0.3,0-0.5,0-0.8c-0.4,1.9-0.9,3.8-1.5,5.7c-0.1,0.2-0.1,0.4-0.2,0.5c-0.7,0.9-1.2,2.7-1.8,3.7
		c-0.1,0.1-0.7,1.4-1.3,2.3c-0.1,0.1-0.3,0.3-0.5,0.5c-0.4,0.4-0.8,0.8-1.1,1.2c-0.5,0.6-1.4,1.6-2.2,2.3c-0.3,0.1-0.6,0.2-0.9,0.4
		c-0.8,0.5-1.6,1-2.5,1.5c-0.7,0.4-1.4,0.6-2,1c0,0-0.1,0-0.1,0c-1.8,0.5-3.6,1.2-5.5,1.6c-1,0.2-2,0.3-2.9,0.6c-0.2,0-0.4,0-0.6,0
		c-2.6,0.1-5.2,0.3-7.8,0.2c-0.7,0-1.4-0.1-2.1-0.1c-1.5-0.4-3.1-0.6-4.6-1.1c-0.6-0.2-1.2-0.4-1.7-0.6c-0.6-0.2-0.9-0.2-1.1-0.3
		c-1.1-0.6-2.5-1.7-3-2c-0.2-0.1-0.4-0.2-0.5-0.3c-0.1-0.1-0.2-0.2-0.4-0.4c-1-1-2-1.8-2.9-2.8c-0.3-0.3-0.6-0.7-0.8-1
		c-0.7-1.2-1.6-2.4-2.3-3.6c-0.8-1.3-1.3-2.4-1.9-3.7c-0.1-0.1-0.1-0.2-0.2-0.3c0-0.1-0.1-0.2-0.1-0.3c-1.1-2.9-2-5.9-2.7-8.9
		c-0.6-2.6-1.1-5.3-1.5-8c0-0.4-0.1-0.9-0.2-1.3c-0.2-1.6-0.3-3.2-0.4-4.9c-0.6-8.7-0.4-17.5,0.6-26.2c0.1-1.4,0.5-4.5,0.2-2.1
		c0.1-1.2,0.3-2.3,0.4-3.5c0-0.2,0.1-0.5,0.1-0.8c0.1-0.8,0.3-1.5,0.4-2.3c0.4-1.8,1-3.6,1.5-5.4c0.1-0.3,0.3-0.9,0.5-1.3
		c0.2-0.3,0.3-0.7,0.5-1c0.9-1.7,1.9-3.2,2.9-4.8c0-0.1,0.1-0.1,0.1-0.1c0,0,0,0,0,0c0.7-0.7,1.3-1.5,2-2.2c1.4-1.4,2.8-2.7,4.3-4
		c1-0.6,1.9-1.4,2.9-2c1.6-1.1,3.3-2,5-3s3.5-1.9,5.3-2.7c1-0.5,2-0.9,3-1.4c0.1,0,0.1-0.1,0.2-0.1c0.1,0,0.2-0.1,0.4-0.1
		c4.4-1.7,8.8-3.3,13.2-4.8c19-6.4,38.4-11.7,56.2-21.1c5.8-3.1,8.6-10.8,6.9-16.9c-1.9-6.9-7.8-10.2-14.5-11
		c-1-0.1-1.3-0.2-1.1-0.2c-1.7-0.3-3.4-0.6-5.1-0.9c-4.2-0.8-8.3-1.6-12.4-2.6c-10.2-2.4-20.3-5.5-30.2-9.1
		c-2.5-0.9-4.9-1.9-7.4-2.9c3.8,1.5-0.6-0.2-1.3-0.6c-1.5-0.7-2.9-1.3-4.4-2c-4.8-2.3-9.5-4.8-14-7.5c6.8-0.4,13.6-2.1,19.6-4.9
		c24.3-11.2,28.5-41.2,28.6-64.9c0.1-36.6,0.1-73.2,0.2-109.7c0-17.2,0.1-34.4,0.2-51.7c0.2-24-0.4-51.1-16.6-70.5
		c-13.5-16.2-36.9-17.1-55.9-12.3c-9.9,2.5-19.2,7.9-25.6,15.8c-1.7-2-3.7-3.9-5.8-5.7c-28.1-23.7-78.3-10.5-88.9,25.5
		c-3.5,12-1.9,27.1,1.8,38.9c4.2,13.7,13,26.7,26.2,33.1c8.1,3.9,17,5.9,26,5.9c7.8,0.1,15.4-7,15-15c-0.4-8.2-6.6-14.9-15-15l0,0
		c-1.6,0-3.1-0.1-4.7-0.2c0.8,0-1.7-0.3-2.6-0.5c-1.3-0.3-2.5-0.7-3.8-1.1c-0.7-0.4-1.5-0.7-2.2-1.2c-0.7-0.4-1.3-0.8-2-1.3
		c0.2,0.1-1.3-1.1-2-1.8c-0.2-0.2-1-1.1-1.5-1.7c-0.5-0.9-1.1-1.7-1.6-2.5c-0.5-0.9-1.1-2.1-1.7-3.1c-0.1-0.1-0.1-0.3-0.2-0.4
		c0-0.1,0-0.1-0.1-0.2c-0.8-2.5-1.7-5.1-2.2-7.7c-0.2-1.1-0.4-2.3-0.7-3.4c0-0.1,0-0.2-0.1-0.3c0-0.1,0-0.3,0-0.5
		c-0.2-2.3-0.3-4.6-0.4-7c0-1.2,0-2.3,0-3.5c0-0.3,0-0.6,0.1-1c0.4-1.1,0.6-2.3,0.9-3.4c0,0,0-0.1,0-0.1c0.3-0.7,0.7-1.3,1.1-2
		c0.4-0.7,1.6-2.3,1.4-2.2c0.8-0.9,1.7-1.9,2.6-2.7c0.5-0.5,1-0.9,1.5-1.3c1.7-1.1,3.3-2.1,5.1-3c0.2-0.1,1-0.5,1.3-0.6
		c0.3-0.1,0.7-0.2,1-0.3c1.6-0.6,3.3-1,5-1.4c0.9-0.2,1.8-0.4,2.7-0.5c0.3,0,0.6,0,1.1-0.1c2-0.1,4-0.2,6-0.1c0.6,0,1.2,0.1,1.8,0.1
		c0.1,0,0.3,0.1,0.5,0.1c1.3,0.5,2.6,0.8,4,1.1c0,0,0,0,0,0c0.3,0.2,0.7,0.3,1.1,0.5c0.7,0.3,1.3,0.7,1.9,1.1c0.1,0.1,0.6,0.4,1,0.7
		c0.5,0.5,1.6,1.4,2,1.7c1.1,1,2,2.2,2.9,3.3c-1.9-2.2-0.2-0.2,0.6,1c0.9,1.4,1.7,2.9,2.5,4.5c0.2,0.5,0.5,1,0.7,1.5
		c0.4,1.2,0.9,2.3,1.3,3.5c1,3,1.8,6.1,2.4,9.2c0.3,1.6,0.5,3.1,0.8,4.7c-0.5-3-0.1-0.2,0.1,1.3c0.3,3,0.4,6,0.4,9c0,4.5,0,9,0,13.4
		c0,7.4,0,14.9,0,22.3c-0.1,0.5-0.1,1-0.1,1.6c-0.3,32.5-0.5,64.9-0.2,97.4c-0.1,20.5-0.1,41-0.2,61.5l0,0c0,0,0,0.1,0,0.1
		c-0.1,21.6-0.1,43.3-0.1,64.9c0,29.2,0.1,58.4,0.2,87.6c0.1,12.8,0.2,25.6,0.3,38.4c0,3.2,0.1,6.5,0,9.7c-0.1,1.8-0.2,3.5-0.4,5.3
		c0-0.5-0.5,3-0.7,3.6c-0.4,1.6-0.8,3.2-1.3,4.8c-0.2,0.4-0.3,0.9-0.5,1.4c-0.6,1-1.1,2.1-1.7,3.1c-0.3,0.5-0.7,1-1,1.5
		c-0.8,0.7-1.5,1.5-2.2,2.3c-0.3,0.3-0.6,0.5-0.9,0.8c-0.8,0.5-1.6,1-2.4,1.5c-0.5,0.3-1.1,0.5-1.6,0.8c-0.4,0.2-0.6,0.4-0.8,0.6
		c-1.5,0.6-3.6,0.9-4.8,1.1c-1,0.2-1.9,0.4-2.9,0.6c-0.5,0.1-1.3,0.2-1.6,0.2c-2.4,0.2-4.8,0.3-7.2,0.4c-1.4,0-2.8,0-4.2-0.1
		c-0.1,0-0.2,0-0.3-0.1c-1.1-0.3-2.2-0.5-3.4-0.9c-0.6-0.2-1.2-0.4-1.9-0.6c-0.1-0.1-0.3-0.1-0.4-0.2c-1.6-0.9-3.2-1.8-4.7-2.7
		c0,0-0.3-0.2-0.5-0.4c-0.4-0.3-1.1-0.9-1.3-1.1c-1.3-1.2-2.6-2.5-3.8-3.8c-0.1-0.2-0.7-0.8-1-1.2c-0.3-0.4-0.5-0.8-0.6-0.9
		c-0.8-1.3-1.5-2.6-2.2-3.8c-0.1-0.1-0.1-0.3-0.2-0.4c0.1,0.2,0.1,0.4,0.2,0.7c-0.2-0.6-0.4-1.1-0.6-1.7c-0.2-0.8-0.4-1.5-0.6-2.3
		c0-0.2-0.1-0.3-0.1-0.5c-0.1-4.7,0-9.4,0.4-14c0-0.2,0-0.3,0-0.5c0-0.1,0-0.2,0.1-0.3c0.2-1.1,0.4-2.2,0.7-3.3s0.5-2.1,0.9-3.2
		c0.1-0.5,0.3-0.9,0.5-1.4c0.5-0.8,1-1.7,1.4-2.6c0.1-0.2,0.2-0.4,0.3-0.6c0,0,0,0,0,0c0.7-0.5,1.3-1.1,1.9-1.8
		c0.7-0.3,1.3-0.7,1.9-1.2c0.1-0.1,0.2-0.1,0.3-0.2c0.2,0,0.4-0.1,0.6-0.2c1.3-0.4,2.7-0.7,4-1.1c0.2,0,0.3-0.1,0.4-0.1
		c0.7-0.1,1.4-0.1,2.2-0.2c2-0.1,4-0.1,6.1,0c7.8,0.2,15.4-7.1,15-15c-0.2-8.2-6.8-14.8-15-15c-16.9-0.5-33.4,4.7-43.1,19.3
		c-7.1,10.8-8.4,24.5-8.6,37.1c-0.3,18.1,9.6,33.7,24,44.1c14,10.1,30.7,11,47.1,8.4c13.8-2.2,26-9.2,34.1-20.7
		c2.2-3.1,3.9-6.4,5.3-9.8c0.7,1.5,1.4,2.9,2.2,4.3c8.8,15.7,23.8,24.9,41.4,26.9c18.7,2.1,39.9-3.6,52.1-18.5
		c5.5-6.6,9.1-14.2,11.2-22.3c1.7,8.1,5.4,15.8,10.8,22.2c12.2,14.6,34.5,19.9,52.6,16.2c14.6-2.9,27-12.7,36.2-24.5
		c6.2,12,16,21.3,31.4,25.1c21,5.1,46.3-0.8,60.2-18c12-15,13.4-34.2,9.2-52.5C1751.8,434.1,1734.5,417.1,1711,419.1z M1716.8,82.1
		C1715.5,82.4,1715.6,82.2,1716.8,82.1L1716.8,82.1z M1636.8,43.1C1635.4,41.4,1636.3,42.5,1636.8,43.1L1636.8,43.1z M1592.2,454
		c-0.3,0.3-0.5,0.5-0.5,0.5C1591.7,454.4,1592,454.2,1592.2,454z M1590.9,455.3c0,0,0.1-0.1,0.1-0.1
		C1591,455.2,1591,455.3,1590.9,455.3z M1525.2,453.9c0,0-0.3-0.4-0.5-0.9C1525,453.5,1525.3,453.8,1525.2,453.9z M1385.2,84
		C1383.2,83.4,1384.4,83.8,1385.2,84L1385.2,84z M1392.9,30.8C1392.7,30.8,1392.6,30.8,1392.9,30.8L1392.9,30.8z M1373.6,452.5
		c0.1-0.1,0.1-0.2,0.2-0.3C1373.9,452.2,1373.8,452.4,1373.6,452.5z M1368.9,478.8C1368.6,477.7,1368.8,477.7,1368.9,478.8
		L1368.9,478.8z M1384.8,497.2C1386.5,497.8,1385.5,497.5,1384.8,497.2L1384.8,497.2z M1390.3,498.7
		C1391,498.7,1392.6,499.2,1390.3,498.7L1390.3,498.7z M1471.9,426.4C1472,425.6,1472.2,424.9,1471.9,426.4L1471.9,426.4z
		 M1546.5,348.6c-0.4,0.2-0.8,0.3-1.1,0.5c0,0,0,0,0,0C1546.8,348.5,1546.9,348.4,1546.5,348.6z M1497.6,281.7
		C1497.6,281.7,1497.6,281.7,1497.6,281.7C1497.6,281.7,1497.6,281.7,1497.6,281.7z M1454.4,78.6c0.1-5.3,0.2-10.7,0.3-16
		c0.1-2.5,0.2-5,0.4-7.4c0.1-1.2,0.2-2.4,0.3-3.6c0-0.2,0-0.3,0-0.4c0-0.2,0.1-0.4,0.1-0.6c0.4-2.2,0.9-4.4,1.5-6.6
		c0.3-0.9,0.7-1.9,0.9-2.8c0.2-0.4,0.4-0.8,0.6-1.2c0.3-0.6,0.9-1.5,1.4-2.3c0.1-0.1,0.2-0.3,0.2-0.4c0,0,0.1-0.1,0.2-0.1
		c0.7-0.6,1.3-1.2,1.9-1.9c0,0,0.1-0.1,0.1-0.1c0.3-0.2,0.7-0.5,1-0.7c1-0.6,2-1.1,3.1-1.7c0.1,0,0.1-0.1,0.2-0.1
		c0.2-0.1,0.4-0.1,0.7-0.2c2.6-0.8,5.3-1.5,8-1.9c0,0.1,2.7-0.2,3.3-0.3c1.8-0.1,3.7-0.2,5.5-0.2c1.1,0,2.2,0.1,3.3,0.1
		c-0.4-0.1-0.8-0.1-1.1-0.2c0.4,0.1,0.9,0.2,1.3,0.3c0.1,0,0.2,0,0.3,0c1.6,0.1,1,0.1,0,0c0.1,0,0.1,0,0.2,0c1.2,0.3,2.3,0.6,3.5,1
		c0.4,0.2,0.8,0.4,1.2,0.6c0.5,0.3,0.9,0.6,1.4,0.9c0.9,1,1.8,2,2.8,2.9c0,0,0,0.1,0.1,0.1c0.6,0.9,1.2,1.8,1.7,2.8
		c0.5,0.9,0.8,1.8,1.3,2.6c0.1,0.2,0.2,0.4,0.2,0.6c0.9,2.5,1.7,5.1,2.3,7.7c0.7,2.8,1.2,5.6,1.6,8.4c0,0.1,0,0.2,0,0.4
		c0.1,0.7,0.2,1.5,0.2,2.2c0.2,2,0.4,4.1,0.5,6.1c0.3,5.4,0.3,10.9,0.3,16.3c-0.1,14.6-0.1,29.2-0.2,43.8
		c-0.1,37.4-0.2,74.9-0.2,112.3c0,4.5,0.1,8.9-0.1,13.4c-0.1,3.6-0.3,7.3-0.8,10.9c0,0.2,0,0.4-0.1,0.5c-0.1,0.6-0.2,1.1-0.3,1.7
		c-0.3,1.7-0.7,3.3-1.1,4.9s-0.8,3-1.3,4.5c-0.1,0.4-0.3,0.8-0.4,1.1c0.1-0.2,0.2-0.4,0.3-0.7c-0.4,0.8-1.6,3.9-2.7,5.6
		c0-0.2-0.2-0.1-1,0.8c-0.7,0.7-1.4,1.3-2.1,2c-1,0.5-2,1-2.9,1.6c-0.9,0.3-1.8,0.6-2.7,0.8c-0.9,0.2-1.9,0.4-2.8,0.6
		c-0.1,0-0.2,0-0.4,0c-2.5,0.1-4.9,0-7.3-0.1c2.9,0.1,0.2,0-1.3-0.4c-0.5-0.1-2.1-0.7-2.9-0.9c-0.7-0.3-1.9-0.9-2.2-1.1
		c-0.3-0.2-1.3-0.9-2-1.3c-0.6-0.5-1.6-1.3-1.9-1.6c-1.1-1-2-2.1-3-3.1c-0.2-0.2-0.3-0.3-0.3-0.3c-0.1-0.1-0.2-0.3-0.3-0.5
		c-0.7-1.1-1.4-2.1-2.1-3.2c-1.4-2.3-2.4-4.7-3.6-7c-0.1-0.4-0.3-0.8-0.5-1.2c-0.4-1.2-0.8-2.3-1.2-3.5c-0.8-2.4-1.4-4.9-2-7.4
		c-0.2-1.1-0.5-2.2-0.7-3.3c0-0.1,0-0.1,0-0.2c0.5-1.1-0.5-5.3-0.5-6.4c-0.2-4.7-0.2-9.4-0.3-14.1c-0.1-7.5-0.2-14.9-0.3-22.4
		c0-13.2,0.1-26.3,0.1-39.5c0.1-26.5,0.2-53.1,0.2-79.6c0-3,0-6-0.1-9.1c0.1-0.5,0.1-1.1,0.1-1.6L1454.4,78.6z M1457.1,389.8
		c-1.1,1.3-2.2,2.6-3.2,4c0-8.2,0-16.5-0.1-24.7c0-13.1,0-26.2,0-39.3c16.3,14,37.3,24,57.8,30.9c-2.2,0.7-4.4,1.4-6.6,2.2
		C1487.8,368.7,1469.3,375.9,1457.1,389.8z M1522.5,490.3c0,0,0.3-0.3,0.6-0.6C1522.8,490,1522.6,490.3,1522.5,490.3z M1604.5,496.6
		C1605,496.7,1604.8,496.7,1604.5,496.6L1604.5,496.6z M1617.3,495.3C1616.8,495.5,1616.4,495.6,1617.3,495.3L1617.3,495.3z
		 M1676.3,466.8C1676.2,466,1676.1,464.6,1676.3,466.8L1676.3,466.8z M1680.5,483.6c-0.1-0.2-0.2-0.5-0.3-0.7
		C1680.3,483.2,1680.4,483.4,1680.5,483.6z M1680.7,484.2C1681.1,484.9,1680.9,484.6,1680.7,484.2L1680.7,484.2z"/>
	<path d="M1682.4,40.4C1682.4,40.5,1682.4,40.5,1682.4,40.4c0.6-0.6,0.8-0.9,0.8-0.9c0,0,0,0,0,0
		C1682.9,39.8,1682.7,40.1,1682.4,40.4z"/>
	<path d="M1625.2,34.4c0.1,0,0.3,0.1,0.6,0.2c0,0,0,0,0,0C1625.6,34.5,1625.4,34.5,1625.2,34.4z"/>
	<path d="M1611.7,496.8C1611.7,496.8,1611.7,496.8,1611.7,496.8C1611.7,496.8,1611.7,496.8,1611.7,496.8
		C1611.7,496.8,1611.7,496.8,1611.7,496.8z"/>
	<path d="M1585.6,469.7c0,0.8,0.1,0.9,0-0.6c0,0.2,0,0.3,0,0.4C1585.6,469.6,1585.6,469.7,1585.6,469.7z"/>
	<path d="M1594.2,75.7C1594.2,75.7,1594.2,75.7,1594.2,75.7C1594.1,75.7,1594.1,75.7,1594.2,75.7
		C1594.2,75.7,1594.2,75.7,1594.2,75.7z"/>
	<path d="M1587.4,461.8c0.4-0.3,0.7-1.4,0.7-1.7c-0.1,0.3-0.3,0.6-0.4,0.9C1587.5,461.3,1587.5,461.5,1587.4,461.8z"/>
	<path d="M1614.6,166.4C1614.2,167,1614.1,167.1,1614.6,166.4L1614.6,166.4z"/>
	<path d="M1644.4,454.7c0,0.2,0,0.5-0.1,1c0,0,0,0,0,0C1644.3,455.3,1644.3,455,1644.4,454.7z"/>
	<path d="M1145.1,487.2C1145.1,487.2,1145.1,487.3,1145.1,487.2c0.1-0.5-0.1-1.1-0.4-1.4C1144.9,486.3,1145.1,486.9,1145.1,487.2z"
		/>
	<path d="M1143.5,471.7c0.6-1.1,0.6-2,0.4-2.2C1143.8,470.3,1143.8,471.1,1143.5,471.7C1143.5,471.7,1143.5,471.7,1143.5,471.7z"/>
	<path d="M1188.5,388.5c0.4,0.5,0.6,0.8,0.6,0.9C1188.9,389.1,1188.7,388.8,1188.5,388.5C1188.5,388.5,1188.5,388.5,1188.5,388.5z"
		/>
	<path d="M1202,424.5c0,0.3,0.1,0.6,0.1,0.8C1202.1,425,1202.1,424.8,1202,424.5C1202,424.5,1202,424.5,1202,424.5z"/>
	<path d="M1271.2,35.7c-0.7-0.5-1.4-0.8,0.3,0.3c-0.1-0.1-0.1-0.1-0.2-0.2C1271.3,35.8,1271.2,35.7,1271.2,35.7z"/>
	<path d="M1291.6,486.1c-0.1,0.3-0.3,0.7-0.2,1c0,0,0,0,0,0C1291.4,486.8,1291.5,486.5,1291.6,486.1z"/>
	<path d="M1293.4,425.6c-6.7-2.5-14-3.4-21.1-2.6c-7.8,0.7-15.4,6.4-15,15c0.3,7.5,6.6,15.8,15,15l0,0.1c1.7-0.2,3.3-0.3,4.9-0.2
		c0.4,0,1.8,0.1,2.6,0.1c0.8,0.2,2.1,0.4,2.4,0.5c0.5,0.1,0.8,0.3,1.2,0.4c0,0,0,0,0.1,0.1c0.8,0.6,1.6,1.1,2.5,1.5
		c0.1,0.1,0.2,0.1,0.2,0.2c0.2,0.2,1.1,1.1,1.7,1.7c0.3,0.5,0.7,1,1,1.5c0.5,0.8,1,1.7,1.4,2.6c0.1,0.1,0.1,0.2,0.1,0.3
		c0,0,0,0,0,0.1c0.6,2.2,1.4,4.3,1.9,6.5c0,0.2,0.2,1,0.4,1.7c0,0.3,0,0.6,0.1,1.2c0.2,2,0.3,4,0.3,6c0,1.6-0.1,3.1-0.2,4.7
		c-0.1,0.3-0.1,0.6-0.2,0.9c-0.2,0.6-0.9,2.2-1.3,3.3c0.4-0.8,1-1.3-0.1,0.8c0,0.1-0.1,0.1-0.1,0.2c0,0.1,0,0.2,0,0.2
		c0-0.1,0-0.1,0-0.2c-0.6,1-1.1,2-1.7,3c0,0.1-0.1,0.1-0.1,0.2c-0.9,0.8-1.8,1.7-2.6,2.6c-0.1,0.1-0.2,0.2-0.3,0.3
		c-0.1,0-0.1,0.1-0.2,0.1c-1.3,0.8-2.8,1.5-4.2,2.3c-0.8,0.2-1.6,0.5-2.4,0.8c-1.6,0.5-3.1,0.8-4.7,1.1c-2.9,0.6-1.2,0.2-0.6,0.1
		c-1.1,0.1-2.2,0.2-3.3,0.2c-1.8,0.1-3.6,0-5.4-0.1c3.4,0-0.8-0.3-2.1-0.6s-4.9-2.2-2.2-0.7c-1.3-0.7-2.6-1.3-3.9-2.1
		c-0.6-0.4-4.2-3-3.2-2.2c-2.4-2-4.7-4.2-6.7-6.6c-0.4-0.5-2.3-2.9-2-2.4c-1-1.5-2.1-3-3-4.5c-1.7-2.7-3.2-5.5-4.5-8.4
		c0.3,0.7-1.1-2.9-1.3-3.4c-0.6-1.7-1.1-3.4-1.6-5.1c-0.4-1.7-0.7-3.3-1.1-5c0-0.1,0-0.1,0-0.2c0-0.4-0.1-0.9-0.1-1.3
		c-0.1-1.2-0.2-2.4-0.2-3.7c-0.1-1-0.1-2.1-0.2-3.1c0.3-4.6,0.3-9.2,0-13.8c0.1-3.1,0.4-6.2,0.7-9.2c0-0.4,0.1-0.9,0.2-1.3
		c0-0.1,0-0.2,0-0.3c0.2-1.3,0.4-2.7,0.7-4c0.6-3.2,1.3-6.3,2.2-9.4c0.9-3.1,1.9-6,3-8.9c1-2.7,0.2-0.5,0,0.1
		c0.4-0.8,0.7-1.5,1.1-2.3c0.7-1.5,1.5-3.1,2.4-4.6c0.8-1.5,1.8-3,2.7-4.4c0.5-0.7,1-1.4,1.5-2.1c0,0,0.1-0.1,0.1-0.1
		c2.3-2.7,4.8-5.3,7.5-7.7c5-4.5,10-9,14.9-13.7c10.2-9.8,19.7-20.4,27.3-32.3c17.7-27.4,20.4-59.8,12.4-90.9
		c-8.3-32.2-24.7-61.6-41.6-90c-7.4-12.3-14.9-24.6-21.7-37.3c-1.5-2.8-2.9-5.6-4.3-8.5c-0.7-1.5-1.4-3-2.1-4.5l-0.7-1.7
		c-0.1-0.1-0.1-0.2-0.1-0.3c-0.1-0.1-0.1-0.3-0.2-0.5c-2.2-5.4-3.9-11-5.2-16.7c-0.3-1.2-0.5-2.4-0.7-3.6c0-0.4-0.1-0.8-0.1-1.3
		c-0.3-3.2-0.3-6.4-0.1-9.5c0.1-1.6,0.2-3.2,0.4-4.8c0,0.2,0.4-2.5,0.6-3.1c0.7-3.5,1.7-7,3-10.3c0.4-0.8,0.8-1.5,1.2-2.3
		c0.7-1.3,1.4-2.6,2.3-3.8c0.3-0.5,0.6-0.9,1-1.4c0.2-0.2,0.3-0.4,0.5-0.5c1.3-1.3,2.6-2.7,4-3.9c0.1-0.1,0.2-0.2,0.3-0.3
		c0.4-0.3,0.8-0.5,1.2-0.8c1.4-0.9,2.9-1.7,4.5-2.5c0.1-0.1,0.4-0.2,0.6-0.3c0.4-0.2,0.9-0.3,1.3-0.5c1.7-0.6,3.5-1,5.3-1.4
		c1.3-0.3,5.4-0.5,1.3-0.4c1.2,0,2.3-0.2,3.5-0.2c0.7,0.1,1.3,0.1,2,0.1c0.1,0,0.1,0,0.2,0c0.7,0.2,1.4,0.5,1.9,0.8
		c0.6,0.4,1.2,0.8,1.9,1.1c0.3,0.2,0.6,0.4,1,0.6c0,0,0.1,0.1,0.1,0.1c0.1,0.1,0.2,0.2,0.4,0.3c-0.1,0-0.1-0.1-0.2-0.1c0,0,0,0,0,0
		c2.2,2,5.9,5.9,6.8,7c2.3,2.9,4.2,6,5.9,9.2c0,0.2,0.8,2,1,2.7c0.4,1.5,0.8,2.9,1,4.4c0,0.1,0.2,2.1,0.2,2.9c0,1.6-0.2,3.2-0.2,4.7
		c-0.1,0.6-0.2,1.2-0.4,1.8c-0.2,0.8-0.4,1.6-0.6,2.4c-0.1,0.2-0.3,1-0.5,1.6c-0.4,0.7-1.1,2.3-1.3,2.6c-0.5,0.9-2.9,3.6-1.5,2.2
		c-0.7,0.7-1.4,1.5-2.2,2.2c0.1-0.2-2,1.3-2.8,1.7c-7.1,3.8-9.4,13.7-5.4,20.5c4.2,7.2,13.4,9.2,20.5,5.4
		c16-8.6,24.5-26.7,24.3-44.4c-0.2-18.6-10-36.6-24.1-48.5c-13.3-11.2-29-13.4-45.4-8.3c-11.7,3.7-21.2,10.6-28.4,19.7
		c-1.7-2.2-3.5-4.2-5.5-6.2c-12.4-11.8-31-18.4-48-15.6c-16.7,2.8-31.1,18.3-38.4,32.8c-8.2,16.5-8.6,36.2,0.2,52.6
		c4.1,7.5,10.3,13.7,17.8,17.9c7.1,3.8,16.3,1.8,20.5-5.4c4-6.8,1.8-16.7-5.4-20.5c-0.6-0.3-2.7-1.8-2.8-1.8c-0.7-0.7-1.4-1.6-2.2-2
		c0,0-0.1,0-0.1,0c-0.4-0.6-0.8-1.1-1.1-1.7c-0.3-0.5-0.6-1-0.9-1.6c-0.4-0.8-1.3-3.9-0.5-0.8c-0.4-1.4-0.9-2.7-1.3-4.1
		c-0.3-1.2-0.6-3.7-0.5-2.4c-0.1-1.4-0.2-2.7-0.2-4.1c0-0.8,0.1-1.7,0.1-2.5c0-0.2,0-0.3,0-0.4c0,0,0,0,0,0c0.4-1.4,0.6-2.9,1-4.3
		c0.1-0.5,1.1-3.1,1.2-3.4c1.6-3.3,3.6-6.3,5.9-9.2c2-2.3,4.1-4.5,6.3-6.6c0.1-0.1,0.5-0.4,0.8-0.7c0.2-0.2,0.4-0.3,0.5-0.3
		c0.7-0.4,1.3-0.7,1.9-1.2c0,0,0.1-0.1,0.1-0.1c1.1-0.2,2.2-0.6,3.3-0.9c0.2,0,0.4,0,0.7,0c1.4,0,2.7,0.1,4,0.2
		c-3.5-0.2-0.3,0,1.3,0.4s3.1,0.8,4.6,1.2c0.8,0.2,1.5,0.5,2.3,0.8c0.1,0,0.2,0.1,0.3,0.1c1.3,0.7,2.7,1.4,3.9,2.2
		c0.7,0.4,1.4,0.9,2.1,1.4c0,0,0,0,0,0c0.1,0.1,0.2,0.2,0.4,0.4c1,1,2.1,2,3.1,3.1c0.1,0.1,0.6,0.6,0.9,1c0.3,0.3,0.5,0.7,0.6,0.9
		c0.8,1.2,1.6,2.5,2.3,3.8c0.4,0.8,0.8,1.5,1.2,2.3c0.1,0.2,0.2,0.3,0.3,0.5c0,0,0,0.1,0,0.1c1.2,3.1,2.2,6.4,2.9,9.6
		c0.1,0.5,0.6,3.7,0.7,3.8c0.2,1.6,0.3,3.2,0.4,4.8c0.2,3.2,0.1,6.4-0.1,9.5c0,0.4-0.1,0.7-0.1,1.1c-0.3,1.4-0.5,2.9-0.8,4.3
		c-1.3,5.8-3.4,11.1-5.3,16.7c0,0,0,0,0,0.1c-0.2,0.4-0.4,0.9-0.6,1.3c-0.7,1.5-1.4,3-2.1,4.5c-1.5,3.1-3,6.1-4.6,9.1
		c-3.4,6.4-7,12.6-10.6,18.8c-16.3,27.6-33.2,54.7-44.9,84.7c-11.8,30.4-17.7,64.7-5,95.8c10.9,26.6,31.4,46.4,52.4,65.3
		c2.5,2.3,4.8,4.7,7,7.2c0,0,0.1,0.1,0.1,0.2c0,0,0-0.1-0.1-0.1c0,0,0,0.1,0.1,0.1c0.3,0.4,0.8,1.2,0.6,0.9c0.1,0.2,0.3,0.4,0.4,0.6
		c1.1,1.6,2.1,3.3,3.1,5c0.8,1.5,1.6,3,2.4,4.6c0.3,0.6,0.5,1.2,0.8,1.7c0,0.1,0.1,0.1,0.1,0.2c1.2,3,2.2,6.1,3.1,9.2
		c0.8,2.9,1.5,5.9,2.1,8.9c0.3,1.5,0.5,3.1,0.8,4.6c0,0.1,0,0.2,0,0.3c0-0.3-0.1-0.5-0.1-0.9c0,0.3,0.1,0.6,0.1,0.9
		c0.1,0.7,0.2,1.5,0.1,0.7c0,0.2,0,0.4,0.1,0.5c0.6,5.3,0.9,10.5,0.9,15.8c0,3.5-0.1,7.1-0.3,10.6c-0.1,0.9-0.1,1.9-0.2,2.8
		c-0.1,0.7-0.1,1.3-0.2,1.9c0,0.1,0,0.2-0.1,0.3c-0.3,1.7-0.7,3.4-1.1,5s-1,3.4-1.6,5.1c-0.3,0.8-0.6,1.7-0.9,2.5
		c1.1-3.3-0.8-6.9-4.1-7.9c-3.3-1.1-6.9,0.8-7.9,4.1c-1.1,3.3,0.8,6.9,4.1,7.9c3,0.9,6.1-0.4,7.5-3.1c-0.2,0.5-0.4,1-0.5,1.1
		c-0.4,0.8-0.8,1.6-1.2,2.5c-1,1.8-2,3.6-3.1,5.4c-0.9,1.4-1.8,2.7-2.7,4c-0.1,0.1-0.1,0.2-0.2,0.3c-0.4,0.5-0.8,1-1.3,1.5
		c-1.2,1.4-2.4,2.7-3.7,3.9c-0.7,0.6-1.3,1.2-1.9,1.8c-0.1,0.1-0.6,0.5-1.1,0.9c1.5-1.6,1.7-4.2,0.3-6c-1.6-2-4.4-2.3-6.4-0.7
		c-2,1.6-2.3,4.4-0.7,6.4c1.4,1.8,3.9,2.2,5.8,1.1c-0.7,0.5-1.4,1-2.2,1.4c-1.2,0.7-2.4,1.4-3.7,2c1-0.5-1.5,0.6-2.4,0.9
		c-0.8,0.2-1.6,0.4-2.4,0.6c-0.3,0.1-0.5,0.1-0.7,0.2c-1.7,0.1-3.3,0.1-5,0.1c-0.8,0-1.7-0.1-2.5-0.2c-0.5,0-0.7,0-0.8,0
		c-1.6-0.2-3.1-0.6-4.6-1c-0.8-0.2-1.7-0.5-2.5-0.8c-0.1,0-0.3-0.1-0.4-0.1c-1.3-0.8-2.6-1.4-3.9-2.2c-0.2-0.1-0.4-0.2-0.6-0.3
		c0,0-0.1-0.1-0.1-0.1c-0.8-0.9-1.8-1.9-2.7-2.7c-0.1-0.1-0.2-0.2-0.3-0.2c-0.2-0.3-0.3-0.5-0.3-0.6c-0.5-0.8-1-1.7-1.5-2.5
		c0,0,0-0.1-0.1-0.1c0,0.1,0,0.1,0,0.2c0-0.1,0-0.2,0-0.3c-0.2-0.4-0.4-0.9-0.6-1.2c-0.5-0.9-0.1-0.8,0.2-0.2
		c-0.4-1-0.9-2.1-1.1-2.7c-0.1-0.3-0.1-0.5-0.1-0.8c-0.1-1.6-0.2-3.2-0.2-4.7c0-1.8,0.1-3.8,0.2-5.7c0,0,0-0.1,0-0.1
		c0,0,0,0.1-0.1,0.1c0,0,0-0.1,0.1-0.1c0-0.5,0.1-1,0.1-1.4c0-0.6,0.2-0.8,0.3-0.7c0-0.4,0.1-0.7,0.1-1c0.5-2.2,1.3-4.3,1.9-6.5
		c0.6-1.1,1.2-2.3,1.8-3.4c0.2-0.3,0.8-1.1,1.1-1.5c0.4-0.5,0.9-1,1.1-1.1c0.4-0.3,0.7-0.6,0.9-0.9c0.7-0.4,1.6-0.9,2.1-1.1
		c0.2-0.1,0.5-0.2,0.7-0.3c0.9-0.2,1.7-0.4,2.6-0.6c-0.3,0.1,1.8-0.2,3-0.2c1.6,0,3.3,0.1,4.9,0.2c7.8,0.7,15.3-7.4,15-15
		c-0.4-8.7-6.6-14.2-15-15l0.1-0.2c-16-1.5-30.8,4.6-40.4,17.5c-7,9.4-9.7,21.5-10.4,33c-1.4,25.1,13.9,47.9,39.4,52.9
		c19.7,3.9,37.2-0.8,52.1-14.2c4.9-4.4,9.4-9.7,13.2-15.4c8.7,13.6,21.1,24.4,36.7,29.1c27.6,8.3,62.8-8,67.2-38.1
		C1325.8,463.7,1318.1,435.2,1293.4,425.6z M1288.3,457.7c0.2,0.2,0.3,0.4,0.3,0.4C1288.6,458.1,1288.5,457.9,1288.3,457.7z
		 M1265.8,33c-0.6,0-1.2,0-1.1,0C1265,32.9,1265.4,32.9,1265.8,33z M1252.8,35.7C1253.4,35.4,1254,35.2,1252.8,35.7L1252.8,35.7z
		 M1252.8,35.7c-0.1,0.1-0.3,0.1-0.5,0.2C1252.4,35.8,1252.6,35.7,1252.8,35.7z M1169.9,33.4c0,0,0.1,0,0.1,0
		C1169.9,33.4,1169.8,33.4,1169.9,33.4z M1183.8,35.8C1183.2,35.5,1182.5,35.1,1183.8,35.8L1183.8,35.8z M1150.6,455.3
		c-0.4,0.4-0.8,0.7-0.8,0.6C1149.8,455.8,1150.2,455.6,1150.6,455.3z M1147.9,491.7c-0.2,0-0.6-0.6-0.8-1.1
		C1147.5,491.1,1148.1,491.8,1147.9,491.7z M1170.1,498.1C1169.3,498.2,1169.2,498.2,1170.1,498.1L1170.1,498.1z M1248.1,388.3
		C1247.7,388.8,1246.4,390.3,1248.1,388.3L1248.1,388.3z M1198.8,356.2c-5.6-5.1-11.2-10.2-16.5-15.6c-2.4-2.4-4.7-4.9-7-7.4
		c-1.1-1.3-2.2-2.5-3.3-3.8c-0.5-0.6-3-3.8-2.9-3.6c-4-5.4-7.5-11.1-10.5-17.1c-0.4-0.9-0.8-1.8-1.2-2.7c0,0,0,0,0,0
		c-0.5-1.6-1.2-3.2-1.7-4.7c-1.2-3.7-2.2-7.4-2.9-11.3c-0.2-1.1-0.4-2.2-0.6-3.3c0.1,0.6,0.3,2.9,0,0c-0.2-1.8-0.3-3.7-0.4-5.5
		c-0.2-4.4,0-8.8,0.4-13.2c0.1-0.9,0.2-1.7,0.3-2.6c0.1-0.4,0.1-1.1,0.2-1.3c0.4-2.2,0.8-4.4,1.2-6.5c1.1-4.9,2.4-9.8,3.9-14.6
		c1.3-4.3,2.8-8.6,4.4-12.8c0.8-2.2,1.7-4.4,2.6-6.6c-0.3,0.6-0.9,2,0.3-0.8c0.5-1.2,1-2.4,1.6-3.6c3.7-8.2,7.8-16.3,12.1-24.3
		c8.1-14.9,17.1-29.3,25.7-43.9c4.7-8,9.6-16.3,13.9-24.9c0.9,1.8,1.9,3.7,2.8,5.5c15.8,29.8,35.3,57.4,49.1,88.3
		c3.3,7.5,6.2,15.2,8.6,23c1.4,4.5,2.7,9.1,3.7,13.8c0.5,2.2,0.9,4.4,1.3,6.5c0.1,0.4,0.4,2.7,0.4,2.4c0.1,1,0.2,2,0.3,3
		c0.4,4.1,0.5,8.3,0.3,12.5c-0.1,1.8-0.2,3.7-0.4,5.5c0,0.6-0.4,3,0,0c-0.2,1.3-0.4,2.6-0.7,3.9c-0.7,3.4-1.5,6.7-2.6,10
		c-0.5,1.6-1.1,3.2-1.7,4.8c0,0.1-0.1,0.2-0.1,0.3c-0.4,1-0.9,2-1.4,3c-3,6.1-6.6,11.8-10.6,17.2c0.7-1-2,2.6-2.4,3
		c-1.1,1.3-2.2,2.6-3.3,3.8c-2.5,2.9-5.2,5.6-7.9,8.4c-11.2,11.3-24.3,20.9-33.3,34.2c-0.9,1.3-1.7,2.6-2.5,4
		C1213,370.7,1206.6,363.2,1198.8,356.2z M1234,456.8C1233.9,456,1233.8,454.6,1234,456.8L1234,456.8z M1288.7,491.4
		c0,0-0.1,0.1-0.1,0.1C1288.6,491.6,1288.6,491.5,1288.7,491.4z"/>
	<path d="M927.4,482.4C927.4,482.4,927.4,482.3,927.4,482.4C927.4,482.3,927.4,482.4,927.4,482.4
		C927.4,482.4,927.4,482.4,927.4,482.4z"/>
	<path d="M1060.1,450.8c0.1,0.1,0.2,0.1,0.2,0.2C1060.3,450.9,1060.2,450.8,1060.1,450.8C1060.1,450.8,1060.1,450.8,1060.1,450.8z"
		/>
	<path d="M1057.9,450c0.1,0,0.3,0,0.5,0c0,0,0,0,0,0C1058.2,450,1058.1,450,1057.9,450z"/>
	<polygon points="1059.3,450 1059.3,450 1059.3,450 1059.3,450 	"/>
	<path d="M1061.5,452.2c0,0,0.1,0.1,0.1,0.1c0,0,0,0,0,0C1061.5,452.2,1061.5,452.2,1061.5,452.2z"/>
	<path d="M1065.8,484.1c0-0.1-0.2,0.2-0.5,1.4c0,0,0,0,0,0C1065.4,485,1065.6,484.5,1065.8,484.1z"/>
	<path d="M1063.1,489.2c-0.5,0.5-0.7,0.7-0.7,0.8C1062.6,489.8,1062.8,489.5,1063.1,489.2C1063.1,489.3,1063.1,489.2,1063.1,489.2z"
		/>
	<path d="M1057.1,419.9c-7.8-0.2-15.4,7-15,15c0.2,8.2,6.8,14.8,15,15l0,0c0.3,0,0.6,0,0.9,0c-1.3-0.1-0.3-0.2,0.4,0
		c0.3,0,0.6,0,0.9,0c-0.1-0.1-0.1-0.1-0.2-0.2c0.1,0.1,0.1,0.1,0.2,0.2c0,0,0,0,0,0c0,0,0,0,0,0c0.1,0.1,0.3,0.3,0.4,0.4
		c0,0,0,0,0,0c-0.1-0.1-0.3-0.2-0.4-0.4c-0.4,0-0.6,0-0.9,0c0,0,0.1,0,0.1,0c0.3,0.1,0.5,0.2,0.8,0.3c0.1,0.1,0.2,0.1,0.3,0.2
		c0.1,0.1,0.3,0.2,0.4,0.3c-0.1-0.1-0.2-0.2-0.3-0.3c0,0,0,0,0,0c0.1,0.1,0.2,0.2,0.4,0.3c0.5,0.3,0.8,0.7,0.2,0.2
		c0.1,0.1,0.2,0.2,0.3,0.3c0.3,0.3,0.6,0.6,0.9,0.9c-0.6-0.8-0.6-1,0.1,0.1c0.1,0.1,0.3,0.3,0.4,0.4c-0.1-0.1-0.3-0.3-0.4-0.4
		c0,0.1,0.1,0.2,0.2,0.3c0.7,1.2,1.3,2.4,2,3.6c0.2,0.6,0.4,1.2,0.6,1.7c0.9,2.8,1.5,5.6,2,8.5c-0.3-1.5,0.2,1.6,0.3,2.7
		c0.1,1.5,0.2,3,0.2,4.5c0,2.5-0.1,4.9-0.2,7.3c0.1-1.6-0.4,1.7-0.6,2.7c-0.1,0.2-0.1,0.3-0.2,0.5c0,0.1-0.1,0.6-0.3,1.1
		c0,0.1-0.1,0.1-0.1,0.2c0,0.1-0.1,0.2-0.1,0.3c0-0.1,0-0.2,0.1-0.2c-0.7,1.2-1.4,2.4-2.1,3.7c0,0,0,0.1-0.1,0.1
		c0.1-0.1,0.2-0.2,0.4-0.4c-0.1,0.1-0.3,0.3-0.4,0.4c-0.3,0.4-0.8,0.9-0.7,0.8c-0.3,0.3-0.6,0.6-0.9,0.9c-0.3,0.3-2,1.8-2.6,2.3
		c-0.8,0.5-2.6,1.7-3,1.9c-0.7,0.4-3.2,1.5-2.5,1.3c-1.9,0.7-3.8,1.3-5.8,1.7c-0.9,0.2-1.9,0.4-2.8,0.6c0.7-0.1,2.7-0.2-0.4,0
		c-2,0.2-4,0.3-6.1,0.3c-1.4,0-2.9-0.2-4.3-0.2c0,0,0,0,0,0c-0.9-0.3-2-0.4-2.9-0.7c-1-0.3-2.1-0.6-3.1-1c0.7,0.2-1.9-1-2.6-1.4
		c-1.2-0.7-3.7-3.3-1.3-0.8c-1.1-1.2-2.3-2.2-3.4-3.3c-0.2-0.2-0.4-0.4-0.5-0.5c-0.1-0.2-0.2-0.4-0.4-0.7c-0.8-1.3-1.6-2.5-2.2-3.8
		s-1.5-3.8-0.6-1.1c-0.6-1.9-1.3-3.7-1.8-5.6s-0.9-3.6-1.2-5.4c1.2,4.2,5.6,6.7,9.9,5.5c4.2-1.2,6.7-5.6,5.5-9.9
		c-1.2-4.2-5.6-6.7-9.9-5.5c-3.5,1-5.9,4.3-5.8,7.9c-0.1-0.5-0.1-1-0.1-1.1c-0.4-4.1-0.5-8.2-0.3-12.4c0.2-7.2,0-14.5,0-21.7
		c0-0.8-0.1-1.7-0.2-2.5c0.1-25.1,0.1-50.2,0.1-75.3c0-16,0-31.9,0-47.9c4.4,2.7,9.2,4.8,14.3,6c16.8,4,33.8,0.2,46.8-11.1
		c16.4-14.3,19.5-35.4,19.6-55.8c0.1-39,0.4-77.9,0.3-116.9c0-15.6,0.1-31.3-0.5-46.9c-0.8-23.5-3.7-51.5-19.5-70.2
		c-13.4-15.9-37.2-16.8-55.3-9.2c-9,3.8-15.8,9.7-20.9,16.9c-6.1-8.2-14.5-14.6-24.3-18.1c-15.5-5.5-34.5-2.5-48.6,5.5
		s-23.7,21.7-25.5,37.8c-1.7,14.8,0.9,32.6,9.5,44.9c4.7,6.9,11.1,12.4,18.5,16.2c7.2,3.6,16.2,1.9,20.5-5.4
		c3.9-6.7,1.9-16.9-5.4-20.5l0,0.1c-1.5-0.7-2.9-1.5-4.3-2.4c-0.3-0.2-0.6-0.4-0.9-0.6c-0.1-0.1-0.2-0.2-0.3-0.3
		c-0.9-0.9-1.7-1.7-2.5-2.6c0.5,0.5-1.4-2.1-1.8-2.8c-0.3-0.6-0.9-1.9-1-2c-0.4-1.1-0.8-2.2-1.1-3.3c-0.4-1.3-0.7-2.6-0.9-3.9
		c0-0.2-0.2-0.9-0.3-1.4c-0.1-0.5-0.2-1.3-0.2-1.4c-0.3-3.1-0.4-6.3-0.3-9.4c0-0.9,0.1-1.8,0.1-2.6c0.1-0.5,0.4-2.4,0.6-2.9
		c0.1-0.4,0.3-0.9,0.4-1.3c0.7-1.1,1.4-2.2,1.9-3.4c0.1-0.2,0.2-0.4,0.3-0.5c0.1-0.1,0.2-0.2,0.3-0.3c1.2-1.2,2.3-2.3,3.5-3.5
		c0.2-0.2,0.4-0.4,0.5-0.5c0.1-0.1,0.3-0.2,0.5-0.3c1.3-0.8,2.6-1.7,4-2.4c0.4-0.2,0.9-0.4,1.3-0.7c0.3-0.1,0.7-0.3,0.8-0.4
		c1.6-0.5,3.2-1.1,4.9-1.5c0.5-0.1,3.8-0.7,3.4-0.7c1.7-0.2,3.4-0.3,5-0.2c1.2,0,2.4,0.1,3.5,0.2c0.8,0.2,1.7,0.3,2.4,0.6
		c0.7,0.2,3.1,1.2,2.5,0.8c0.6,0.3,1.2,0.6,1.8,0.9c0.3,0.2,1.4,0.9,2.1,1.4c0.6,0.5,1.6,1.4,1.8,1.6c0.8,0.8,1.5,1.8,2.3,2.6
		c0.3,0.4,0.6,0.9,0.9,1.3c1.3,2,2.3,4,3.3,6.1c-1.5-2.5-4.7-3.6-7.5-2.5c-3.1,1.3-4.6,4.8-3.4,7.9c1.3,3.1,4.8,4.6,7.9,3.4
		c2.9-1.2,4.4-4.2,3.6-7.2c0.5,1.3,0.9,2.6,1.3,3.9c0.8,2.6,1.5,5.3,2,8.1c0.3,1.4,0.5,2.7,0.7,4.1c-0.4-2.6-0.1-0.8,0,0.7
		c0.3,2.9,0.4,5.7,0.4,8.6c0.1,8.7,0.1,17.4,0.1,26.1c0.1,22,0.1,44,0.1,66.1c0,9.8,0,19.6,0,29.4c-0.1,9.1-0.1,18.2-0.2,27.3
		c0,8.3-0.2,16.7,0.2,25c0,26.4,0,52.7,0,79.1c0,26.7,0,53.3-0.1,80c0,12.1,0,24.3-0.1,36.4c0,5.7,0,11.5,0,17.2
		c0,3.1,0,6.2-0.2,9.2c0,0.6-0.1,1.1-0.1,1.7c0,0.1,0,0.2-0.1,0.3c-0.3,1.7-0.7,3.6-1.2,5.4c-0.4,1.5-0.9,2.9-1.4,4.3
		c-0.1,0.2-0.1,0.3-0.1,0.5c-0.1,0.1-0.2,0.3-0.3,0.4c-0.7,1.2-1.3,2.4-2,3.5s-2.7,3-0.6,1c-0.9,0.9-1.7,1.9-2.6,2.8
		c-0.6,0.5-2.4,1.9-1.9,1.6c-1.6,1-3.2,2-4.9,2.9c-0.1,0-0.1,0.1-0.2,0.1c0,0-0.1,0-0.1,0c-1.2,0.4-2.3,0.8-3.5,1.1
		s-2.4,0.6-3.6,0.9c-0.4,0.1-1.8,0.3-2.5,0.4c-0.8,0.1-1.7,0.2-1.9,0.2c-1.1,0.1-2.1,0.1-3.2,0.1c-1.7,0-3.4,0-5.1-0.1
		c-0.6,0-0.8-0.1-0.8,0c-0.9-0.2-1.8-0.3-2.7-0.5c-1.4-0.3-2.7-0.7-4.1-1.2c-0.2-0.1-1-0.4-1.5-0.6c-0.2-0.1-0.4-0.2-0.5-0.2
		c-1.2-0.7-2.5-1.6-3.7-2.2c-0.4-0.4-0.9-0.7-1.3-1.2c-0.3-0.4-1.3-1.5-1.9-2c-0.4-0.5-1-1.5-1.2-1.7c-0.4-0.8-0.8-1.5-1.2-2.3
		c0.2,0.4-0.6-1.8-0.9-2.8c-0.2-0.7-0.3-1.4-0.3-1.6c0,0.2,0,0.6,0.1,1.3c0-0.4,0-0.9-0.1-1.3c0-0.2,0-0.2,0,0c-0.1-1-0.1-2-0.1-3
		c0-3.4,0.1-6.8,0.4-10.1c0-0.1,0-0.2,0-0.2c0.1-0.6,0.2-1.3,0.3-1.9c0.3-1.3,0.6-2.6,0.9-3.9c0.4-1.3,0.8-2.6,1.3-3.9
		c0.5-0.9,0.9-1.8,1.4-2.6c0.2-0.3,1.1-1.7,1.4-2.2c0.1-0.2,0.3-0.3,0.3-0.4c0.6-0.6,1.2-1.2,1.8-1.8c0.6-0.6,2.8-2,1.4-1.2
		c1.5-0.9,3-1.9,4.5-2.6c7.2-3.7,9.3-13.8,5.4-20.5c-4.3-7.3-13.3-9.1-20.5-5.4c-14.7,7.5-24.4,21.9-27.2,38
		c-2.5,14.9-2.9,31.2,5.4,44.4c16.4,26.4,54.8,30.7,80.6,16.1c4.9-2.8,9.2-6.3,12.8-10.4c6.5,7.9,15.1,13.9,25.5,16.7
		c19.9,5.2,43.2,0.4,58.3-13.7c13.7-12.7,16.8-31.2,14.7-48.9C1093.4,442.5,1082,420.5,1057.1,419.9z M1059.2,450.3
		C1058.3,449.9,1058.6,450,1059.2,450.3L1059.2,450.3z M930.3,458.6C930.7,457.7,930.5,458.1,930.3,458.6L930.3,458.6z M982.4,473.9
		c0,0.1,0,0.1,0,0.2C982.3,474,982.4,474,982.4,473.9z M1048.4,287.8C1046.9,288.7,1047.8,288.2,1048.4,287.8L1048.4,287.8z
		 M1056.9,281.2C1057.2,280.8,1057.2,280.8,1056.9,281.2L1056.9,281.2z M1013.8,81.7c0-4.1,0.1-8.2,0.3-12.4c0-2.1,0.2-4.1,0.5-6.2
		c0.1-0.3,0.1-0.6,0.2-1c0.2-1.3,0.5-2.6,0.8-3.9c0.4-2.1,1-4.2,1.6-6.3c0.3-1.1,0.7-2.2,1.1-3.3c0.1-0.3,0.2-0.5,0.2-0.6
		c0.1-0.1,0.1-0.2,0.2-0.4c1-2.1,2.2-4,3.4-6c0.1-0.2,0.2-0.3,0.3-0.5c0,0,0,0,0,0c0.9-0.9,1.7-1.9,2.7-2.8c0.7-0.7,1.5-1.3,2.2-2
		c-2.9,2.6-0.2,0.3,0.7-0.2s2.2-1.1,3.2-1.7c-2.8,1.6,0,0,1.6-0.4c1.3-0.4,2.6-0.7,4-1c0.3-0.1,0.6-0.1,0.9-0.2c0.2,0,0.4,0,0.7,0
		c2-0.1,4.1-0.2,6.1-0.1c0.2,0,0.4,0,0.5,0l3,0.8c0.2,0.1,0.5,0.3,0.7,0.4c0.4,0.2,0.8,0.5,1.3,0.8c0.8,0.9,1.7,1.8,2.5,2.6
		c0,0,0,0,0,0c0.6,0.9,1.2,1.8,1.7,2.8s0.9,1.8,1.4,2.7c0.1,0.3,0.3,0.6,0.4,0.9c0.8,2.4,1.7,4.7,2.4,7.2c0.7,2.6,1.4,5.3,1.9,8
		c0.3,1.6,0.6,3.2,0.9,4.8c0.1,0.6,0.6,3.9,0.7,4.1c0.7,5.6,1.2,11.2,1.5,16.8c0.6,13.2,0.5,26.5,0.5,39.7c0.1,38-0.1,76-0.2,113.9
		c0,5.5,0,11-0.1,16.5c0,1.3,0,2.7,0,4c0,1.7-0.1,3.3-0.1,5c0,0.6-0.1,1.3-0.2,1.9c0-0.1,0-0.2,0-0.3c0,0.1,0,0.1,0,0.2
		c-0.4,1.7-0.7,3.4-1.2,5c-0.4,1.2-0.8,2.5-1.2,3.7c-0.9,2.7-0.2,0.5,0,0c-0.3,0.6-0.5,1.2-0.8,1.7c-0.7,1.3-1.4,2.6-2.2,3.9
		c-0.4,0.6-0.8,1.1-1.2,1.7c-0.1,0.1-0.2,0.2-0.3,0.3c-1,1-2,2.1-3.1,3.1c-0.3,0.3-0.6,0.5-0.9,0.8c-0.1,0.1-0.3,0.2-0.5,0.3
		c-1.1,0.6-2.2,1.2-3.2,1.9c-0.1,0-0.1,0.1-0.2,0.1c-0.7,0.2-1.4,0.5-2.2,0.7c-0.5,0.1-2.9,0.5-3.4,0.7c-0.9,0-2.8,0-3.3,0
		c-0.8,0-1.4-0.1-2-0.1c-0.1,0-0.1,0-0.2,0c-1.5-0.4-3-0.6-4.6-1.1c-1.1-0.3-4.2-2.1-1.3-0.4c-1-0.6-2-1-3-1.6
		c-0.2-0.1-1.4-0.9-2.1-1.4c-0.6-0.5-1.9-1.7-2.3-2c-0.9-0.9-1.7-1.9-2.6-2.8c-0.1-0.1-0.1-0.1-0.1-0.1c-0.1-0.2-0.2-0.4-0.4-0.7
		c-1.3-2.1-2.6-4.3-3.7-6.5c-0.2-0.3-0.3-0.5-0.4-0.7c0,0,0,0,0,0c-0.4-1.1-0.8-2.3-1.2-3.4c-0.8-2.4-1.4-4.8-1.9-7.3
		c-0.2-0.9-0.3-1.9-0.5-2.8c0,0,0-0.1,0-0.1c-0.2-2.2-0.3-4.3-0.3-6.4c0-0.7,0-1.4,0-2.1c0-19.3,0-38.7,0-58
		c0.1-15.4,0.4-30.8,0.5-46.2c0.1-9.1,0.2-18.3,0.3-27.4c0-1.7-0.3-3.4-0.9-5c0-3.1,0-6.3,0-9.4c0-5.6,0-11.2,0-16.8
		C1013.4,85.2,1013.7,83.5,1013.8,81.7L1013.8,81.7z"/>
	<path d="M1063.4,265.2C1063.5,264.5,1063.6,263,1063.4,265.2L1063.4,265.2z"/>
	<path d="M1525.9,455.6c-0.2,0.5,0.3,1.3,0.6,1.7c-0.2-0.5-0.3-1-0.4-1.3C1526.1,455.8,1526,455.7,1525.9,455.6z"/>
	<path d="M1564,342.5c-0.9-0.2-2.3-0.4-2.5-0.4c0.1,0,0.1,0,0.1,0C1562.5,342.3,1563.3,342.3,1564,342.5z"/>
	<path d="M1528.2,475.9c0-0.1,0-0.2,0-0.4c-0.1,0.3-0.1,0.8-0.2,1.5c0,0,0-0.1,0-0.1C1528.1,476.6,1528.1,476.3,1528.2,475.9z"/>
	<path d="M1370.1,482.7C1369.6,481.3,1369.8,482,1370.1,482.7L1370.1,482.7z"/>
	<path d="M1500.8,275.8C1500.4,276.7,1500.5,276.5,1500.8,275.8L1500.8,275.8z"/>
	<path d="M1487.7,30.2c-0.1,0-0.1,0-0.2,0c0.2,0,0.3,0,0.5,0.1C1487.9,30.2,1487.8,30.2,1487.7,30.2z"/>
	<path d="M1834.7,388.4c0.4,0.5,0.6,0.8,0.6,0.9C1835.1,389,1834.9,388.7,1834.7,388.4C1834.7,388.4,1834.7,388.4,1834.7,388.4z"/>
	<path d="M1791.3,487.2C1791.3,487.2,1791.3,487.2,1791.3,487.2c0.1-0.5-0.1-1.1-0.4-1.4C1791.1,486.3,1791.2,486.8,1791.3,487.2z"
		/>
	<path d="M1789.7,471.7c0.6-1.1,0.6-2,0.4-2.2C1790,470.2,1789.9,471.1,1789.7,471.7C1789.7,471.6,1789.7,471.7,1789.7,471.7z"/>
	<path d="M1848.2,424.4c0,0.3,0.1,0.6,0.1,0.8C1848.3,424.9,1848.2,424.7,1848.2,424.4C1848.2,424.4,1848.2,424.4,1848.2,424.4z"/>
	<path d="M1968.3,486.1c-0.1,0.3-0.3,0.7-0.2,1c0,0,0,0,0,0C1968.1,486.8,1968.2,486.5,1968.3,486.1z"/>
	<path d="M1947.9,35.7c-0.7-0.5-1.4-0.8,0.3,0.3c-0.1-0.1-0.1-0.1-0.2-0.2C1948,35.8,1947.9,35.7,1947.9,35.7z"/>
	<path d="M2023.3,213.4c-14.5-13.3-33.9-15.7-52.6-13.8c-7.5-15.8-16.3-31.1-25.2-46c-7.4-12.3-14.9-24.6-21.7-37.3
		c-1.5-2.8-2.9-5.6-4.3-8.5c-0.7-1.5-1.4-3-2.1-4.5l-0.7-1.7c-0.1-0.1-0.1-0.2-0.1-0.3c-0.1-0.1-0.1-0.3-0.2-0.5
		c-2.2-5.4-3.9-11-5.2-16.7c-0.3-1.2-0.5-2.4-0.7-3.6c0-0.4-0.1-0.8-0.1-1.3c-0.3-3.2-0.3-6.4-0.1-9.5c0.1-1.6,0.2-3.2,0.4-4.8
		c0,0.2,0.4-2.5,0.6-3.1c0.7-3.5,1.7-7,3-10.3c0.4-0.8,0.8-1.5,1.2-2.3c0.7-1.3,1.4-2.6,2.3-3.8c0.3-0.5,0.6-0.9,1-1.4
		c0.2-0.2,0.3-0.4,0.5-0.5c1.3-1.3,2.6-2.7,4-3.9c0.1-0.1,0.2-0.2,0.3-0.3c0.4-0.3,0.8-0.5,1.2-0.8c1.4-0.9,2.9-1.7,4.5-2.5
		c0.1-0.1,0.4-0.2,0.6-0.3c0.4-0.2,0.9-0.3,1.3-0.5c1.7-0.6,3.5-1,5.3-1.4c1.3-0.3,5.4-0.5,1.3-0.4c1.2,0,2.3-0.2,3.5-0.2
		c0.7,0.1,1.3,0.1,2,0.1c0.1,0,0.1,0,0.2,0c0.7,0.2,1.4,0.5,1.9,0.8c0.6,0.4,1.2,0.8,1.9,1.1c0.3,0.2,0.6,0.4,1,0.6
		c0,0,0.1,0.1,0.1,0.1c0.1,0.1,0.2,0.2,0.4,0.3c-0.1,0-0.1-0.1-0.2-0.1c0,0,0,0,0,0c2.2,2,5.9,5.9,6.8,7c2.3,2.8,4.2,5.9,5.9,9.2
		c0,0.2,0.8,2,1,2.7c0.4,1.5,0.8,2.9,1,4.4c0,0.1,0.2,2.1,0.2,2.9c0,1.6-0.2,3.2-0.2,4.7c-0.1,0.6-0.2,1.2-0.4,1.8
		c-0.2,0.8-0.4,1.6-0.6,2.4c-0.1,0.2-0.3,1-0.5,1.6c-0.4,0.7-1.1,2.3-1.3,2.6c-0.5,0.9-2.9,3.6-1.5,2.2c-0.7,0.7-1.4,1.5-2.2,2.2
		c0.1-0.2-2,1.3-2.8,1.7c-7.1,3.8-9.4,13.7-5.4,20.5c4.2,7.2,13.4,9.2,20.5,5.4c16-8.6,24.5-26.7,24.3-44.4
		c-0.1-18.6-10-36.6-24.1-48.5c-13.3-11.2-29-13.4-45.4-8.3c-18,5.6-30.9,18.9-37.8,36.2c-12.2,30.5-2.4,61.6,12.2,89.2
		c13.4,25.3,29.5,49.1,42.5,74.6c-9.9,3-19.6,6.6-29.1,10.1c-17.9,6.7-35.6,14-53.6,20.4c-17.7,6.4-35.9,11.9-54.5,15
		c-0.7,0.1-1.3,0.2-2,0.3c0.8-3,1.6-6,2.6-9c1.3-4.3,2.8-8.6,4.4-12.8c0.8-2.2,1.7-4.4,2.6-6.6c-0.3,0.6-0.9,2,0.3-0.8
		c0.5-1.2,1-2.4,1.6-3.6c3.7-8.2,7.8-16.3,12.1-24.3c8.1-14.9,17.1-29.3,25.7-43.9c14.8-25.1,30.8-53.1,28.6-83.3
		c-1.3-17.6-7-35.6-20.1-48.1c-12.4-11.8-31-18.4-48-15.6c-16.7,2.8-31.1,18.3-38.4,32.9c-8.2,16.5-8.6,36.2,0.2,52.6
		c4.1,7.5,10.3,13.7,17.9,17.8c7.1,3.9,16.3,1.8,20.5-5.4c4-6.8,1.8-16.7-5.4-20.5c-0.6-0.3-2.7-1.8-2.8-1.8c-0.7-0.7-1.4-1.6-2.2-2
		c0,0-0.1,0-0.1,0c-0.4-0.6-0.8-1.1-1.1-1.7c-0.3-0.5-0.6-1-0.9-1.5c-0.4-0.8-1.3-3.9-0.5-0.8c-0.4-1.4-0.9-2.7-1.3-4.1
		c-0.3-1.2-0.6-3.7-0.5-2.4c-0.1-1.4-0.2-2.7-0.2-4.1c0-0.8,0.1-1.7,0.1-2.5c0-0.2,0-0.3,0-0.4c0,0,0,0,0,0c0.4-1.4,0.6-2.9,1-4.4
		c0.1-0.5,1.1-3.1,1.2-3.4c1.6-3.3,3.6-6.3,5.9-9.2c2-2.3,4.1-4.5,6.3-6.6c0.1-0.1,0.5-0.4,0.8-0.7c0.2-0.2,0.4-0.3,0.5-0.3
		c0.7-0.4,1.3-0.7,1.9-1.1c0,0,0.1-0.1,0.1-0.1c1.1-0.2,2.2-0.6,3.3-0.9c0.2,0,0.4,0,0.7,0c1.4,0,2.7,0.1,4,0.2
		c-3.5-0.2-0.3,0,1.3,0.4s3.1,0.8,4.6,1.2c0.8,0.2,1.5,0.5,2.3,0.8c0.1,0,0.2,0.1,0.3,0.1c1.3,0.7,2.7,1.4,3.9,2.2
		c0.7,0.5,1.4,0.9,2.1,1.4c0,0,0,0,0,0c0.1,0.1,0.2,0.2,0.4,0.4c1,1,2.1,2,3.1,3.1c0.1,0.1,0.6,0.6,0.9,1c0.3,0.3,0.5,0.7,0.6,0.9
		c0.8,1.2,1.6,2.5,2.3,3.8c0.4,0.8,0.8,1.5,1.2,2.3c0.1,0.2,0.2,0.3,0.3,0.5c0,0,0,0.1,0,0.1c1.2,3.1,2.2,6.4,2.9,9.6
		c0.1,0.5,0.6,3.7,0.7,3.8c0.2,1.6,0.3,3.2,0.4,4.8c0.2,3.2,0.1,6.4-0.1,9.5c0,0.4-0.1,0.7-0.1,1.1c-0.3,1.4-0.5,2.9-0.8,4.3
		c-1.3,5.8-3.4,11.1-5.3,16.7c0,0,0,0,0,0.1c-0.2,0.4-0.4,0.9-0.6,1.3c-0.7,1.5-1.4,3-2.1,4.5c-1.5,3.1-3,6.1-4.6,9.1
		c-3.4,6.4-7,12.6-10.6,18.8c-12.3,20.8-24.9,41.4-35.4,63.1c-5-4.1-10.8-7.2-17.1-8.6c-18.8-4.2-39.9,5.6-48.7,22.9
		c-9.1,17.9-5.3,40.2,8.7,54.6c9.5,9.8,22.4,14.2,35.7,15.7c0.5,11.1,2.7,22.1,7,32.8c10.9,26.6,31.4,46.4,52.4,65.3
		c2.5,2.3,4.8,4.7,7,7.2c0,0,0.1,0.1,0.1,0.2c0,0,0-0.1-0.1-0.1c0,0,0,0.1,0.1,0.1c0.3,0.4,0.8,1.2,0.6,0.9c0.1,0.2,0.3,0.4,0.4,0.6
		c1.1,1.6,2.1,3.3,3.1,5c0.8,1.5,1.6,3,2.4,4.6c0.3,0.6,0.5,1.2,0.8,1.7c0,0.1,0.1,0.1,0.1,0.2c1.2,3,2.2,6.1,3.1,9.2
		c0.8,2.9,1.5,5.9,2.1,8.9c0.3,1.5,0.5,3.1,0.8,4.6c0,0.1,0,0.2,0,0.3c0-0.3-0.1-0.5-0.1-0.9c0,0.3,0.1,0.6,0.1,0.9
		c0.1,0.7,0.2,1.5,0.1,0.7c0,0.2,0,0.4,0.1,0.5c0.6,5.3,0.9,10.5,0.9,15.8c0,3.5-0.1,7.1-0.3,10.6c-0.1,0.9-0.1,1.9-0.2,2.8
		c-0.1,0.7-0.1,1.3-0.2,1.9c0,0.1,0,0.2-0.1,0.3c-0.3,1.7-0.7,3.4-1.1,5s-1,3.4-1.6,5.1c-0.3,0.8-0.6,1.7-0.9,2.5
		c1.1-3.3-0.8-6.9-4.1-7.9c-3.3-1.1-6.9,0.8-7.9,4.1c-1.1,3.3,0.8,6.9,4.1,7.9c3,0.9,6.1-0.4,7.5-3.1c-0.2,0.5-0.4,1-0.5,1.1
		c-0.4,0.8-0.8,1.6-1.2,2.5c-1,1.8-2,3.6-3.1,5.4c-0.9,1.4-1.8,2.7-2.7,4c-0.1,0.1-0.1,0.2-0.2,0.3c-0.4,0.5-0.8,1-1.3,1.5
		c-1.2,1.4-2.4,2.7-3.7,3.9c-0.7,0.6-1.3,1.2-1.9,1.8c-0.1,0.1-0.6,0.5-1.1,0.9c1.5-1.6,1.7-4.2,0.3-6c-1.6-2-4.4-2.3-6.4-0.7
		c-2,1.6-2.3,4.4-0.7,6.4c1.4,1.8,3.9,2.2,5.8,1.1c-0.7,0.5-1.4,1-2.2,1.4c-1.2,0.7-2.4,1.4-3.7,2c1-0.5-1.5,0.6-2.4,0.9
		c-0.8,0.2-1.6,0.4-2.4,0.6c-0.3,0.1-0.5,0.1-0.7,0.2c-1.7,0.1-3.3,0.1-5,0.1c-0.8,0-1.7-0.1-2.5-0.2c-0.5,0-0.7,0-0.8,0
		c-1.6-0.2-3.1-0.6-4.6-1c-0.8-0.2-1.7-0.5-2.5-0.8c-0.1,0-0.3-0.1-0.4-0.1c-1.3-0.8-2.6-1.4-3.9-2.2c-0.2-0.1-0.4-0.2-0.6-0.3
		c0,0-0.1-0.1-0.1-0.1c-0.8-0.9-1.8-1.9-2.7-2.7c-0.1-0.1-0.2-0.2-0.3-0.2c-0.2-0.3-0.3-0.5-0.3-0.6c-0.5-0.8-1-1.7-1.5-2.5
		c0,0,0-0.1-0.1-0.1c0,0.1,0,0.1,0,0.2c0-0.1,0-0.2,0-0.3c-0.2-0.4-0.4-0.9-0.6-1.2c-0.5-0.9-0.1-0.8,0.2-0.2
		c-0.4-1-0.9-2.1-1.1-2.7c-0.1-0.3-0.1-0.5-0.1-0.8c-0.1-1.6-0.2-3.2-0.2-4.7c0-1.8,0.1-3.8,0.2-5.7c0,0,0-0.1,0-0.1
		c0,0,0,0.1-0.1,0.1c0,0,0-0.1,0.1-0.1c0-0.5,0.1-1,0.1-1.4c0-0.6,0.2-0.8,0.3-0.7c0-0.4,0.1-0.7,0.1-1c0.5-2.2,1.3-4.3,1.9-6.5
		c0.6-1.1,1.2-2.3,1.8-3.4c0.2-0.3,0.8-1.1,1.1-1.5c0.4-0.5,0.9-1,1.1-1.1c0.4-0.3,0.7-0.6,0.9-0.9c0.7-0.4,1.6-0.9,2.1-1.1
		c0.2-0.1,0.5-0.2,0.7-0.3c0.9-0.2,1.7-0.4,2.6-0.6c-0.3,0.1,1.8-0.2,3-0.2c1.6,0,3.3,0.1,4.9,0.2c7.8,0.7,15.3-7.4,15-15
		c-0.4-8.7-6.6-14.2-15-15l0.1-0.1c-16-1.5-30.8,4.6-40.4,17.5c-7,9.4-9.7,21.5-10.4,33c-1.4,25.1,13.9,47.9,39.4,52.9
		c19.7,3.9,37.2-0.8,52.1-14.2c12.7-11.4,22.2-28.1,25.9-44.8c5-22.3,2.9-48.9-4.5-70.3c-5.7-16.5-14.8-29.4-27.7-41
		c-5.6-5.1-11.2-10.2-16.5-15.6c-2.4-2.4-4.7-4.9-7-7.4c-1.1-1.3-2.2-2.5-3.3-3.8c-0.5-0.6-3-3.8-2.9-3.6c-4-5.4-7.5-11.1-10.5-17.1
		c-0.4-0.9-0.8-1.8-1.2-2.7c0,0,0,0,0,0c-0.5-1.6-1.2-3.1-1.7-4.7c-1.2-3.7-2.2-7.4-2.9-11.3c-0.2-1.1-0.4-2.2-0.6-3.3
		c0.1,0.6,0.3,2.9,0,0c-0.1-1.4-0.2-2.8-0.3-4.2c35-3.9,68-16.6,100.7-29.3c17.8-6.9,35.6-13.8,54-19.1c1.1,2.9,2.1,5.9,3,8.9
		c0.3,1,0.6,2.1,0.9,3.1c0,1,0.1,2.1,0.4,3.1c0.7,3.5,1.7,7,3,10.4c0.2,1.2,0.5,2.5,0.7,3.7c0.1,0.4,0.4,2.7,0.4,2.4
		c0.1,1,0.2,2,0.3,3c0.4,4.1,0.5,8.3,0.3,12.5c-0.1,1.8-0.2,3.7-0.4,5.5c0,0.6-0.4,3,0,0c-0.2,1.3-0.4,2.6-0.7,3.9
		c-0.7,3.4-1.5,6.7-2.6,10c-0.5,1.6-1.1,3.2-1.7,4.8c0,0.1-0.1,0.2-0.1,0.3c-0.4,1-0.9,2-1.4,3c-3,6.1-6.5,11.8-10.5,17.2
		c0.5-0.7-2.1,2.7-2.5,3.1c-1.1,1.3-2.2,2.6-3.3,3.8c-2.5,2.9-5.2,5.6-7.9,8.4c-11.2,11.3-24.3,20.8-33.3,34.2
		c-14.7,21.9-18.5,50.5-17,76.3c1.8,30.8,20.1,65.1,51.4,74.5c27.6,8.3,62.8-8,67.2-38.1c3.5-24.2-4.1-52.7-28.8-62.3
		c-6.7-2.5-14-3.4-21.1-2.6c-7.8,0.7-15.4,6.4-15,15c0.3,7.5,6.6,15.8,15,15l0,0c1.7-0.2,3.3-0.3,4.9-0.2c0.4,0,1.8,0.1,2.6,0.1
		c0.8,0.2,2.1,0.4,2.4,0.5c0.5,0.1,0.8,0.3,1.2,0.4c0,0,0,0,0.1,0.1c0.8,0.6,1.6,1.1,2.5,1.5c0.1,0.1,0.2,0.1,0.2,0.2
		c0.2,0.2,1.1,1.1,1.7,1.7c0.3,0.5,0.7,1,1,1.5c0.5,0.8,1,1.7,1.4,2.6c0.1,0.1,0.1,0.2,0.1,0.3c0,0,0,0,0,0.1
		c0.6,2.2,1.4,4.3,1.9,6.5c0,0.2,0.2,1,0.4,1.7c0,0.3,0,0.6,0.1,1.2c0.2,2,0.3,4,0.3,6c0,1.6-0.1,3.1-0.2,4.7
		c-0.1,0.3-0.1,0.6-0.2,0.9c-0.2,0.6-0.9,2.2-1.3,3.3c0.4-0.8,1-1.3-0.1,0.8c0,0.1-0.1,0.1-0.1,0.2c0,0.1,0,0.2,0,0.2
		c0-0.1,0-0.1,0-0.2c-0.6,1-1.1,2-1.7,3c0,0.1-0.1,0.1-0.1,0.2c-0.9,0.8-1.8,1.7-2.6,2.6c-0.1,0.1-0.2,0.2-0.3,0.3
		c-0.1,0-0.1,0.1-0.2,0.1c-1.3,0.8-2.8,1.5-4.2,2.3c-0.8,0.2-1.6,0.5-2.4,0.8c-1.6,0.5-3.1,0.8-4.7,1.1c-2.9,0.6-1.2,0.2-0.6,0.1
		c-1.1,0.1-2.2,0.2-3.3,0.2c-1.8,0.1-3.6,0-5.4-0.1c3.4,0-0.8-0.3-2.1-0.6s-4.9-2.2-2.2-0.7c-1.3-0.7-2.6-1.3-3.9-2.1
		c-0.6-0.4-4.2-3-3.2-2.2c-2.4-2-4.7-4.2-6.7-6.6c-0.4-0.5-2.3-2.9-2-2.4c-1-1.5-2.1-3-3-4.5c-1.7-2.7-3.2-5.5-4.5-8.4
		c0.3,0.7-1.1-2.9-1.3-3.4c-0.6-1.7-1.1-3.4-1.6-5.1c-0.4-1.7-0.7-3.3-1.1-5c0-0.1,0-0.1,0-0.2c0-0.4-0.1-0.9-0.1-1.3
		c-0.1-1.2-0.2-2.4-0.2-3.7c-0.5-8.7-0.3-17.5,0.6-26.2c0-0.4,0.1-0.9,0.2-1.3c0-0.1,0-0.2,0-0.3c0.2-1.3,0.4-2.7,0.7-4
		c0.6-3.2,1.3-6.3,2.2-9.4c0.9-3.1,1.9-6,3-8.9c1-2.7,0.2-0.5,0,0.1c0.4-0.8,0.7-1.5,1.1-2.3c0.7-1.5,1.5-3.1,2.4-4.6
		c0.8-1.5,1.8-3,2.7-4.4c0.5-0.7,1-1.4,1.5-2.1c0,0,0.1-0.1,0.1-0.1c2.3-2.7,4.8-5.3,7.5-7.7c5-4.5,10-9,14.9-13.7
		c10.2-9.8,19.7-20.4,27.3-32.3c9.2-14.2,14.3-29.8,16-45.8c1.1,0.2,2.2,0.4,3.4,0.5c18.7,1.7,39.4-11.5,44-30
		C2042.2,242.9,2035.5,224.6,2023.3,213.4z M1942.5,33c-0.6,0-1.2,0-1.1,0C1941.7,32.9,1942.1,32.9,1942.5,33z M1929.5,35.7
		C1930.1,35.4,1930.7,35.2,1929.5,35.7L1929.5,35.7z M1929.5,35.7c-0.1,0.1-0.3,0.1-0.5,0.2C1929.1,35.8,1929.3,35.7,1929.5,35.7z
		 M1816,33.4c0,0,0.1,0,0.1,0C1816.1,33.4,1816,33.4,1816,33.4z M1830,35.7C1829.4,35.4,1828.7,35,1830,35.7L1830,35.7z
		 M1796.8,455.2c-0.4,0.4-0.8,0.7-0.8,0.6C1796,455.8,1796.3,455.5,1796.8,455.2z M1794,491.7c-0.2,0-0.6-0.6-0.8-1.1
		C1793.6,491.1,1794.3,491.7,1794,491.7z M1816.3,498C1815.5,498.2,1815.3,498.1,1816.3,498L1816.3,498z M1760.3,250.6
		c-0.1-0.1-2.6-1.4-2.6-1.4c-0.7-0.4-1.4-0.8-2.1-1.3c0-0.1-1.1-1-1.5-1.4c-0.5-0.5-1-1-1.5-1.6c1.7,1.8-0.9-1.3-1.1-1.6
		c-0.5-0.8-0.9-1.7-1.4-2.5c-0.1-0.3-0.3-0.5-0.3-0.6c0,0,0-0.1-0.1-0.5c-0.3-0.9-0.6-1.8-0.8-2.8c-0.2-0.7-0.3-1.9-0.3-1.9
		c0-0.7-0.1-1.3-0.1-2c0-0.2,0.1-1.4,0.2-2.2c0.4-0.8,1.3-3.9,0.9-3.3c0.3-0.6,0.7-1.2,1-1.8c0.1-0.3,0.2-0.5,0.3-0.7
		c0,0,0.1-0.1,0.2-0.2c0.6-0.7,1.2-1.4,1.9-2c0.4-0.4,1.4-1.2,1.4-1.3c0.5-0.3,1.1-0.7,1.6-1c0.3-0.2,3.6-1.6,1.9-1
		c1.2-0.4,2.4-0.8,3.7-1c0.3,0,1.1-0.1,1.3-0.1c0.4,0,2.9,0.4,2.5,0.3c0.5,0.1,1.1,0.3,1.7,0.4c0.2,0.1,0.4,0.1,0.5,0.1
		c0,0,0.1,0.1,0.3,0.3c0.6,0.4,1.2,0.7,1.8,1.1c0.3,0.2,0.6,0.3,0.7,0.4c0.1,0.2,0.3,0.4,0.6,0.7c0.5,0.5,1,1,1.5,1.5
		c0.2,0.3,0.7,0.9,0.9,1.3c0.1,0.2,0.4,0.8,0.7,1.2c0.2,0.7,0.8,2.1,0.8,2.1c0.1,0.2,0.2,0.7,0.3,1.1c0,1,0,2.1,0,3.1
		c0,0.5,0,1.1,0,1.6c-1.9,6.3-3.6,12.6-4.8,19.1c-0.8-0.1-1.6-0.2-2.4-0.4c-1.8-0.4-3.6-0.8-5.3-1.3
		C1761.8,251.2,1761,250.9,1760.3,250.6z M1965,457.7c0.2,0.2,0.3,0.4,0.3,0.4C1965.3,458.1,1965.2,457.9,1965,457.7z M1965.4,491.4
		c0,0-0.1,0.1-0.1,0.1C1965.3,491.6,1965.3,491.5,1965.4,491.4z M1910.7,456.8C1910.6,456,1910.5,454.6,1910.7,456.8L1910.7,456.8z
		 M1924.8,388.3C1924.4,388.8,1923.1,390.3,1924.8,388.3L1924.8,388.3z M1991.4,256.3C1991.5,256.6,1991.6,256.7,1991.4,256.3
		L1991.4,256.3z M1993.3,258.3C1992.5,257.8,1992.9,258,1993.3,258.3L1993.3,258.3z M2008.9,252.3c0,0.1,0,0.2,0,0.2
		c-0.3,0.4-0.5,0.8-0.7,1.3c-0.1,0.1-0.4,0.4-0.8,0.9c-0.1,0.1-0.5,0.5-0.8,0.8c-0.8,0.6-1.6,1.1-2.5,1.6c-0.2,0.1-1.4,0.7-1.9,1
		c-0.7,0.2-2.1,0.8-2.4,0.8c-0.7,0.2-1.4,0.4-2.1,0.5c-0.2-0.1-1.8,0-2.1,0c-0.1,0-0.2-0.1-0.4-0.1c-0.3-0.1-0.4-0.1-0.5-0.1
		c-0.1-0.1-0.3-0.2-0.6-0.3c-0.2-0.1-0.4-0.2-0.5-0.3c-0.9-0.8-1.7-1.6-2.4-2.5c-0.1-0.2-0.2-0.4-0.3-0.7c-0.5-1.1-1.2-2.1-1.7-3.1
		c-0.1-0.2-0.2-0.3-0.2-0.5c-0.5-2.7-1.1-5.4-1.8-8c-1.3-5-2.8-10-4.5-14.9c1,0,1.9,0,2.9,0.1c1.5,0,3,0.2,4.4,0.5
		c3.6,0.7,7.1,2,10.3,3.8c0.2,0.1,0.3,0.2,0.5,0.3c-0.2-0.1,1.6,1.2,1.9,1.5c0.6,0.6,1.1,1.2,1.8,1.8c0.2,0.2,0.3,0.3,0.4,0.4
		c0,0,0,0,0,0c1.1,1.5,2,3.2,2.9,4.8c0.1,0.1,0.1,0.2,0.2,0.3c0.3,0.8,0.6,1.6,0.8,2.4c0.1,0.8,0.3,1.6,0.6,2.4c0,0.1,0,0.1,0.1,0.1
		c0,0,0,0,0,0c0,0.8,0.1,1.6,0.1,2.3c0,0.4-0.1,0.8-0.1,1.1c0.1-0.2,0.1-0.3,0.2-0.5C2009.2,250.8,2009,251.5,2008.9,252.3z"/>
	<path d="M2009.2,250.6C2008.7,252,2009,251.5,2009.2,250.6L2009.2,250.6z"/>
</g>
</svg>
