<?xml version="1.0" encoding="utf-8"?>
<!-- Generator: Adobe Illustrator 23.0.3, SVG Export Plug-In . SVG Version: 6.00 Build 0)  -->
<svg version="1.1" id="Layer_1" xmlns="http://www.w3.org/2000/svg" xmlns:xlink="http://www.w3.org/1999/xlink" x="0px" y="0px"
	 viewBox="0 0 2088 717.4" style="enable-background:new 0 0 2088 717.4;" xml:space="preserve">
<title>GPlogo</title>
<g>
	<path d="M205.4,499.9c0.1-0.7,0.2-1.4,0.2-2.1c0,0,0,0,0,0C205.6,497.7,205.6,498.1,205.4,499.9z"/>
	<path d="M96,547.6C96.7,548.2,97.6,548.8,96,547.6L96,547.6z"/>
	<path d="M791.4,133.6C791.4,133.6,791.4,133.6,791.4,133.6c0-0.1,0-0.1,0-0.1c-0.1-0.4-0.1-0.8-0.2-1.2
		C791.2,132.1,791.2,132.3,791.4,133.6z"/>
	<path d="M740.7,558.3c-0.2-0.4-0.4-0.7-0.6-0.9C740.3,557.6,740.5,557.9,740.7,558.3z"/>
	<path d="M751.8,564.1C751.8,564.1,751.8,564.1,751.8,564.1c-0.1,0-0.1,0-0.2,0C751.6,564.1,751.7,564.1,751.8,564.1z"/>
	<path d="M883.1,140.7c0-0.1,0-0.2-0.1-0.4c0,0.2,0.1,0.4,0.1,0.5C883.1,140.8,883.1,140.7,883.1,140.7z"/>
	<path d="M869.2,104.6c-0.2-0.2-0.3-0.3-0.5-0.5c-0.3-0.2-0.7-0.4-1-0.7C868,103.9,868.7,104.7,869.2,104.6z"/>
	<path d="M840.4,559.9C840.4,559.9,840.4,559.9,840.4,559.9c0.5,0.3,0.9,0.5,1.3,0.8C841.5,560.6,841.2,560.3,840.4,559.9z"/>
	<path d="M878,556C878,556,878,556,878,556c0.3-0.5,0.7-0.9,0.9-1.3c0,0,0,0,0,0C878.9,554.6,878.6,554.9,878,556z"/>
	<path d="M881.2,550.7c0,0,0-0.1,0.1-0.1c0.1-0.4,0.3-0.8,0.4-1.2c0,0,0,0,0-0.1C881.7,549.3,881.5,549.6,881.2,550.7z"/>
	<path d="M336,453.5C336,453.5,336,453.5,336,453.5c0.3,0.5,0.5,0.8,0.6,0.9C336.4,454.1,336.2,453.8,336,453.5z"/>
	<path d="M292.2,550.8c0.2,0.6,0.4,1.1,0.4,1.4c0,0,0,0,0,0.1C292.7,551.8,292.4,551.2,292.2,550.8z"/>
	<path d="M349.5,489.6C349.5,489.6,349.5,489.6,349.5,489.6c0,0.3,0.1,0.6,0.1,0.7C349.6,490.1,349.6,489.8,349.5,489.6z"/>
	<path d="M291.4,534.6c-0.1,0.8-0.1,1.6-0.4,2.2c0,0,0,0,0,0C291.6,535.7,291.5,534.8,291.4,534.6z"/>
	<path d="M438.8,552.2C438.8,552.1,438.8,552.1,438.8,552.2c0-0.3,0.1-0.6,0.2-1C438.8,551.5,438.7,551.9,438.8,552.2z"/>
	<path d="M418.9,101c-0.1-0.1-0.1-0.1-0.2-0.2c0,0-0.1-0.1-0.1-0.1C417.9,100.3,417.2,100,418.9,101z"/>
	<path d="M509.5,550.9c0.2,0.6,0.4,1.1,0.4,1.4c0,0,0,0,0,0.1C510,551.8,509.7,551.2,509.5,550.9z"/>
	<path d="M566.8,489.6C566.8,489.6,566.8,489.6,566.8,489.6c0,0.3,0.1,0.6,0.1,0.7C566.9,490.1,566.9,489.8,566.8,489.6z"/>
	<path d="M553.3,453.5C553.3,453.5,553.3,453.5,553.3,453.5c0.3,0.5,0.5,0.8,0.6,0.9C553.7,454.1,553.5,453.8,553.3,453.5z"/>
	<path d="M508.7,534.6c-0.1,0.8-0.1,1.6-0.4,2.2c0,0,0,0,0,0C508.9,535.7,508.8,534.8,508.7,534.6z"/>
	<path d="M656.1,552.2C656.1,552.1,656.1,552.1,656.1,552.2c0-0.3,0.1-0.6,0.2-1C656.2,551.5,656.1,551.9,656.1,552.2z"/>
	<path d="M636.3,101c-0.1-0.1-0.1-0.1-0.2-0.2c0,0-0.1-0.1-0.1-0.1C635.3,100.3,634.5,100,636.3,101z"/>
	<path d="M1747,515.3C1747,515.3,1747,515.3,1747,515.3c0.1,0,0.2,0.1,0.3,0.2C1747.2,515.4,1747.1,515.3,1747,515.3z"/>
	<path d="M1711,105.1C1711,105.1,1711,105.1,1711,105.1c-0.3,0.3-0.5,0.6-0.8,0.9c0,0,0,0.1-0.1,0.1
		C1710.8,105.4,1711,105.2,1711,105.1z"/>
	<path d="M1639.5,562.4C1639.5,562.4,1639.5,562.4,1639.5,562.4C1639.5,562.4,1639.5,562.4,1639.5,562.4
		C1639.5,562.4,1639.5,562.4,1639.5,562.4z"/>
	<path d="M1653.6,100.2c-0.2-0.1-0.4-0.1-0.5-0.2C1653.2,100.1,1653.4,100.1,1653.6,100.2C1653.6,100.2,1653.6,100.2,1653.6,100.2z"
		/>
	<path d="M1642.4,232C1642,232.5,1641.9,232.7,1642.4,232L1642.4,232z"/>
	<path d="M1622,141.3C1622,141.3,1622,141.3,1622,141.3C1622,141.3,1622,141.3,1622,141.3C1622,141.2,1622,141.3,1622,141.3z"/>
	<path d="M1672.1,521.2c0-0.3,0.1-0.6,0.1-0.9C1672.2,520.4,1672.1,520.7,1672.1,521.2C1672.1,521.2,1672.1,521.2,1672.1,521.2z"/>
	<path d="M1615.9,525.7c-0.1,0.3-0.3,0.6-0.4,0.9c-0.1,0.3-0.2,0.5-0.3,0.8C1615.6,527.1,1615.9,526,1615.9,525.7z"/>
	<path d="M1613.4,534.7c0,0.2,0,0.3,0,0.4c0,0.1,0,0.1,0,0.2C1613.4,536.1,1613.5,536.3,1613.4,534.7z"/>
	<path d="M1216.3,454.1C1216.3,454.1,1216.3,454,1216.3,454.1c0.3,0.5,0.5,0.8,0.6,0.9C1216.7,454.6,1216.5,454.4,1216.3,454.1z"/>
	<path d="M1229.9,490.1C1229.9,490.1,1229.9,490.1,1229.9,490.1c0,0.3,0.1,0.6,0.1,0.7C1229.9,490.6,1229.9,490.4,1229.9,490.1z"/>
	<path d="M1171.7,535.1c-0.1,0.8-0.1,1.6-0.4,2.2c0,0,0,0,0,0C1171.9,536.2,1171.9,535.3,1171.7,535.1z"/>
	<path d="M1172.5,551.4c0.2,0.6,0.4,1.1,0.4,1.4c0,0,0,0,0,0.1C1173,552.3,1172.8,551.8,1172.5,551.4z"/>
	<path d="M1299.4,101.6c-0.1-0.1-0.1-0.1-0.2-0.2c0,0-0.1-0.1-0.1-0.1C1298.4,100.8,1297.6,100.5,1299.4,101.6z"/>
	<path d="M1319.2,552.7C1319.2,552.7,1319.2,552.6,1319.2,552.7c0-0.3,0.1-0.6,0.2-1C1319.3,552,1319.2,552.4,1319.2,552.7z"/>
	<path d="M955.2,547.9C955.2,548,955.2,548,955.2,547.9C955.2,548,955.2,547.9,955.2,547.9C955.2,547.9,955.2,547.9,955.2,547.9z"/>
	<path d="M1093.1,551.1C1093.1,551,1093.1,551,1093.1,551.1c0.1-0.5,0.3-0.9,0.5-1.4C1093.5,549.6,1093.4,549.9,1093.1,551.1z"/>
	<path d="M1086.2,515.6c-0.1,0-0.3,0-0.4,0C1085.9,515.6,1086.1,515.6,1086.2,515.6C1086.2,515.6,1086.2,515.6,1086.2,515.6z"/>
	<path d="M1089.4,517.9c0,0-0.1-0.1-0.1-0.1C1089.3,517.8,1089.4,517.8,1089.4,517.9C1089.4,517.9,1089.4,517.9,1089.4,517.9z"/>
	<path d="M1090.9,554.9C1090.9,554.8,1090.9,554.8,1090.9,554.9c-0.4,0.4-0.6,0.7-0.7,0.8C1090.4,555.4,1090.7,555.1,1090.9,554.9z"
		/>
	<path d="M1087.9,516.4C1087.9,516.4,1087.9,516.4,1087.9,516.4c0,0,0.1,0.1,0.2,0.2C1088.1,516.5,1088,516.4,1087.9,516.4z"/>
	<polygon points="1087.1,515.6 1087.1,515.6 1087.1,515.6 1087.1,515.6 	"/>
	<path d="M1091.2,330.8C1091.3,330.1,1091.4,328.6,1091.2,330.8L1091.2,330.8z"/>
	<path d="M1554.4,522.8c-0.2-0.5-0.3-1-0.4-1.3c-0.1-0.1-0.1-0.2-0.2-0.4C1553.6,521.6,1554,522.4,1554.4,522.8z"/>
	<path d="M1555.9,542.5c0-0.3,0.1-0.7,0.1-1c0-0.1,0-0.2,0-0.4C1556,541.4,1555.9,541.9,1555.9,542.5
		C1555.9,542.6,1555.9,542.6,1555.9,542.5z"/>
	<path d="M1591.9,408.1c-0.9-0.2-2.3-0.4-2.5-0.4c0.1,0,0.1,0,0.1,0C1590.3,407.9,1591.1,407.9,1591.9,408.1z"/>
	<path d="M1397.9,548.3C1397.4,546.9,1397.6,547.6,1397.9,548.3L1397.9,548.3z"/>
	<path d="M1528.7,341.4C1528.2,342.3,1528.4,342.1,1528.7,341.4L1528.7,341.4z"/>
	<path d="M1515.5,95.8c-0.1,0-0.1,0-0.2,0c0.2,0,0.3,0,0.5,0.1C1515.7,95.8,1515.6,95.8,1515.5,95.8z"/>
	<path d="M1876,490.1C1876,490,1876,490,1876,490.1c0,0.3,0.1,0.6,0.1,0.7C1876.1,490.5,1876.1,490.3,1876,490.1z"/>
	<path d="M1818.7,551.3c0.2,0.6,0.4,1.1,0.4,1.4c0,0,0,0,0,0.1C1819.2,552.3,1818.9,551.7,1818.7,551.3z"/>
	<path d="M1817.9,535.1c-0.1,0.8-0.1,1.6-0.4,2.2c0,0,0,0,0,0C1818.1,536.2,1818,535.2,1817.9,535.1z"/>
	<path d="M1862.5,454C1862.5,454,1862.5,454,1862.5,454c0.3,0.5,0.5,0.8,0.6,0.9C1862.9,454.6,1862.7,454.3,1862.5,454z"/>
	<path d="M1996.1,551.7c-0.1,0.3-0.3,0.7-0.2,1c0,0,0,0,0,0C1995.9,552.4,1996,552.1,1996.1,551.7z"/>
	<path d="M1975.7,101.3c-0.7-0.5-1.4-0.8,0.3,0.3c-0.1-0.1-0.1-0.1-0.2-0.2C1975.8,101.4,1975.8,101.3,1975.7,101.3z"/>
	<path d="M2037.1,316.2C2036.5,317.6,2036.8,317.1,2037.1,316.2L2037.1,316.2z"/>
	<path d="M2088,10.2V0H0v10.2h140.5v76.2c-6.6-6.9-14.7-12.4-24.2-15.5C99.5,65,80.9,70.1,69.5,83.6C52.9,103,47,129.8,59,153.1
		c4.8,8.9,11.8,16.4,20.4,21.7c6.9,4.3,16.5,1.5,20.5-5.4c4-7.2,1.6-16.3-5.4-20.5c-0.8-0.5-1.6-1-2.4-1.6c-0.1-0.1-0.2-0.2-0.3-0.3
		c-1.2-1.3-2.5-2.5-3.7-3.8c-0.3-0.4-0.8-1-1-1.3c-0.6-0.9-1.2-1.8-1.7-2.8c0,0.1-0.6-1.2-1-1.9c-0.3-0.8-1.1-2.9-1.2-3.3
		c-1.1-3.2-1.4-6.7-1-10.1c-0.2,2,0.6-3.2,0.5-2.8c0.2-1.1,0.5-2.2,0.9-3.2c0.9-2.8,2.1-5.5,3.7-8.1c0.7-1.2,1.5-2.5,2.3-3.7
		c0.2-0.3,1.1-1.5,1.4-1.8c1.2-1.4,2.5-2.6,3.9-3.9c0.1-0.1,0.2-0.1,0.2-0.1c0.8-0.4,1.6-0.9,2.3-1.3c0.9-0.2,1.7-0.4,2.5-0.7
		c0.4,0,0.9,0,1.4,0c0.4,0,0.8,0,1.2,0c1.2,0.3,2.4,0.5,3.6,0.8c1,0.3,2,0.6,3.1,1c0.6,0.3,1.1,0.5,1.7,0.8c1.6,0.8,3.2,1.8,4.6,2.9
		c-0.5-0.3,2.4,2.3,3,2.8c0.6,0.7,1.5,1.6,2.2,2.4c0.1,0.1,0.1,0.2,0.2,0.2c0.1,0.1,0.1,0.2,0.2,0.4c1.4,2,2.7,4.1,3.8,6.3
		c0.5,1,1,2,1.5,3.1c0,0.1,0.1,0.1,0.1,0.2c0.1,0.2,0.1,0.4,0.2,0.7c0.7,2.3,1.5,4.5,2.1,6.8c0.6,2.2,1,4.4,1.3,6.7
		c0,0.4,0.1,0.8,0.1,1c0.1,1.6,0.2,3.2,0.3,4.8c0,0.4,0,0.9,0,1.3c0,0.6,0,1.3,0,1.9c0,4-0.2,8.1-0.6,12.1c-0.2,1.9-0.3,3.8-0.5,5.7
		c-0.1,0.9-0.6,4.9-0.6,4.6c-0.6,4.4-1.4,8.8-2.3,13.1c-1.1,5.1-2.4,10.2-3.9,15.2c-1.5,5.1-3.3,10-5.4,14.9c-2.8,6-6,11.7-9.4,17.4
		c-8.6,14.3-17.4,28.5-25.6,43.1c-22.6,40.1-41.7,83-49.1,128.7C26,442,22.7,492.9,45.5,533.9c15.9,28.6,44.2,51,76.2,58.8
		c6.2,1.5,12.5,2.5,18.8,2.7V644H0v10.2h140.5v63.2h10.2v-63.2h210v63.2h10.2v-63.2h210v63.2H591v-63.2h210v63.2h10.2v-63.2h210
		v63.2h10.2v-63.2h210v63.2h10.2v-63.2h210v63.2h10.2v-63.2h210v63.2h10.2v-63.2h210v63.2h10.2v-63.2H2088V644h-176.1V538.4
		c7.1,23.9,23.5,46,47.7,53.3c27.6,8.3,62.8-8,67.2-38.1c3.5-24.2-4.1-52.7-28.8-62.3c-6.7-2.5-14-3.4-21.1-2.6
		c-7.8,0.7-15.4,6.4-15,15c0.3,7.5,6.6,15.8,15,15l0,0c1.7-0.2,3.3-0.3,4.9-0.2c0.4,0,1.8,0.1,2.6,0.1c0.8,0.2,2.1,0.4,2.4,0.5
		c0.5,0.1,0.8,0.3,1.2,0.4c0,0,0,0,0.1,0.1c0.8,0.6,1.6,1.1,2.5,1.5c0.1,0.1,0.2,0.1,0.2,0.2c0.2,0.2,1.1,1.1,1.7,1.7
		c0.3,0.5,0.7,1,1,1.5c0.5,0.8,1,1.7,1.4,2.6c0.1,0.1,0.1,0.2,0.1,0.3c0,0,0,0,0,0.1c0.6,2.2,1.4,4.3,1.9,6.5c0,0.2,0.2,1,0.4,1.7
		c0,0.3,0,0.6,0.1,1.2c0.2,2,0.3,4,0.3,6c0,1.6-0.1,3.1-0.2,4.7c-0.1,0.3-0.1,0.6-0.2,0.9c-0.2,0.6-0.9,2.2-1.3,3.3
		c0.4-0.8,1-1.3-0.1,0.8c0,0.1-0.1,0.1-0.1,0.2c0,0.1,0,0.2,0,0.2c0-0.1,0-0.1,0-0.2c-0.6,1-1.1,2-1.7,3c0,0.1-0.1,0.1-0.1,0.2
		c-0.9,0.8-1.8,1.7-2.6,2.6c-0.1,0.1-0.2,0.2-0.3,0.3c-0.1,0-0.1,0.1-0.2,0.1c-1.3,0.8-2.8,1.5-4.2,2.3c-0.8,0.2-1.6,0.5-2.4,0.8
		c-1.6,0.5-3.1,0.8-4.7,1.1c-2.9,0.6-1.2,0.2-0.6,0.1c-1.1,0.1-2.2,0.2-3.3,0.2c-1.8,0.1-3.6,0-5.4-0.1c3.4,0-0.8-0.3-2.1-0.6
		s-4.9-2.2-2.2-0.7c-1.3-0.7-2.6-1.3-3.9-2.1c-0.6-0.4-4.2-3-3.2-2.2c-2.4-2-4.7-4.2-6.7-6.6c-0.4-0.5-2.3-2.9-2-2.4
		c-1-1.5-2.1-3-3-4.5c-1.7-2.7-3.2-5.5-4.5-8.4c0.3,0.7-1.1-2.9-1.3-3.4c-0.6-1.7-1.1-3.4-1.6-5.1c-0.4-1.7-0.7-3.3-1.1-5
		c0-0.1,0-0.1,0-0.2c0-0.4-0.1-0.9-0.1-1.3c-0.1-1.2-0.2-2.4-0.2-3.7c-0.5-8.7-0.3-17.5,0.6-26.2c0-0.4,0.1-0.9,0.2-1.3
		c0-0.1,0-0.2,0-0.3c0.2-1.3,0.4-2.7,0.7-4c0.6-3.2,1.3-6.3,2.2-9.4c0.9-3.1,1.9-6,3-8.9c1-2.7,0.2-0.5,0,0.1
		c0.4-0.8,0.7-1.5,1.1-2.3c0.7-1.5,1.5-3.1,2.4-4.6c0.8-1.5,1.8-3,2.7-4.4c0.5-0.7,1-1.4,1.5-2.1c0,0,0.1-0.1,0.1-0.1
		c2.3-2.7,4.8-5.3,7.5-7.7c5-4.5,10-9,14.9-13.7c10.2-9.8,19.7-20.4,27.3-32.3c9.2-14.2,14.3-29.8,16-45.8c1.1,0.2,2.2,0.4,3.4,0.5
		c18.7,1.7,39.4-11.5,44-30c4.1-16.3-2.6-34.6-14.8-45.8c-14.5-13.3-33.9-15.7-52.6-13.8c-7.5-15.8-16.3-31.1-25.2-46
		c-7.4-12.3-14.9-24.6-21.7-37.3c-1.5-2.8-2.9-5.6-4.3-8.5c-0.7-1.5-1.4-3-2.1-4.5l-0.7-1.7c-0.1-0.1-0.1-0.2-0.1-0.3
		c-0.1-0.1-0.1-0.3-0.2-0.5c-2.2-5.4-3.9-11-5.2-16.7c-0.3-1.2-0.5-2.4-0.7-3.6c0-0.4-0.1-0.8-0.1-1.3c-0.3-3.2-0.3-6.4-0.1-9.5
		c0.1-1.6,0.2-3.2,0.4-4.8c0,0.2,0.4-2.5,0.6-3.1c0.7-3.5,1.7-7,3-10.3c0.4-0.8,0.8-1.5,1.2-2.3c0.7-1.3,1.4-2.6,2.3-3.8
		c0.3-0.5,0.6-0.9,1-1.4c0.2-0.2,0.3-0.4,0.5-0.5c1.3-1.3,2.6-2.7,4-3.9c0.1-0.1,0.2-0.2,0.3-0.3c0.4-0.3,0.8-0.5,1.2-0.8
		c1.4-0.9,2.9-1.7,4.5-2.5c0.1-0.1,0.4-0.2,0.6-0.3c0.4-0.2,0.9-0.3,1.3-0.5c1.7-0.6,3.5-1,5.3-1.4c1.3-0.3,5.4-0.5,1.3-0.4
		c1.2,0,2.3-0.2,3.5-0.2c0.7,0.1,1.3,0.1,2,0.1c0.1,0,0.1,0,0.2,0c0.7,0.2,1.4,0.5,1.9,0.8c0.6,0.4,1.2,0.8,1.9,1.1
		c0.3,0.2,0.6,0.4,1,0.6c0,0,0.1,0.1,0.1,0.1c0.1,0.1,0.2,0.2,0.4,0.3c-0.1,0-0.1-0.1-0.2-0.1c0,0,0,0,0,0c2.2,2,5.9,5.9,6.8,7
		c2.3,2.8,4.2,5.9,5.9,9.2c0,0.2,0.8,2,1,2.7c0.4,1.5,0.8,2.9,1,4.4c0,0.1,0.2,2.1,0.2,2.9c0,1.6-0.2,3.2-0.2,4.7
		c-0.1,0.6-0.2,1.2-0.4,1.8c-0.2,0.8-0.4,1.6-0.6,2.4c-0.1,0.2-0.3,1-0.5,1.6c-0.4,0.7-1.1,2.3-1.3,2.6c-0.5,0.9-2.9,3.6-1.5,2.2
		c-0.7,0.7-1.4,1.5-2.2,2.2c0.1-0.2-2,1.3-2.8,1.7c-7.1,3.8-9.4,13.7-5.4,20.5c4.2,7.2,13.4,9.2,20.5,5.4
		c16-8.6,24.5-26.7,24.3-44.4c-0.1-18.6-10-36.6-24.1-48.5c-13.3-11.2-29-13.4-45.4-8.3c-18,5.6-30.9,18.9-37.8,36.2
		c-0.6,1.5-1.1,3-1.6,4.4V10.2H2088z M94.9,100.5C93.7,101.6,94.4,100.9,94.9,100.5L94.9,100.5z M103.2,98.4c0.3,0,0.5,0,0.8,0.1
		C104,98.5,103.7,98.5,103.2,98.4z M1992.8,523.3c0.2,0.2,0.3,0.4,0.3,0.4C1993.2,523.7,1993,523.5,1992.8,523.3z M1993.2,557
		c0,0-0.1,0.1-0.1,0.1C1993.1,557.1,1993.2,557.1,1993.2,557z M1938.6,522.4C1938.4,521.6,1938.4,520.2,1938.6,522.4L1938.6,522.4z
		 M1970.3,98.6c-0.6,0-1.2,0-1.1,0C1969.5,98.5,1969.9,98.5,1970.3,98.6z M1957.3,101.2C1958,101,1958.5,100.8,1957.3,101.2
		L1957.3,101.2z M1957.3,101.3c-0.1,0.1-0.3,0.1-0.5,0.2C1956.9,101.4,1957.1,101.3,1957.3,101.3z M1674.8,426.5
		c-10.9-10.7-22.8-20.3-32.9-31.8c-1-1.2-2-2.3-3-3.5c-0.4-0.5-2.9-3.7-2.7-3.4c-2.1-2.8-4.1-5.7-6-8.7c-1.9-3-3.7-6.1-5.3-9.3
		c-0.8-1.6-1.6-3.3-2.4-5c-0.1-0.3-0.4-0.9-0.6-1.4c-0.3-0.9-0.7-1.7-1-2.6c-7-18.7-8.3-33.1-7.9-52.7c0.1-4.2,0.4-8.3,0.8-12.5
		c0.3-3,0.1-0.6,0,0c0.2-1.1,0.3-2.2,0.5-3.3c0.4-2.3,0.9-4.7,1.4-7c0.8-3.7,1.8-7.3,3-10.9c0.6-1.7,1.2-3.5,1.8-5.2
		c0.3-1,0.7-1.9,1.1-2.8c0.1-0.2,0.1-0.4,0.2-0.5c0-0.1,0.1-0.2,0.2-0.3c3-6.7,6.5-13.3,10.4-19.5c1.8-2.9,3.7-5.7,5.7-8.5
		c1-1.4,2-2.7,3-4.1l1.7-2.2c-0.2,0.2-0.3,0.4-0.4,0.6c0.2-0.3,0.5-0.7,0.8-1c8.3-10.4,17.4-20.2,26.3-30c4-4.4,8.1-9,12.1-13.8v247
		C1679.5,431.4,1677.2,428.9,1674.8,426.5z M1681.6,83.1c-6.7-6.1-14.7-10.5-23.4-12.9c-11.7-3.2-23.7-1-34.4,4.5
		c-15.7,8.1-29.4,23.6-33.2,41.1c-3.5,16-1.4,33.7,9.8,46.3c5.9,6.4,13.7,10.7,22.3,12.4c7.7,1.5,16.6-2.2,18.4-10.5
		c1.7-7.5-2.2-16.8-10.5-18.5c-1.6-0.3-3.2-1-4.8-1.3c-0.5-0.3-1-0.6-1.6-0.9c-0.1,0-0.1-0.1-0.2-0.1c-0.4-0.3-1-0.8-1.1-0.9
		c-0.3-0.3-0.6-0.7-0.9-1c0.7,0.9,0.9,1.5-0.1-0.1c-0.1-0.1-0.2-0.2-0.3-0.4c0.1,0.1,0.2,0.2,0.3,0.3c0,0,0,0,0,0
		c-0.5-0.8-0.9-1.6-1.4-2.4c0,0-0.6-1.3-0.9-2.4c-0.2-0.6-0.5-1.5-0.7-2.3c0-0.1,0-0.3,0-0.5c0-1-0.1-2-0.2-3c0-1.3,0.1-2.7,0.1-4
		c0-0.3,0-0.5,0-0.8c0-0.1,0-0.1,0-0.2c0.7-2.8,1.4-5.5,2.2-8.2c0.1-0.2,0.2-0.4,0.3-0.6c0.6-1,1.3-2.1,1.9-3.1
		c0.5-0.6,1.1-1.3,1.6-1.9c1.8-2.1,3.8-4,5.8-5.9c2.7-2.3,5.6-4.2,8.8-5.8c-0.5,0.3,3.4-1.1,3.9-1.2c0.2-0.1,0.8-0.2,1.2-0.2
		c1.2-0.1,2.3-0.1,3.5,0c-0.6,0-2.7-0.7,0.4,0.1c0.9,0.2,1.9,0.5,2.8,0.8c0.5,0.2,1,0.3,1.5,0.5c-0.5-0.2,0,0,0.5,0.2
		c0.2,0.1,0.3,0.1,0.5,0.2c-0.2-0.1-0.3-0.1-0.5-0.2c0.2,0.1,0.4,0.1,0.5,0.2c1.5,0.8,3,1.6,4.5,2.5c0.3,0.2,0.7,0.4,1,0.7
		c0.1,0.1,1.5,1.3,1.9,1.6c1.2,1.1,2.2,2.3,3.2,3.5c0,0,0.1,0.1,0.1,0.1c0.6,0.9,1.2,1.7,1.7,2.7c0.9,1.5,1.6,3,2.4,4.5
		c0.5,1.2,0.9,2.5,1.3,3.8c0.5,1.7,1,3.5,1.4,5.2c0.1,0.6,0.9,5.1,0.8,4.3c0.4,3.6,0.6,7.2,0.5,10.8c0,0.6-0.3,1.8-0.3,2.5
		c-0.5,2.2-1.1,4.3-1.9,6.4c0,0,0,0.1,0,0.1c-0.5,0.9-0.9,2-1.4,2.9c-1.1,2.1-2.4,4.2-3.7,6.2c-1.3,2-2.7,4-4.1,5.9
		c-0.1,0.1-0.2,0.2-0.2,0.3c0,0-0.1,0.1-0.1,0.1c-1,1.2-1.9,2.3-2.8,3.5c-3.5,4.2-7.1,8.2-10.7,12.2c-17.4,19.2-35.3,38.5-47.3,61.6
		c-16.2,31.1-20,65.3-15,99.8c4.5,30.9,19.7,57.8,41,80.1c9.7,10.2,21.3,18.6,30.6,29.2c0.5,0.6,1,1.2,1.5,1.7
		c0.1,0.1,0.1,0.2,0.2,0.4c1.1,1.6,2.2,3.2,3.2,4.9c0.9,1.5,1.7,3,2.5,4.5c0.4,0.8,0.7,1.5,1.1,2.3c0.1,0.2,0.2,0.4,0.3,0.6
		c0.1,0.1,0.1,0.3,0.2,0.5c2.4,6.5,4.3,13.2,5.5,20.1c0.2,0.9,0.5,3.1,0.5,3.1c0.1,1.2,0.3,2.3,0.4,3.5c0.3,3,0.5,6,0.6,9.1
		c0.1,4.4,0.1,8.9-0.2,13.3c-0.1,1.2-0.1,2.3-0.2,3.5c0,0.5-0.1,1-0.1,1.5c0.1-0.6,0,0.3-0.1,0.9c0,0.2,0,0.4-0.1,0.6
		c0-0.2,0-0.4,0-0.5c0,0.1,0,0.2,0,0.2c-0.3,1.2-0.5,2.5-0.8,3.8c-0.8,3.2-1.8,6.3-3,9.4c0.1-0.4-1.7,3.4-1.9,4
		c-1,1.8-2,3.6-3.1,5.4c-0.6,1-1.2,1.9-1.9,2.9c-0.1,0.1-0.5,0.7-0.8,1.1c-0.3,0.4-0.9,1.1-1,1.3c-0.6,0.7-1.2,1.3-1.8,2
		c-1.4,1.5-2.8,2.9-4.3,4.2c-0.4,0.4-0.8,0.7-1.3,1.1c-0.3,0.2-1.4,1-1.9,1.4c-1.4,0.9-2.9,1.7-4.4,2.6c-0.1,0.1-0.2,0.1-0.4,0.2
		c-0.6,0.2-1.2,0.5-1.8,0.7c-1.4,0.4-2.7,0.7-4.1,1c1.8-0.4,0.8-0.1,0,0c-0.2,0-0.4,0.1-0.6,0.1c0.2-0.1,0.4-0.1,0.6-0.1
		c-0.1,0-0.2,0-0.3,0c-1.4,0-2.8,0-4.2,0c-1,0-2-0.1-3.1-0.2c-0.3,0-0.6-0.1-0.8-0.1c-1.8-0.3-3.6-0.8-5.4-1.3c0,0-1.4-0.5-2.1-0.7
		c-0.2-0.1-0.4-0.2-0.5-0.3c-1.1-0.6-2.1-1.2-3.1-1.9c1.2,0.7-1.5-1.2-2.2-1.9c-0.3-0.3-0.6-0.6-0.9-1c-0.6-0.9-1.2-1.8-1.7-2.7
		c-0.3-0.5-1.1-2.4-1.3-2.6c-0.1-0.3-0.2-0.6-0.2-0.7c-0.2-0.7-0.4-1.2-0.5-1.8c-0.1-0.3-0.1-0.5-0.1-0.8c0-0.1,0-0.3-0.1-0.4
		c-0.2-3.6,0.3-7.2,0.4-10.7c0-0.1,0-0.1,0-0.2c0-0.5,0-1,0-1.5c0,0.4,0,0.7,0,1c0-0.5,0.1-1,0.2-1.5c0.2-1.1,0.5-2.2,0.8-3.3
		c0.2-0.9,0.5-1.7,0.8-2.5c-0.1,0-0.1,0.1-0.2,0.1c0.2-0.3,0.3-0.6,0.4-0.9c0-0.1,0.1-0.2,0.1-0.3c0.2-0.7,0.3-0.8,0.3-0.6
		c0,0,0-0.1,0.1-0.1c0.6-1.2,1.2-2.2,1.9-3.3c0.1-0.1,0.2-0.2,0.2-0.4c0,0,0,0,0,0c0.8-0.8,1.7-1.6,2.4-2.4c0,0,0,0,0,0
		c0.5-0.3,1.1-0.6,1.2-0.7c0.2-0.1,0.4-0.3,0.7-0.4c1.2-0.2,2.5-0.7,3.7-1c0.5,0,1-0.1,1.5-0.1c2-0.1,4.1,0,6.1,0.2
		c7.8,0.7,15.3-7.4,15-15c-0.4-8.7-6.6-14.2-15-15l0.2,0.1c-16.9-1.5-32.6,5.4-41.9,19.6c-3.1,4.7-5.3,10.2-6.8,15.8
		c-0.3-1.9-0.7-3.8-1.2-5.6c-5.7-21.5-24.3-33.9-46.3-32.9c-7.8,0.3-15.4,6.7-15,15c0.3,7.8,6.6,15.4,15,15c2.1-0.1,4.2,0,6.2,0
		c0.1,0,0.1,0,0.1,0c0.1,0,0.2,0.1,0.3,0.1c0.7,0.2,1.3,0.3,2,0.5c0.5,0.1,1.1,0.2,1.6,0.4c0.1,0,0.1,0.1,0.2,0.1
		c0.7,0.5,1.4,0.9,2.2,1.3c0.4,0.3,1.1,0.9,1.7,1.5c0.1,0.2,0.2,0.4,0.4,0.7c0.2,0.5,0.6,0.9,0.8,1.3c0.1,0.2,0.3,0.5,0.4,0.7
		c0-0.1,0-0.1,0.1-0.2c0,0,0,0.2,0.1,0.5c0.2,0.3,0.3,0.6,0.5,0.9c0.4,0.8,0.2,0.7-0.1,0.4c0.4,1,0.8,2.2,0.9,2.4
		c0.3,1.2,0.5,2.3,0.8,3.5c0.2,2,0.3,4.1,0.3,6.1c0,1.5-0.1,3-0.2,4.4c0,0.6,0,1.2-0.1,1.8c0.1-0.6,0.2-0.3-0.1,1.4c0,0,0,0,0,0
		c0,0.3-0.1,0.6-0.1,0.9c0-0.3,0-0.5,0-0.8c-0.4,1.9-0.9,3.8-1.5,5.7c-0.1,0.2-0.1,0.4-0.2,0.5c-0.7,0.9-1.2,2.7-1.8,3.7
		c-0.1,0.1-0.7,1.4-1.3,2.3c-0.1,0.1-0.3,0.3-0.5,0.5c-0.4,0.4-0.8,0.8-1.1,1.2c-0.5,0.6-1.4,1.6-2.2,2.3c-0.3,0.1-0.6,0.2-0.9,0.4
		c-0.8,0.5-1.6,1-2.5,1.5c-0.7,0.4-1.4,0.6-2,1c0,0-0.1,0-0.1,0c-1.8,0.5-3.6,1.2-5.5,1.6c-1,0.2-2,0.3-2.9,0.6c-0.2,0-0.4,0-0.6,0
		c-2.6,0.1-5.2,0.3-7.8,0.2c-0.7,0-1.4-0.1-2.1-0.1c-1.5-0.4-3.1-0.6-4.6-1.1c-0.6-0.2-1.2-0.4-1.7-0.6c-0.6-0.2-0.9-0.2-1.1-0.3
		c-1.1-0.6-2.5-1.7-3-2c-0.2-0.1-0.4-0.2-0.5-0.3c-0.1-0.1-0.2-0.2-0.4-0.4c-1-1-2-1.8-2.9-2.8c-0.3-0.3-0.6-0.7-0.8-1
		c-0.7-1.2-1.6-2.4-2.3-3.6c-0.8-1.3-1.3-2.4-1.9-3.7c-0.1-0.1-0.1-0.2-0.2-0.3c0-0.1-0.1-0.2-0.1-0.3c-1.1-2.9-2-5.9-2.7-8.9
		c-0.6-2.6-1.1-5.3-1.5-8c0-0.4-0.1-0.9-0.2-1.3c-0.2-1.6-0.3-3.2-0.4-4.9c-0.6-8.7-0.4-17.5,0.6-26.2c0.1-1.4,0.5-4.5,0.2-2.1
		c0.1-1.2,0.3-2.3,0.4-3.5c0-0.2,0.1-0.5,0.1-0.8c0.1-0.8,0.3-1.5,0.4-2.3c0.4-1.8,1-3.6,1.5-5.4c0.1-0.3,0.3-0.9,0.5-1.3
		c0.2-0.3,0.3-0.7,0.5-1c0.9-1.7,1.9-3.2,2.9-4.8c0-0.1,0.1-0.1,0.1-0.1c0,0,0,0,0,0c0.7-0.7,1.3-1.5,2-2.2c1.4-1.4,2.8-2.7,4.3-4
		c1-0.6,1.9-1.4,2.9-2c1.6-1.1,3.3-2,5-3s3.5-1.9,5.3-2.7c1-0.5,2-0.9,3-1.4c0.1,0,0.1-0.1,0.2-0.1c0.1,0,0.2-0.1,0.4-0.1
		c4.4-1.7,8.8-3.3,13.2-4.8c19-6.4,38.4-11.7,56.2-21.1c5.8-3.1,8.6-10.8,6.9-16.9c-1.9-6.9-7.8-10.2-14.5-11
		c-1-0.1-1.3-0.2-1.1-0.2c-1.7-0.3-3.4-0.6-5.1-0.9c-4.2-0.8-8.3-1.6-12.4-2.6c-10.2-2.4-20.3-5.5-30.2-9.1
		c-2.5-0.9-4.9-1.9-7.4-2.9c3.8,1.5-0.6-0.2-1.3-0.6c-1.5-0.7-2.9-1.3-4.4-2c-4.8-2.3-9.5-4.8-14-7.5c6.8-0.4,13.6-2.1,19.6-4.9
		c24.3-11.2,28.5-41.2,28.6-64.9c0.1-36.6,0.1-73.2,0.2-109.7c0-17.2,0.1-34.4,0.2-51.7c0.2-24-0.4-51.1-16.6-70.5
		c-13.5-16.2-36.9-17.1-55.9-12.3c-6.9,1.8-13.6,4.9-19.1,9.4V10.2h210V83.1z M1664.6,108.7C1663.2,107,1664.1,108,1664.6,108.7
		L1664.6,108.7z M1645.1,560.9C1644.6,561.1,1644.2,561.2,1645.1,560.9L1645.1,560.9z M1632.3,562.2
		C1632.8,562.3,1632.7,562.3,1632.3,562.2L1632.3,562.2z M1618.7,520.9c0,0,0.1-0.1,0.1-0.1C1618.8,520.8,1618.8,520.8,1618.7,520.9
		z M1619.5,520.1c0-0.1,0.3-0.3,0.5-0.5C1619.8,519.9,1619.5,520.1,1619.5,520.1z M1553,519.5c0,0-0.3-0.4-0.5-0.9
		C1552.8,519.1,1553.1,519.4,1553,519.5z M1550.9,555.3c-0.3,0.4-0.5,0.6-0.6,0.6C1550.3,555.9,1550.6,555.6,1550.9,555.3z
		 M1481.7,459.4c0-8.2,0-16.5-0.1-24.7c0-13.1,0-26.2,0-39.3c16.3,14,37.3,24,57.8,30.9c-2.2,0.7-4.4,1.4-6.6,2.2
		c-17.1,5.8-35.6,13-47.8,26.9C1483.8,456.7,1482.7,458,1481.7,459.4z M1482.2,144.1c0.1-5.3,0.2-10.7,0.3-16c0.1-2.5,0.2-5,0.4-7.4
		c0.1-1.2,0.2-2.4,0.3-3.6c0-0.2,0-0.3,0-0.4c0-0.2,0.1-0.4,0.1-0.6c0.4-2.2,0.9-4.4,1.5-6.6c0.3-0.9,0.7-1.9,0.9-2.8
		c0.2-0.4,0.4-0.8,0.6-1.2c0.3-0.6,0.9-1.5,1.4-2.3c0.1-0.1,0.2-0.3,0.2-0.4c0,0,0.1-0.1,0.2-0.1c0.7-0.6,1.3-1.2,1.9-1.9
		c0,0,0.1-0.1,0.1-0.1c0.3-0.2,0.7-0.5,1-0.7c1-0.6,2-1.1,3.1-1.7c0.1,0,0.1-0.1,0.2-0.1c0.2-0.1,0.4-0.1,0.7-0.2
		c2.6-0.8,5.3-1.5,8-1.9c0,0.1,2.7-0.2,3.3-0.3c1.8-0.1,3.7-0.2,5.5-0.2c1.1,0,2.2,0.1,3.3,0.1c-0.4-0.1-0.8-0.1-1.1-0.2
		c0.4,0.1,0.9,0.2,1.3,0.3c0.1,0,0.2,0,0.3,0c1.6,0.1,1,0.1,0,0c0.1,0,0.1,0,0.2,0c1.2,0.3,2.3,0.6,3.5,1c0.4,0.2,0.8,0.4,1.2,0.6
		c0.5,0.3,0.9,0.6,1.4,0.9c0.9,1,1.8,2,2.8,2.9c0,0,0,0.1,0.1,0.1c0.6,0.9,1.2,1.8,1.7,2.8c0.5,0.9,0.8,1.8,1.3,2.6
		c0.1,0.2,0.2,0.4,0.2,0.6c0.9,2.5,1.7,5.1,2.3,7.7c0.7,2.8,1.2,5.6,1.6,8.4c0,0.1,0,0.2,0,0.4c0.1,0.7,0.2,1.5,0.2,2.2
		c0.2,2,0.4,4.1,0.5,6.1c0.3,5.4,0.3,10.9,0.3,16.3c-0.1,14.6-0.1,29.2-0.2,43.8c-0.1,37.4-0.2,74.9-0.2,112.3
		c0,4.5,0.1,8.9-0.1,13.4c-0.1,3.6-0.3,7.3-0.8,10.9c0,0.2,0,0.4-0.1,0.5c-0.1,0.6-0.2,1.1-0.3,1.7c-0.3,1.7-0.7,3.3-1.1,4.9
		s-0.8,3-1.3,4.5c-0.1,0.4-0.3,0.8-0.4,1.1c0.1-0.2,0.2-0.4,0.3-0.7c-0.4,0.8-1.6,3.9-2.7,5.6c0-0.2-0.2-0.1-1,0.8
		c-0.7,0.7-1.4,1.3-2.1,2c-1,0.5-2,1-2.9,1.6c-0.9,0.3-1.8,0.6-2.7,0.8c-0.9,0.2-1.9,0.4-2.8,0.6c-0.1,0-0.2,0-0.4,0
		c-2.5,0.1-4.9,0-7.3-0.1c2.9,0.1,0.2,0-1.3-0.4c-0.5-0.1-2.1-0.7-2.9-0.9c-0.7-0.3-1.9-0.9-2.2-1.1c-0.3-0.2-1.3-0.9-2-1.3
		c-0.6-0.5-1.6-1.3-1.9-1.6c-1.1-1-2-2.1-3-3.1c-0.2-0.2-0.3-0.3-0.3-0.3c-0.1-0.1-0.2-0.3-0.3-0.5c-0.7-1.1-1.4-2.1-2.1-3.2
		c-1.4-2.3-2.4-4.7-3.6-7c-0.1-0.4-0.3-0.8-0.5-1.2c-0.4-1.2-0.8-2.3-1.2-3.5c-0.8-2.4-1.4-4.9-2-7.4c-0.2-1.1-0.5-2.2-0.7-3.3
		c0-0.1,0-0.1,0-0.2c0.5-1.1-0.5-5.3-0.5-6.4c-0.2-4.7-0.2-9.4-0.3-14.1c-0.1-7.5-0.2-14.9-0.3-22.4c0-13.2,0.1-26.3,0.1-39.5
		c0.1-26.5,0.2-53.1,0.2-79.6c0-3,0-6-0.1-9.1c0.1-0.5,0.1-1.1,0.1-1.6L1482.2,144.1z M1525.5,347.2
		C1525.4,347.3,1525.4,347.3,1525.5,347.2C1525.4,347.3,1525.4,347.3,1525.5,347.2z M1574.4,414.2c-0.4,0.2-0.8,0.3-1.1,0.5
		c0,0,0,0,0,0C1574.7,414,1574.7,414,1574.4,414.2z M1499.7,492C1499.9,491.2,1500,490.5,1499.7,492L1499.7,492z M1042.5,128.8
		c0.1-0.3,0.1-0.6,0.2-1c0.2-1.3,0.5-2.6,0.8-3.9c0.4-2.1,1-4.2,1.6-6.3c0.3-1.1,0.7-2.2,1.1-3.3c0.1-0.3,0.2-0.5,0.2-0.6
		c0.1-0.1,0.1-0.2,0.2-0.4c1-2.1,2.2-4,3.4-6c0.1-0.2,0.2-0.3,0.3-0.5c0,0,0,0,0,0c0.9-0.9,1.7-1.9,2.7-2.8c0.7-0.7,1.5-1.3,2.2-2
		c-2.9,2.6-0.2,0.3,0.7-0.2s2.2-1.1,3.2-1.7c-2.8,1.6,0,0,1.6-0.4c1.3-0.4,2.6-0.7,4-1c0.3-0.1,0.6-0.1,0.9-0.2c0.2,0,0.4,0,0.7,0
		c2-0.1,4.1-0.2,6.1-0.1c0.2,0,0.4,0,0.5,0l3,0.8c0.2,0.1,0.5,0.3,0.7,0.4c0.4,0.2,0.8,0.5,1.3,0.8c0.8,0.9,1.7,1.8,2.5,2.6
		c0,0,0,0,0,0c0.6,0.9,1.2,1.8,1.7,2.8s0.9,1.8,1.4,2.7c0.1,0.3,0.3,0.6,0.4,0.9c0.8,2.4,1.7,4.7,2.4,7.2c0.7,2.6,1.4,5.3,1.9,8
		c0.3,1.6,0.6,3.2,0.9,4.8c0.1,0.6,0.6,3.9,0.7,4.1c0.7,5.6,1.2,11.2,1.5,16.8c0.6,13.2,0.5,26.5,0.5,39.7c0.1,38-0.1,76-0.2,113.9
		c0,5.5,0,11-0.1,16.5c0,1.3,0,2.7,0,4c0,1.7-0.1,3.3-0.1,5c0,0.6-0.1,1.3-0.2,1.9c0-0.1,0-0.2,0-0.3c0,0.1,0,0.1,0,0.2
		c-0.4,1.7-0.7,3.4-1.2,5c-0.4,1.2-0.8,2.5-1.2,3.7c-0.9,2.7-0.2,0.5,0,0c-0.3,0.6-0.5,1.2-0.8,1.7c-0.7,1.3-1.4,2.6-2.2,3.9
		c-0.4,0.6-0.8,1.1-1.2,1.7c-0.1,0.1-0.2,0.2-0.3,0.3c-1,1-2,2.1-3.1,3.1c-0.3,0.3-0.6,0.5-0.9,0.8c-0.1,0.1-0.3,0.2-0.5,0.3
		c-1.1,0.6-2.2,1.2-3.2,1.9c-0.1,0-0.1,0.1-0.2,0.1c-0.7,0.2-1.4,0.5-2.2,0.7c-0.5,0.1-2.9,0.5-3.4,0.7c-0.9,0-2.8,0-3.3,0
		c-0.8,0-1.4-0.1-2-0.1c-0.1,0-0.1,0-0.2,0c-1.5-0.4-3-0.6-4.6-1.1c-1.1-0.3-4.2-2.1-1.3-0.4c-1-0.6-2-1-3-1.6
		c-0.2-0.1-1.4-0.9-2.1-1.4c-0.6-0.5-1.9-1.7-2.3-2c-0.9-0.9-1.7-1.9-2.6-2.8c-0.1-0.1-0.1-0.1-0.1-0.1c-0.1-0.2-0.2-0.4-0.4-0.7
		c-1.3-2.1-2.6-4.3-3.7-6.5c-0.2-0.3-0.3-0.5-0.4-0.7c0,0,0,0,0,0c-0.4-1.1-0.8-2.3-1.2-3.4c-0.8-2.4-1.4-4.8-1.9-7.3
		c-0.2-0.9-0.3-1.9-0.5-2.8c0,0,0-0.1,0-0.1c-0.2-2.2-0.3-4.3-0.3-6.4c0-0.7,0-1.4,0-2.1c0-19.3,0-38.7,0-58
		c0.1-15.4,0.4-30.8,0.5-46.2c0.1-9.1,0.2-18.3,0.3-27.4c0-1.7-0.3-3.4-0.9-5c0-3.1,0-6.3,0-9.4c0-5.6,0-11.2,0-16.8
		c0.6-1.6,0.9-3.2,0.9-5l0.1,0c0-4.1,0.1-8.2,0.3-12.4C1041.9,132.9,1042.1,130.8,1042.5,128.8z M1084.7,346.8
		C1085,346.4,1085.1,346.4,1084.7,346.8L1084.7,346.8z M1076.3,353.4C1074.7,354.3,1075.6,353.8,1076.3,353.4L1076.3,353.4z
		 M822.5,165.4c-0.4-8.7-0.4-17.3,0.2-26c0.1-1.8,0.3-3.6,0.5-5.4c0-0.4,0.1-0.8,0.1-1.2c0-0.2,0.2-1.5,0.3-2
		c0.6-4,1.5-7.9,2.5-11.7c0.5-1.7,1.1-3.4,1.7-5.1c0.1-0.3,0.2-0.7,0.4-1.1c0.2-0.4,0.4-0.8,0.6-1.2c0.6-1.3,1.3-2.6,2.1-3.9
		c0.5-0.8,1-1.5,1.5-2.3c0.1-0.1,0.1-0.2,0.2-0.3c0,0,0,0,0,0c1.2-1,2.2-2.1,3.2-3.3c0,0,0.1-0.1,0.1-0.1c0.3-0.2,0.6-0.4,1-0.6
		c0.9-0.6,4.5-1.9,3.1-1.6c1.3-0.4,2.6-0.7,4-1.1c0.7,0,1.3-0.1,2-0.1c1.7-0.1,3.4,0,5.1,0.1c0.9,0,1.7,0.1,2.6,0.2
		c0.6,0.2,1.8,0.2,2.3,0.3c2.4,0.5,4.8,1.1,7.1,1.9c0.1,0,0.2,0.1,0.3,0.1c0,0,0,0,0,0c1.2,0.7,2.5,1.3,3.7,2
		c0.3,0.2,0.5,0.4,0.8,0.6c-0.2-0.3-0.2-0.4,0.4,0.1c0.2,0.2,0.4,0.3,0.6,0.5c0.2,0.1,0.5,0.3,0.7,0.4c-0.1,0-0.1,0-0.2,0
		c0.1,0.1,0.2,0.2,0.3,0.3c0.8,0.8,1.6,1.6,2.4,2.5c0.2,0.2,0.4,0.5,0.6,0.7c1.3,2.3,2.7,4.2,3.8,6.5c0.2,0.5,0.5,1,0.7,1.5
		c0.5,1.3,1,2.6,1.4,4c2,6.5,3.5,13.1,4.5,19.8c0,0.2,0.1,0.3,0.1,0.5c0-0.3-0.1-0.6-0.1-0.8c0,0.4,0.1,0.8,0.1,1.1
		c0.1,0.6,0.1,0.5,0,0.2c0.1,0.6,0.1,1.3,0.2,1.9c0.2,2,0.4,4,0.6,6c0.4,4.6,0.6,9.1,0.8,13.7c0.4,11.3,0.2,22.5,0.1,33.8
		c-0.1,21.3-0.1,42.5-0.1,63.8c0.1,55.1,0.2,110.1,0.4,165.2c0.1,21.9,0.2,43.7,0.2,65.6c0,13.6,0.6,27.5-0.3,41.1
		c-0.1,1.7-0.3,3.5-0.5,5.2c-0.1,0.6-0.2,1.2-0.3,1.8c-0.6,3.5-1.5,7-2.6,10.4c0,0.1-0.2,0.7-0.4,1.1c0,0,0,0.1,0,0.1
		c-0.1,0.2-0.2,0.5-0.3,0.7c0.1-0.2,0.1-0.4,0.2-0.6c-0.7,1.3-1.4,2.7-2.2,4c0,0.1-0.1,0.5-0.5,0.9c-0.1,0.1-0.3,0.3-0.4,0.4
		c-0.1,0.1-0.1,0.2-0.2,0.4c0-0.1,0.1-0.2,0.1-0.3c-0.9,1-1.9,1.9-2.8,2.9c-0.6,0.4-1.2,0.8-1.8,1.2c-1.2,0.7-2.4,1.3-3.6,1.9
		c3.7-1.8-1.1,0.3-2.1,0.6c-1.8,0.5-3.6,0.9-5.4,1.2c0.1-0.1-2.9,0.3-3.7,0.3c-2,0.1-4.1,0.2-6.1,0.1c-0.8,0-1.5-0.1-2.2-0.1
		c-1.7-0.4-3.3-0.9-5-1.3c-0.1,0-0.1,0-0.2,0c-0.4-0.2-0.9-0.4-1.3-0.6c-0.7-0.4-1.4-0.9-2.1-1.4c0.2,0.2-0.4,0.1-0.9-0.4
		c-0.1-0.1-0.2-0.2-0.4-0.3c-0.1-0.1-0.2-0.1-0.4-0.2c0.1,0.1,0.2,0.1,0.3,0.2c-0.5-0.4-1-0.8-1.4-1.3c-0.6-0.6-1.2-1.2-1.7-1.8
		c-0.1-0.1-0.4-0.4-0.6-0.7c-0.3-0.4-0.7-1-0.8-1.1c-0.4-0.6-0.8-1.2-1.1-1.8c-0.8-1.4-1.6-2.8-2.3-4.2c-0.3-0.7-2.1-5-1.3-2.7
		c-0.6-1.6-1.2-3.2-1.7-4.8c-1.1-3.5-2.1-7-2.8-10.6c-0.4-1.7-0.7-3.3-1-5c-0.2-1.1-0.4-2.1-0.5-3.2c0-0.2-0.2-1.6-0.4-2.4
		c1.2,6.2,7.2,10.3,13.4,9.2c6.3-1.1,10.5-7.2,9.4-13.5c-1.1-6.3-7.2-10.5-13.5-9.4c-5.8,1-9.9,6.3-9.5,12.1
		c-0.1-1.1-0.3-2.2-0.4-3.4c-0.2-1.8-0.4-3.6-0.5-5.5c-0.4-4.6-0.7-9.3-0.8-13.9c-0.2-4-0.3-8-0.3-12.1c0-18.4,0.1-36.8,0.1-55.1
		c0-57.1,0-114.1,0-171.2c0-29.8,0.1-59.7-0.1-89.5C822.5,167.3,822.6,166.3,822.5,165.4L822.5,165.4z M854.9,98.7
		C855.8,98.7,855.5,98.7,854.9,98.7L854.9,98.7z M849.8,564c-0.1,0-0.1,0-0.2,0C849.7,564,849.8,564,849.8,564z M635,284.9
		c3.3,7.5,6.2,15.2,8.6,23c1.4,4.5,2.7,9.1,3.7,13.8c0.5,2.2,0.9,4.4,1.3,6.5c0.1,0.4,0.4,2.7,0.4,2.4c0.1,1,0.2,2,0.3,3
		c0.4,4.1,0.5,8.3,0.3,12.5c-0.1,1.8-0.2,3.7-0.4,5.5c0,0.6-0.4,3,0,0c-0.2,1.3-0.4,2.6-0.7,3.9c-0.7,3.4-1.5,6.7-2.6,10
		c-0.5,1.6-1.1,3.2-1.7,4.8c0,0.1-0.1,0.2-0.1,0.3c-0.4,1-0.9,2-1.4,3c-3,6.1-6.6,11.8-10.6,17.2c0.7-1-2,2.6-2.4,3
		c-1.1,1.3-2.2,2.6-3.3,3.8c-2.5,2.9-5.2,5.6-7.9,8.4c-9,9.1-19.3,17.1-27.6,26.8V205.8C605.7,232.2,622.7,257.2,635,284.9z
		 M612.8,453.4C612.4,453.9,611.1,455.4,612.8,453.4L612.8,453.4z M547,405.7c-2.4-2.4-4.7-4.9-7-7.4c-1.1-1.3-2.2-2.5-3.3-3.8
		c-0.5-0.6-3-3.8-2.9-3.6c-4-5.4-7.5-11.1-10.5-17.1c-0.4-0.9-0.8-1.8-1.2-2.7c0,0,0,0,0,0c-0.5-1.6-1.2-3.2-1.7-4.7
		c-1.2-3.7-2.2-7.5-2.9-11.3c-0.2-1.1-0.4-2.2-0.5-3.3c0.1,0.6,0.3,2.9,0,0c-0.2-1.8-0.3-3.7-0.4-5.5c-0.2-4.4,0-8.8,0.4-13.2
		c0.1-0.9,0.2-1.7,0.3-2.6c0.1-0.4,0.1-1.1,0.2-1.3c0.4-2.2,0.8-4.4,1.2-6.5c1-4.9,2.4-9.8,3.9-14.6c1.3-4.3,2.8-8.6,4.4-12.8
		c0.8-2.2,1.7-4.4,2.6-6.6c-0.3,0.6-0.9,2,0.3-0.8c0.5-1.2,1-2.4,1.6-3.6c3.7-8.2,7.8-16.3,12.1-24.3c8.1-14.9,17.1-29.3,25.7-43.9
		c3.9-6.6,7.9-13.4,11.6-20.4v245.4c-4.8-7.2-10.5-13.7-17.3-19.8C557.9,416.2,552.3,411.1,547,405.7z M160.6,401.6
		c0.1,0,0.2,0,0.2,0c0.1,0,0.2,0.1,0.4,0.1c2.2,0.5,4.3,0.9,6.4,1.6c0.8,0.3,1.6,0.6,2.5,0.8c0.2,0.1,0.4,0.1,0.5,0.2
		c0,0,0.1,0,0.1,0c2.1,1,4.2,2.1,6.2,3.3c0.9,0.5,1.8,1.1,2.6,1.7c0.1,0.1,0.2,0.2,0.3,0.2c0,0,0.1,0.1,0.1,0.1
		c1.7,1.5,3.4,3.1,5,4.7c1,1,1.9,2,2.7,2.9c0.1,0.1,0.1,0.2,0.2,0.3c0.2,0.3,0.4,0.6,0.6,0.8c-3.8-3.3-9.6-3.4-13.4,0.1
		c-4.1,3.7-4.4,10.1-0.6,14.2c3.7,4.1,10.1,4.4,14.2,0.6c3.7-3.4,4.3-9.1,1.5-13.2c0,0,0,0,0,0c0.8,1.1,1.5,2.2,2.3,3.3
		c2.5,3.8,4.7,7.9,6.6,12c0.1,0.2,0.2,0.5,0.3,0.8c0.3,0.8,0.6,1.6,1,2.5c0.8,2.3,1.6,4.6,2.3,7c1.2,4.2,2.2,8.5,2.9,12.8
		c0.1,0.6,0.2,1.3,0.3,1.9c0.1,0.4,0.1,0.9,0.1,1.1c0.2,2.3,0.5,4.6,0.6,7c0.5,7.9,0.4,15.9-0.3,23.8c-0.2,1.8-0.3,3.6-0.5,5.4
		c0,0.2-0.2,1.6-0.3,2.1c-0.5,3-1,6-1.6,9c-0.8,4.1-1.9,8.1-3.3,12c-0.3,0.9-0.7,1.7-1,2.6c1.7-4.1-0.2-8.8-4.2-10.5
		s-8.8,0.2-10.5,4.2s0.2,8.8,4.2,10.5c3.7,1.6,8.1,0.1,10.1-3.4c-1.1,2.2-2.2,4.4-3.5,6.6c-1.1,1.9-2.3,3.8-3.6,5.6
		c-0.3,0.4-0.6,0.8-0.8,1.2c-0.2,0.3-1.4,1.8-1.6,2c-2.7,3.2-5.7,6.2-8.8,9c-1.3,1.1-2.6,2.2-3.9,3.3c-0.3,0.2-2.5,1.8-3.1,2.2
		c-3.3,2.2-6.7,4.3-10.2,6.1c-1.2,0.6-2.3,1.1-3.5,1.7c0.4-0.2-1.8,0.7-2.9,1.1c-2.1,0.7-4.3,1.4-6.5,1.9V401.7
		c0.5-0.1,1-0.1,1.1-0.2c1.8-0.1,3.7-0.2,5.5-0.2C158.4,401.4,159.5,401.6,160.6,401.6z M205.8,460.4
		C205.6,459.1,205.7,459.6,205.8,460.4L205.8,460.4z M139.7,565.4c-0.9-0.1-1.8-0.2-2.7-0.2c0,0,0,0,0,0c-6.4-1.1-12.6-2.8-18.7-4.9
		l-1.9-0.8c0,0-0.1,0-0.1,0c-0.1,0-0.1,0-0.2-0.1c-1.4-0.7-2.9-1.3-4.3-2c-3.4-1.7-6.7-3.6-9.9-5.6c-1.6-1-3.1-2-4.6-3.1l-1.8-1.3
		c0.2,0.1,0.3,0.2,0.5,0.3c-0.2-0.2-0.4-0.3-0.5-0.4c-3.1-2.6-6.1-5.2-8.9-8.1c-2.6-2.7-5-5.6-7.5-8.4c0,0,0,0,0,0
		c-0.1-0.1-0.1-0.2-0.2-0.3c-0.5-0.7-1-1.3-1.4-2c-1.4-2-2.8-4.1-4.1-6.2c-2.1-3.5-3.9-7.1-5.7-10.7c-0.2-0.4-0.7-1.5-0.8-1.8
		c-0.2-0.4-0.4-0.9-0.5-1.3c-1-2.5-1.9-5.1-2.7-7.7c-1.3-4.3-2.4-8.6-3.2-13c-0.2-1.2-0.4-2.4-0.6-3.6c0-0.3-0.2-1.3-0.2-1.5
		c-0.3-2.7-0.6-5.4-0.7-8.1c-0.7-12.2-0.7-24.5,0-36.8c1.1-22.9,4.9-45.6,11.3-67.5c11.6-39.6,31.5-76,53.1-111.7
		c5.8-9.6,12.1-19.1,17.3-29.2v144.2c-10,2.4-19.4,7-27.7,13.6v-33.7c0-7.9-6.9-15.4-15-15c-8.1,0.4-15,6.6-15,15V457
		c-0.2,5.9-0.1,11.8,0,17.8c0.2,7.8,6.8,15.4,15,15c8.2-0.4,15-6.6,15-15v-16.6c0.1-4.3,0.4-8.7,0.8-13c0.1-0.7,0.3-2.1,0.3-2.3
		c0.1-0.9,0.3-1.7,0.5-2.6c0.4-2.1,0.9-4.2,1.5-6.3c0.5-1.9,1.2-3.7,1.8-5.6c0-0.1,0.1-0.2,0.2-0.3c0.6-1.1,1.1-2.3,1.7-3.4
		c1-1.9,2.2-3.6,3.3-5.4c0.1-0.2,0.2-0.4,0.3-0.5c0,0,0.1-0.1,0.1-0.1c0.7-0.9,1.4-1.7,2.2-2.5c2.8-3.2,6-6.1,9.6-8.5
		c1.8-1.1,3.6-2.2,5.5-3.1v160.8C140.2,565.4,139.9,565.4,139.7,565.4z M150.7,644v-48.9c4.4-0.4,8.8-1.3,13.1-2.7
		c16.4-5.4,31.2-14.8,43.2-27.3c24.8-25.8,31.9-63,29.4-97.8c-1.7-23.8-9.7-49.7-25.1-68.5c-3.9-6-7.5-12.7-9.5-17.9
		c-1.5-4-2.7-8.1-3.6-12.2c-0.2-0.8-0.3-1.6-0.4-2.4c0-0.2-0.1-0.6-0.1-1.1c-0.1-1.9-0.2-3.9-0.2-5.8c0-0.8,0-1.6,0.1-2.3
		c0-0.2,0.1-0.4,0.1-0.6c0.4-1.5,0.8-3,1.2-4.5c0.4-1.5,0.9-3,1.4-4.5c0.3-0.8,0.6-1.6,0.9-2.4c0-0.1,0.1-0.1,0.1-0.2
		c0.1-0.1,0.4-0.8,0.8-1.5c0,0,0,0,0,0c0.3-0.3,0.6-0.6,1-1c0.3-0.2,0.5-0.3,0.8-0.5c0.2-0.1,0.4-0.2,0.6-0.3
		c0.1-0.1,0.3-0.1,0.5-0.2c1.2-0.2,2.4-0.6,3.6-0.9c-0.2,0.1,3.7-0.2,4.2-0.2c0.5,0,4.8,0.3,4.3,0.1c0.9,0.2,1.7,0.3,2.6,0.6
		c0.7,0.2,3.7,1.5,3.2,1.2c0.7,0.4,1.4,0.8,2.1,1.2c-1.1-0.6,1.7,1.3,2.3,1.9c0.3,0.3,0.6,0.7,1,1.1c0.1,0.1,0.2,0.2,0.3,0.4
		c0.3,0.6,1.8,3.9,1.5,2.7c0.4,1.1,0.7,2.3,1,3.5c0,0,0,0.1,0,0.1c0,0.7,0.1,1.4,0.1,2.1c0,0.8-0.8,5.9-0.1,2.7
		c-0.5,3.2-1.6,6.4-3.1,9.3c-3.7,7.2-1.9,16.3,5.4,20.5c6.7,3.9,16.8,1.9,20.5-5.4l0,0c7.9-15.6,10.5-34,1.3-49.7
		c-8.3-14.2-23.7-21.7-39.8-22.3c-15.1-0.6-30.4,4.3-38.8,17.6c-5.7,9.2-8.9,22.2-8.9,32.8c0,4,0.4,8,1,12c-6-1.1-12-1.4-17.9-0.9
		V204.4c4.6-14.5,7.4-29.4,9-44.6c0.7-7,1.1-14,0.9-21c0-1.3,0.1-2.6,0.1-3.9c0.1-1.7,0.2-3.4,0.4-5.1c0.1-0.8,0.3-1.5,0.4-2.3
		c0.5-2.5,1.1-5.1,1.9-7.5c0.4-1.2,0.8-2.3,1.2-3.4c-0.8,2.8,0,0,0.6-1.2c1-2,2.2-3.7,3.4-5.6c0.2-0.2,0.4-0.4,0.6-0.7
		c0.8-0.9,1.6-1.7,2.5-2.6c0.2-0.2,0.8-0.7,1.2-1.1c0.5-0.3,1.1-0.8,1.3-0.9c1-0.7,2-1.3,3.1-1.8c0.3-0.2,1.6-0.8,2.2-1.1
		c0.5-0.2,1.1-0.4,1.3-0.5c1-0.3,1.9-0.6,2.9-0.9c0.8-0.2,1.5-0.3,2.3-0.6c0,0,0,0,0,0c0.9,0,1.8,0,2.7-0.1c0,0,0,0,0,0
		c0.8,0.2,1.5,0.4,2.3,0.6c0.1,0,0.2,0.1,0.3,0.1c0.1,0.1,0.2,0.1,0.3,0.2c0.6,0.4,1.2,0.8,1.9,1.2c0.1,0.1,1.2,0.9,1.7,1.5
		c0.7,0.7,1.3,1.3,1.9,2c0,0,0.6,0.8,0.9,1c0.4,0.7,1.8,2.8,2.5,3.7c1.6,2.5,2.7,5.2,3.4,8c0.5,1.6,0.9,3.2,1.3,4.8
		c0.2,0.8,0.3,1.6,0.5,2.3c0.1,0.3,0.1,0.5,0.1,0.6c0.3,3.2,0.3,6.3,0.1,9.5c0-0.3-0.4,2-0.6,2.8c-0.3,1-0.6,2-0.9,3
		c0.1-0.3-0.7,1.5-1.2,2.3c-0.3,0.5-0.6,1-0.9,1.5c0,0.1-0.1,0.1-0.1,0.2c-1,0.8-1.9,1.9-2.7,2.8c0,0,0,0,0,0c1-1.2,0.8-2.9-0.4-3.9
		c-1.2-1-2.9-0.8-3.9,0.4c-1,1.2-0.8,2.9,0.4,3.9c0.7,0.6,1.7,0.8,2.6,0.5c-0.1,0.1-0.2,0.1-0.2,0.1c-6.9,4.3-9.6,13.4-5.4,20.5
		c4,6.8,13.6,9.7,20.5,5.4l0,0c31.9-20.1,28.6-69.9,2.5-93.6c-19.7-17.9-47.2-12.3-65,4.4V10.2h210v74.7c-0.1-0.1-0.2-0.2-0.2-0.2
		c-12.4-11.8-31-18.4-48-15.6c-16.7,2.8-31.1,18.3-38.4,32.9c-8.2,16.5-8.6,36.2,0.2,52.6c4.1,7.5,10.3,13.7,17.8,17.8
		c7.1,3.9,16.3,1.8,20.5-5.4c4-6.8,1.8-16.7-5.4-20.5c-0.6-0.3-2.7-1.8-2.8-1.8c-0.7-0.7-1.4-1.6-2.2-2c0,0-0.1,0-0.1,0
		c-0.4-0.6-0.8-1.1-1.1-1.7c-0.3-0.5-0.6-1-0.9-1.5c-0.4-0.8-1.3-3.9-0.5-0.8c-0.4-1.4-0.9-2.7-1.3-4.1c-0.3-1.2-0.6-3.7-0.5-2.4
		c-0.1-1.4-0.2-2.7-0.2-4.1c0-0.8,0.1-1.7,0.1-2.5c0-0.2,0-0.3,0-0.4c0,0,0,0,0,0c0.4-1.4,0.6-2.9,1-4.4c0.1-0.5,1.1-3.1,1.2-3.4
		c1.6-3.3,3.6-6.3,5.9-9.2c2-2.3,4.1-4.5,6.3-6.6c0.1-0.1,0.5-0.4,0.8-0.7c0.2-0.2,0.4-0.3,0.5-0.3c0.7-0.4,1.3-0.7,1.9-1.1
		c0,0,0.1-0.1,0.1-0.1c1.1-0.2,2.2-0.6,3.3-0.9c0.2,0,0.4,0,0.7,0c1.4,0,2.7,0.1,4,0.2c-3.5-0.2-0.3,0,1.3,0.4
		c1.6,0.4,3.1,0.8,4.6,1.2c0.8,0.2,1.5,0.5,2.3,0.8c0.1,0,0.2,0.1,0.3,0.1c1.3,0.7,2.7,1.4,3.9,2.2c0.7,0.5,1.4,0.9,2.1,1.4
		c0,0,0,0,0,0c0.1,0.1,0.2,0.2,0.4,0.4c1,1,2.1,2,3.1,3.1c0.1,0.1,0.6,0.6,0.9,1c0.3,0.3,0.5,0.7,0.6,0.9c0.8,1.2,1.6,2.5,2.3,3.8
		c0.4,0.8,0.8,1.5,1.2,2.3c0.1,0.2,0.2,0.3,0.3,0.5c0,0,0,0.1,0,0.1c1.2,3.1,2.2,6.4,2.9,9.7c0.1,0.5,0.6,3.7,0.7,3.8
		c0.2,1.6,0.3,3.2,0.4,4.8c0.2,3.2,0.1,6.4-0.1,9.6c0,0.4-0.1,0.7-0.1,1.1c-0.3,1.4-0.5,2.9-0.8,4.3c-1.3,5.8-3.4,11.1-5.3,16.7
		c0,0,0,0,0,0.1c-0.2,0.4-0.4,0.9-0.6,1.3c-0.7,1.5-1.4,3-2.1,4.5c-1.5,3.1-3,6.1-4.6,9.1c-3.4,6.4-7,12.6-10.6,18.8
		c-16.3,27.6-33.2,54.7-44.9,84.7c-11.8,30.4-17.7,64.7-5,95.8c10.9,26.6,31.4,46.4,52.4,65.3c2.5,2.3,4.8,4.7,7,7.2
		c0,0,0.1,0.1,0.1,0.2c0,0,0-0.1-0.1-0.1c0,0,0,0.1,0.1,0.1c0.3,0.4,0.8,1.2,0.6,0.9c0.1,0.2,0.3,0.4,0.4,0.6c1.1,1.6,2.1,3.3,3.1,5
		c0.8,1.5,1.6,3,2.4,4.6c0.3,0.6,0.5,1.2,0.8,1.7c0,0.1,0.1,0.1,0.1,0.2c1.2,3,2.2,6.1,3.1,9.2c0.8,2.9,1.5,5.9,2.1,8.9
		c0.3,1.5,0.5,3.1,0.8,4.6c0,0.1,0,0.2,0,0.3c0-0.3-0.1-0.5-0.1-0.9c0,0.3,0.1,0.6,0.1,0.9c0.1,0.7,0.2,1.5,0.1,0.7
		c0,0.2,0,0.4,0.1,0.5c0.6,5.3,0.9,10.5,0.9,15.8c0,3.5-0.1,7.1-0.3,10.6c-0.1,0.9-0.1,1.9-0.2,2.8c-0.1,0.7-0.1,1.3-0.2,1.9
		c0,0.1,0,0.2-0.1,0.3c-0.4,1.7-0.7,3.4-1.1,5s-1,3.4-1.5,5.1c-0.3,0.8-0.6,1.7-0.9,2.5c1.1-3.3-0.8-6.9-4.1-7.9s-6.9,0.8-7.9,4.1
		c-1.1,3.3,0.8,6.9,4.1,7.9c3,0.9,6.1-0.4,7.5-3.1c-0.2,0.5-0.4,1-0.5,1.1c-0.4,0.8-0.8,1.6-1.2,2.5c-1,1.8-2,3.6-3.1,5.4
		c-0.9,1.4-1.8,2.7-2.7,4c-0.1,0.1-0.1,0.2-0.2,0.3c-0.4,0.5-0.8,1-1.3,1.5c-1.2,1.4-2.4,2.7-3.7,3.9c-0.7,0.6-1.3,1.2-1.9,1.8
		c-0.1,0.1-0.6,0.5-1.1,0.9c1.5-1.6,1.7-4.2,0.3-6c-1.6-2-4.4-2.3-6.4-0.7s-2.3,4.4-0.7,6.4c1.4,1.8,3.9,2.2,5.8,1.1
		c-0.7,0.5-1.4,1-2.2,1.4c-1.2,0.7-2.4,1.4-3.7,2c1-0.5-1.5,0.6-2.4,0.9c-0.8,0.2-1.6,0.4-2.4,0.6c-0.3,0.1-0.5,0.1-0.7,0.2
		c-1.7,0.1-3.3,0.1-5,0.1c-0.8,0-1.7-0.1-2.5-0.2c-0.5,0-0.7,0-0.8,0c-1.6-0.2-3.1-0.6-4.6-1c-0.8-0.2-1.7-0.5-2.5-0.8
		c-0.1,0-0.3-0.1-0.4-0.1c-1.3-0.8-2.6-1.4-3.9-2.2c-0.2-0.1-0.4-0.2-0.6-0.3c0,0-0.1-0.1-0.1-0.1c-0.8-0.9-1.8-1.9-2.7-2.7
		c-0.1-0.1-0.2-0.2-0.3-0.2c-0.2-0.3-0.3-0.5-0.3-0.6c-0.5-0.8-1-1.7-1.5-2.5c0,0,0-0.1-0.1-0.1c0,0.1,0,0.1,0,0.2
		c0-0.1,0-0.2,0-0.3c-0.2-0.4-0.4-0.9-0.6-1.2c-0.5-0.9-0.1-0.8,0.2-0.2c-0.4-1-0.9-2.1-1.1-2.7c-0.1-0.3-0.1-0.5-0.1-0.8
		c-0.1-1.6-0.2-3.2-0.2-4.7c0-1.8,0.1-3.8,0.2-5.7c0,0,0-0.1,0-0.1c0,0,0,0.1-0.1,0.1c0,0,0-0.1,0.1-0.1c0-0.5,0.1-1,0.1-1.4
		c0-0.6,0.2-0.8,0.3-0.7c0-0.4,0.1-0.7,0.1-1c0.5-2.2,1.3-4.3,1.9-6.5c0.6-1.1,1.1-2.3,1.8-3.4c0.2-0.3,0.8-1.1,1.1-1.5
		c0.4-0.5,0.9-1,1.1-1.1c0.4-0.3,0.7-0.6,0.9-0.9c0.7-0.4,1.6-0.9,2.1-1.1c0.2-0.1,0.5-0.2,0.7-0.3c0.9-0.2,1.7-0.4,2.6-0.6
		c-0.3,0.1,1.8-0.2,3-0.2c1.6,0,3.3,0.1,5,0.2c7.8,0.7,15.3-7.4,15-15c-0.4-8.7-6.6-14.2-15-15l0.1-0.2c-16-1.5-30.8,4.6-40.4,17.5
		c-7,9.4-9.7,21.5-10.4,33c-1.4,25.1,13.9,47.9,39.4,52.9c19.7,3.9,37.2-0.8,52.1-14.2c2.9-2.6,5.6-5.5,8.1-8.5V644H150.7z
		 M202.6,342.6C202.6,342.6,202.6,342.6,202.6,342.6c0.1-0.3,0.3-0.5,0.4-0.5C202.9,342.3,202.8,342.4,202.6,342.6z M202.5,342.7
		C202.5,342.7,202.6,342.7,202.5,342.7c0,0,0,0.1-0.1,0.1C202.5,342.8,202.5,342.7,202.5,342.7z M161.1,130.1c0-0.1,0-0.2,0-0.3
		C161.1,130,161.1,130.1,161.1,130.1z M161.2,129.6C161.3,128.5,161.3,129,161.2,129.6L161.2,129.6z M168.6,109.8
		C168,110.7,168.1,110.4,168.6,109.8L168.6,109.8z M417.7,284.9c3.3,7.5,6.2,15.2,8.6,23c1.4,4.5,2.7,9.1,3.7,13.8
		c0.5,2.2,0.9,4.4,1.3,6.5c0.1,0.4,0.4,2.7,0.4,2.4c0.1,1,0.2,2,0.3,3c0.4,4.1,0.5,8.3,0.3,12.5c-0.1,1.8-0.2,3.7-0.4,5.5
		c0,0.6-0.4,3,0,0c-0.2,1.3-0.4,2.6-0.7,3.9c-0.7,3.4-1.5,6.7-2.6,10c-0.5,1.6-1.1,3.2-1.7,4.8c0,0.1-0.1,0.2-0.1,0.3
		c-0.4,1-0.9,2-1.4,3c-3,6.1-6.6,11.8-10.6,17.2c0.7-1-2,2.6-2.4,3c-1.1,1.3-2.2,2.6-3.3,3.8c-2.5,2.9-5.2,5.6-7.9,8.4
		c-10.1,10.2-21.7,18.9-30.4,30.3V200.7C386.2,228.9,404.6,255.4,417.7,284.9z M395.5,453.4C395.1,453.9,393.8,455.4,395.5,453.4
		L395.5,453.4z M329.7,405.7c-2.4-2.4-4.7-4.9-7-7.4c-1.1-1.3-2.2-2.5-3.3-3.8c-0.5-0.6-3-3.8-2.9-3.6c-4-5.4-7.5-11.1-10.5-17.1
		c-0.4-0.9-0.8-1.8-1.2-2.7c0,0,0,0,0,0c-0.5-1.6-1.2-3.2-1.7-4.7c-1.2-3.7-2.2-7.4-2.9-11.3c-0.2-1.1-0.4-2.2-0.5-3.3
		c0.1,0.6,0.3,2.9,0,0c-0.2-1.8-0.3-3.7-0.4-5.5c-0.2-4.4,0-8.8,0.4-13.2c0.1-0.9,0.2-1.7,0.3-2.6c0.1-0.4,0.1-1.1,0.2-1.3
		c0.4-2.2,0.8-4.4,1.2-6.5c1-4.9,2.4-9.8,3.9-14.6c1.3-4.3,2.8-8.6,4.4-12.8c0.8-2.2,1.7-4.4,2.6-6.6c-0.3,0.6-0.9,2,0.3-0.8
		c0.5-1.2,1-2.4,1.6-3.6c3.7-8.2,7.8-16.3,12.1-24.3c8.1-14.9,17.1-29.3,25.7-43.9c2.9-5,5.9-10,8.8-15.2V437
		c-4.2-5.6-9-10.8-14.4-15.7C340.6,416.2,335,411.1,329.7,405.7z M331.3,100.8C330.7,100.5,330,100.1,331.3,100.8L331.3,100.8z
		 M317.5,98.5c-0.1,0-0.1,0-0.1,0C317.4,98.5,317.4,98.5,317.5,98.5z M317.6,563.2C316.8,563.3,316.6,563.2,317.6,563.2L317.6,563.2
		z M295.4,556.8c-0.2,0-0.6-0.6-0.8-1.1C295,556.2,295.6,556.8,295.4,556.8z M297.3,521c0-0.1,0.3-0.3,0.8-0.6
		C297.8,520.7,297.4,521.1,297.3,521z M370.8,644v-75c8.2,10.2,18.9,18.3,31.7,22.1c27.6,8.3,62.8-8,67.2-38.1
		c3.5-24.2-4.1-52.7-28.8-62.3c-6.7-2.5-14-3.4-21.1-2.6c-7.8,0.7-15.4,6.4-15,15c0.3,7.5,6.6,15.8,15,15h0c1.6-0.2,3.3-0.3,5-0.2
		c0.4,0,1.8,0.1,2.6,0.1c0.8,0.2,2.1,0.4,2.4,0.5c0.5,0.1,0.8,0.3,1.2,0.4c0,0,0,0,0.1,0.1c0.8,0.6,1.6,1.1,2.5,1.5
		c0.1,0.1,0.2,0.1,0.2,0.2c0.2,0.2,1.1,1.1,1.7,1.7c0.3,0.5,0.7,1,1,1.5c0.5,0.8,1,1.7,1.4,2.6c0.1,0.1,0.1,0.2,0.1,0.3
		c0,0,0,0,0,0.1c0.6,2.2,1.4,4.3,1.9,6.5c0,0.2,0.2,1,0.4,1.7c0,0.3,0,0.6,0.1,1.2c0.2,2,0.3,4,0.3,6c0,1.6-0.1,3.1-0.2,4.7
		c-0.1,0.3-0.1,0.6-0.2,0.9c-0.2,0.6-0.9,2.2-1.3,3.3c0.4-0.8,1-1.3-0.1,0.8c0,0.1-0.1,0.1-0.1,0.2c0,0.1,0,0.2,0,0.2
		c0-0.1,0-0.1,0-0.2c-0.6,1-1.1,2-1.7,3c0,0.1-0.1,0.1-0.1,0.2c-0.9,0.8-1.8,1.7-2.6,2.6c-0.1,0.1-0.2,0.2-0.3,0.3
		c-0.1,0-0.1,0.1-0.2,0.1c-1.3,0.8-2.8,1.5-4.2,2.3c-0.8,0.2-1.6,0.5-2.4,0.8c-1.6,0.5-3.1,0.8-4.7,1.1c-3,0.6-1.2,0.2-0.5,0.1
		c-1.1,0.1-2.2,0.2-3.3,0.2c-1.8,0.1-3.6,0-5.5-0.1c3.4,0-0.9-0.3-2.1-0.6c-1.2-0.3-4.9-2.2-2.2-0.7c-1.3-0.7-2.6-1.3-3.9-2.1
		c-0.6-0.4-4.2-3-3.2-2.2c-2.4-2-4.7-4.2-6.7-6.6c-0.4-0.5-2.3-2.9-2-2.4c-1-1.5-2.1-3-3-4.5c-1.7-2.7-3.2-5.5-4.5-8.4
		c0.3,0.7-1.1-2.9-1.3-3.4c-0.6-1.7-1.1-3.4-1.5-5.1c-0.4-1.7-0.7-3.3-1.1-5c0-0.1,0-0.1,0-0.2c0-0.4-0.1-0.9-0.1-1.3
		c-0.1-1.2-0.2-2.4-0.2-3.7c-0.1-1-0.1-2.1-0.2-3.1c0.3-4.6,0.3-9.2,0-13.8c0.1-3.1,0.4-6.2,0.7-9.2c0-0.4,0.1-0.9,0.2-1.3
		c0-0.1,0-0.2,0-0.3c0.2-1.3,0.4-2.7,0.7-4c0.6-3.2,1.3-6.3,2.2-9.4c0.9-3.1,1.9-6,3-8.9c1-2.7,0.2-0.5,0,0.1
		c0.4-0.8,0.7-1.5,1.1-2.3c0.7-1.5,1.5-3.1,2.4-4.6s1.8-3,2.7-4.4c0.5-0.7,1-1.4,1.5-2.1c0,0,0.1-0.1,0.1-0.1
		c2.3-2.7,4.8-5.3,7.5-7.7c5-4.5,10-9,14.9-13.7c10.1-9.8,19.7-20.4,27.3-32.3c17.7-27.4,20.4-59.8,12.4-90.9
		c-8.3-32.2-24.7-61.6-41.6-90c-7.4-12.3-14.9-24.6-21.6-37.3c-1.5-2.8-2.9-5.6-4.3-8.5c-0.7-1.5-1.4-3-2.1-4.5l-0.7-1.7
		c-0.1-0.1-0.1-0.2-0.1-0.3c-0.1-0.1-0.1-0.3-0.2-0.5c-2.2-5.4-3.9-11-5.2-16.7c-0.3-1.2-0.5-2.4-0.7-3.6c0-0.4-0.1-0.8-0.1-1.3
		c-0.3-3.2-0.3-6.4-0.1-9.5c0.1-1.6,0.2-3.2,0.4-4.8c0,0.2,0.4-2.5,0.6-3.1c0.7-3.5,1.7-7,3-10.3c0.4-0.8,0.8-1.5,1.2-2.3
		c0.7-1.3,1.5-2.6,2.3-3.8c0.3-0.5,0.6-0.9,1-1.4c0.2-0.2,0.3-0.4,0.5-0.5c1.3-1.3,2.6-2.7,4-3.9c0.1-0.1,0.2-0.2,0.3-0.3
		c0.4-0.3,0.8-0.5,1.2-0.8c1.4-0.9,3-1.7,4.5-2.5c0.1-0.1,0.4-0.2,0.6-0.3c0.4-0.2,0.9-0.3,1.3-0.5c1.7-0.6,3.5-1,5.3-1.4
		c1.3-0.3,5.4-0.5,1.3-0.4c1.2,0,2.4-0.2,3.5-0.2c0.7,0.1,1.3,0.1,2,0.1c0.1,0,0.1,0,0.2,0c0.7,0.2,1.4,0.5,1.9,0.8
		c0.6,0.4,1.2,0.8,1.9,1.1c0.3,0.2,0.6,0.4,1,0.6c0,0,0.1,0.1,0.1,0.1c0.1,0.1,0.2,0.2,0.4,0.3c-0.1,0-0.1-0.1-0.2-0.1c0,0,0,0,0,0
		c2.2,2,5.9,5.9,6.8,7c2.3,2.8,4.2,5.9,5.9,9.2c0,0.2,0.8,2,1,2.7c0.4,1.5,0.8,2.9,1,4.4c0,0.1,0.2,2.1,0.2,2.9
		c0,1.6-0.2,3.2-0.2,4.7c-0.1,0.6-0.2,1.2-0.4,1.8c-0.2,0.8-0.4,1.6-0.6,2.4c-0.1,0.2-0.3,1-0.5,1.6c-0.4,0.7-1.1,2.3-1.3,2.6
		c-0.5,0.9-2.9,3.6-1.5,2.2c-0.7,0.7-1.4,1.5-2.2,2.2c0.1-0.2-2,1.3-2.8,1.7c-7.1,3.8-9.4,13.7-5.4,20.5c4.2,7.2,13.4,9.2,20.5,5.4
		c16-8.6,24.5-26.7,24.3-44.4c-0.1-18.6-10-36.6-24.1-48.5c-13.3-11.2-29-13.4-45.5-8.3c-9.2,2.9-17,7.7-23.4,14.1V10.2h210v77.8
		c-1-1.1-2-2.2-3.1-3.2c-12.4-11.8-31-18.4-48-15.6c-16.7,2.8-31.1,18.3-38.4,32.8c-8.2,16.5-8.6,36.2,0.2,52.6
		c4.1,7.5,10.3,13.7,17.8,17.9c7.1,3.8,16.3,1.8,20.5-5.4c4-6.8,1.8-16.7-5.4-20.5c-0.6-0.3-2.7-1.8-2.8-1.8c-0.7-0.7-1.4-1.6-2.2-2
		c0,0-0.1,0-0.1,0c-0.4-0.6-0.8-1.1-1.1-1.7c-0.3-0.5-0.6-1-0.9-1.6c-0.4-0.8-1.3-3.9-0.5-0.8c-0.4-1.4-0.9-2.7-1.3-4.1
		c-0.3-1.2-0.6-3.7-0.5-2.4c-0.1-1.4-0.2-2.7-0.2-4.1c0-0.8,0.1-1.7,0.1-2.5c0-0.2,0-0.3,0-0.4c0,0,0,0,0,0c0.4-1.4,0.6-2.9,1-4.3
		c0.1-0.5,1.1-3.1,1.2-3.4c1.6-3.3,3.6-6.3,5.9-9.2c2-2.3,4.1-4.5,6.3-6.6c0.1-0.1,0.5-0.4,0.8-0.7c0.2-0.2,0.4-0.3,0.5-0.3
		c0.7-0.4,1.3-0.7,1.9-1.2c0,0,0.1-0.1,0.1-0.1c1.1-0.2,2.2-0.6,3.3-0.9c0.2,0,0.4,0,0.7,0c1.4,0,2.7,0.1,4,0.2
		c-3.5-0.2-0.3,0,1.3,0.4s3.1,0.8,4.6,1.2c0.8,0.2,1.5,0.5,2.3,0.8c0.1,0,0.2,0.1,0.3,0.1c1.3,0.7,2.7,1.4,3.9,2.2
		c0.7,0.5,1.4,0.9,2.1,1.4c0,0,0,0,0,0c0.1,0.1,0.2,0.2,0.4,0.4c1,1,2.1,2,3.1,3.1c0.1,0.1,0.6,0.6,0.9,1c0.3,0.3,0.5,0.7,0.6,0.9
		c0.8,1.2,1.6,2.5,2.3,3.8c0.4,0.8,0.8,1.5,1.2,2.3c0.1,0.2,0.2,0.3,0.3,0.5c0,0,0,0.1,0,0.1c1.2,3.1,2.2,6.4,2.9,9.6
		c0.1,0.5,0.6,3.7,0.7,3.8c0.2,1.6,0.3,3.2,0.4,4.8c0.2,3.2,0.1,6.4-0.1,9.5c0,0.4-0.1,0.7-0.1,1.1c-0.3,1.4-0.5,2.9-0.8,4.3
		c-1.3,5.8-3.4,11.1-5.3,16.7c0,0,0,0,0,0.1c-0.2,0.4-0.4,0.9-0.6,1.3c-0.7,1.5-1.4,3-2.1,4.5c-1.5,3.1-3,6.1-4.6,9.1
		c-3.4,6.4-7,12.6-10.6,18.8c-16.3,27.6-33.2,54.7-44.9,84.7c-11.8,30.4-17.7,64.7-5,95.8c10.9,26.6,31.4,46.4,52.4,65.3
		c2.5,2.3,4.8,4.7,7,7.2c0,0,0.1,0.1,0.1,0.2c0,0,0-0.1-0.1-0.1c0,0,0.1,0.1,0.1,0.1c0.3,0.4,0.8,1.2,0.6,0.9
		c0.1,0.2,0.3,0.4,0.4,0.6c1.1,1.6,2.1,3.3,3.1,5c0.8,1.5,1.6,3,2.4,4.6c0.3,0.6,0.5,1.2,0.8,1.7c0,0.1,0.1,0.1,0.1,0.2
		c1.2,3,2.2,6.1,3.1,9.2c0.8,2.9,1.5,5.9,2.1,8.9c0.3,1.5,0.5,3.1,0.8,4.6c0,0.1,0,0.2,0,0.3c0-0.3-0.1-0.5-0.1-0.9
		c0,0.3,0.1,0.6,0.1,0.9c0.1,0.6,0.2,1.5,0.1,0.7c0,0.2,0,0.4,0.1,0.5c0.6,5.3,0.9,10.5,0.9,15.8c0,3.5-0.1,7.1-0.3,10.6
		c-0.1,0.9-0.1,1.9-0.2,2.8c-0.1,0.7-0.1,1.3-0.2,1.9c0,0.1,0,0.2-0.1,0.3c-0.3,1.7-0.7,3.4-1.1,5s-1,3.4-1.5,5.1
		c-0.3,0.8-0.6,1.7-0.9,2.5c1.1-3.3-0.8-6.9-4.1-7.9s-6.9,0.8-7.9,4.1c-1.1,3.3,0.8,6.9,4.1,7.9c3,0.9,6.1-0.4,7.5-3.1
		c-0.2,0.5-0.4,1-0.5,1.1c-0.4,0.8-0.8,1.6-1.2,2.5c-1,1.8-2,3.6-3.1,5.4c-0.9,1.4-1.8,2.7-2.7,4c-0.1,0.1-0.1,0.2-0.2,0.3
		c-0.4,0.5-0.8,1-1.3,1.5c-1.2,1.4-2.4,2.7-3.7,3.9c-0.7,0.6-1.3,1.2-1.9,1.8c-0.1,0.1-0.6,0.5-1.1,0.9c1.5-1.6,1.7-4.2,0.3-6
		c-1.6-2-4.4-2.3-6.4-0.7s-2.3,4.4-0.7,6.4c1.4,1.8,3.9,2.2,5.8,1.1c-0.7,0.5-1.4,1-2.2,1.4c-1.2,0.7-2.4,1.4-3.7,2
		c1-0.5-1.5,0.6-2.4,0.9c-0.8,0.2-1.6,0.4-2.4,0.6c-0.3,0.1-0.5,0.1-0.7,0.2c-1.7,0.1-3.3,0.1-5,0.1c-0.8,0-1.7-0.1-2.5-0.2
		c-0.5,0-0.7,0-0.8,0c-1.6-0.2-3.1-0.6-4.6-1c-0.8-0.2-1.7-0.5-2.5-0.8c-0.1,0-0.3-0.1-0.4-0.1c-1.3-0.8-2.6-1.4-3.9-2.2
		c-0.2-0.1-0.4-0.2-0.6-0.3c0,0-0.1-0.1-0.1-0.1c-0.8-0.9-1.8-1.9-2.7-2.7c-0.1-0.1-0.2-0.2-0.3-0.2c-0.2-0.3-0.3-0.5-0.3-0.6
		c-0.5-0.8-1-1.7-1.5-2.5c0,0,0-0.1-0.1-0.1c0,0.1,0,0.1,0,0.2c0-0.1,0-0.2,0-0.3c-0.2-0.4-0.4-0.9-0.6-1.2
		c-0.5-0.9-0.1-0.8,0.2-0.2c-0.4-1-0.9-2.1-1.1-2.7c-0.1-0.3-0.1-0.5-0.1-0.8c-0.1-1.6-0.2-3.2-0.2-4.7c0-1.8,0.1-3.8,0.2-5.7
		c0,0,0-0.1,0-0.1c0,0,0,0.1-0.1,0.1c0,0,0-0.1,0.1-0.1c0-0.5,0.1-1,0.1-1.4c0-0.6,0.2-0.8,0.3-0.7c0-0.4,0.1-0.7,0.1-1
		c0.5-2.2,1.3-4.3,1.9-6.5c0.6-1.1,1.2-2.3,1.8-3.4c0.2-0.3,0.8-1.1,1.1-1.5c0.4-0.5,0.9-1,1.1-1.1c0.4-0.3,0.7-0.6,0.9-0.9
		c0.7-0.4,1.6-0.9,2.1-1.1c0.2-0.1,0.5-0.2,0.7-0.3c0.9-0.2,1.7-0.4,2.6-0.6c-0.3,0.1,1.8-0.2,3-0.2c1.6,0,3.3,0.1,5,0.2
		c7.8,0.7,15.3-7.4,15-15c-0.4-8.7-6.6-14.2-15-15l0.1-0.2c-16-1.5-30.8,4.6-40.4,17.5c-7,9.4-9.7,21.5-10.4,33
		c-1.4,25.1,13.9,47.9,39.4,52.9c19.7,3.9,37.2-0.8,52.1-14.2c4-3.6,7.7-7.7,11-12.2V644H370.8z M381.4,521.9
		C381.3,521.1,381.2,519.7,381.4,521.9L381.4,521.9z M436.1,556.5c0,0-0.1,0.1-0.1,0.1C436,556.6,436,556.6,436.1,556.5z M436,523.2
		c0,0-0.2-0.2-0.3-0.4C435.9,523,436.1,523.1,436,523.2z M399.6,100.9c0.2-0.1,0.3-0.1,0.5-0.2C400,100.8,399.8,100.9,399.6,100.9z
		 M400.2,100.7C400.8,100.5,401.4,100.3,400.2,100.7L400.2,100.7z M412.1,98.1c0.3-0.1,0.7-0.1,1.1,0
		C412.6,98.1,412,98.1,412.1,98.1z M548.6,100.9C548,100.6,547.3,100.2,548.6,100.9L548.6,100.9z M534.8,98.5c-0.1,0-0.1,0-0.1,0
		C534.7,98.5,534.7,98.5,534.8,98.5z M534.9,563.2C534.1,563.3,533.9,563.2,534.9,563.2L534.9,563.2z M512.7,556.8
		c-0.2,0-0.6-0.6-0.8-1.1C512.3,556.2,512.9,556.8,512.7,556.8z M514.6,521c0-0.1,0.3-0.3,0.8-0.6C515,520.7,514.7,521.1,514.6,521z
		 M591,644v-71.7c7.8,8.6,17.4,15.3,28.8,18.7c27.6,8.3,62.8-8,67.2-38.1c3.5-24.2-4.1-52.7-28.8-62.3c-6.7-2.5-14-3.4-21.1-2.6
		c-7.8,0.7-15.4,6.4-15,15c0.3,7.5,6.6,15.8,15,15l0,0.1c1.7-0.2,3.3-0.3,5-0.2c0.4,0,1.8,0.1,2.6,0.1c0.8,0.2,2.1,0.4,2.4,0.5
		c0.5,0.1,0.8,0.3,1.2,0.4c0,0,0,0,0.1,0.1c0.8,0.6,1.6,1.1,2.5,1.5c0.1,0.1,0.2,0.1,0.2,0.2c0.2,0.2,1.1,1.1,1.7,1.7
		c0.3,0.5,0.7,1,1,1.5c0.5,0.8,1,1.7,1.4,2.6c0.1,0.1,0.1,0.2,0.1,0.3c0,0,0,0,0,0.1c0.6,2.2,1.4,4.3,1.9,6.5c0,0.2,0.2,1,0.4,1.7
		c0,0.3,0,0.6,0.1,1.2c0.2,2,0.3,4,0.3,6c0,1.6-0.1,3.1-0.2,4.7c-0.1,0.3-0.1,0.6-0.2,0.9c-0.2,0.6-0.9,2.2-1.3,3.3
		c0.4-0.8,1-1.3-0.1,0.8c0,0.1-0.1,0.1-0.1,0.2c0,0.1,0,0.2,0,0.2c0-0.1,0-0.1,0-0.2c-0.6,1-1.1,2-1.7,3c0,0.1-0.1,0.1-0.1,0.2
		c-0.9,0.8-1.8,1.7-2.6,2.6c-0.1,0.1-0.2,0.2-0.3,0.3c-0.1,0-0.1,0.1-0.2,0.1c-1.3,0.8-2.8,1.5-4.2,2.3c-0.8,0.2-1.6,0.5-2.4,0.8
		c-1.6,0.5-3.1,0.8-4.7,1.1c-3,0.6-1.2,0.2-0.5,0.1c-1.1,0.1-2.2,0.2-3.3,0.2c-1.8,0.1-3.6,0-5.5-0.1c3.4,0-0.8-0.3-2.1-0.6
		s-4.9-2.2-2.2-0.7c-1.3-0.7-2.6-1.3-3.9-2.1c-0.6-0.4-4.2-3-3.2-2.2c-2.4-2-4.7-4.2-6.7-6.6c-0.4-0.5-2.3-2.9-2-2.4
		c-1-1.5-2.1-3-3-4.5c-1.7-2.7-3.2-5.5-4.5-8.4c0.3,0.7-1.1-2.9-1.3-3.4c-0.6-1.7-1.1-3.4-1.5-5.1c-0.4-1.7-0.7-3.3-1.1-5
		c0-0.1,0-0.1,0-0.2c0-0.4-0.1-0.9-0.1-1.3c-0.1-1.2-0.2-2.4-0.2-3.7c-0.1-1-0.1-2.1-0.2-3.1c0.3-4.6,0.3-9.2,0-13.8
		c0.1-3.1,0.4-6.2,0.7-9.2c0-0.4,0.1-0.9,0.2-1.3c0-0.1,0-0.2,0-0.3c0.2-1.3,0.4-2.7,0.7-4c0.6-3.2,1.3-6.3,2.2-9.4
		c0.9-3.1,1.9-6,3-8.9c1-2.7,0.2-0.5,0,0.1c0.4-0.8,0.7-1.5,1.1-2.3c0.7-1.5,1.5-3.1,2.4-4.6s1.8-3,2.7-4.4c0.5-0.7,1-1.4,1.5-2.1
		c0,0,0.1-0.1,0.1-0.1c2.3-2.7,4.8-5.3,7.5-7.7c5-4.5,10-9,14.9-13.7c10.2-9.8,19.7-20.4,27.3-32.3c17.7-27.4,20.4-59.8,12.4-90.9
		c-8.3-32.2-24.7-61.6-41.6-90c-7.4-12.3-14.9-24.6-21.7-37.3c-1.5-2.8-2.9-5.6-4.3-8.5c-0.7-1.5-1.4-3-2.1-4.5l-0.7-1.7
		c-0.1-0.1-0.1-0.2-0.1-0.3c-0.1-0.1-0.1-0.3-0.2-0.5c-2.2-5.4-3.9-11-5.2-16.7c-0.3-1.2-0.5-2.4-0.7-3.6c0-0.4-0.1-0.8-0.1-1.3
		c-0.3-3.2-0.3-6.4-0.1-9.5c0.1-1.6,0.2-3.2,0.4-4.8c0,0.2,0.4-2.5,0.6-3.1c0.7-3.5,1.7-7,3-10.3c0.4-0.8,0.8-1.5,1.2-2.3
		c0.7-1.3,1.5-2.6,2.3-3.8c0.3-0.5,0.6-0.9,1-1.4c0.2-0.2,0.3-0.4,0.5-0.5c1.3-1.3,2.6-2.7,4-3.9c0.1-0.1,0.2-0.2,0.3-0.3
		c0.4-0.3,0.8-0.5,1.2-0.8c1.4-0.9,3-1.7,4.5-2.5c0.1-0.1,0.4-0.2,0.6-0.3c0.4-0.2,0.9-0.3,1.3-0.5c1.7-0.6,3.5-1,5.3-1.4
		c1.3-0.3,5.4-0.5,1.3-0.4c1.2,0,2.3-0.2,3.5-0.2c0.7,0.1,1.3,0.1,2,0.1c0.1,0,0.1,0,0.2,0c0.7,0.2,1.4,0.5,1.9,0.8
		c0.6,0.4,1.2,0.8,1.9,1.1c0.3,0.2,0.6,0.4,1,0.6c0,0,0.1,0.1,0.1,0.1c0.1,0.1,0.2,0.2,0.4,0.3c-0.1,0-0.1-0.1-0.2-0.1c0,0,0,0,0,0
		c2.2,2,5.9,5.9,6.8,7c2.3,2.8,4.2,5.9,5.9,9.2c0,0.2,0.8,2,1,2.7c0.4,1.5,0.8,2.9,1,4.4c0,0.1,0.2,2.1,0.2,2.9
		c0,1.6-0.2,3.2-0.2,4.7c-0.1,0.6-0.2,1.2-0.4,1.8c-0.2,0.8-0.4,1.6-0.6,2.4c-0.1,0.2-0.3,1-0.5,1.6c-0.4,0.7-1.1,2.3-1.3,2.6
		c-0.5,0.9-2.9,3.6-1.5,2.2c-0.7,0.7-1.4,1.5-2.2,2.2c0.1-0.2-2,1.3-2.8,1.7c-7.1,3.8-9.4,13.7-5.4,20.5c4.2,7.2,13.4,9.2,20.5,5.4
		c16-8.6,24.5-26.7,24.3-44.4c-0.2-18.6-10-36.6-24.1-48.5c-13.3-11.2-29-13.4-45.5-8.3c-7.9,2.5-14.7,6.4-20.6,11.4V10.2h210v72.5
		c-4.3-4.2-9.3-7.7-15.2-10.2c-21.1-8.8-49.7-2.3-64.8,15.1c-15.5,17.8-15.6,44.5-6.2,65.3c4.6,9.9,12.4,18,22.2,22.8
		c7.2,3.6,16.2,1.9,20.5-5.4c3.9-6.7,1.9-16.9-5.4-20.5v0c-1.8-0.8-3.5-1.8-5.1-2.9c-0.3-0.3-1.1-0.9-1.3-1.2
		c-0.5-0.6-1-1.1-1.6-1.7c-0.3-0.4-0.7-0.9-0.8-1.2c-0.5-0.9-1-1.9-1.6-2.7c-0.1-0.2-0.2-0.3-0.2-0.4c-0.5-1.3-0.9-2.5-1.3-3.8
		c-0.4-1.5-0.8-3.1-1-4.6c0,0-0.3-2.5-0.4-2.8c-0.1-0.9-0.1-1.9-0.2-2.9c-0.1-2.4-0.1-4.9,0-7.3c0,0,0-0.5,0-1.1
		c0.1-0.5,0.5-2.6,0.6-2.9c0.2-0.7,0.5-1.4,0.7-2.1c-1.2,3.5,0,0.2,0.4-0.6c0.4-0.7,0.8-1.3,1.2-2c0.1-0.1,0.1-0.2,0.2-0.4
		c1.3-1.2,2.6-2.7,3.8-4c0.2-0.2,0.4-0.4,0.5-0.5c0.1-0.1,0.3-0.2,0.5-0.3c1.2-0.7,2.2-1.4,3.4-2.1c0.5-0.3,1-0.5,1.5-0.8
		c-0.1,0.1,2.4-1,2.6-1c2.3-0.7,4.6-1.3,6.9-1.7c-0.6,0.1,4.3-0.2,5.1-0.2c1.1,0,2.2,0.1,3.3,0.1c0.1,0,0.3,0,0.4,0
		c0.1,0,0.3,0.1,0.5,0.2c1,0.3,5.3,2,3.8,1.1c1.3,0.7,2.6,1.4,3.9,2.2c0.7,0.6,1.4,1.2,2,1.9c0.5,0.5,1,1.1,1.5,1.6
		c0.1,0.1,0.2,0.2,0.3,0.3c0.1,0.2,0.2,0.3,0.3,0.5c0.9,1.4,1.8,2.8,2.6,4.3c0.5,0.9,2.6,6.2,1.4,2.7c1.5,4.1,2.8,8.2,3.8,12.4
		c0.4,1.7,0.7,3.5,1,5.2c0.1,0.4,0.1,0.8,0.2,1.2c0,0.2,0.1,0.8,0.2,1.2c0,0.2,0.1,0.4,0.1,0.6c0-0.2-0.1-0.3-0.1-0.4
		c0.3,2.7,0.6,5.4,0.7,8.1c0,0.9,0,1.8,0,2.8c0.4,33.4,0.2,66.8,0.3,100.2c0.1,53.3,0.1,106.6,0,159.8c0,21.4,0,42.9,0,64.3
		c-0.1,0.7-0.2,1.3-0.2,2c0,4.5,0,9,0.1,13.4c0,10.1-0.1,20.1-0.2,30.2c0,3,0,5.9-0.3,8.9c-0.1,0.7-0.2,1.4-0.2,2.1
		c0,0.3,0,0.5-0.1,0.7c-0.3,1.6-0.5,3.1-0.9,4.6c-0.8,3.9-1.9,7.7-3.3,11.5c0,0.1-0.3,0.8-0.5,1.3c-0.3,0.6-0.6,1.3-0.6,1.4
		c-0.8,1.7-1.7,3.4-2.7,5c-0.3,0.5-1.6,2.3-2.1,3.1c-0.4,0.5-0.9,1.1-0.9,1.1c-0.7,0.8-1.5,1.7-2.3,2.5c-0.7,0.7-1.6,1.4-2.3,2.1
		c-1.5,1-3.1,2-4.8,2.9c-0.7,0.4-1.4,0.7-2.1,1c3.4-1.5-0.4,0-1,0.2c-0.8,0.2-1.6,0.5-2.4,0.7c-0.3,0.1-2,0.4-2.9,0.6
		c-0.8,0.1-2.4,0.2-2.3,0.2c-1,0-1.9,0.1-2.9,0.1c-1.6,0-3.1-0.1-4.7-0.2c-0.2,0-0.7-0.1-1.1-0.2c0.2,0,0.4,0.1,0.7,0.2
		c-0.2,0-0.5-0.1-0.7-0.2c-0.4-0.1-0.6-0.1-0.2,0c-1.5-0.3-3.1-0.8-4.6-1.3c-0.4-0.2-1-0.4-1.3-0.6c-0.8-0.5-1.7-1-2.5-1.5
		c0.5,0.2-1.8-1.7-2.5-2.4c-0.7-0.7-1.5-2.2-0.6-0.9c-0.2-0.3-0.4-0.6-0.6-0.9c-0.5-0.8-0.8-1.6-1.2-2.3c-0.6-1.9-0.9-3.9-1.5-5.8
		c-0.1-1-0.1-2.1-0.2-3.1c-0.1-2.2,0-4.4,0.1-6.6c0-1.2,0.2-2.4,0.2-3.6c0-0.3,0-0.5,0-0.7c0-0.1,0-0.1,0-0.2
		c0.4-2.4,0.9-4.9,1.6-7.2c0.3-1,0.7-2.1,1.1-3.1c0,0,0,0,0,0c0.1-0.1,0.2-0.3,0.3-0.5c0.5-0.9,3.9-5.7,1.9-3.3
		c1.3-1.5,2.7-2.9,4.2-4.2c0.2-0.1,0.4-0.2,0.7-0.3c1.3-0.6,2.5-1.4,3.7-2.1c7.2-3.7,9.3-13.8,5.4-20.5c-4.3-7.3-13.3-9.1-20.5-5.4
		c-22.1,11.2-29.7,35.8-28.6,59.2c1,21.6,14.1,40.8,35.9,46c20.6,4.9,43.9-0.7,58.4-16.4V644H591z M598.8,521.9
		C598.6,521.1,598.6,519.7,598.8,521.9L598.8,521.9z M653.4,556.5c0,0-0.1,0.1-0.1,0.1C653.3,556.6,653.4,556.6,653.4,556.5z
		 M653.4,523.2c0,0-0.2-0.2-0.3-0.4C653.3,523,653.4,523.1,653.4,523.2z M617,100.9c0.2-0.1,0.3-0.1,0.5-0.2
		C617.3,100.8,617.2,100.9,617,100.9z M617.5,100.7C618.2,100.5,618.7,100.3,617.5,100.7L617.5,100.7z M629.4,98.1
		c0.3-0.1,0.7-0.1,1.1,0C629.9,98.1,629.3,98.1,629.4,98.1z M776.2,558.6C776.2,558.6,776.1,558.6,776.2,558.6
		C776.8,558.1,778,557.4,776.2,558.6z M736.8,548.3c0.7,2.6,0.1,1.5,0,0.5C736.8,548.6,736.8,548.5,736.8,548.3z M811.1,644v-72.3
		c0.9,1.3,1.9,2.7,2.9,4c22,27.4,71.1,24,90.2-5c12.2-18.5,11.3-42.3,11.2-63.6c-0.1-19.6-0.1-39.1-0.2-58.7
		c-0.2-57.9-0.4-115.7-0.5-173.6c0-24.1,0-48.3,0-72.4c0.1-28,1.5-56.6-5.5-84c-3.2-12.8-9-25.9-18.8-35
		c-10.3-9.4-23.1-13.6-36.8-14.8c-16.6-1.4-31.6,3.8-42.6,15.7V10.2h210v74.3c-5.5-5.6-12.2-10-19.7-12.7
		c-15.5-5.5-34.5-2.5-48.6,5.5s-23.7,21.7-25.5,37.8c-1.7,14.8,0.9,32.6,9.5,44.9c4.7,6.9,11.1,12.4,18.5,16.2
		c7.2,3.6,16.2,1.9,20.5-5.4c3.9-6.7,1.9-16.9-5.4-20.5l0,0.1c-1.5-0.7-2.9-1.5-4.3-2.4c-0.3-0.2-0.6-0.4-0.9-0.6
		c-0.1-0.1-0.2-0.2-0.3-0.3c-0.9-0.9-1.7-1.7-2.5-2.6c0.5,0.5-1.4-2.1-1.8-2.8c-0.3-0.6-0.9-1.9-1-2c-0.4-1.1-0.8-2.2-1.1-3.3
		c-0.4-1.3-0.7-2.6-0.9-3.9c0-0.2-0.2-0.9-0.3-1.4c-0.1-0.5-0.2-1.3-0.2-1.4c-0.3-3.1-0.4-6.3-0.3-9.4c0-0.9,0.1-1.8,0.1-2.6
		c0.1-0.5,0.4-2.4,0.6-2.9c0.1-0.4,0.3-0.9,0.4-1.3c0.7-1.1,1.4-2.2,1.9-3.4c0.1-0.2,0.2-0.4,0.3-0.5c0.1-0.1,0.2-0.2,0.3-0.3
		c1.2-1.2,2.3-2.3,3.5-3.5c0.2-0.2,0.4-0.4,0.5-0.5c0.1-0.1,0.3-0.2,0.5-0.3c1.3-0.8,2.6-1.7,4-2.4c0.4-0.2,0.9-0.4,1.3-0.7
		c0.3-0.1,0.7-0.3,0.8-0.4c1.6-0.5,3.2-1.1,4.9-1.5c0.5-0.1,3.8-0.7,3.4-0.7c1.7-0.2,3.4-0.3,5-0.2c1.2,0,2.4,0.1,3.5,0.2
		c0.8,0.2,1.7,0.3,2.4,0.6c0.7,0.2,3.1,1.2,2.5,0.8c0.6,0.3,1.2,0.6,1.8,0.9c0.3,0.2,1.4,0.9,2.1,1.4c0.6,0.5,1.6,1.4,1.8,1.6
		c0.8,0.8,1.5,1.8,2.3,2.6c0.3,0.4,0.6,0.9,0.9,1.3c1.3,2,2.3,4,3.3,6.1c-1.5-2.5-4.7-3.6-7.5-2.5c-3.1,1.3-4.6,4.8-3.4,7.9
		c1.3,3.1,4.8,4.6,7.9,3.4c2.9-1.2,4.4-4.2,3.6-7.2c0.5,1.3,0.9,2.6,1.3,3.9c0.8,2.6,1.5,5.3,2,8.1c0.3,1.4,0.5,2.7,0.7,4.1
		c-0.4-2.6-0.1-0.8,0,0.7c0.3,2.9,0.4,5.7,0.4,8.6c0.1,8.7,0.1,17.4,0.1,26.1c0.1,22,0.1,44,0.1,66.1c0,9.8,0,19.6,0,29.4
		c-0.1,9.1-0.1,18.2-0.2,27.3c0,8.3-0.2,16.7,0.2,25c0,26.4,0,52.7,0,79.1c0,26.7,0,53.3-0.1,80c0,12.1,0,24.3-0.1,36.4
		c0,5.7,0,11.5,0,17.2c0,3.1,0,6.2-0.2,9.2c0,0.6-0.1,1.1-0.1,1.7c0,0.1,0,0.2-0.1,0.3c-0.3,1.7-0.7,3.6-1.2,5.4
		c-0.4,1.5-0.9,2.9-1.4,4.3c-0.1,0.2-0.1,0.3-0.1,0.5c-0.1,0.1-0.2,0.3-0.3,0.4c-0.7,1.2-1.3,2.4-2,3.5s-2.7,3-0.6,1
		c-0.9,0.9-1.7,1.9-2.6,2.8c-0.6,0.5-2.4,1.9-1.9,1.6c-1.6,1-3.2,2-4.9,2.9c-0.1,0-0.1,0.1-0.2,0.1c0,0-0.1,0-0.1,0
		c-1.2,0.4-2.3,0.8-3.5,1.1s-2.4,0.6-3.6,0.9c-0.4,0.1-1.8,0.3-2.5,0.4c-0.8,0.1-1.7,0.2-1.9,0.2c-1.1,0.1-2.1,0.1-3.2,0.1
		c-1.7,0-3.4,0-5.1-0.1c-0.6,0-0.8-0.1-0.8,0c-0.9-0.2-1.8-0.3-2.7-0.5c-1.4-0.3-2.7-0.7-4.1-1.2c-0.2-0.1-1-0.4-1.5-0.6
		c-0.2-0.1-0.4-0.2-0.5-0.2c-1.2-0.7-2.5-1.6-3.7-2.2c-0.4-0.4-0.9-0.7-1.3-1.2c-0.3-0.4-1.3-1.5-1.9-2c-0.4-0.5-1-1.5-1.2-1.7
		c-0.4-0.8-0.8-1.5-1.2-2.3c0.2,0.4-0.6-1.8-0.9-2.8c-0.2-0.7-0.3-1.4-0.3-1.6c0,0.2,0,0.6,0.1,1.3c0-0.4,0-0.9-0.1-1.3
		c0-0.2,0-0.2,0,0c-0.1-1-0.1-2-0.1-3c0-3.4,0.1-6.8,0.4-10.1c0-0.1,0-0.2,0-0.2c0.1-0.6,0.2-1.3,0.3-1.9c0.3-1.3,0.6-2.6,0.9-3.9
		c0.4-1.3,0.8-2.6,1.3-3.9c0.5-0.9,0.9-1.8,1.4-2.6c0.2-0.3,1.1-1.7,1.4-2.2c0.1-0.2,0.3-0.3,0.3-0.4c0.6-0.6,1.2-1.2,1.8-1.8
		c0.6-0.6,2.8-2,1.4-1.2c1.5-0.9,3-1.9,4.5-2.6c7.2-3.7,9.3-13.8,5.4-20.5c-4.3-7.3-13.3-9.1-20.5-5.4c-14.7,7.5-24.4,21.9-27.2,38
		c-2.5,14.9-2.9,31.2,5.4,44.4c16.4,26.4,54.8,30.7,80.6,16.1c3.1-1.7,5.9-3.8,8.5-6.1V644H811.1z M1010.2,539.5c0,0.1,0,0.1,0,0.2
		C1010.2,539.6,1010.2,539.5,1010.2,539.5z M958.1,524.2C958.5,523.2,958.3,523.7,958.1,524.2L958.1,524.2z M1031.3,644v-61.9
		c5.5,4.9,12.1,8.6,19.7,10.6c19.9,5.2,43.2,0.4,58.3-13.7c13.7-12.7,16.8-31.2,14.7-48.9c-2.7-22-14.1-44-39.1-44.6
		c-7.8-0.2-15.4,7-15,15c0.2,8.2,6.8,14.8,15,15l0,0c0.3,0,0.6,0,0.9,0c-1.3-0.1-0.3-0.2,0.4,0c0.3,0,0.6,0,0.9,0
		c-0.1-0.1-0.1-0.1-0.2-0.2c0.1,0.1,0.1,0.1,0.2,0.2c0,0,0,0,0,0c0,0,0,0,0,0c0.1,0.1,0.3,0.3,0.4,0.4c0,0,0,0,0,0
		c-0.1-0.1-0.3-0.2-0.4-0.4c-0.4,0-0.6,0-0.9,0c0,0,0.1,0,0.1,0c0.3,0.1,0.5,0.2,0.8,0.3c0.1,0.1,0.2,0.1,0.3,0.2
		c0.1,0.1,0.3,0.2,0.4,0.3c-0.1-0.1-0.2-0.2-0.3-0.3c0,0,0,0,0,0c0.1,0.1,0.2,0.2,0.4,0.3c0.5,0.3,0.8,0.7,0.2,0.2
		c0.1,0.1,0.2,0.2,0.3,0.3c0.3,0.3,0.6,0.6,0.9,0.9c-0.6-0.8-0.6-1,0.1,0.1c0.1,0.1,0.3,0.3,0.4,0.4c-0.1-0.1-0.3-0.3-0.4-0.4
		c0,0.1,0.1,0.2,0.2,0.3c0.7,1.2,1.3,2.4,2,3.6c0.2,0.6,0.4,1.2,0.6,1.7c0.9,2.8,1.5,5.6,2,8.5c-0.3-1.5,0.2,1.6,0.3,2.7
		c0.1,1.5,0.2,3,0.2,4.5c0,2.5-0.1,4.9-0.2,7.3c0.1-1.6-0.4,1.7-0.6,2.7c-0.1,0.2-0.1,0.3-0.2,0.5c0,0.1-0.1,0.6-0.3,1.1
		c0,0.1-0.1,0.1-0.1,0.2c0,0.1-0.1,0.2-0.1,0.3c0-0.1,0-0.2,0.1-0.2c-0.7,1.2-1.4,2.4-2.1,3.7c0,0,0,0.1-0.1,0.1
		c0.1-0.1,0.2-0.2,0.4-0.4c-0.1,0.1-0.3,0.3-0.4,0.4c-0.3,0.4-0.8,0.9-0.7,0.8c-0.3,0.3-0.6,0.6-0.9,0.9c-0.3,0.3-2,1.8-2.6,2.3
		c-0.8,0.5-2.6,1.7-3,1.9c-0.7,0.4-3.2,1.5-2.5,1.3c-1.9,0.7-3.8,1.3-5.8,1.7c-0.9,0.2-1.9,0.4-2.8,0.6c0.7-0.1,2.7-0.2-0.4,0
		c-2,0.2-4,0.3-6.1,0.3c-1.4,0-2.9-0.2-4.3-0.2c0,0,0,0,0,0c-0.9-0.3-2-0.4-2.9-0.7c-1-0.3-2.1-0.6-3.1-1c0.7,0.2-1.9-1-2.6-1.4
		c-1.2-0.7-3.7-3.3-1.3-0.8c-1.1-1.2-2.3-2.2-3.4-3.3c-0.2-0.2-0.4-0.4-0.5-0.5c-0.1-0.2-0.2-0.4-0.4-0.7c-0.8-1.3-1.6-2.5-2.2-3.8
		s-1.5-3.8-0.6-1.1c-0.6-1.9-1.3-3.7-1.8-5.6s-0.9-3.6-1.2-5.4c1.2,4.2,5.6,6.7,9.9,5.5c4.2-1.2,6.7-5.6,5.5-9.9
		c-1.2-4.2-5.6-6.7-9.9-5.5c-3.5,1-5.9,4.3-5.8,7.9c-0.1-0.5-0.1-1-0.1-1.1c-0.4-4.1-0.5-8.2-0.3-12.4c0.2-7.2,0-14.5,0-21.7
		c0-0.8-0.1-1.7-0.2-2.5c0.1-25.1,0.1-50.2,0.1-75.3c0-16,0-31.9,0-47.9c4.4,2.7,9.2,4.8,14.3,6c16.8,4,33.8,0.2,46.8-11.1
		c16.4-14.3,19.5-35.4,19.6-55.8c0.1-39,0.4-77.9,0.3-116.9c0-15.6,0.1-31.3-0.5-46.9c-0.8-23.5-3.7-51.5-19.5-70.2
		c-13.4-15.9-37.2-16.8-55.3-9.2c-6,2.6-11.1,6.1-15.3,10.3V10.2h210v75.6c-0.2-0.2-0.3-0.4-0.5-0.5c-12.4-11.8-31-18.4-48-15.6
		c-16.7,2.8-31.1,18.3-38.4,32.8c-8.2,16.5-8.6,36.2,0.2,52.6c4.1,7.5,10.3,13.7,17.8,17.9c7.1,3.8,16.3,1.8,20.5-5.4
		c4-6.8,1.8-16.7-5.4-20.5c-0.6-0.3-2.7-1.8-2.8-1.8c-0.7-0.7-1.4-1.6-2.2-2c0,0-0.1,0-0.1,0c-0.4-0.6-0.8-1.1-1.1-1.7
		c-0.3-0.5-0.6-1-0.9-1.6c-0.4-0.8-1.3-3.9-0.5-0.8c-0.4-1.4-0.9-2.7-1.3-4.1c-0.3-1.2-0.6-3.7-0.5-2.4c-0.1-1.4-0.2-2.7-0.2-4.1
		c0-0.8,0.1-1.7,0.1-2.5c0-0.2,0-0.3,0-0.4c0,0,0,0,0,0c0.4-1.4,0.6-2.9,1-4.3c0.1-0.5,1.1-3.1,1.2-3.4c1.6-3.3,3.6-6.3,5.9-9.2
		c2-2.3,4.1-4.5,6.3-6.6c0.1-0.1,0.5-0.4,0.8-0.7c0.2-0.2,0.4-0.3,0.5-0.3c0.7-0.4,1.3-0.7,1.9-1.2c0,0,0.1-0.1,0.1-0.1
		c1.1-0.2,2.2-0.6,3.3-0.9c0.2,0,0.4,0,0.7,0c1.4,0,2.7,0.1,4,0.2c-3.5-0.2-0.3,0,1.3,0.4s3.1,0.8,4.6,1.2c0.8,0.2,1.5,0.5,2.3,0.8
		c0.1,0,0.2,0.1,0.3,0.1c1.3,0.7,2.7,1.4,3.9,2.2c0.7,0.4,1.4,0.9,2.1,1.4c0,0,0,0,0,0c0.1,0.1,0.2,0.2,0.4,0.4c1,1,2.1,2,3.1,3.1
		c0.1,0.1,0.6,0.6,0.9,1c0.3,0.3,0.5,0.7,0.6,0.9c0.8,1.2,1.6,2.5,2.3,3.8c0.4,0.8,0.8,1.5,1.2,2.3c0.1,0.2,0.2,0.3,0.3,0.5
		c0,0,0,0.1,0,0.1c1.2,3.1,2.2,6.4,2.9,9.6c0.1,0.5,0.6,3.7,0.7,3.8c0.2,1.6,0.3,3.2,0.4,4.8c0.2,3.2,0.1,6.4-0.1,9.5
		c0,0.4-0.1,0.7-0.1,1.1c-0.3,1.4-0.5,2.9-0.8,4.3c-1.3,5.8-3.4,11.1-5.3,16.7c0,0,0,0,0,0.1c-0.2,0.4-0.4,0.9-0.6,1.3
		c-0.7,1.5-1.4,3-2.1,4.5c-1.5,3.1-3,6.1-4.6,9.1c-3.4,6.4-7,12.6-10.6,18.8c-16.3,27.6-33.2,54.7-44.9,84.7
		c-11.8,30.4-17.7,64.7-5,95.8c10.9,26.6,31.4,46.4,52.4,65.3c2.5,2.3,4.8,4.7,7,7.2c0,0,0.1,0.1,0.1,0.2c0,0,0-0.1-0.1-0.1
		c0,0,0,0.1,0.1,0.1c0.3,0.4,0.8,1.2,0.6,0.9c0.1,0.2,0.3,0.4,0.4,0.6c1.1,1.6,2.1,3.3,3.1,5c0.8,1.5,1.6,3,2.4,4.6
		c0.3,0.6,0.5,1.2,0.8,1.7c0,0.1,0.1,0.1,0.1,0.2c1.2,3,2.2,6.1,3.1,9.2c0.8,2.9,1.5,5.9,2.1,8.9c0.3,1.5,0.5,3.1,0.8,4.6
		c0,0.1,0,0.2,0,0.3c0-0.3-0.1-0.5-0.1-0.9c0,0.3,0.1,0.6,0.1,0.9c0.1,0.7,0.2,1.5,0.1,0.7c0,0.2,0,0.4,0.1,0.5
		c0.6,5.3,0.9,10.5,0.9,15.8c0,3.5-0.1,7.1-0.3,10.6c-0.1,0.9-0.1,1.9-0.2,2.8c-0.1,0.7-0.1,1.3-0.2,1.9c0,0.1,0,0.2-0.1,0.3
		c-0.3,1.7-0.7,3.4-1.1,5s-1,3.4-1.6,5.1c-0.3,0.8-0.6,1.7-0.9,2.5c1.1-3.3-0.8-6.9-4.1-7.9c-3.3-1.1-6.9,0.8-7.9,4.1
		c-1.1,3.3,0.8,6.9,4.1,7.9c3,0.9,6.1-0.4,7.5-3.1c-0.2,0.5-0.4,1-0.5,1.1c-0.4,0.8-0.8,1.6-1.2,2.5c-1,1.8-2,3.6-3.1,5.4
		c-0.9,1.4-1.8,2.7-2.7,4c-0.1,0.1-0.1,0.2-0.2,0.3c-0.4,0.5-0.8,1-1.3,1.5c-1.2,1.4-2.4,2.7-3.7,3.9c-0.7,0.6-1.3,1.2-1.9,1.8
		c-0.1,0.1-0.6,0.5-1.1,0.9c1.5-1.6,1.7-4.2,0.3-6c-1.6-2-4.4-2.3-6.4-0.7c-2,1.6-2.3,4.4-0.7,6.4c1.4,1.8,3.9,2.2,5.8,1.1
		c-0.7,0.5-1.4,1-2.2,1.4c-1.2,0.7-2.4,1.4-3.7,2c1-0.5-1.5,0.6-2.4,0.9c-0.8,0.2-1.6,0.4-2.4,0.6c-0.3,0.1-0.5,0.1-0.7,0.2
		c-1.7,0.1-3.3,0.1-5,0.1c-0.8,0-1.7-0.1-2.5-0.2c-0.5,0-0.7,0-0.8,0c-1.6-0.2-3.1-0.6-4.6-1c-0.8-0.2-1.7-0.5-2.5-0.8
		c-0.1,0-0.3-0.1-0.4-0.1c-1.3-0.8-2.6-1.4-3.9-2.2c-0.2-0.1-0.4-0.2-0.6-0.3c0,0-0.1-0.1-0.1-0.1c-0.8-0.9-1.8-1.9-2.7-2.7
		c-0.1-0.1-0.2-0.2-0.3-0.2c-0.2-0.3-0.3-0.5-0.3-0.6c-0.5-0.8-1-1.7-1.5-2.5c0,0,0-0.1-0.1-0.1c0,0.1,0,0.1,0,0.2
		c0-0.1,0-0.2,0-0.3c-0.2-0.4-0.4-0.9-0.6-1.2c-0.5-0.9-0.1-0.8,0.2-0.2c-0.4-1-0.9-2.1-1.1-2.7c-0.1-0.3-0.1-0.5-0.1-0.8
		c-0.1-1.6-0.2-3.2-0.2-4.7c0-1.8,0.1-3.8,0.2-5.7c0,0,0-0.1,0-0.1c0,0,0,0.1-0.1,0.1c0,0,0-0.1,0.1-0.1c0-0.5,0.1-1,0.1-1.4
		c0-0.6,0.2-0.8,0.3-0.7c0-0.4,0.1-0.7,0.1-1c0.5-2.2,1.3-4.3,1.9-6.5c0.6-1.1,1.2-2.3,1.8-3.4c0.2-0.3,0.8-1.1,1.1-1.5
		c0.4-0.5,0.9-1,1.1-1.1c0.4-0.3,0.7-0.6,0.9-0.9c0.7-0.4,1.6-0.9,2.1-1.1c0.2-0.1,0.5-0.2,0.7-0.3c0.9-0.2,1.7-0.4,2.6-0.6
		c-0.3,0.1,1.8-0.2,3-0.2c1.6,0,3.3,0.1,4.9,0.2c7.8,0.7,15.3-7.4,15-15c-0.4-8.7-6.6-14.2-15-15l0.1-0.2
		c-16-1.5-30.8,4.6-40.4,17.5c-7,9.4-9.7,21.5-10.4,33c-1.4,25.1,13.9,47.9,39.4,52.9c19.7,3.9,37.2-0.8,52.1-14.2
		c3-2.7,5.7-5.6,8.3-8.8V644H1031.3z M1087,515.8C1086.1,515.5,1086.5,515.6,1087,515.8L1087,515.8z M1298.1,285.4
		c3.3,7.5,6.2,15.2,8.6,23c1.4,4.5,2.7,9.1,3.7,13.8c0.5,2.2,0.9,4.4,1.3,6.5c0.1,0.4,0.4,2.7,0.4,2.4c0.1,1,0.2,2,0.3,3
		c0.4,4.1,0.5,8.3,0.3,12.5c-0.1,1.8-0.2,3.7-0.4,5.5c0,0.6-0.4,3,0,0c-0.2,1.3-0.4,2.6-0.7,3.9c-0.7,3.4-1.5,6.7-2.6,10
		c-0.5,1.6-1.1,3.2-1.7,4.8c0,0.1-0.1,0.2-0.1,0.3c-0.4,1-0.9,2-1.4,3c-3,6.1-6.6,11.8-10.6,17.2c0.7-1-2,2.6-2.4,3
		c-1.1,1.3-2.2,2.6-3.3,3.8c-2.5,2.9-5.2,5.6-7.9,8.4c-10,10.1-21.5,18.8-30.2,30.1V201.6C1266.8,229.7,1285,256.1,1298.1,285.4z
		 M1275.9,453.9C1275.5,454.4,1274.2,455.9,1275.9,453.9L1275.9,453.9z M1210.1,406.2c-2.4-2.4-4.7-4.9-7-7.4
		c-1.1-1.3-2.2-2.5-3.3-3.8c-0.5-0.6-3-3.8-2.9-3.6c-4-5.4-7.5-11.1-10.5-17.1c-0.4-0.9-0.8-1.8-1.2-2.7c0,0,0,0,0,0
		c-0.5-1.6-1.2-3.2-1.7-4.7c-1.2-3.7-2.2-7.4-2.9-11.3c-0.2-1.1-0.4-2.2-0.6-3.3c0.1,0.6,0.3,2.9,0,0c-0.2-1.8-0.3-3.7-0.4-5.5
		c-0.2-4.4,0-8.8,0.4-13.2c0.1-0.9,0.2-1.7,0.3-2.6c0.1-0.4,0.1-1.1,0.2-1.3c0.4-2.2,0.8-4.4,1.2-6.5c1.1-4.9,2.4-9.8,3.9-14.6
		c1.3-4.3,2.8-8.6,4.4-12.8c0.8-2.2,1.7-4.4,2.6-6.6c-0.3,0.6-0.9,2,0.3-0.8c0.5-1.2,1-2.4,1.6-3.6c3.7-8.2,7.8-16.3,12.1-24.3
		c8.1-14.9,17.1-29.3,25.7-43.9c3-5.1,6.1-10.3,9-15.6v236.8c-4.2-5.7-9.1-11-14.6-16C1221,416.8,1215.5,411.6,1210.1,406.2z
		 M1211.7,101.4C1211,101.1,1210.4,100.7,1211.7,101.4L1211.7,101.4z M1197.8,99c-0.1,0-0.1,0-0.1,0C1197.7,99,1197.8,99,1197.8,99z
		 M1197.9,563.7C1197.2,563.8,1197,563.8,1197.9,563.7L1197.9,563.7z M1175.7,557.3c-0.2,0-0.6-0.6-0.8-1.1
		C1175.3,556.7,1175.9,557.4,1175.7,557.3z M1177.7,521.5c0-0.1,0.3-0.3,0.8-0.6C1178.1,521.3,1177.7,521.6,1177.7,521.5z
		 M1251.4,644v-74.2c8.2,10.1,18.7,18,31.4,21.8c27.6,8.3,62.8-8,67.2-38.1c3.5-24.2-4.1-52.7-28.8-62.3c-6.7-2.5-14-3.4-21.1-2.6
		c-7.8,0.7-15.4,6.4-15,15c0.3,7.5,6.6,15.8,15,15l0,0.1c1.7-0.2,3.3-0.3,4.9-0.2c0.4,0,1.8,0.1,2.6,0.1c0.8,0.2,2.1,0.4,2.4,0.5
		c0.5,0.1,0.8,0.3,1.2,0.4c0,0,0,0,0.1,0.1c0.8,0.6,1.6,1.1,2.5,1.5c0.1,0.1,0.2,0.1,0.2,0.2c0.2,0.2,1.1,1.1,1.7,1.7
		c0.3,0.5,0.7,1,1,1.5c0.5,0.8,1,1.7,1.4,2.6c0.1,0.1,0.1,0.2,0.1,0.3c0,0,0,0,0,0.1c0.6,2.2,1.4,4.3,1.9,6.5c0,0.2,0.2,1,0.4,1.7
		c0,0.3,0,0.6,0.1,1.2c0.2,2,0.3,4,0.3,6c0,1.6-0.1,3.1-0.2,4.7c-0.1,0.3-0.1,0.6-0.2,0.9c-0.2,0.6-0.9,2.2-1.3,3.3
		c0.4-0.8,1-1.3-0.1,0.8c0,0.1-0.1,0.1-0.1,0.2c0,0.1,0,0.2,0,0.2c0-0.1,0-0.1,0-0.2c-0.6,1-1.1,2-1.7,3c0,0.1-0.1,0.1-0.1,0.2
		c-0.9,0.8-1.8,1.7-2.6,2.6c-0.1,0.1-0.2,0.2-0.3,0.3c-0.1,0-0.1,0.1-0.2,0.1c-1.3,0.8-2.8,1.5-4.2,2.3c-0.8,0.2-1.6,0.5-2.4,0.8
		c-1.6,0.5-3.1,0.8-4.7,1.1c-2.9,0.6-1.2,0.2-0.6,0.1c-1.1,0.1-2.2,0.2-3.3,0.2c-1.8,0.1-3.6,0-5.4-0.1c3.4,0-0.8-0.3-2.1-0.6
		s-4.9-2.2-2.2-0.7c-1.3-0.7-2.6-1.3-3.9-2.1c-0.6-0.4-4.2-3-3.2-2.2c-2.4-2-4.7-4.2-6.7-6.6c-0.4-0.5-2.3-2.9-2-2.4
		c-1-1.5-2.1-3-3-4.5c-1.7-2.7-3.2-5.5-4.5-8.4c0.3,0.7-1.1-2.9-1.3-3.4c-0.6-1.7-1.1-3.4-1.6-5.1c-0.4-1.7-0.7-3.3-1.1-5
		c0-0.1,0-0.1,0-0.2c0-0.4-0.1-0.9-0.1-1.3c-0.1-1.2-0.2-2.4-0.2-3.7c-0.1-1-0.1-2.1-0.2-3.1c0.3-4.6,0.3-9.2,0-13.8
		c0.1-3.1,0.4-6.2,0.7-9.2c0-0.4,0.1-0.9,0.2-1.3c0-0.1,0-0.2,0-0.3c0.2-1.3,0.4-2.7,0.7-4c0.6-3.2,1.3-6.3,2.2-9.4
		c0.9-3.1,1.9-6,3-8.9c1-2.7,0.2-0.5,0,0.1c0.4-0.8,0.7-1.5,1.1-2.3c0.7-1.5,1.5-3.1,2.4-4.6c0.8-1.5,1.8-3,2.7-4.4
		c0.5-0.7,1-1.4,1.5-2.1c0,0,0.1-0.1,0.1-0.1c2.3-2.7,4.8-5.3,7.5-7.7c5-4.5,10-9,14.9-13.7c10.2-9.8,19.7-20.4,27.3-32.3
		c17.7-27.4,20.4-59.8,12.4-90.9c-8.3-32.2-24.7-61.6-41.6-90c-7.4-12.3-14.9-24.6-21.7-37.3c-1.5-2.8-2.9-5.6-4.3-8.5
		c-0.7-1.5-1.4-3-2.1-4.5l-0.7-1.7c-0.1-0.1-0.1-0.2-0.1-0.3c-0.1-0.1-0.1-0.3-0.2-0.5c-2.2-5.4-3.9-11-5.2-16.7
		c-0.3-1.2-0.5-2.4-0.7-3.6c0-0.4-0.1-0.8-0.1-1.3c-0.3-3.2-0.3-6.4-0.1-9.5c0.1-1.6,0.2-3.2,0.4-4.8c0,0.2,0.4-2.5,0.6-3.1
		c0.7-3.5,1.7-7,3-10.3c0.4-0.8,0.8-1.5,1.2-2.3c0.7-1.3,1.4-2.6,2.3-3.8c0.3-0.5,0.6-0.9,1-1.4c0.2-0.2,0.3-0.4,0.5-0.5
		c1.3-1.3,2.6-2.7,4-3.9c0.1-0.1,0.2-0.2,0.3-0.3c0.4-0.3,0.8-0.5,1.2-0.8c1.4-0.9,2.9-1.7,4.5-2.5c0.1-0.1,0.4-0.2,0.6-0.3
		c0.4-0.2,0.9-0.3,1.3-0.5c1.7-0.6,3.5-1,5.3-1.4c1.3-0.3,5.4-0.5,1.3-0.4c1.2,0,2.3-0.2,3.5-0.2c0.7,0.1,1.3,0.1,2,0.1
		c0.1,0,0.1,0,0.2,0c0.7,0.2,1.4,0.5,1.9,0.8c0.6,0.4,1.2,0.8,1.9,1.1c0.3,0.2,0.6,0.4,1,0.6c0,0,0.1,0.1,0.1,0.1
		c0.1,0.1,0.2,0.2,0.4,0.3c-0.1,0-0.1-0.1-0.2-0.1c0,0,0,0,0,0c2.2,2,5.9,5.9,6.8,7c2.3,2.9,4.2,6,5.9,9.2c0,0.2,0.8,2,1,2.7
		c0.4,1.5,0.8,2.9,1,4.4c0,0.1,0.2,2.1,0.2,2.9c0,1.6-0.2,3.2-0.2,4.7c-0.1,0.6-0.2,1.2-0.4,1.8c-0.2,0.8-0.4,1.6-0.6,2.4
		c-0.1,0.2-0.3,1-0.5,1.6c-0.4,0.7-1.1,2.3-1.3,2.6c-0.5,0.9-2.9,3.6-1.5,2.2c-0.7,0.7-1.4,1.5-2.2,2.2c0.1-0.2-2,1.3-2.8,1.7
		c-7.1,3.8-9.4,13.7-5.4,20.5c4.2,7.2,13.4,9.2,20.5,5.4c16-8.6,24.5-26.7,24.3-44.4c-0.2-18.6-10-36.6-24.1-48.5
		c-13.3-11.2-29-13.4-45.4-8.3c-9.1,2.8-16.8,7.6-23.2,13.9V10.2h210v69.9c-0.7-0.6-1.4-1.3-2.1-1.9c-28.1-23.7-78.3-10.5-88.9,25.5
		c-3.5,12-1.9,27.1,1.8,38.9c4.2,13.7,13,26.7,26.2,33.1c8.1,3.9,17,5.9,26,5.9c7.8,0.1,15.4-7,15-15c-0.4-8.2-6.6-14.9-15-15l0,0
		c-1.6,0-3.1-0.1-4.7-0.2c0.8,0-1.7-0.3-2.6-0.5c-1.3-0.3-2.5-0.7-3.8-1.1c-0.7-0.4-1.5-0.7-2.2-1.2c-0.7-0.4-1.3-0.8-2-1.3
		c0.2,0.1-1.3-1.1-2-1.8c-0.2-0.2-1-1.1-1.5-1.7c-0.5-0.9-1.1-1.7-1.6-2.5c-0.5-0.9-1.1-2.1-1.7-3.1c-0.1-0.1-0.1-0.3-0.2-0.4
		c0-0.1,0-0.1-0.1-0.2c-0.8-2.5-1.7-5.1-2.2-7.7c-0.2-1.1-0.4-2.3-0.7-3.4c0-0.1,0-0.2-0.1-0.3c0-0.1,0-0.3,0-0.5
		c-0.2-2.3-0.3-4.6-0.4-7c0-1.2,0-2.3,0-3.5c0-0.3,0-0.6,0.1-1c0.4-1.1,0.6-2.3,0.9-3.4c0,0,0-0.1,0-0.1c0.3-0.7,0.7-1.3,1.1-2
		c0.4-0.7,1.6-2.3,1.4-2.2c0.8-0.9,1.7-1.9,2.6-2.7c0.5-0.5,1-0.9,1.5-1.3c1.7-1.1,3.3-2.1,5.1-3c0.2-0.1,1-0.5,1.3-0.6
		c0.3-0.1,0.7-0.2,1-0.3c1.6-0.6,3.3-1,5-1.4c0.9-0.2,1.8-0.4,2.7-0.5c0.3,0,0.6,0,1.1-0.1c2-0.1,4-0.2,6-0.1c0.6,0,1.2,0.1,1.8,0.1
		c0.1,0,0.3,0.1,0.5,0.1c1.3,0.5,2.6,0.8,4,1.1c0,0,0,0,0,0c0.3,0.2,0.7,0.3,1.1,0.5c0.7,0.3,1.3,0.7,1.9,1.1c0.1,0.1,0.6,0.4,1,0.7
		c0.5,0.5,1.6,1.4,2,1.7c1.1,1,2,2.2,2.9,3.3c-1.9-2.2-0.2-0.2,0.6,1c0.9,1.4,1.7,2.9,2.5,4.5c0.2,0.5,0.5,1,0.7,1.5
		c0.4,1.2,0.9,2.3,1.3,3.5c1,3,1.8,6.1,2.4,9.2c0.3,1.6,0.5,3.1,0.8,4.7c-0.5-3-0.1-0.2,0.1,1.3c0.3,3,0.4,6,0.4,9c0,4.5,0,9,0,13.4
		c0,7.4,0,14.9,0,22.3c-0.1,0.5-0.1,1-0.1,1.6c-0.3,32.5-0.5,64.9-0.2,97.4c-0.1,20.5-0.1,41-0.2,61.5l0,0c0,0,0,0.1,0,0.1
		c-0.1,21.6-0.1,43.3-0.1,64.9c0,29.2,0.1,58.4,0.2,87.6c0.1,12.8,0.2,25.6,0.3,38.4c0,3.2,0.1,6.5,0,9.7c-0.1,1.8-0.2,3.5-0.4,5.3
		c0-0.5-0.5,3-0.7,3.6c-0.4,1.6-0.8,3.2-1.3,4.8c-0.2,0.4-0.3,0.9-0.5,1.4c-0.6,1-1.1,2.1-1.7,3.1c-0.3,0.5-0.7,1-1,1.5
		c-0.8,0.7-1.5,1.5-2.2,2.3c-0.3,0.3-0.6,0.5-0.9,0.8c-0.8,0.5-1.6,1-2.4,1.5c-0.5,0.3-1.1,0.5-1.6,0.8c-0.4,0.2-0.6,0.4-0.8,0.6
		c-1.5,0.6-3.6,0.9-4.8,1.1c-1,0.2-1.9,0.4-2.9,0.6c-0.5,0.1-1.3,0.2-1.6,0.2c-2.4,0.2-4.8,0.3-7.2,0.4c-1.4,0-2.8,0-4.2-0.1
		c-0.1,0-0.2,0-0.3-0.1c-1.1-0.3-2.2-0.5-3.4-0.9c-0.6-0.2-1.2-0.4-1.9-0.6c-0.1-0.1-0.3-0.1-0.4-0.2c-1.6-0.9-3.2-1.8-4.7-2.7
		c0,0-0.3-0.2-0.5-0.4c-0.4-0.3-1.1-0.9-1.3-1.1c-1.3-1.2-2.6-2.5-3.8-3.8c-0.1-0.2-0.7-0.8-1-1.2c-0.3-0.4-0.5-0.8-0.6-0.9
		c-0.8-1.3-1.5-2.6-2.2-3.8c-0.1-0.1-0.1-0.3-0.2-0.4c0.1,0.2,0.1,0.4,0.2,0.7c-0.2-0.6-0.4-1.1-0.6-1.7c-0.2-0.8-0.4-1.5-0.6-2.3
		c0-0.2-0.1-0.3-0.1-0.5c-0.1-4.7,0-9.4,0.4-14c0-0.2,0-0.3,0-0.5c0-0.1,0-0.2,0.1-0.3c0.2-1.1,0.4-2.2,0.7-3.3s0.5-2.1,0.9-3.2
		c0.1-0.5,0.3-0.9,0.5-1.4c0.5-0.8,1-1.7,1.4-2.6c0.1-0.2,0.2-0.4,0.3-0.6c0,0,0,0,0,0c0.7-0.5,1.3-1.1,1.9-1.8
		c0.7-0.3,1.3-0.7,1.9-1.2c0.1-0.1,0.2-0.1,0.3-0.2c0.2,0,0.4-0.1,0.6-0.2c1.3-0.4,2.7-0.7,4-1.1c0.2,0,0.3-0.1,0.4-0.1
		c0.7-0.1,1.4-0.1,2.2-0.2c2-0.1,4-0.1,6.1,0c7.8,0.2,15.4-7.1,15-15c-0.2-8.2-6.8-14.8-15-15c-16.9-0.5-33.4,4.7-43.1,19.3
		c-7.1,10.8-8.4,24.5-8.6,37.1c-0.3,18.1,9.6,33.7,24,44.1c14,10.1,30.7,11,47.1,8.4c8.7-1.4,16.8-4.7,23.6-9.9V644H1251.4z
		 M1261.9,522.4C1261.7,521.6,1261.7,520.2,1261.9,522.4L1261.9,522.4z M1316.5,557c0,0-0.1,0.1-0.1,0.1
		C1316.4,557.1,1316.5,557.1,1316.5,557z M1316.5,523.7c0,0-0.2-0.2-0.3-0.4C1316.4,523.5,1316.5,523.7,1316.5,523.7z M1280.1,101.4
		c0.2-0.1,0.3-0.1,0.5-0.2C1280.4,101.3,1280.3,101.4,1280.1,101.4z M1280.6,101.2C1281.3,101,1281.8,100.8,1280.6,101.2
		L1280.6,101.2z M1292.5,98.6c0.3-0.1,0.7-0.1,1.1,0C1293,98.6,1292.4,98.6,1292.5,98.6z M1420.7,96.3
		C1420.5,96.4,1420.4,96.4,1420.7,96.3L1420.7,96.3z M1413.1,149.6C1411.1,149,1412.3,149.3,1413.1,149.6L1413.1,149.6z
		 M1418.1,564.3C1418.8,564.3,1420.5,564.8,1418.1,564.3L1418.1,564.3z M1412.6,562.8C1414.4,563.4,1413.3,563,1412.6,562.8
		L1412.6,562.8z M1396.7,544.4C1396.5,543.3,1396.7,543.3,1396.7,544.4L1396.7,544.4z M1401.5,518.1c0.1-0.1,0.1-0.2,0.2-0.3
		C1401.7,517.8,1401.6,517.9,1401.5,518.1z M1471.6,644v-71.3c0.1-0.1,0.2-0.3,0.3-0.4c2.2-3.1,3.9-6.4,5.3-9.8
		c0.7,1.5,1.4,2.9,2.2,4.3c8.8,15.7,23.8,24.9,41.4,26.9c18.7,2.1,39.9-3.6,52.1-18.5c5.5-6.6,9.1-14.2,11.2-22.3
		c1.7,8.1,5.4,15.8,10.8,22.2c12.2,14.6,34.5,19.8,52.6,16.2c13.5-2.7,25.1-11.2,34-21.8V644H1471.6z M1856.2,406.2
		c-2.4-2.4-4.7-4.9-7-7.4c-1.1-1.3-2.2-2.5-3.3-3.8c-0.5-0.6-3-3.8-2.9-3.6c-4-5.4-7.5-11.1-10.5-17.1c-0.4-0.9-0.8-1.8-1.2-2.7
		c0,0,0,0,0,0c-0.5-1.6-1.2-3.1-1.7-4.7c-1.2-3.7-2.2-7.4-2.9-11.3c-0.2-1.1-0.4-2.2-0.6-3.3c0.1,0.6,0.3,2.9,0,0
		c-0.1-1.4-0.2-2.8-0.3-4.2c26.2-2.9,51.3-10.8,75.9-19.9v138.7c-0.4-1.3-0.8-2.6-1.3-3.9c-5.7-16.5-14.8-29.4-27.7-41
		C1867.1,416.8,1861.6,411.6,1856.2,406.2z M1795.8,318.4c-1.8-0.4-3.6-0.8-5.3-1.3c-0.8-0.2-1.6-0.5-2.4-0.8
		c-0.1-0.1-2.6-1.4-2.6-1.4c-0.7-0.4-1.4-0.8-2.1-1.3c0-0.1-1.1-1-1.5-1.4c-0.5-0.5-1-1-1.5-1.6c1.7,1.8-0.9-1.3-1.1-1.6
		c-0.5-0.8-0.9-1.7-1.4-2.5c-0.1-0.3-0.3-0.5-0.3-0.6c0,0,0-0.1-0.1-0.5c-0.3-0.9-0.6-1.8-0.8-2.8c-0.2-0.7-0.3-1.9-0.3-1.9
		c0-0.7-0.1-1.3-0.1-2c0-0.2,0.1-1.4,0.2-2.2c0.4-0.8,1.3-3.9,0.9-3.3c0.3-0.6,0.7-1.2,1-1.8c0.1-0.3,0.2-0.5,0.3-0.7
		c0,0,0.1-0.1,0.2-0.2c0.6-0.7,1.2-1.4,1.9-2c0.4-0.4,1.4-1.2,1.4-1.3c0.5-0.3,1.1-0.7,1.6-1c0.3-0.2,3.6-1.6,1.9-1
		c1.2-0.4,2.4-0.8,3.7-1c0.3,0,1.1-0.1,1.3-0.1c0.4,0,2.9,0.4,2.5,0.3c0.5,0.1,1.1,0.3,1.7,0.4c0.2,0.1,0.4,0.1,0.5,0.1
		c0,0,0.1,0.1,0.3,0.3c0.6,0.4,1.2,0.7,1.8,1.1c0.3,0.2,0.6,0.3,0.7,0.4c0.1,0.2,0.3,0.4,0.6,0.7c0.5,0.5,1,1,1.5,1.5
		c0.2,0.3,0.7,0.9,0.9,1.3c0.1,0.2,0.4,0.8,0.7,1.2c0.2,0.7,0.8,2.1,0.8,2.1c0.1,0.2,0.2,0.7,0.3,1.1c0,1,0,2.1,0,3.1
		c0,0.5,0,1.1,0,1.6c-1.9,6.3-3.6,12.6-4.8,19.1C1797.4,318.6,1796.6,318.5,1795.8,318.4z M1839,288.3c0.5-1.2,1-2.4,1.6-3.6
		c3.7-8.2,7.8-16.3,12.1-24.3c8.1-14.9,17.1-29.3,25.7-43.9c8.7-14.7,17.8-30.4,23.4-46.9v126.6c-5.4,2.1-10.8,4.1-16.2,6
		c-17.7,6.4-35.9,11.9-54.5,15c-0.7,0.1-1.3,0.2-2,0.3c0.8-3,1.6-6,2.6-9c1.3-4.3,2.8-8.6,4.4-12.8c0.8-2.2,1.7-4.4,2.6-6.6
		C1838.4,289.7,1837.7,291.1,1839,288.3z M1952.6,453.9C1952.2,454.4,1950.9,455.9,1952.6,453.9L1952.6,453.9z M1989.3,346.6
		c-0.1,1.8-0.2,3.7-0.4,5.5c0,0.6-0.4,3,0,0c-0.2,1.3-0.4,2.6-0.7,3.9c-0.7,3.4-1.5,6.7-2.6,10c-0.5,1.6-1.1,3.2-1.7,4.8
		c0,0.1-0.1,0.2-0.1,0.3c-0.4,1-0.9,2-1.4,3c-3,6.1-6.5,11.8-10.5,17.2c0.5-0.7-2.1,2.7-2.5,3.1c-1.1,1.3-2.2,2.6-3.3,3.8
		c-2.5,2.9-5.2,5.6-7.9,8.4c-11.2,11.3-24.3,20.8-33.3,34.2c-6.2,9.3-10.5,19.8-13.2,30.9V324.3c4.9-1.9,9.7-3.7,14.6-5.6
		c17.8-6.9,35.6-13.8,54-19.1c1.1,2.9,2.1,5.9,3,8.9c0.3,1,0.6,2.1,0.9,3.1c0,1,0.1,2.1,0.4,3.1c0.7,3.5,1.7,7,3,10.4
		c0.2,1.2,0.5,2.5,0.7,3.7c0.1,0.4,0.4,2.7,0.4,2.4c0.1,1,0.2,2,0.3,3C1989.4,338.3,1989.5,342.5,1989.3,346.6z M2019.2,321.9
		C2019.4,322.2,2019.4,322.3,2019.2,321.9L2019.2,321.9z M2021.1,323.9C2020.3,323.4,2020.7,323.6,2021.1,323.9L2021.1,323.9z
		 M2013.3,294.4c1.5,0,3,0.2,4.4,0.5c3.6,0.7,7.1,2,10.3,3.8c0.2,0.1,0.3,0.2,0.5,0.3c-0.2-0.1,1.6,1.2,1.9,1.5
		c0.6,0.6,1.1,1.2,1.8,1.8c0.2,0.2,0.3,0.3,0.4,0.4c0,0,0,0,0,0c1.1,1.5,2,3.2,2.9,4.8c0.1,0.1,0.1,0.2,0.2,0.3
		c0.3,0.8,0.6,1.6,0.8,2.4c0.1,0.8,0.3,1.6,0.6,2.4c0,0.1,0,0.1,0.1,0.1c0,0,0,0,0,0c0,0.8,0.1,1.6,0.1,2.3c0,0.4-0.1,0.8-0.1,1.1
		c0.1-0.2,0.1-0.3,0.2-0.5c-0.2,0.7-0.4,1.5-0.6,2.2c0,0.1,0,0.2,0,0.2c-0.3,0.4-0.5,0.8-0.7,1.3c-0.1,0.1-0.4,0.4-0.8,0.9
		c-0.1,0.1-0.5,0.5-0.8,0.8c-0.8,0.6-1.6,1.1-2.5,1.6c-0.2,0.1-1.4,0.7-1.9,1c-0.7,0.2-2.1,0.8-2.4,0.8c-0.7,0.2-1.4,0.4-2.1,0.5
		c-0.2-0.1-1.8,0-2.1,0c-0.1,0-0.2-0.1-0.4-0.1c-0.3-0.1-0.4-0.1-0.5-0.1c-0.1-0.1-0.3-0.2-0.6-0.3c-0.2-0.1-0.4-0.2-0.5-0.3
		c-0.9-0.8-1.7-1.6-2.4-2.5c-0.1-0.2-0.2-0.4-0.3-0.7c-0.5-1.1-1.2-2.1-1.7-3.1c-0.1-0.2-0.2-0.3-0.2-0.5c-0.5-2.7-1.1-5.4-1.8-8
		c-1.3-5-2.8-10-4.5-14.9C2011.4,294.4,2012.3,294.4,2013.3,294.4z M1925.7,197.1c13.4,25.3,29.5,49.1,42.5,74.6
		c-9.9,3-19.6,6.6-29.1,10.1c-9.1,3.4-18.2,7-27.2,10.5V163.7C1915.1,175.2,1920.1,186.4,1925.7,197.1z M1901.7,108.4
		c-3.2-8.7-8-16.7-14.9-23.2c-12.4-11.8-31-18.4-48-15.6c-16.7,2.8-31.1,18.3-38.4,32.9c-8.2,16.5-8.6,36.2,0.2,52.6
		c4.1,7.5,10.3,13.7,17.9,17.8c7.1,3.9,16.3,1.8,20.5-5.4c4-6.8,1.8-16.7-5.4-20.5c-0.6-0.3-2.7-1.8-2.8-1.8c-0.7-0.7-1.4-1.6-2.2-2
		c0,0-0.1,0-0.1,0c-0.4-0.6-0.8-1.1-1.1-1.7c-0.3-0.5-0.6-1-0.9-1.5c-0.4-0.8-1.3-3.9-0.5-0.8c-0.4-1.4-0.9-2.7-1.3-4.1
		c-0.3-1.2-0.6-3.7-0.5-2.4c-0.1-1.4-0.2-2.7-0.2-4.1c0-0.8,0.1-1.7,0.1-2.5c0-0.2,0-0.3,0-0.4c0,0,0,0,0,0c0.4-1.4,0.6-2.9,1-4.4
		c0.1-0.5,1.1-3.1,1.2-3.4c1.6-3.3,3.6-6.3,5.9-9.2c2-2.3,4.1-4.5,6.3-6.6c0.1-0.1,0.5-0.4,0.8-0.7c0.2-0.2,0.4-0.3,0.5-0.3
		c0.7-0.4,1.3-0.7,1.9-1.1c0,0,0.1-0.1,0.1-0.1c1.1-0.2,2.2-0.6,3.3-0.9c0.2,0,0.4,0,0.7,0c1.4,0,2.7,0.1,4,0.2
		c-3.5-0.2-0.3,0,1.3,0.4s3.1,0.8,4.6,1.2c0.8,0.2,1.5,0.5,2.3,0.8c0.1,0,0.2,0.1,0.3,0.1c1.3,0.7,2.7,1.4,3.9,2.2
		c0.7,0.5,1.4,0.9,2.1,1.4c0,0,0,0,0,0c0.1,0.1,0.2,0.2,0.4,0.4c1,1,2.1,2,3.1,3.1c0.1,0.1,0.6,0.6,0.9,1c0.3,0.3,0.5,0.7,0.6,0.9
		c0.8,1.2,1.6,2.5,2.3,3.8c0.4,0.8,0.8,1.5,1.2,2.3c0.1,0.2,0.2,0.3,0.3,0.5c0,0,0,0.1,0,0.1c1.2,3.1,2.2,6.4,2.9,9.6
		c0.1,0.5,0.6,3.7,0.7,3.8c0.2,1.6,0.3,3.2,0.4,4.8c0.2,3.2,0.1,6.4-0.1,9.5c0,0.4-0.1,0.7-0.1,1.1c-0.3,1.4-0.5,2.9-0.8,4.3
		c-1.3,5.8-3.4,11.1-5.3,16.7c0,0,0,0,0,0.1c-0.2,0.4-0.4,0.9-0.6,1.3c-0.7,1.5-1.4,3-2.1,4.5c-1.5,3.1-3,6.1-4.6,9.1
		c-3.4,6.4-7,12.6-10.6,18.8c-12.3,20.8-24.9,41.4-35.4,63.1c-5-4.1-10.8-7.2-17.1-8.6c-18.8-4.2-39.9,5.6-48.7,22.9
		c-9.1,17.9-5.3,40.2,8.7,54.6c9.5,9.8,22.4,14.2,35.7,15.7c0.5,11.1,2.7,22.1,7,32.8c10.9,26.6,31.4,46.4,52.4,65.3
		c2.5,2.3,4.8,4.7,7,7.2c0,0,0.1,0.1,0.1,0.2c0,0,0-0.1-0.1-0.1c0,0,0,0.1,0.1,0.1c0.3,0.4,0.8,1.2,0.6,0.9c0.1,0.2,0.3,0.4,0.4,0.6
		c1.1,1.6,2.1,3.3,3.1,5c0.8,1.5,1.6,3,2.4,4.6c0.3,0.6,0.5,1.2,0.8,1.7c0,0.1,0.1,0.1,0.1,0.2c1.2,3,2.2,6.1,3.1,9.2
		c0.8,2.9,1.5,5.9,2.1,8.9c0.3,1.5,0.5,3.1,0.8,4.6c0,0.1,0,0.2,0,0.3c0-0.3-0.1-0.5-0.1-0.9c0,0.3,0.1,0.6,0.1,0.9
		c0.1,0.7,0.2,1.5,0.1,0.7c0,0.2,0,0.4,0.1,0.5c0.6,5.3,0.9,10.5,0.9,15.8c0,3.5-0.1,7.1-0.3,10.6c-0.1,0.9-0.1,1.9-0.2,2.8
		c-0.1,0.7-0.1,1.3-0.2,1.9c0,0.1,0,0.2-0.1,0.3c-0.3,1.7-0.7,3.4-1.1,5s-1,3.4-1.6,5.1c-0.3,0.8-0.6,1.7-0.9,2.5
		c1.1-3.3-0.8-6.9-4.1-7.9c-3.3-1.1-6.9,0.8-7.9,4.1c-1.1,3.3,0.8,6.9,4.1,7.9c3,0.9,6.1-0.4,7.5-3.1c-0.2,0.5-0.4,1-0.5,1.1
		c-0.4,0.8-0.8,1.6-1.2,2.5c-1,1.8-2,3.6-3.1,5.4c-0.9,1.4-1.8,2.7-2.7,4c-0.1,0.1-0.1,0.2-0.2,0.3c-0.4,0.5-0.8,1-1.3,1.5
		c-1.2,1.4-2.4,2.7-3.7,3.9c-0.7,0.6-1.3,1.2-1.9,1.8c-0.1,0.1-0.6,0.5-1.1,0.9c1.5-1.6,1.7-4.2,0.3-6c-1.6-2-4.4-2.3-6.4-0.7
		c-2,1.6-2.3,4.4-0.7,6.4c1.4,1.8,3.9,2.2,5.8,1.1c-0.7,0.5-1.4,1-2.2,1.4c-1.2,0.7-2.4,1.4-3.7,2c1-0.5-1.5,0.6-2.4,0.9
		c-0.8,0.2-1.6,0.4-2.4,0.6c-0.3,0.1-0.5,0.1-0.7,0.2c-1.7,0.1-3.3,0.1-5,0.1c-0.8,0-1.7-0.1-2.5-0.2c-0.5,0-0.7,0-0.8,0
		c-1.6-0.2-3.1-0.6-4.6-1c-0.8-0.2-1.7-0.5-2.5-0.8c-0.1,0-0.3-0.1-0.4-0.1c-1.3-0.8-2.6-1.4-3.9-2.2c-0.2-0.1-0.4-0.2-0.6-0.3
		c0,0-0.1-0.1-0.1-0.1c-0.8-0.9-1.8-1.9-2.7-2.7c-0.1-0.1-0.2-0.2-0.3-0.2c-0.2-0.3-0.3-0.5-0.3-0.6c-0.5-0.8-1-1.7-1.5-2.5
		c0,0,0-0.1-0.1-0.1c0,0.1,0,0.1,0,0.2c0-0.1,0-0.2,0-0.3c-0.2-0.4-0.4-0.9-0.6-1.2c-0.5-0.9-0.1-0.8,0.2-0.2
		c-0.4-1-0.9-2.1-1.1-2.7c-0.1-0.3-0.1-0.5-0.1-0.8c-0.1-1.6-0.2-3.2-0.2-4.7c0-1.8,0.1-3.8,0.2-5.7c0,0,0-0.1,0-0.1
		c0,0,0,0.1-0.1,0.1c0,0,0-0.1,0.1-0.1c0-0.5,0.1-1,0.1-1.4c0-0.6,0.2-0.8,0.3-0.7c0-0.4,0.1-0.7,0.1-1c0.5-2.2,1.3-4.3,1.9-6.5
		c0.6-1.1,1.2-2.3,1.8-3.4c0.2-0.3,0.8-1.1,1.1-1.5c0.4-0.5,0.9-1,1.1-1.1c0.4-0.3,0.7-0.6,0.9-0.9c0.7-0.4,1.6-0.9,2.1-1.1
		c0.2-0.1,0.5-0.2,0.7-0.3c0.9-0.2,1.7-0.4,2.6-0.6c-0.3,0.1,1.8-0.2,3-0.2c1.6,0,3.3,0.1,4.9,0.2c7.8,0.7,15.3-7.4,15-15
		c-0.4-8.7-6.6-14.2-15-15l0.1-0.1c-16-1.5-30.8,4.6-40.4,17.5c-7,9.4-9.7,21.5-10.4,33c-1.4,25.1,13.9,47.9,39.4,52.9
		c19.7,3.9,37.2-0.8,52.1-14.2c10-9,17.9-21.2,22.7-34.1V644h-210v-65.4c5.8,6.3,13.4,11.1,23.4,13.5c21,5.1,46.3-0.8,60.2-18
		c12-15,13.4-34.2,9.2-52.5c-5-21.9-22.3-38.9-45.8-36.9c-7.8,0.7-15.4,6.4-15,15c0.3,7.6,6.6,15.7,15,15l-0.1,0
		c1.7-0.1,4,0.3,5.6-0.1c0.7,0.2,1.5,0.4,2.2,0.5c0.1,0,0.3,0.1,0.4,0.1c-0.3-0.1-0.6-0.3-1.1-0.5c0.4,0.2,0.7,0.4,1.1,0.6
		c0.6,0.2,1.1,0.5,0.3,0.2c0.1,0.1,0.3,0.1,0.4,0.2c0.6,0.3,1,0.7,1.6,0.9c0,0.1,0.1,0.1,0.1,0.2c0.8,1,2.9,4,0.9,0.6
		c0.7,1.1,1.5,2.2,2.2,3.3c0.3,0.7,0.7,1.4,1.1,2.1c0.5,1.4,1,2.8,1.4,4.3c0.4,1.3,0.7,2.7,0.9,4c0.1,0.7,0.2,1.4,0.4,2.1
		c0.3,2.7,0.4,5.4,0.4,8.2c0,0.6,0,1.2,0,1.9c-0.4-2.9-2.5-5.4-5.5-6.1c-4-1-7.9,1.4-8.9,5.4s1.4,7.9,5.4,8.9
		c3.6,0.9,7.4-1.1,8.7-4.6c-0.2,0.6-1.2,3.5-1.1,3.6c-0.6,1.1-1.1,2.2-1.8,3.2c-0.2,0.3-0.6,0.9-0.9,1.2c-0.2,0.3-0.4,0.5-0.7,0.8
		c-0.9,1-2,1.9-3,2.8c1.5-1.3-1.6,1-2.4,1.5c-0.9,0.5-1.9,1-2.8,1.5c-0.1,0.1-0.2,0.1-0.2,0.1c-0.1,0-0.3,0.1-0.4,0.1
		c-2,0.6-3.9,1.2-6,1.7c-0.2,0-0.9,0.2-1.5,0.3c-0.9,0.1-2.9,0.2-2.7,0.2c-2,0.1-4,0.1-6,0c-0.4,0-0.9-0.1-1.3-0.1
		c-0.1-0.1-2.1-0.4-2.4-0.5c-1.5-0.4-3-0.9-4.5-1.4c3.4,1.1-0.4-0.3-1.4-0.9c0,0-0.1-0.1-0.2-0.2c1.9,0.8,4.2,0.2,5.4-1.6
		c1.5-2.1,1-4.9-1.1-6.3c-2.1-1.5-4.9-1-6.3,1.1c-1.3,1.9-1.1,4.4,0.6,5.9c0,0,0,0,0,0c-1.2-1.1-2.2-2.4-3.3-3.5
		c-0.4-0.7-0.8-1.4-1.3-2c-0.7-1.2-1.4-2.5-2-3.8c-0.1-0.3-0.2-0.5-0.4-0.8c-0.1-0.2-0.2-0.5-0.3-0.7c-0.6-1.8-1.2-3.5-1.7-5.3
		c-1-3.7-1.7-7.4-2.4-11.1c0-0.1,0-0.1,0-0.2c-0.1-0.9-0.2-1.7-0.3-2.6c-0.2-1.9-0.4-3.7-0.5-5.6c-0.5-7.3-0.3-14.8-0.4-22.1
		c0-0.8-0.1-1.7-0.2-2.5c-0.7-16.7-3.9-33.8-11-48.9V173.2c5.4-8.5,9.4-17.7,10.8-27.7c0.4-1.3,0.6-2.6,0.6-4.1
		c0-3.5,0.1-7,0.3-10.5c0.1-1.5,0.2-2.9,0.3-4.4c0.1-0.8,0.2-1.5,0.3-2.3c0-0.1,0-0.2,0.1-0.4c0.6-2.9,1.2-6,2-9
		c0.4-1.2,0.9-2.3,1.2-3.5c0.3-0.6,0.6-1.3,0.9-1.9c0.6-1.2,1.4-2.3,2-3.4c-0.1,0.2-0.3,0.3-0.5,0.5c0.2-0.2,0.4-0.4,0.5-0.6
		c0,0,0,0,0,0c0.3-0.5,0.8-1,0.8-0.9c0.7-0.8,1.6-1.5,2.3-2.2c0.6-0.4,1.1-0.8,1.7-1.1c1-0.6,4.7-2,1.2-0.8c1.3-0.4,2.5-0.9,3.8-1.2
		c0.4-0.1,2.4-0.5,3.3-0.8c0.5-0.1,1.1-0.2,1.3-0.2c1.1-0.1,2.3-0.2,3.4-0.2c2-0.1,4.1,0,6.1,0.1c0.2,0,0.6,0.1,1,0.1
		c0.5,0.1,1.1,0.2,1.6,0.3c1.8,0.4,3.6,0.9,5.4,1.4c0.2,0.1,0.8,0.3,1.2,0.5c0.6,0.3,1.8,0.9,1.8,0.9c1.5,0.8,2.8,1.7,4.2,2.6
		c-2.3-1.5,0.2,0.2,1.1,1.1c0.3,0.3,1.7,1.8,2.3,2.5c0.5,0.8,1.7,2.7,2,3.2c0.2,0.5,0.4,0.9,0.6,1.2c0,0.1,0,0.2,0.1,0.3
		c0.2,1.3,0.6,2.6,1,3.8c0,0,0,0.1,0,0.1c0,0.4,0.1,0.7,0.1,1.1c0.1,1.3,0.1,2.7,0.1,4c0,2.4-0.2,4.8-0.4,7.3c0,0.1,0,0.1,0,0.2
		c0,0.1,0,0.2-0.1,0.3c-0.3,1.7-0.7,3.4-1.1,5c-0.3,1.3-0.8,2.6-1.2,3.9c-0.2,0.6-0.5,1.3-0.7,1.9c1.4-3.8,0.2-0.7-0.2,0.1
		c-0.6,1.1-1.2,2.1-1.9,3.1c-0.4,0.5-0.9,1-1.3,1.4c-0.1,0.1-0.2,0.2-0.3,0.3c-0.3,0.3-0.8,0.6-0.9,0.7c-0.4,0.3-1,0.6-1.5,0.9
		c-0.7,0.1-1.4,0.3-2.1,0.6c-0.1,0-0.2,0.1-0.3,0.1c-2,0.1-3.9,0.1-5.9-0.1c-7.8-0.7-15.3,7.4-15,15c0.4,8.7,6.6,14.3,15,15l0,0.1
		c20,1.7,35.6-10.2,42.9-28.1c5.4-13.2,7.2-30.9,2.7-44.7c-6.2-19.2-23.4-32.4-43.2-35.4c-17.1-2.6-36.6,0.1-49.5,12.4V10.2h210
		V108.4z M1857.8,101.3C1857.2,101,1856.5,100.6,1857.8,101.3L1857.8,101.3z M1844,98.9c-0.1,0-0.1,0-0.1,0
		C1843.9,99,1843.9,99,1844,98.9z M1844.1,563.6C1843.3,563.8,1843.1,563.7,1844.1,563.6L1844.1,563.6z M1821.9,557.3
		c-0.2,0-0.6-0.6-0.8-1.1C1821.5,556.7,1822.1,557.3,1821.9,557.3z M1823.8,521.4c0-0.1,0.3-0.3,0.8-0.6
		C1824.3,521.2,1823.9,521.5,1823.8,521.4z M1704.1,532.4C1704,531.6,1703.9,530.2,1704.1,532.4L1704.1,532.4z M1707.9,548.5
		c0.1,0.3,0.2,0.5,0.3,0.7C1708.2,549,1708.1,548.7,1707.9,548.5z M1708.5,549.7C1708.9,550.5,1708.7,550.2,1708.5,549.7
		L1708.5,549.7z M1744.6,147.7C1743.4,148,1743.4,147.8,1744.6,147.7L1744.6,147.7z"/>
</g>
</svg>
