<?xml version="1.0" encoding="utf-8"?>
<!-- Generator: Adobe Illustrator 23.0.3, SVG Export Plug-In . SVG Version: 6.00 Build 0)  -->
<svg version="1.1" id="Layer_1" xmlns="http://www.w3.org/2000/svg" xmlns:xlink="http://www.w3.org/1999/xlink" x="0px" y="0px"
	 viewBox="0 0 2039.3 529.8" style="enable-background:new 0 0 2039.3 529.8;" xml:space="preserve">
<style type="text/css">
	.st0{fill:#FFFFFF;stroke:#000000;stroke-width:4;stroke-linejoin:round;stroke-miterlimit:10;}
</style>
<title>GPlogo</title>
<g>
	<path class="st0" d="M204.6,426.9c0-0.1,0,0.4-0.3,2C204.4,428.2,204.5,427.5,204.6,426.9L204.6,426.9z"/>
	<path class="st0" d="M98.5,475.1C99.2,475.7,99.9,476.2,98.5,475.1L98.5,475.1z"/>
	<path class="st0" d="M252.4,266.8c-8-13.7-22.9-21-38.5-21.6c-14.6-0.6-29.4,4.2-37.6,17c-5.5,8.9-8.6,21.5-8.6,31.8
		c0,3.9,0.4,7.7,1,11.6c-19.4-3.6-38.7,1.7-54,13.9V287c0-7.6-6.7-14.9-14.5-14.5s-14.5,6.4-14.5,14.5v100.3
		c-0.2,5.7-0.1,11.4,0,17.2c0.2,7.6,6.6,14.9,14.5,14.5s14.5-6.4,14.5-14.5v-16.1c0.1-4.2,0.4-8.4,0.8-12.6c0.1-0.7,0.3-2,0.3-2.2
		c0.1-0.9,0.3-1.6,0.5-2.5c0.4-2,0.9-4.1,1.5-6.1c0.5-1.8,1.2-3.6,1.7-5.4c0-0.1,0.1-0.2,0.2-0.3c0.6-1.1,1.1-2.2,1.6-3.3
		c1-1.8,2.1-3.5,3.2-5.2c0.1-0.2,0.2-0.4,0.3-0.5l0.1-0.1c0.7-0.9,1.4-1.6,2.1-2.4c2.7-3.1,5.8-5.9,9.3-8.2c1.8-1.2,3.8-2.2,5.7-3.2
		c0.4-0.2,1.5-0.6,1.8-0.7c1.1-0.4,2.2-0.8,3.3-1.1c0.9-0.2,1.7-0.5,2.6-0.7c0.3-0.1,2.5-0.3,2.6-0.4c1.7-0.1,3.6-0.2,5.3-0.2
		c1.1,0,2.1,0.2,3.2,0.2c0.1,0,0.2,0,0.2,0c0.1,0,0.2,0.1,0.4,0.1c2.1,0.5,4.2,0.9,6.2,1.5c0.8,0.3,1.5,0.6,2.4,0.8
		c0.2,0.1,0.4,0.1,0.5,0.2h0.1c2,1,4.1,2,6,3.2c0.9,0.5,1.7,1.1,2.5,1.6c0.1,0.1,0.2,0.2,0.3,0.2l0.1,0.1c1.6,1.5,3.3,3,4.8,4.6
		c1,1,1.8,1.9,2.6,2.8c0.1,0.1,0.1,0.2,0.2,0.3c0.2,0.3,0.4,0.6,0.6,0.8c-3.7-3.2-9.3-3.3-13,0.1c-4,3.6-4.3,9.8-0.6,13.7
		c3.6,4,9.8,4.3,13.7,0.6c3.6-3.3,4.2-8.8,1.5-12.8l0,0c0.8,1.1,1.5,2.1,2.2,3.2c2.4,3.7,4.6,7.6,6.4,11.6c0.1,0.2,0.2,0.5,0.3,0.8
		c0.3,0.8,0.6,1.5,1,2.4c0.8,2.2,1.5,4.5,2.2,6.8c1.2,4.1,2.1,8.2,2.8,12.4c0.1,0.6,0.2,1.3,0.3,1.8c0.1,0.4,0.1,0.9,0.1,1.1
		c0.2,2.2,0.5,4.5,0.6,6.8c0.5,7.6,0.4,15.4-0.3,23c-0.2,1.7-0.3,3.5-0.5,5.2c0,0.2-0.2,1.5-0.3,2c-0.5,2.9-1,5.8-1.5,8.7
		c-0.8,4-1.8,7.8-3.2,11.6c-0.3,0.9-0.7,1.6-1,2.5c1.6-4-0.2-8.5-4.1-10.2c-3.9-1.6-8.5,0.2-10.2,4.1c-1.6,3.9,0.2,8.5,4.1,10.2
		c3.6,1.5,7.8,0.1,9.8-3.3c-1.1,2.1-2.1,4.3-3.4,6.4c-1.1,1.8-2.2,3.7-3.5,5.4c-0.3,0.4-0.6,0.8-0.8,1.2c-0.2,0.3-1.4,1.7-1.5,1.9
		c-2.6,3.1-5.5,6-8.5,8.7c-1.3,1.1-2.5,2.1-3.8,3.2c-0.3,0.2-2.4,1.7-3,2.1c-3.2,2.1-6.5,4.2-9.9,5.9c-1.2,0.6-2.2,1.1-3.4,1.6
		c0.4-0.2-1.7,0.7-2.8,1.1c-2.9,1-5.9,1.8-9,2.4c-0.1,0-0.2,0-0.3,0.1c-0.1,0-0.3,0-0.5,0c-1.2,0-2.2,0.1-3.4,0.1
		c-1.3,0-2.6-0.1-3.9-0.2c-0.9-0.1-1.7-0.2-2.6-0.2l0,0c-6.2-1.1-12.2-2.7-18.1-4.7l-1.8-0.8h-0.1c-0.1,0-0.1,0-0.2-0.1
		c-1.4-0.7-2.8-1.3-4.2-1.9c-3.3-1.6-6.5-3.5-9.6-5.4c-1.5-1-3-1.9-4.5-3l-1.7-1.3c0.2,0.1,0.3,0.2,0.5,0.3
		c-0.2-0.2-0.4-0.3-0.5-0.4c-3-2.5-5.9-5-8.6-7.8c-2.5-2.6-4.8-5.4-7.3-8.1l0,0c-0.1-0.1-0.1-0.2-0.2-0.3c-0.5-0.7-1-1.3-1.4-1.9
		c-1.4-1.9-2.7-4-4-6c-2-3.4-3.8-6.9-5.5-10.4c-0.2-0.4-0.7-1.5-0.8-1.7c-0.2-0.4-0.4-0.9-0.5-1.3c-1-2.4-1.8-4.9-2.6-7.5
		c-1.3-4.2-2.3-8.3-3.1-12.6c-0.2-1.2-0.4-2.3-0.6-3.5c0-0.3-0.2-1.3-0.2-1.5c-0.3-2.6-0.6-5.2-0.7-7.8c-0.7-11.8-0.7-23.7,0-35.6
		c1.1-22.2,4.7-44.1,10.9-65.4c11.2-38.3,30.5-73.6,51.4-108.1c6.9-11.3,14.4-22.5,19.8-34.7c8.7-19.4,13.3-39.8,15.5-60.8
		c0.7-6.8,1.1-13.6,0.9-20.3c0-1.3,0.1-2.5,0.1-3.8c0.1-1.6,0.2-3.3,0.4-4.9c0.1-0.8,0.3-1.5,0.4-2.2c0.5-2.4,1.1-4.9,1.8-7.3
		c0.4-1.2,0.8-2.2,1.2-3.3c-0.8,2.7,0,0,0.6-1.2c1-1.9,2.1-3.6,3.3-5.4c0.2-0.2,0.4-0.4,0.6-0.7c0.8-0.9,1.5-1.6,2.4-2.5
		c0.2-0.2,0.8-0.7,1.2-1.1c0.5-0.3,1.1-0.8,1.3-0.9c1-0.7,1.9-1.3,3-1.7c0.3-0.2,1.5-0.8,2.1-1.1c0.5-0.2,1.1-0.4,1.3-0.5
		c1-0.3,1.8-0.6,2.8-0.9c0.8-0.2,1.5-0.3,2.2-0.6l0,0c0.9,0,1.7,0,2.6-0.1l0,0c0.8,0.2,1.5,0.4,2.2,0.6c0.1,0,0.2,0.1,0.3,0.1
		c0.1,0.1,0.2,0.1,0.3,0.2c0.6,0.4,1.2,0.8,1.8,1.2c0.1,0.1,1.2,0.9,1.6,1.5c0.7,0.7,1.3,1.3,1.8,1.9c0,0,0.6,0.8,0.9,1
		c0.4,0.7,1.7,2.7,2.4,3.6c1.5,2.4,2.6,5,3.3,7.7c0.5,1.5,0.9,3.1,1.3,4.6c0.2,0.8,0.3,1.5,0.5,2.2c0.1,0.3,0.1,0.5,0.1,0.6
		c0.3,3.1,0.3,6.1,0.1,9.2c0-0.3-0.4,1.9-0.6,2.7c-0.3,1-0.6,1.9-0.9,2.9c0.1-0.3-0.7,1.5-1.2,2.2c-0.3,0.5-0.6,1-0.9,1.5
		c0,0.1-0.1,0.1-0.1,0.2c-1,0.8-1.8,1.8-2.6,2.7l0,0c1-1.2,0.8-2.8-0.4-3.8c-1.2-1-2.8-0.8-3.8,0.4c-1,1.2-0.8,2.8,0.4,3.8
		c0.7,0.6,1.6,0.8,2.5,0.5c-0.1,0.1-0.2,0.1-0.2,0.1c-6.7,4.2-9.3,13-5.2,19.8c3.9,6.6,13.2,9.4,19.8,5.2l0,0
		c30.9-19.5,27.7-67.7,2.4-90.6c-21-19.1-51.7-10.2-68.4,10.4c-7-9.1-16.4-16.3-27.8-20.1c-16.2-5.6-34.2-0.7-45.2,12.4
		C56.7,44.6,51,70.6,62.6,93.1c4.6,8.6,11.4,15.9,19.8,21c6.7,4.2,16,1.5,19.8-5.2c3.9-7,1.5-15.8-5.2-19.8c-0.8-0.5-1.5-1-2.3-1.5
		c-0.1-0.1-0.2-0.2-0.3-0.3c-1.2-1.3-2.4-2.4-3.6-3.7c-0.3-0.4-0.8-1-1-1.3c-0.6-0.9-1.2-1.7-1.6-2.7c0,0.1-0.6-1.2-1-1.8
		c-0.3-0.8-1.1-2.8-1.2-3.2c-1.1-3.1-1.4-6.5-1-9.8c-0.2,1.9,0.6-3.1,0.5-2.7c0.2-1.1,0.5-2.1,0.9-3.1c0.9-2.7,2-5.3,3.6-7.8
		c0.7-1.2,1.5-2.4,2.2-3.6c0.2-0.3,1.1-1.5,1.4-1.7c1.2-1.4,2.4-2.5,3.8-3.8c0.1-0.1,0.2-0.1,0.2-0.1c0.8-0.4,1.5-0.9,2.2-1.3
		c0.9-0.2,1.6-0.4,2.4-0.7c0.4,0,0.9,0,1.4,0c0.4,0,0.8,0,1.2,0c1.2,0.3,2.3,0.5,3.5,0.8c1,0.3,1.9,0.6,3,1c0.6,0.3,1.1,0.5,1.6,0.8
		c1.5,0.8,3.1,1.7,4.5,2.8c-0.5-0.3,2.3,2.2,2.9,2.7c0.6,0.7,1.5,1.5,2.1,2.3c0.1,0.1,0.1,0.2,0.2,0.2c0.1,0.1,0.1,0.2,0.2,0.4
		c1.4,1.9,2.6,4,3.7,6.1c0.5,1,1,1.9,1.5,3c0,0.1,0.1,0.1,0.1,0.2c0.1,0.2,0.1,0.4,0.2,0.7c0.7,2.2,1.5,4.4,2,6.6
		c0.6,2.1,1,4.3,1.3,6.5c0,0.4,0.1,0.8,0.1,1c0.1,1.5,0.2,3.1,0.3,4.6c0,0.4,0,0.9,0,1.3c0,0.6,0,1.3,0,1.8c0,3.9-0.2,7.8-0.6,11.7
		c-0.2,1.8-0.3,3.7-0.5,5.5c-0.1,0.9-0.6,4.7-0.6,4.5c-0.6,4.3-1.4,8.5-2.2,12.7c-1.1,4.9-2.3,9.9-3.8,14.7
		c-1.5,4.9-3.2,9.7-5.2,14.4c-2.7,5.8-5.8,11.3-9.1,16.8c-8.3,13.8-16.8,27.6-24.8,41.7c-21.9,38.8-40.4,80.4-47.5,124.6
		c-7,43.2-10.2,92.6,11.9,132.2c15.4,27.7,42.8,49.4,73.8,56.9c13.5,3.3,27.5,4.1,40.8-0.3c15.9-5.2,30.2-14.3,41.8-26.4
		c24-25,30.9-61,28.5-94.7c-1.6-23-9.4-48.1-24.3-66.3c-3.8-5.8-7.3-12.3-9.2-17.3c-1.5-3.9-2.6-7.8-3.5-11.8
		c-0.2-0.8-0.3-1.5-0.4-2.3c0-0.2-0.1-0.6-0.1-1.1c-0.1-1.8-0.2-3.8-0.2-5.6c0-0.8,0-1.5,0.1-2.2c0-0.2,0.1-0.4,0.1-0.6
		c0.4-1.5,0.8-2.9,1.2-4.4s0.9-2.9,1.4-4.4c0.3-0.8,0.6-1.5,0.9-2.3c0-0.1,0.1-0.1,0.1-0.2c0.1-0.1,0.4-0.8,0.8-1.5l0,0
		c0.3-0.3,0.6-0.6,1-1c0.3-0.2,0.5-0.3,0.8-0.5c0.2-0.1,0.4-0.2,0.6-0.3c0.1-0.1,0.3-0.1,0.5-0.2c1.2-0.2,2.3-0.6,3.5-0.9
		c-0.2,0.1,3.6-0.2,4.1-0.2c0.5,0,4.6,0.3,4.2,0.1c0.9,0.2,1.6,0.3,2.5,0.6c0.7,0.2,3.6,1.5,3.1,1.2c0.7,0.4,1.4,0.8,2,1.2
		c-1.1-0.6,1.6,1.3,2.2,1.8c0.3,0.3,0.6,0.7,1,1.1c0.1,0.1,0.2,0.2,0.3,0.4c0.3,0.6,1.7,3.8,1.5,2.6c0.4,1.1,0.7,2.2,1,3.4v0.1
		c0,0.7,0.1,1.4,0.1,2c0,0.8-0.8,5.7-0.1,2.6c-0.5,3.1-1.5,6.2-3,9c-3.6,7-1.8,15.8,5.2,19.8c6.5,3.8,16.3,1.8,19.8-5.2l0,0
		C258.9,299.8,261.3,282,252.4,266.8z M168.8,51.2C168.2,52.1,168.3,51.8,168.8,51.2L168.8,51.2z M161.6,70.4
		C161.7,69.4,161.6,69.9,161.6,70.4L161.6,70.4z M161.5,70.7c0,0.1,0,0.2,0,0.3C161.5,70.9,161.5,70.8,161.5,70.7z M97.4,42.2
		C96.2,43.3,96.8,42.6,97.4,42.2L97.4,42.2z M105.4,40.2c0.3,0,0.5,0,0.8,0.1C106.2,40.3,105.8,40.3,105.4,40.2z M204.8,390.7
		C204.6,389.4,204.7,390,204.8,390.7L204.8,390.7z M202.1,276.1c-0.2,0.2-0.3,0.4-0.4,0.5c0,0-0.1,0-0.1,0.1
		C201.8,276.3,202,276.1,202.1,276.1z M201.5,276.8C201.5,276.8,201.5,276.7,201.5,276.8L201.5,276.8
		C201.6,276.7,201.6,276.8,201.5,276.8z"/>
	<path class="st0" d="M733.4,491.1c-0.1,0-0.2,0-0.2-0.1C733.2,491.1,733.3,491.1,733.4,491.1L733.4,491.1z"/>
	<path class="st0" d="M771.7,74.2c-0.1-0.4-0.1-0.8-0.2-1.2C771.6,72.8,771.6,73,771.7,74.2C771.7,74.3,771.7,74.3,771.7,74.2
		C771.7,74.3,771.7,74.3,771.7,74.2z"/>
	<path class="st0" d="M722.1,484.6c0.2,0.3,0.4,0.6,0.6,0.9C722.4,485,722.2,484.8,722.1,484.6z"/>
	<path class="st0" d="M860.5,81.1c0-0.1,0-0.2-0.1-0.4C860.4,80.9,860.5,81.1,860.5,81.1C860.5,81.2,860.5,81.2,860.5,81.1z"/>
	<path class="st0" d="M819.1,487C819.2,487,819.2,487,819.1,487c0.5,0.3,0.9,0.5,1.3,0.8C820.3,487.7,819.9,487.4,819.1,487z"/>
	<path class="st0" d="M891.7,379c-0.2-56.1-0.4-112-0.5-168.1c0-23.3,0-46.8,0-70.1c0.1-27.1,1.5-54.8-5.3-81.3
		c-3.1-12.4-8.7-25.1-18.2-33.9c-10-9.2-22.4-13.3-35.6-14.3c-17.9-1.5-33.9,4.8-44.6,19.4c-0.3,0.4-0.5,0.7-0.7,1.1
		c-5.1-7.2-11.8-13-20.4-16.7c-20.5-8.6-48.2-2.2-62.8,14.6c-15,17.2-15.1,43.1-6,63.2c4.5,9.6,12,17.4,21.5,22.1
		c7,3.5,15.7,1.8,19.8-5.2c3.8-6.5,1.8-16.4-5.2-19.8l0,0c-1.7-0.8-3.4-1.7-4.9-2.8c-0.3-0.3-1.1-0.9-1.3-1.2
		c-0.5-0.6-1-1.1-1.5-1.6c-0.3-0.4-0.7-0.9-0.8-1.2c-0.5-0.9-1-1.8-1.5-2.6c-0.1-0.2-0.2-0.3-0.2-0.4c-0.5-1.3-0.9-2.4-1.3-3.7
		c-0.4-1.5-0.8-3-1-4.5c0,0-0.3-2.4-0.4-2.7c-0.1-0.9-0.1-1.8-0.2-2.8c-0.1-2.3-0.1-4.7,0-7.1c0,0,0-0.5,0-1.1
		c0.1-0.5,0.5-2.5,0.6-2.8c0.2-0.7,0.5-1.4,0.7-2c-1.2,3.4,0,0.2,0.4-0.6c0.4-0.7,0.8-1.3,1.2-1.9c0.1-0.1,0.1-0.2,0.2-0.4
		c1.3-1.2,2.5-2.6,3.7-3.9c0.2-0.2,0.4-0.4,0.5-0.5c0.1-0.1,0.3-0.2,0.5-0.3c1.2-0.7,2.1-1.4,3.3-2c0.5-0.3,1-0.5,1.5-0.8
		c-0.1,0.1,2.3-1,2.5-1c2.2-0.7,4.5-1.3,6.7-1.6c-0.6,0.1,4.2-0.2,4.9-0.2c1.1,0,2.1,0.1,3.2,0.1c0.1,0,0.3,0,0.4,0
		c0.1,0,0.3,0.1,0.5,0.2c1,0.3,5.1,1.9,3.7,1.1c1.3,0.7,2.5,1.4,3.8,2.1c0.7,0.6,1.4,1.2,1.9,1.8c0.5,0.5,1,1.1,1.5,1.5
		c0.1,0.1,0.2,0.2,0.3,0.3c0.1,0.2,0.2,0.3,0.3,0.5c0.9,1.4,1.7,2.7,2.5,4.2c0.5,0.9,2.5,6,1.4,2.6c1.5,4,2.7,7.9,3.7,12
		c0.4,1.6,0.7,3.4,1,5c0.1,0.4,0.1,0.8,0.2,1.2c0,0.2,0.1,0.8,0.2,1.2c0,0.2,0.1,0.4,0.1,0.6c0-0.2-0.1-0.3-0.1-0.4
		c0.3,2.6,0.6,5.2,0.7,7.8c0,0.9,0,1.7,0,2.7c0.4,32.3,0.2,64.7,0.3,97c0.1,51.6,0.1,103.2,0,154.7c0,20.7,0,41.5,0,62.3
		c-0.1,0.7-0.2,1.3-0.2,1.9c0,4.4,0,8.7,0.1,13c0,9.8-0.1,19.5-0.2,29.2c0,2.9,0,5.7-0.3,8.6c-0.1,0.7-0.2,1.4-0.2,2
		c0,0.3,0,0.5-0.1,0.7c-0.3,1.5-0.5,3-0.9,4.5c-0.8,3.8-1.8,7.5-3.2,11.1c0,0.1-0.3,0.8-0.5,1.3c-0.3,0.6-0.6,1.3-0.6,1.4
		c-0.8,1.6-1.6,3.3-2.6,4.8c-0.3,0.5-1.5,2.2-2,3c-0.4,0.5-0.9,1.1-0.9,1.1c-0.7,0.8-1.5,1.6-2.2,2.4c-0.7,0.7-1.5,1.4-2.2,2
		c-1.5,1-3,1.9-4.6,2.8c-0.7,0.4-1.4,0.7-2,1c3.3-1.5-0.4,0-1,0.2c-0.8,0.2-1.5,0.5-2.3,0.7c-0.3,0.1-1.9,0.4-2.8,0.6
		c-0.8,0.1-2.3,0.2-2.2,0.2c-1,0-1.8,0.1-2.8,0.1c-1.5,0-3-0.1-4.6-0.2c-0.2,0-0.7-0.1-1.1-0.2c0.2,0,0.4,0.1,0.7,0.2
		c-0.2,0-0.5-0.1-0.7-0.2c-0.4-0.1-0.6-0.1-0.2,0c-1.5-0.3-3-0.8-4.5-1.3c-0.4-0.2-1-0.4-1.3-0.6c-0.8-0.5-1.6-1-2.4-1.5
		c0.5,0.2-1.7-1.6-2.4-2.3c-0.7-0.7-1.5-2.1-0.6-0.9c-0.2-0.3-0.4-0.6-0.6-0.9c-0.5-0.8-0.8-1.5-1.2-2.2c-0.6-1.8-0.9-3.8-1.5-5.6
		c-0.1-1-0.1-2-0.2-3c-0.1-2.1,0-4.3,0.1-6.4c0-1.2,0.2-2.3,0.2-3.5c0-0.3,0-0.5,0-0.7c0-0.1,0-0.1,0-0.2c0.4-2.3,0.9-4.7,1.5-7
		c0.3-1,0.7-2,1.1-3l0,0c0.1-0.1,0.2-0.3,0.3-0.5c0.5-0.9,3.8-5.5,1.8-3.2c1.3-1.5,2.6-2.8,4.1-4.1c0.2-0.1,0.4-0.2,0.7-0.3
		c1.3-0.6,2.4-1.4,3.6-2c7-3.6,9-13.4,5.2-19.8c-4.2-7.1-12.9-8.8-19.8-5.2c-21.4,10.8-28.8,34.7-27.7,57.3
		c1,20.9,13.7,39.5,34.8,44.5c20.6,4.9,44.2-1.1,58.2-17.6c1.9-2.3,3.7-4.7,5.3-7.3c1.7,2.9,3.6,5.7,5.7,8.4
		c21.3,26.5,68.8,23.2,87.3-4.8c11.8-17.9,10.9-41,10.8-61.6C891.8,416.9,891.7,398,891.7,379z M718.9,476.2c0-0.2,0-0.3,0-0.5
		C719.6,478.4,718.9,477.3,718.9,476.2z M756.9,485.7L756.9,485.7C757.6,485.3,758.8,484.6,756.9,485.7z M833.2,40.5
		C834.1,40.5,833.8,40.5,833.2,40.5L833.2,40.5z M828.1,491c0,0,0.1,0,0.2,0C828.2,491,828.2,491,828.1,491z M862.5,459.9
		c-0.1,1.6-0.3,3.4-0.5,5c-0.1,0.6-0.2,1.2-0.3,1.7c-0.6,3.4-1.5,6.8-2.5,10.1c0,0.1-0.2,0.7-0.4,1.1v0.1c-0.1,0.2-0.2,0.5-0.3,0.7
		c0.1-0.2,0.1-0.4,0.2-0.6c-0.7,1.3-1.4,2.6-2.1,3.9c0,0.1-0.1,0.5-0.5,0.9c-0.1,0.1-0.3,0.3-0.4,0.4c-0.1,0.1-0.1,0.2-0.2,0.4
		c0-0.1,0.1-0.2,0.1-0.3c-0.9,1-1.8,1.8-2.7,2.8c-0.6,0.4-1.2,0.8-1.7,1.2c-1.2,0.7-2.3,1.3-3.5,1.8c3.6-1.7-1.1,0.3-2,0.6
		c-1.7,0.5-3.5,0.9-5.2,1.2c0.1-0.1-2.8,0.3-3.6,0.3c-1.9,0.1-4,0.2-5.9,0.1c-0.8,0-1.5-0.1-2.1-0.1c-1.6-0.4-3.2-0.9-4.8-1.3
		c-0.1,0-0.1,0-0.2,0c-0.4-0.2-0.9-0.4-1.3-0.6c-0.7-0.4-1.4-0.9-2-1.4c0.2,0.2-0.4,0.1-0.9-0.4c-0.1-0.1-0.2-0.2-0.4-0.3
		c-0.1-0.1-0.2-0.1-0.4-0.2c0.1,0.1,0.2,0.1,0.3,0.2c-0.5-0.4-1-0.8-1.4-1.3c-0.6-0.6-1.2-1.2-1.6-1.7c-0.1-0.1-0.4-0.4-0.6-0.7
		c-0.3-0.4-0.7-1-0.8-1.1c-0.4-0.6-0.8-1.2-1.1-1.7c-0.8-1.4-1.5-2.7-2.2-4.1c-0.3-0.7-2-4.8-1.3-2.6c-0.6-1.5-1.2-3.1-1.6-4.6
		c-1.1-3.4-2-6.8-2.7-10.3c-0.4-1.6-0.7-3.2-1-4.8c-0.2-1.1-0.4-2-0.5-3.1c0-0.2-0.2-1.5-0.4-2.3c1.2,6,7,10,13,8.9
		c6.1-1.1,10.2-7,9.1-13.1c-1.1-6.1-7-10.2-13.1-9.1c-5.6,1-9.6,6.1-9.2,11.7c-0.1-1.1-0.3-2.1-0.4-3.3c-0.2-1.7-0.4-3.5-0.5-5.3
		c-0.4-4.5-0.7-9-0.8-13.5c-0.2-3.9-0.3-7.7-0.3-11.7c0-17.8,0.1-35.6,0.1-53.3c0-55.3,0-110.5,0-165.8c0-28.9,0.1-57.8-0.1-86.7
		c0.2-0.9,0.2-1.8,0.2-2.8l0,0c-0.4-8.4-0.4-16.7,0.2-25.2c0.1-1.7,0.3-3.5,0.5-5.2c0-0.4,0.1-0.8,0.1-1.2c0-0.2,0.2-1.5,0.3-1.9
		c0.6-3.9,1.5-7.6,2.4-11.3c0.5-1.6,1.1-3.3,1.6-4.9c0.1-0.3,0.2-0.7,0.4-1.1c0.2-0.4,0.4-0.8,0.6-1.2c0.6-1.3,1.3-2.5,2-3.8
		c0.5-0.8,1-1.5,1.5-2.2c0.1-0.1,0.1-0.2,0.2-0.3l0,0c1.2-1,2.1-2,3.1-3.2l0.1-0.1c0.3-0.2,0.6-0.4,1-0.6c0.9-0.6,4.4-1.8,3-1.5
		c1.3-0.4,2.5-0.7,3.9-1.1c0.7,0,1.3-0.1,1.9-0.1c1.6-0.1,3.3,0,4.9,0.1c0.9,0,1.6,0.1,2.5,0.2c0.6,0.2,1.7,0.2,2.2,0.3
		c2.3,0.5,4.6,1.1,6.9,1.8c0.1,0,0.2,0.1,0.3,0.1l0,0c1.2,0.7,2.4,1.3,3.6,1.9c0.3,0.2,0.5,0.4,0.8,0.6c-0.2-0.3-0.2-0.4,0.4,0.1
		c0.2,0.2,0.4,0.3,0.6,0.5c0.2,0.1,0.5,0.3,0.7,0.4c-0.1,0-0.1,0-0.2,0c0.1,0.1,0.2,0.2,0.3,0.3c0.8,0.8,1.5,1.5,2.3,2.4
		c0.2,0.2,0.4,0.5,0.6,0.7c1.3,2.2,2.6,4.1,3.7,6.3c0.2,0.5,0.5,1,0.7,1.5c0.5,1.3,1,2.5,1.4,3.9c1.9,6.3,3.4,12.7,4.4,19.2
		c0,0.2,0.1,0.3,0.1,0.5c0-0.3-0.1-0.6-0.1-0.8c0,0.4,0.1,0.8,0.1,1.1c0.1,0.6,0.1,0.5,0,0.2c0.1,0.6,0.1,1.3,0.2,1.8
		c0.2,1.9,0.4,3.9,0.6,5.8c0.4,4.5,0.6,8.8,0.8,13.3c0.4,10.9,0.2,21.8,0.1,32.7c-0.1,20.6-0.1,41.1-0.1,61.8
		c0.1,53.3,0.2,106.6,0.4,159.9c0.1,21.2,0.2,42.3,0.2,63.5C862.9,433.3,863.4,446.7,862.5,459.9z"/>
	<path class="st0" d="M858.6,478.1C858.6,478.1,858.6,478,858.6,478.1c0.2-0.5,0.4-0.9,0.5-1.3c0,0,0,0,0-0.1
		C859.2,476.7,859,477,858.6,478.1z"/>
	<path class="st0" d="M855.6,483.2L855.6,483.2c0.3-0.5,0.7-0.9,0.9-1.3l0,0C856.5,481.9,856.1,482.1,855.6,483.2z"/>
	<path class="st0" d="M847.1,46.2c-0.2-0.2-0.3-0.3-0.5-0.5c-0.3-0.2-0.7-0.4-1-0.7C845.9,45.5,846.6,46.3,847.1,46.2z"/>
	<path class="st0" d="M343.9,418.8c0,0.3,0.1,0.6,0.1,0.8C344,419.4,343.9,419.1,343.9,418.8C343.9,418.9,343.9,418.9,343.9,418.8z"
		/>
	<path class="st0" d="M288.8,479.6L288.8,479.6c0.1-0.5-0.1-1.1-0.4-1.4C288.6,478.8,288.7,479.2,288.8,479.6z"/>
	<path class="st0" d="M330.8,384c0.4,0.5,0.6,0.8,0.6,0.9C331.2,384.6,331,384.3,330.8,384L330.8,384z"/>
	<path class="st0" d="M287.3,464.6c0.6-1.1,0.5-1.9,0.4-2.1C287.6,463.3,287.5,464,287.3,464.6L287.3,464.6z"/>
	<path class="st0" d="M432.3,420.1c-6.5-2.4-13.6-3.3-20.4-2.5c-7.6,0.7-14.9,6.2-14.5,14.5c0.3,7.3,6.4,15.3,14.5,14.5l0,0
		c1.5-0.2,3.2-0.3,4.8-0.2c0.4,0,1.7,0.1,2.5,0.1c0.8,0.2,2,0.4,2.3,0.5c0.5,0.1,0.8,0.3,1.2,0.4c0,0,0,0,0.1,0.1
		c0.8,0.6,1.5,1.1,2.4,1.5c0.1,0.1,0.2,0.1,0.2,0.2c0.2,0.2,1.1,1.1,1.6,1.6c0.3,0.5,0.7,1,1,1.5c0.5,0.8,1,1.6,1.4,2.5
		c0.1,0.1,0.1,0.2,0.1,0.3c0,0,0,0,0,0.1c0.6,2.1,1.4,4.2,1.8,6.3c0,0.2,0.2,1,0.4,1.6c0,0.3,0,0.6,0.1,1.2c0.2,1.9,0.3,3.9,0.3,5.8
		c0,1.5-0.1,3-0.2,4.6c-0.1,0.3-0.1,0.6-0.2,0.9c-0.2,0.6-0.9,2.1-1.3,3.2c0.4-0.8,1-1.3-0.1,0.8c0,0.1-0.1,0.1-0.1,0.2
		c0,0.1,0,0.2,0,0.2c0-0.1,0-0.1,0-0.2c-0.6,1-1.1,1.9-1.6,2.9c0,0.1-0.1,0.1-0.1,0.2c-0.9,0.8-1.7,1.6-2.5,2.5
		c-0.1,0.1-0.2,0.2-0.3,0.3c-0.1,0-0.1,0.1-0.2,0.1c-1.3,0.8-2.7,1.5-4.1,2.2c-0.8,0.2-1.5,0.5-2.3,0.8c-1.5,0.5-3,0.8-4.6,1.1
		c-2.9,0.6-1.2,0.2-0.5,0.1c-1.1,0.1-2.1,0.2-3.2,0.2c-1.7,0.1-3.5,0-5.3-0.1c3.3,0-0.9-0.3-2-0.6c-1.2-0.3-4.7-2.1-2.1-0.7
		c-1.3-0.7-2.5-1.3-3.8-2c-0.6-0.4-4.1-2.9-3.1-2.1c-2.3-1.9-4.6-4.1-6.5-6.4c-0.4-0.5-2.2-2.8-1.9-2.3c-1-1.5-2-2.9-2.9-4.4
		c-1.6-2.6-3.1-5.3-4.4-8.1c0.3,0.7-1.1-2.8-1.3-3.3c-0.6-1.6-1.1-3.3-1.5-4.9c-0.4-1.6-0.7-3.2-1.1-4.8c0-0.1,0-0.1,0-0.2
		c0-0.4-0.1-0.9-0.1-1.3c-0.1-1.2-0.2-2.3-0.2-3.6c-0.1-1-0.1-2-0.2-3c0.3-4.5,0.3-8.9,0-13.4c0.1-3,0.4-6,0.7-8.9
		c0-0.4,0.1-0.9,0.2-1.3c0-0.1,0-0.2,0-0.3c0.2-1.3,0.4-2.6,0.7-3.9c0.6-3.1,1.3-6.1,2.1-9.1c0.9-3,1.8-5.8,2.9-8.6
		c1-2.6,0.2-0.5,0,0.1c0.4-0.8,0.7-1.5,1.1-2.2c0.7-1.5,1.5-3,2.3-4.5c0.9-1.5,1.7-2.9,2.6-4.3c0.5-0.7,1-1.4,1.5-2l0.1-0.1
		c2.2-2.6,4.6-5.1,7.3-7.5c4.8-4.4,9.7-8.7,14.4-13.3c9.8-9.5,19.1-19.8,26.4-31.3c17.1-26.5,19.8-57.9,12-88
		c-8-31.2-23.9-59.6-40.3-87.1c-7.2-11.9-14.4-23.8-20.9-36.1c-1.5-2.7-2.8-5.4-4.2-8.2c-0.7-1.5-1.4-2.9-2-4.4l-0.7-1.6
		c-0.1-0.1-0.1-0.2-0.1-0.3c-0.1-0.1-0.1-0.3-0.2-0.5c-2.1-5.2-3.8-10.6-5-16.2c-0.3-1.2-0.5-2.3-0.7-3.5c0-0.4-0.1-0.8-0.1-1.3
		c-0.3-3.1-0.3-6.2-0.1-9.2c0.1-1.5,0.2-3.1,0.4-4.6c0,0.2,0.4-2.4,0.6-3c0.7-3.4,1.6-6.8,2.9-10c0.4-0.8,0.8-1.5,1.2-2.2
		c0.7-1.3,1.5-2.5,2.2-3.7c0.3-0.5,0.6-0.9,1-1.4c0.2-0.2,0.3-0.4,0.5-0.5c1.3-1.3,2.5-2.6,3.9-3.8c0.1-0.1,0.2-0.2,0.3-0.3
		c0.4-0.3,0.8-0.5,1.2-0.8c1.4-0.9,2.9-1.6,4.4-2.4c0.1-0.1,0.4-0.2,0.6-0.3c0.4-0.2,0.9-0.3,1.3-0.5c1.6-0.6,3.4-1,5.1-1.4
		c1.3-0.3,5.2-0.5,1.3-0.4c1.2,0,2.3-0.2,3.4-0.2c0.7,0.1,1.3,0.1,1.9,0.1c0.1,0,0.1,0,0.2,0c0.7,0.2,1.4,0.5,1.8,0.8
		c0.6,0.4,1.2,0.8,1.8,1.1c0.3,0.2,0.6,0.4,1,0.6l0.1,0.1c0.1,0.1,0.2,0.2,0.4,0.3c-0.1,0-0.1-0.1-0.2-0.1l0,0
		c2.1,1.9,5.7,5.7,6.6,6.8c2.2,2.7,4.1,5.7,5.7,8.9c0,0.2,0.8,1.9,1,2.6c0.4,1.5,0.8,2.8,1,4.3c0,0.1,0.2,2,0.2,2.8
		c0,1.5-0.2,3.1-0.2,4.6c-0.1,0.6-0.2,1.2-0.4,1.7c-0.2,0.8-0.4,1.5-0.6,2.3c-0.1,0.2-0.3,1-0.5,1.5c-0.4,0.7-1.1,2.2-1.3,2.5
		c-0.5,0.9-2.8,3.5-1.5,2.1c-0.7,0.7-1.4,1.5-2.1,2.1c0.1-0.2-1.9,1.3-2.7,1.6c-6.9,3.7-9.1,13.3-5.2,19.8c4.1,7,13,8.9,19.8,5.2
		c15.5-8.3,23.7-25.9,23.5-43c-0.1-18-9.7-35.4-23.3-47c-12.9-10.8-28.1-13-44.1-8c-11.3,3.6-20.5,10.2-27.4,19
		c-1.6-2-3.4-4.1-5.3-5.9c-12-11.4-30-17.8-46.5-15.1c-16.2,2.7-30.1,17.7-37.2,31.9c-7.9,16-8.3,35,0.2,50.9
		c4,7.3,10,13.3,17.2,17.2c6.9,3.8,15.8,1.7,19.8-5.2c3.9-6.6,1.7-16.2-5.2-19.8c-0.6-0.3-2.6-1.7-2.7-1.7c-0.7-0.7-1.4-1.5-2.1-1.9
		h-0.1c-0.4-0.6-0.8-1.1-1.1-1.6c-0.3-0.5-0.6-1-0.9-1.5c-0.4-0.8-1.3-3.8-0.5-0.8c-0.4-1.4-0.9-2.6-1.3-4c-0.3-1.2-0.6-3.6-0.5-2.3
		c-0.1-1.4-0.2-2.6-0.2-4c0-0.8,0.1-1.6,0.1-2.4c0-0.2,0-0.3,0-0.4l0,0c0.4-1.4,0.6-2.8,1-4.3c0.1-0.5,1.1-3,1.2-3.3
		c1.5-3.2,3.5-6.1,5.7-8.9c1.9-2.2,4-4.4,6.1-6.4c0.1-0.1,0.5-0.4,0.8-0.7c0.2-0.2,0.4-0.3,0.5-0.3c0.7-0.4,1.3-0.7,1.8-1.1l0.1-0.1
		c1.1-0.2,2.1-0.6,3.2-0.9c0.2,0,0.4,0,0.7,0c1.4,0,2.6,0.1,3.9,0.2c-3.4-0.2-0.3,0,1.3,0.4c1.5,0.4,3,0.8,4.5,1.2
		c0.8,0.2,1.5,0.5,2.2,0.8c0.1,0,0.2,0.1,0.3,0.1c1.3,0.7,2.6,1.4,3.8,2.1c0.7,0.5,1.4,0.9,2,1.4l0,0c0.1,0.1,0.2,0.2,0.4,0.4
		c1,1,2,1.9,3,3c0.1,0.1,0.6,0.6,0.9,1c0.3,0.3,0.5,0.7,0.6,0.9c0.8,1.2,1.5,2.4,2.2,3.7c0.4,0.8,0.8,1.5,1.2,2.2
		c0.1,0.2,0.2,0.3,0.3,0.5v0.1c1.2,3,2.1,6.2,2.8,9.4c0.1,0.5,0.6,3.6,0.7,3.7c0.2,1.5,0.3,3.1,0.4,4.6c0.2,3.1,0.1,6.2-0.1,9.3
		c0,0.4-0.1,0.7-0.1,1.1c-0.3,1.4-0.5,2.8-0.8,4.2c-1.3,5.6-3.3,10.7-5.1,16.2c0,0,0,0,0,0.1c-0.2,0.4-0.4,0.9-0.6,1.3
		c-0.7,1.5-1.4,2.9-2,4.4c-1.5,3-2.9,5.9-4.5,8.8c-3.3,6.2-6.8,12.2-10.3,18.2c-15.8,26.7-32.1,53-43.5,82
		c-11.4,29.4-17.1,62.6-4.8,92.8c10.6,25.8,30.4,44.9,50.7,63.2c2.4,2.2,4.6,4.6,6.8,7c0,0,0.1,0.1,0.1,0.2c0,0,0-0.1-0.1-0.1
		c0,0,0,0.1,0.1,0.1c0.3,0.4,0.8,1.2,0.6,0.9c0.1,0.2,0.3,0.4,0.4,0.6c1.1,1.5,2,3.2,3,4.8c0.8,1.5,1.5,2.9,2.3,4.5
		c0.3,0.6,0.5,1.2,0.8,1.6c0,0.1,0.1,0.1,0.1,0.2c1.2,2.9,2.1,5.9,3,8.9c0.8,2.8,1.5,5.7,2,8.6c0.3,1.5,0.5,3,0.8,4.5
		c0,0.1,0,0.2,0,0.3c0-0.3-0.1-0.5-0.1-0.9c0,0.3,0.1,0.6,0.1,0.9c0.1,0.7,0.2,1.5,0.1,0.7c0,0.2,0,0.4,0.1,0.5
		c0.6,5.1,0.9,10.2,0.9,15.3c0,3.4-0.1,6.9-0.3,10.3c-0.1,0.9-0.1,1.8-0.2,2.7c-0.1,0.7-0.1,1.3-0.2,1.8c0,0.1,0,0.2-0.1,0.3
		c-0.4,1.6-0.7,3.3-1.1,4.8s-1,3.3-1.5,4.9c-0.3,0.8-0.6,1.6-0.9,2.4c1.1-3.2-0.8-6.7-4-7.6c-3.2-1-6.7,0.8-7.6,4
		c-1.1,3.2,0.8,6.7,4,7.6c2.9,0.9,5.9-0.4,7.3-3c-0.2,0.5-0.4,1-0.5,1.1c-0.4,0.8-0.8,1.5-1.2,2.4c-1,1.7-1.9,3.5-3,5.2
		c-0.9,1.4-1.7,2.6-2.6,3.9c-0.1,0.1-0.1,0.2-0.2,0.3c-0.4,0.5-0.8,1-1.3,1.5c-1.2,1.4-2.3,2.6-3.6,3.8c-0.7,0.6-1.3,1.2-1.8,1.7
		c-0.1,0.1-0.6,0.5-1.1,0.9c1.5-1.5,1.6-4.1,0.3-5.8c-1.5-1.9-4.3-2.2-6.2-0.7c-1.9,1.5-2.2,4.3-0.7,6.2c1.4,1.7,3.8,2.1,5.6,1.1
		c-0.7,0.5-1.4,1-2.1,1.4c-1.2,0.7-2.3,1.4-3.6,1.9c1-0.5-1.5,0.6-2.3,0.9c-0.8,0.2-1.5,0.4-2.3,0.6c-0.3,0.1-0.5,0.1-0.7,0.2
		c-1.6,0.1-3.2,0.1-4.8,0.1c-0.8,0-1.6-0.1-2.4-0.2c-0.5,0-0.7,0-0.8,0c-1.5-0.2-3-0.6-4.5-1c-0.8-0.2-1.6-0.5-2.4-0.8
		c-0.1,0-0.3-0.1-0.4-0.1c-1.3-0.8-2.5-1.4-3.8-2.1c-0.2-0.1-0.4-0.2-0.6-0.3l-0.1-0.1c-0.8-0.9-1.7-1.8-2.6-2.6
		c-0.1-0.1-0.2-0.2-0.3-0.2c-0.2-0.3-0.3-0.5-0.3-0.6c-0.5-0.8-1-1.6-1.5-2.4c0,0,0-0.1-0.1-0.1c0,0.1,0,0.1,0,0.2
		c0-0.1,0-0.2,0-0.3c-0.2-0.4-0.4-0.9-0.6-1.2c-0.5-0.9-0.1-0.8,0.2-0.2c-0.4-1-0.9-2-1.1-2.6c-0.1-0.3-0.1-0.5-0.1-0.8
		c-0.1-1.5-0.2-3.1-0.2-4.6c0-1.7,0.1-3.7,0.2-5.5v-0.1c0,0,0,0.1-0.1,0.1c0,0,0-0.1,0.1-0.1c0-0.5,0.1-1,0.1-1.4
		c0-0.6,0.2-0.8,0.3-0.7c0-0.4,0.1-0.7,0.1-1c0.5-2.1,1.3-4.2,1.8-6.3c0.6-1.1,1.1-2.2,1.7-3.3c0.2-0.3,0.8-1.1,1.1-1.5
		c0.4-0.5,0.9-1,1.1-1.1c0.4-0.3,0.7-0.6,0.9-0.9c0.7-0.4,1.5-0.9,2-1.1c0.2-0.1,0.5-0.2,0.7-0.3c0.9-0.2,1.6-0.4,2.5-0.6
		c-0.3,0.1,1.7-0.2,2.9-0.2c1.5,0,3.2,0.1,4.8,0.2c7.6,0.7,14.8-7.2,14.5-14.5c-0.4-8.4-6.4-13.7-14.5-14.5l0.1-0.2
		c-15.5-1.5-29.8,4.5-39.1,16.9c-6.8,9.1-9.4,20.8-10.1,31.9c-1.4,24.3,13.5,46.4,38.1,51.2c19.1,3.8,36-0.8,50.4-13.7
		c4.7-4.3,9.1-9.4,12.8-14.9c8.4,13.2,20.4,23.7,35.6,28.3c26.7,8,60.8-7.7,65.1-36.9C463.7,457,456.3,429.4,432.3,420.1z
		 M427.4,451.1c0.2,0.2,0.3,0.4,0.3,0.4C427.7,451.5,427.6,451.3,427.4,451.1z M405.6,39.9c-0.6,0-1.2,0-1.1,0
		C404.8,39.8,405.2,39.8,405.6,39.9z M393,42.4C393.6,42.2,394.2,42,393,42.4L393,42.4z M392.9,42.5c-0.1,0.1-0.3,0.1-0.5,0.2
		C392.6,42.6,392.8,42.5,392.9,42.5z M312.7,40.3L312.7,40.3L312.7,40.3z M326.3,42.6C325.7,42.3,325,41.9,326.3,42.6L326.3,42.6z
		 M294.1,448.7c-0.4,0.4-0.8,0.7-0.8,0.6C293.4,449.2,293.7,449,294.1,448.7z M291.4,484c-0.2,0-0.6-0.6-0.8-1.1
		C291,483.4,291.7,484,291.4,484z M313,490.2C312.2,490.3,312.1,490.2,313,490.2L313,490.2z M388.3,383.9
		C388.1,384.4,386.8,385.8,388.3,383.9L388.3,383.9z M340.7,352.8c-5.4-4.9-10.8-9.9-16-15.1c-2.3-2.3-4.6-4.7-6.8-7.2
		c-1.1-1.3-2.1-2.4-3.2-3.7c-0.5-0.6-2.9-3.7-2.8-3.5c-3.9-5.2-7.3-10.7-10.2-16.6c-0.4-0.9-0.8-1.7-1.2-2.6l0,0
		c-0.5-1.5-1.2-3.1-1.6-4.6c-1.2-3.6-2.1-7.2-2.8-10.9c-0.2-1.1-0.4-2.1-0.5-3.2c0.1,0.6,0.3,2.8,0,0c-0.2-1.7-0.3-3.6-0.4-5.3
		c-0.2-4.3,0-8.5,0.4-12.8c0.1-0.9,0.2-1.6,0.3-2.5c0.1-0.4,0.1-1.1,0.2-1.3c0.4-2.1,0.8-4.3,1.2-6.3c1-4.7,2.3-9.5,3.8-14.1
		c1.3-4.2,2.7-8.3,4.3-12.4c0.8-2.1,1.6-4.3,2.5-6.4c-0.3,0.6-0.9,1.9,0.3-0.8c0.5-1.2,1-2.3,1.5-3.5c3.6-7.9,7.6-15.8,11.7-23.5
		c7.8-14.4,16.6-28.4,24.9-42.5c4.6-7.7,9.3-15.9,13.5-24.1c0.9,1.7,1.7,3.5,2.7,5.2c15.3,28.9,34.2,55.6,47.5,85.5
		c3.2,7.3,6,14.7,8.3,22.3c1.4,4.4,2.6,8.8,3.6,13.4c0.5,2.1,0.9,4.3,1.3,6.3c0.1,0.4,0.4,2.6,0.4,2.3c0.1,1,0.2,1.9,0.3,2.9
		c0.4,4,0.5,8,0.3,12.1c-0.1,1.7-0.2,3.6-0.4,5.3c0,0.6-0.4,2.9,0,0c-0.2,1.3-0.4,2.5-0.7,3.8c-0.7,3.3-1.5,6.5-2.5,9.7
		c-0.5,1.5-1.1,3.1-1.6,4.6c0,0.1-0.1,0.2-0.1,0.3c-0.4,1-0.9,1.9-1.4,2.9c-2.9,5.9-6.4,11.4-10.3,16.7c0.7-1-1.9,2.5-2.3,2.9
		c-1.1,1.3-2.1,2.5-3.2,3.7c-2.4,2.8-5,5.4-7.6,8.1c-10.8,10.9-23.5,20.2-32.2,33.1c-0.9,1.3-1.6,2.5-2.4,3.9
		C354.5,366.8,348.3,359.6,340.7,352.8z M374.8,450.2C374.7,449.4,374.6,448.1,374.8,450.2L374.8,450.2z M427.8,483.7L427.8,483.7
		C427.7,483.8,427.7,483.8,427.8,483.7z"/>
	<path class="st0" d="M430.6,478.6c-0.1,0.3-0.3,0.7-0.2,1l0,0C430.4,479.2,430.4,479,430.6,478.6z"/>
	<path class="st0" d="M410.8,42.5c-0.7-0.5-1.4-0.7,0.3,0.3C411,42.7,411,42.7,410.8,42.5C410.9,42.5,410.8,42.5,410.8,42.5z"/>
	<path class="st0" d="M499.1,479.6C499.2,479.6,499.2,479.6,499.1,479.6c0.1-0.5-0.1-1.1-0.4-1.4C499,478.8,499.1,479.2,499.1,479.6
		z"/>
	<path class="st0" d="M497.7,464.6c0.6-1.1,0.5-1.9,0.4-2.1C497.9,463.3,497.8,464,497.7,464.6L497.7,464.6z"/>
	<path class="st0" d="M541.1,384c0.4,0.5,0.6,0.8,0.6,0.9C541.6,384.6,541.4,384.3,541.1,384C541.2,384,541.2,384,541.1,384z"/>
	<path class="st0" d="M554.3,418.9c0,0.3,0.1,0.6,0.1,0.8C554.4,419.4,554.3,419.1,554.3,418.9L554.3,418.9z"/>
	<path class="st0" d="M621.2,42.5c-0.7-0.5-1.4-0.7,0.3,0.3C621.4,42.7,621.4,42.7,621.2,42.5C621.3,42.5,621.2,42.5,621.2,42.5z"/>
	<path class="st0" d="M640.9,478.6c-0.1,0.3-0.3,0.7-0.2,1l0,0C640.8,479.2,640.8,479,640.9,478.6z"/>
	<path class="st0" d="M642.7,420c-6.5-2.4-13.6-3.3-20.4-2.5c-7.6,0.7-14.9,6.2-14.5,14.5c0.3,7.3,6.4,15.3,14.5,14.5v0.1
		c1.6-0.2,3.2-0.3,4.8-0.2c0.4,0,1.7,0.1,2.5,0.1c0.8,0.2,2,0.4,2.3,0.5c0.5,0.1,0.8,0.3,1.2,0.4c0,0,0,0,0.1,0.1
		c0.8,0.6,1.5,1.1,2.4,1.5c0.1,0.1,0.2,0.1,0.2,0.2c0.2,0.2,1.1,1.1,1.6,1.6c0.3,0.5,0.7,1,1,1.5c0.5,0.8,1,1.6,1.4,2.5
		c0.1,0.1,0.1,0.2,0.1,0.3c0,0,0,0,0,0.1c0.6,2.1,1.4,4.2,1.8,6.3c0,0.2,0.2,1,0.4,1.6c0,0.3,0,0.6,0.1,1.2c0.2,1.9,0.3,3.9,0.3,5.8
		c0,1.5-0.1,3-0.2,4.6c-0.1,0.3-0.1,0.6-0.2,0.9c-0.2,0.6-0.9,2.1-1.3,3.2c0.4-0.8,1-1.3-0.1,0.8c0,0.1-0.1,0.1-0.1,0.2
		c0,0.1,0,0.2,0,0.2c0-0.1,0-0.1,0-0.2c-0.6,1-1.1,1.9-1.6,2.9c0,0.1-0.1,0.1-0.1,0.2c-0.9,0.8-1.7,1.6-2.5,2.5
		c-0.1,0.1-0.2,0.2-0.3,0.3c-0.1,0-0.1,0.1-0.2,0.1c-1.3,0.8-2.7,1.5-4.1,2.2c-0.8,0.2-1.5,0.5-2.3,0.8c-1.5,0.5-3,0.8-4.6,1.1
		c-2.9,0.6-1.2,0.2-0.5,0.1c-1.1,0.1-2.1,0.2-3.2,0.2c-1.7,0.1-3.5,0-5.3-0.1c3.3,0-0.8-0.3-2-0.6s-4.7-2.1-2.1-0.7
		c-1.3-0.7-2.5-1.3-3.8-2c-0.6-0.4-4.1-2.9-3.1-2.1c-2.3-1.9-4.6-4.1-6.5-6.4c-0.4-0.5-2.2-2.8-1.9-2.3c-1-1.5-2-2.9-2.9-4.4
		c-1.6-2.6-3.1-5.3-4.4-8.1c0.3,0.7-1.1-2.8-1.3-3.3c-0.6-1.6-1.1-3.3-1.5-4.9c-0.4-1.6-0.7-3.2-1.1-4.8c0-0.1,0-0.1,0-0.2
		c0-0.4-0.1-0.9-0.1-1.3c-0.1-1.2-0.2-2.3-0.2-3.6c-0.1-1-0.1-2-0.2-3c0.3-4.5,0.3-8.9,0-13.4c0.1-3,0.4-6,0.7-8.9
		c0-0.4,0.1-0.9,0.2-1.3c0-0.1,0-0.2,0-0.3c0.2-1.3,0.4-2.6,0.7-3.9c0.6-3.1,1.3-6.1,2.1-9.1c0.9-3,1.8-5.8,2.9-8.6
		c1-2.6,0.2-0.5,0,0.1c0.4-0.8,0.7-1.5,1.1-2.2c0.7-1.5,1.5-3,2.3-4.5s1.7-2.9,2.6-4.3c0.5-0.7,1-1.4,1.5-2l0.1-0.1
		c2.2-2.6,4.6-5.1,7.3-7.5c4.8-4.4,9.7-8.7,14.4-13.3c9.9-9.5,19.1-19.8,26.4-31.3c17.1-26.5,19.8-57.9,12-88
		c-8-31.2-23.9-59.6-40.3-87.1c-7.2-11.9-14.4-23.8-21-36.1c-1.5-2.7-2.8-5.4-4.2-8.2c-0.7-1.5-1.4-2.9-2-4.4l-0.7-1.6
		c-0.1-0.1-0.1-0.2-0.1-0.3c-0.1-0.1-0.1-0.3-0.2-0.5c-2.1-5.2-3.8-10.6-5-16.2c-0.3-1.2-0.5-2.3-0.7-3.5c0-0.4-0.1-0.8-0.1-1.3
		c-0.3-3.1-0.3-6.2-0.1-9.2c0.1-1.5,0.2-3.1,0.4-4.6c0,0.2,0.4-2.4,0.6-3c0.7-3.4,1.6-6.8,2.9-10c0.4-0.8,0.8-1.5,1.2-2.2
		c0.7-1.3,1.5-2.5,2.2-3.7c0.3-0.5,0.6-0.9,1-1.4c0.2-0.2,0.3-0.4,0.5-0.5c1.3-1.3,2.5-2.6,3.9-3.8c0.1-0.1,0.2-0.2,0.3-0.3
		c0.4-0.3,0.8-0.5,1.2-0.8c1.4-0.9,2.9-1.6,4.4-2.4c0.1-0.1,0.4-0.2,0.6-0.3c0.4-0.2,0.9-0.3,1.3-0.5c1.6-0.6,3.4-1,5.1-1.4
		c1.3-0.3,5.2-0.5,1.3-0.4c1.2,0,2.2-0.2,3.4-0.2c0.7,0.1,1.3,0.1,1.9,0.1c0.1,0,0.1,0,0.2,0c0.7,0.2,1.4,0.5,1.8,0.8
		c0.6,0.4,1.2,0.8,1.8,1.1c0.3,0.2,0.6,0.4,1,0.6l0.1,0.1c0.1,0.1,0.2,0.2,0.4,0.3c-0.1,0-0.1-0.1-0.2-0.1l0,0
		c2.1,1.9,5.7,5.7,6.6,6.8c2.2,2.7,4.1,5.7,5.7,8.9c0,0.2,0.8,1.9,1,2.6c0.4,1.5,0.8,2.8,1,4.3c0,0.1,0.2,2,0.2,2.8
		c0,1.5-0.2,3.1-0.2,4.6c-0.1,0.6-0.2,1.2-0.4,1.7c-0.2,0.8-0.4,1.5-0.6,2.3c-0.1,0.2-0.3,1-0.5,1.5c-0.4,0.7-1.1,2.2-1.3,2.5
		c-0.5,0.9-2.8,3.5-1.5,2.1c-0.7,0.7-1.4,1.5-2.1,2.1c0.1-0.2-1.9,1.3-2.7,1.6c-6.9,3.7-9.1,13.3-5.2,19.8c4.1,7,13,8.9,19.8,5.2
		c15.5-8.3,23.7-25.9,23.5-43c-0.2-18-9.7-35.4-23.3-47c-12.9-10.8-28.1-13-44.1-8c-11.3,3.6-20.5,10.3-27.5,19.1
		c-1.6-2.1-3.4-4.1-5.3-5.9c-12-11.4-30-17.8-46.5-15.1c-16.2,2.7-30.1,17.7-37.2,31.8c-7.9,16-8.3,35,0.2,50.9
		c4,7.3,10,13.3,17.2,17.3c6.9,3.7,15.8,1.7,19.8-5.2c3.9-6.6,1.7-16.2-5.2-19.8c-0.6-0.3-2.6-1.7-2.7-1.7c-0.7-0.7-1.4-1.5-2.1-1.9
		h-0.1c-0.4-0.6-0.8-1.1-1.1-1.6c-0.3-0.5-0.6-1-0.9-1.5c-0.4-0.8-1.3-3.8-0.5-0.8c-0.4-1.4-0.9-2.6-1.3-4c-0.3-1.2-0.6-3.6-0.5-2.3
		c-0.1-1.4-0.2-2.6-0.2-4c0-0.8,0.1-1.6,0.1-2.4c0-0.2,0-0.3,0-0.4l0,0c0.4-1.4,0.6-2.8,1-4.2c0.1-0.5,1.1-3,1.2-3.3
		c1.5-3.2,3.5-6.1,5.7-8.9c1.9-2.2,4-4.4,6.1-6.4c0.1-0.1,0.5-0.4,0.8-0.7c0.2-0.2,0.4-0.3,0.5-0.3c0.7-0.4,1.3-0.7,1.8-1.2l0.1-0.1
		c1.1-0.2,2.1-0.6,3.2-0.9c0.2,0,0.4,0,0.7,0c1.4,0,2.6,0.1,3.9,0.2c-3.4-0.2-0.3,0,1.3,0.4c1.5,0.4,3,0.8,4.5,1.2
		c0.8,0.2,1.5,0.5,2.2,0.8c0.1,0,0.2,0.1,0.3,0.1c1.3,0.7,2.6,1.4,3.8,2.1c0.7,0.5,1.4,0.9,2,1.4l0,0c0.1,0.1,0.2,0.2,0.4,0.4
		c1,1,2,1.9,3,3c0.1,0.1,0.6,0.6,0.9,1c0.3,0.3,0.5,0.7,0.6,0.9c0.8,1.2,1.5,2.4,2.2,3.7c0.4,0.8,0.8,1.5,1.2,2.2
		c0.1,0.2,0.2,0.3,0.3,0.5v0.1c1.2,3,2.1,6.2,2.8,9.3c0.1,0.5,0.6,3.6,0.7,3.7c0.2,1.5,0.3,3.1,0.4,4.6c0.2,3.1,0.1,6.2-0.1,9.2
		c0,0.4-0.1,0.7-0.1,1.1c-0.3,1.4-0.5,2.8-0.8,4.2c-1.3,5.6-3.3,10.7-5.1,16.2c0,0,0,0,0,0.1c-0.2,0.4-0.4,0.9-0.6,1.3
		c-0.7,1.5-1.4,2.9-2,4.4c-1.5,3-2.9,5.9-4.5,8.8c-3.3,6.2-6.8,12.2-10.3,18.2c-15.8,26.7-32.1,53-43.5,82
		c-11.4,29.4-17.1,62.6-4.8,92.8c10.6,25.8,30.4,44.9,50.7,63.2c2.4,2.2,4.6,4.6,6.8,7c0,0,0.1,0.1,0.1,0.2c0,0,0-0.1-0.1-0.1
		l0.1,0.1c0.3,0.4,0.8,1.2,0.6,0.9c0.1,0.2,0.3,0.4,0.4,0.6c1.1,1.5,2,3.2,3,4.8c0.8,1.5,1.5,2.9,2.3,4.5c0.3,0.6,0.5,1.2,0.8,1.6
		c0,0.1,0.1,0.1,0.1,0.2c1.2,2.9,2.1,5.9,3,8.9c0.8,2.8,1.5,5.7,2,8.6c0.3,1.5,0.5,3,0.8,4.5c0,0.1,0,0.2,0,0.3
		c0-0.3-0.1-0.5-0.1-0.9c0,0.3,0.1,0.6,0.1,0.9c0.1,0.6,0.2,1.5,0.1,0.7c0,0.2,0,0.4,0.1,0.5c0.6,5.1,0.9,10.2,0.9,15.3
		c0,3.4-0.1,6.9-0.3,10.3c-0.1,0.9-0.1,1.8-0.2,2.7c-0.1,0.7-0.1,1.3-0.2,1.8c0,0.1,0,0.2-0.1,0.3c-0.3,1.6-0.7,3.3-1.1,4.8
		c-0.4,1.5-1,3.3-1.5,4.9c-0.3,0.8-0.6,1.6-0.9,2.4c1.1-3.2-0.8-6.7-4-7.6c-3.2-1-6.7,0.8-7.6,4c-1.1,3.2,0.8,6.7,4,7.6
		c2.9,0.9,5.9-0.4,7.3-3c-0.2,0.5-0.4,1-0.5,1.1c-0.4,0.8-0.8,1.5-1.2,2.4c-1,1.7-1.9,3.5-3,5.2c-0.9,1.4-1.7,2.6-2.6,3.9
		c-0.1,0.1-0.1,0.2-0.2,0.3c-0.4,0.5-0.8,1-1.3,1.5c-1.2,1.4-2.3,2.6-3.6,3.8c-0.7,0.6-1.3,1.2-1.8,1.7c-0.1,0.1-0.6,0.5-1.1,0.9
		c1.5-1.5,1.6-4.1,0.3-5.8c-1.5-1.9-4.3-2.2-6.2-0.7c-1.9,1.5-2.2,4.3-0.7,6.2c1.4,1.7,3.8,2.1,5.6,1.1c-0.7,0.5-1.4,1-2.1,1.4
		c-1.2,0.7-2.3,1.4-3.6,1.9c1-0.5-1.5,0.6-2.3,0.9c-0.8,0.2-1.5,0.4-2.3,0.6c-0.3,0.1-0.5,0.1-0.7,0.2c-1.6,0.1-3.2,0.1-4.8,0.1
		c-0.8,0-1.6-0.1-2.4-0.2c-0.5,0-0.7,0-0.8,0c-1.5-0.2-3-0.6-4.5-1c-0.8-0.2-1.6-0.5-2.4-0.8c-0.1,0-0.3-0.1-0.4-0.1
		c-1.3-0.8-2.5-1.4-3.8-2.1c-0.2-0.1-0.4-0.2-0.6-0.3l-0.1-0.1c-0.8-0.9-1.7-1.8-2.6-2.6c-0.1-0.1-0.2-0.2-0.3-0.2
		c-0.2-0.3-0.3-0.5-0.3-0.6c-0.5-0.8-1-1.6-1.5-2.4c0,0,0-0.1-0.1-0.1c0,0.1,0,0.1,0,0.2c0-0.1,0-0.2,0-0.3
		c-0.2-0.4-0.4-0.9-0.6-1.2c-0.5-0.9-0.1-0.8,0.2-0.2c-0.4-1-0.9-2-1.1-2.6c-0.1-0.3-0.1-0.5-0.1-0.8c-0.1-1.5-0.2-3.1-0.2-4.6
		c0-1.7,0.1-3.7,0.2-5.5v-0.1c0,0,0,0.1-0.1,0.1c0,0,0-0.1,0.1-0.1c0-0.5,0.1-1,0.1-1.4c0-0.6,0.2-0.8,0.3-0.7c0-0.4,0.1-0.7,0.1-1
		c0.5-2.1,1.3-4.2,1.8-6.3c0.6-1.1,1.2-2.2,1.7-3.3c0.2-0.3,0.8-1.1,1.1-1.5c0.4-0.5,0.9-1,1.1-1.1c0.4-0.3,0.7-0.6,0.9-0.9
		c0.7-0.4,1.5-0.9,2-1.1c0.2-0.1,0.5-0.2,0.7-0.3c0.9-0.2,1.6-0.4,2.5-0.6c-0.3,0.1,1.7-0.2,2.9-0.2c1.5,0,3.2,0.1,4.8,0.2
		c7.6,0.7,14.8-7.2,14.5-14.5c-0.4-8.4-6.4-13.7-14.5-14.5l0.1-0.2c-15.5-1.5-29.8,4.5-39.1,16.9c-6.8,9.1-9.4,20.8-10.1,31.9
		c-1.4,24.3,13.5,46.4,38.1,51.2c19.1,3.8,36-0.8,50.4-13.7c4.7-4.3,9.1-9.4,12.8-14.9c8.4,13.2,20.4,23.6,35.5,28.2
		c26.7,8,60.8-7.7,65.1-36.9C674.1,456.9,666.6,429.3,642.7,420z M637.7,451.1c0.2,0.2,0.3,0.4,0.3,0.4S637.9,451.3,637.7,451.1z
		 M616,39.9c-0.6,0-1.2,0-1.1,0C615.2,39.8,615.6,39.8,616,39.9z M603.4,42.4C604,42.2,604.5,42,603.4,42.4L603.4,42.4z M603.4,42.5
		c-0.1,0.1-0.3,0.1-0.5,0.2C603,42.6,603.2,42.5,603.4,42.5z M523.1,40.3L523.1,40.3L523.1,40.3z M536.7,42.6
		C536.1,42.3,535.4,41.9,536.7,42.6L536.7,42.6z M504.5,448.7c-0.4,0.4-0.8,0.7-0.8,0.6C503.8,449.2,504,449,504.5,448.7z
		 M501.8,484c-0.2,0-0.6-0.6-0.8-1.1C501.4,483.4,502,484.1,501.8,484z M523.4,490.2C522.6,490.3,522.4,490.3,523.4,490.2
		L523.4,490.2z M598.8,383.9C598.4,384.4,597.2,385.8,598.8,383.9L598.8,383.9z M551.1,352.8c-5.4-4.9-10.8-9.9-16-15.1
		c-2.3-2.3-4.6-4.7-6.8-7.2c-1.1-1.3-2.1-2.4-3.2-3.7c-0.5-0.6-2.9-3.7-2.8-3.5c-3.9-5.2-7.3-10.7-10.2-16.6
		c-0.4-0.9-0.8-1.7-1.2-2.6l0,0c-0.5-1.5-1.2-3.1-1.6-4.6c-1.2-3.6-2.1-7.3-2.8-10.9c-0.2-1.1-0.4-2.1-0.5-3.2c0.1,0.6,0.3,2.8,0,0
		c-0.2-1.7-0.3-3.6-0.4-5.3c-0.2-4.3,0-8.5,0.4-12.8c0.1-0.9,0.2-1.6,0.3-2.5c0.1-0.4,0.1-1.1,0.2-1.3c0.4-2.1,0.8-4.3,1.2-6.3
		c1-4.7,2.3-9.5,3.8-14.1c1.3-4.2,2.7-8.3,4.3-12.4c0.8-2.1,1.6-4.3,2.5-6.4c-0.3,0.6-0.9,1.9,0.3-0.8c0.5-1.2,1-2.3,1.5-3.5
		c3.6-7.9,7.6-15.8,11.7-23.5c7.8-14.4,16.6-28.4,24.9-42.5c4.6-7.7,9.3-15.8,13.5-24.1c0.9,1.7,1.7,3.5,2.7,5.2
		c15.3,28.9,34.2,55.6,47.5,85.5c3.2,7.3,6,14.7,8.3,22.3c1.4,4.4,2.6,8.8,3.6,13.4c0.5,2.1,0.9,4.3,1.3,6.3
		c0.1,0.4,0.4,2.6,0.4,2.3c0.1,1,0.2,1.9,0.3,2.9c0.4,4,0.5,8,0.3,12.1c-0.1,1.7-0.2,3.6-0.4,5.3c0,0.6-0.4,2.9,0,0
		c-0.2,1.3-0.4,2.5-0.7,3.8c-0.7,3.3-1.5,6.5-2.5,9.7c-0.5,1.5-1.1,3.1-1.6,4.6c0,0.1-0.1,0.2-0.1,0.3c-0.4,1-0.9,1.9-1.4,2.9
		c-2.9,5.9-6.4,11.4-10.3,16.7c0.7-1-1.9,2.5-2.3,2.9c-1.1,1.3-2.1,2.5-3.2,3.7c-2.4,2.8-5,5.4-7.6,8.1
		c-10.8,10.9-23.5,20.2-32.2,33.1c-0.9,1.3-1.6,2.5-2.4,3.9C564.8,366.8,558.6,359.6,551.1,352.8z M585.2,450.2
		C585.1,449.4,585,448.1,585.2,450.2L585.2,450.2z M638.1,483.7L638.1,483.7C638,483.8,638,483.8,638.1,483.7z"/>
	<path class="st0" d="M1696.9,443.8c0.1,0.1,0.3,0.1,0.4,0.2C1697.1,443.9,1697,443.8,1696.9,443.8L1696.9,443.8z"/>
	<path class="st0" d="M1689,414.2c-7.6,0.7-14.9,6.2-14.5,14.5c0.3,7.4,6.4,15.2,14.5,14.5h-0.1c1.6-0.1,3.9,0.3,5.4-0.1
		c0.7,0.2,1.5,0.4,2.1,0.5c0.1,0,0.3,0.1,0.4,0.1c-0.3-0.1-0.6-0.3-1.1-0.5c0.4,0.2,0.7,0.4,1.1,0.6c0.6,0.2,1.1,0.5,0.3,0.2
		c0.1,0.1,0.3,0.1,0.4,0.2c0.6,0.3,1,0.7,1.5,0.9c0,0.1,0.1,0.1,0.1,0.2c0.8,1,2.8,3.9,0.9,0.6c0.7,1.1,1.5,2.1,2.1,3.2
		c0.3,0.7,0.7,1.4,1.1,2c0.5,1.4,1,2.7,1.4,4.2c0.4,1.3,0.7,2.6,0.9,3.9c0.1,0.7,0.2,1.4,0.4,2c0.3,2.6,0.4,5.2,0.4,7.9
		c0,0.6,0,1.2,0,1.8c-0.4-2.8-2.4-5.2-5.3-5.9c-3.9-1-7.6,1.4-8.6,5.2c-1,3.9,1.4,7.6,5.2,8.6c3.5,0.9,7.2-1.1,8.4-4.5
		c-0.2,0.6-1.2,3.4-1.1,3.5c-0.6,1.1-1.1,2.1-1.7,3.1c-0.2,0.3-0.6,0.9-0.9,1.2c-0.2,0.3-0.4,0.5-0.7,0.8c-0.9,1-1.9,1.8-2.9,2.7
		c1.5-1.3-1.5,1-2.3,1.5c-0.9,0.5-1.8,1-2.7,1.5c-0.1,0.1-0.2,0.1-0.2,0.1c-0.1,0-0.3,0.1-0.4,0.1c-1.9,0.6-3.8,1.2-5.8,1.6
		c-0.2,0-0.9,0.2-1.5,0.3c-0.9,0.1-2.8,0.2-2.6,0.2c-1.9,0.1-3.9,0.1-5.8,0c-0.4,0-0.9-0.1-1.3-0.1c-0.1-0.1-2-0.4-2.3-0.5
		c-1.5-0.4-2.9-0.9-4.4-1.4c3.3,1.1-0.4-0.3-1.4-0.9c0,0-0.1-0.1-0.2-0.2c1.8,0.8,4.1,0.2,5.2-1.5c1.5-2,1-4.7-1.1-6.1
		c-2-1.5-4.7-1-6.1,1.1c-1.3,1.8-1.1,4.3,0.6,5.7l0,0c-1.2-1.1-2.1-2.3-3.2-3.4c-0.4-0.7-0.8-1.4-1.3-1.9c-0.7-1.2-1.4-2.4-1.9-3.7
		c-0.1-0.3-0.2-0.5-0.4-0.8c-0.1-0.2-0.2-0.5-0.3-0.7c-0.6-1.7-1.2-3.4-1.6-5.1c-1-3.6-1.6-7.2-2.3-10.7c0-0.1,0-0.1,0-0.2
		c-0.1-0.9-0.2-1.6-0.3-2.5c-0.2-1.8-0.4-3.6-0.5-5.4c-0.5-7.1-0.3-14.3-0.4-21.4c0-0.8-0.1-1.6-0.2-2.4c-1-25.8-8.3-52.5-27-70.8
		c-10.6-10.4-22.1-19.7-31.9-30.8c-1-1.2-1.9-2.2-2.9-3.4c-0.4-0.5-2.8-3.6-2.6-3.3c-2-2.7-4-5.5-5.8-8.4s-3.6-5.9-5.1-9
		c-0.8-1.5-1.5-3.2-2.3-4.8c-0.1-0.3-0.4-0.9-0.6-1.4c-0.3-0.9-0.7-1.6-1-2.5c-6.8-18.1-8-32-7.6-51c0.1-4.1,0.4-8,0.8-12.1
		c0.3-2.9,0.1-0.6,0,0c0.2-1.1,0.3-2.1,0.5-3.2c0.4-2.2,0.9-4.6,1.4-6.8c0.8-3.6,1.7-7.1,2.9-10.6c0.6-1.6,1.2-3.4,1.7-5
		c0.3-1,0.7-1.8,1.1-2.7c0.1-0.2,0.1-0.4,0.2-0.5c0-0.1,0.1-0.2,0.2-0.3c2.9-6.5,6.3-12.9,10.1-18.9c1.7-2.8,3.6-5.5,5.5-8.2
		c1-1.4,1.9-2.6,2.9-4l1.6-2.1c-0.2,0.2-0.3,0.4-0.4,0.6c0.2-0.3,0.5-0.7,0.8-1c8-10.1,16.8-19.6,25.5-29
		c13.8-15.4,29-32.6,31.9-53.7c0.4-1.3,0.6-2.5,0.6-4c0-3.4,0.1-6.8,0.3-10.2c0.1-1.5,0.2-2.8,0.3-4.3c0.1-0.8,0.2-1.5,0.3-2.2
		c0-0.1,0-0.2,0.1-0.4c0.6-2.8,1.2-5.8,1.9-8.7c0.4-1.2,0.9-2.2,1.2-3.4c0.3-0.6,0.6-1.3,0.9-1.8c0.6-1.2,1.4-2.2,1.9-3.3
		c-0.1,0.2-0.3,0.3-0.5,0.5c0.2-0.2,0.4-0.4,0.5-0.6l0,0c0.3-0.5,0.8-1,0.8-0.9c0.7-0.8,1.5-1.5,2.2-2.1c0.6-0.4,1.1-0.8,1.6-1.1
		c1-0.6,4.6-1.9,1.2-0.8c1.3-0.4,2.4-0.9,3.7-1.2c0.4-0.1,2.3-0.5,3.2-0.8c0.5-0.1,1.1-0.2,1.3-0.2c1.1-0.1,2.2-0.2,3.3-0.2
		c1.9-0.1,4,0,5.9,0.1c0.2,0,0.6,0.1,1,0.1c0.5,0.1,1.1,0.2,1.5,0.3c1.7,0.4,3.5,0.9,5.2,1.4c0.2,0.1,0.8,0.3,1.2,0.5
		c0.6,0.3,1.7,0.9,1.7,0.9c1.5,0.8,2.7,1.6,4.1,2.5c-2.2-1.5,0.2,0.2,1.1,1.1c0.3,0.3,1.6,1.7,2.2,2.4c0.5,0.8,1.6,2.6,1.9,3.1
		c0.2,0.5,0.4,0.9,0.6,1.2c0,0.1,0,0.2,0.1,0.3c0.2,1.3,0.6,2.5,1,3.7v0.1c0,0.4,0.1,0.7,0.1,1.1c0.1,1.3,0.1,2.6,0.1,3.9
		c0,2.3-0.2,4.6-0.4,7.1c0,0.1,0,0.1,0,0.2c0,0.1,0,0.2-0.1,0.3c-0.3,1.6-0.7,3.3-1.1,4.8c-0.3,1.3-0.8,2.5-1.2,3.8
		c-0.2,0.6-0.5,1.3-0.7,1.8c1.4-3.7,0.2-0.7-0.2,0.1c-0.6,1.1-1.2,2-1.8,3c-0.4,0.5-0.9,1-1.3,1.4c-0.1,0.1-0.2,0.2-0.3,0.3
		c-0.3,0.3-0.8,0.6-0.9,0.7c-0.4,0.3-1,0.6-1.5,0.9c-0.7,0.1-1.4,0.3-2,0.6c-0.1,0-0.2,0.1-0.3,0.1c-1.9,0.1-3.8,0.1-5.7-0.1
		c-7.6-0.7-14.8,7.2-14.5,14.5c0.4,8.4,6.4,13.8,14.5,14.5v0.1c19.4,1.6,34.5-9.9,41.5-27.2c5.2-12.8,7-29.9,2.6-43.3
		c-6-18.6-22.7-31.4-41.8-34.3c-18-2.7-38.8,0.6-51,15.4c-0.7,0.9-1.4,1.7-2,2.6c-0.9-1.1-1.8-2.1-2.8-3.1
		c-6.8-6.8-15.3-11.7-24.5-14.2c-11.3-3.1-22.9-1-33.3,4.4c-15.2,7.8-28.5,22.8-32.1,39.8c-3.4,15.5-1.4,32.6,9.5,44.8
		c5.7,6.2,13.3,10.4,21.6,12c7.5,1.5,16.1-2.1,17.8-10.2c1.6-7.3-2.1-16.3-10.2-17.9c-1.5-0.3-3.1-1-4.6-1.3c-0.5-0.3-1-0.6-1.5-0.9
		c-0.1,0-0.1-0.1-0.2-0.1c-0.4-0.3-1-0.8-1.1-0.9c-0.3-0.3-0.6-0.7-0.9-1c0.7,0.9,0.9,1.5-0.1-0.1c-0.1-0.1-0.2-0.2-0.3-0.4
		c0.1,0.1,0.2,0.2,0.3,0.3l0,0c-0.5-0.8-0.9-1.5-1.4-2.3c0,0-0.6-1.3-0.9-2.3c-0.2-0.6-0.5-1.5-0.7-2.2c0-0.1,0-0.3,0-0.5
		c0-1-0.1-1.9-0.2-2.9c0-1.3,0.1-2.6,0.1-3.9c0-0.3,0-0.5,0-0.8c0-0.1,0-0.1,0-0.2c0.7-2.7,1.4-5.3,2.1-7.9c0.1-0.2,0.2-0.4,0.3-0.6
		c0.6-1,1.3-2,1.8-3c0.5-0.6,1.1-1.3,1.5-1.8c1.7-2,3.7-3.9,5.6-5.7c2.6-2.2,5.4-4.1,8.5-5.6c-0.5,0.3,3.3-1.1,3.8-1.2
		c0.2-0.1,0.8-0.2,1.2-0.2c1.2-0.1,2.2-0.1,3.4,0c-0.6,0-2.6-0.7,0.4,0.1c0.9,0.2,1.8,0.5,2.7,0.8c0.5,0.2,1,0.3,1.5,0.5
		c-0.5-0.2,0,0,0.5,0.2c0.2,0.1,0.3,0.1,0.5,0.2c-0.2-0.1-0.3-0.1-0.5-0.2c0.2,0.1,0.4,0.1,0.5,0.2c1.5,0.8,2.9,1.5,4.4,2.4
		c0.3,0.2,0.7,0.4,1,0.7c0.1,0.1,1.5,1.3,1.8,1.5c1.2,1.1,2.1,2.2,3.1,3.4l0.1,0.1c0.6,0.9,1.2,1.6,1.6,2.6c0.9,1.5,1.5,2.9,2.3,4.4
		c0.5,1.2,0.9,2.4,1.3,3.7c0.5,1.6,1,3.4,1.4,5c0.1,0.6,0.9,4.9,0.8,4.2c0.4,3.5,0.6,7,0.5,10.5c0,0.6-0.3,1.7-0.3,2.4
		c-0.5,2.1-1.1,4.2-1.8,6.2v0.1c-0.5,0.9-0.9,1.9-1.4,2.8c-1.1,2-2.3,4.1-3.6,6c-1.3,1.9-2.6,3.9-4,5.7c-0.1,0.1-0.2,0.2-0.2,0.3
		l-0.1,0.1c-1,1.2-1.8,2.2-2.7,3.4c-3.4,4.1-6.9,7.9-10.4,11.8c-16.8,18.6-34.2,37.3-45.8,59.6c-15.7,30.1-19.4,63.2-14.5,96.6
		c4.4,29.9,19.1,56,39.7,77.6c9.4,9.9,20.6,18,29.6,28.3c0.5,0.6,1,1.2,1.5,1.6c0.1,0.1,0.1,0.2,0.2,0.4c1.1,1.5,2.1,3.1,3.1,4.7
		c0.9,1.5,1.6,2.9,2.4,4.4c0.4,0.8,0.7,1.5,1.1,2.2c0.1,0.2,0.2,0.4,0.3,0.6c0.1,0.1,0.1,0.3,0.2,0.5c2.3,6.3,4.2,12.8,5.3,19.5
		c0.2,0.9,0.5,3,0.5,3c0.1,1.2,0.3,2.2,0.4,3.4c0.3,2.9,0.5,5.8,0.6,8.8c0.1,4.3,0.1,8.6-0.2,12.9c-0.1,1.2-0.1,2.2-0.2,3.4
		c0,0.5-0.1,1-0.1,1.5c0.1-0.6,0,0.3-0.1,0.9c0,0.2,0,0.4-0.1,0.6c0-0.2,0-0.4,0-0.5c0,0.1,0,0.2,0,0.2c-0.3,1.2-0.5,2.4-0.8,3.7
		c-0.8,3.1-1.7,6.1-2.9,9.1c0.1-0.4-1.6,3.3-1.8,3.9c-1,1.7-1.9,3.5-3,5.2c-0.6,1-1.2,1.8-1.8,2.8c-0.1,0.1-0.5,0.7-0.8,1.1
		s-0.9,1.1-1,1.3c-0.6,0.7-1.2,1.3-1.7,1.9c-1.4,1.5-2.7,2.8-4.2,4.1c-0.4,0.4-0.8,0.7-1.3,1.1c-0.3,0.2-1.4,1-1.8,1.4
		c-1.4,0.9-2.8,1.6-4.3,2.5c-0.1,0.1-0.2,0.1-0.4,0.2c-0.6,0.2-1.2,0.5-1.7,0.7c-1.4,0.4-2.6,0.7-4,1c1.7-0.4,0.8-0.1,0,0
		c-0.2,0-0.4,0.1-0.6,0.1c0.2-0.1,0.4-0.1,0.6-0.1c-0.1,0-0.2,0-0.3,0c-1.4,0-2.7,0-4.1,0c-1,0-1.9-0.1-3-0.2
		c-0.3,0-0.6-0.1-0.8-0.1c-1.7-0.3-3.5-0.8-5.2-1.3c0,0-1.4-0.5-2-0.7c-0.2-0.1-0.4-0.2-0.5-0.3c-1.1-0.6-2-1.2-3-1.8
		c1.2,0.7-1.5-1.2-2.1-1.8c-0.3-0.3-0.6-0.6-0.9-1c-0.6-0.9-1.2-1.7-1.6-2.6c-0.3-0.5-1.1-2.3-1.3-2.5c-0.1-0.3-0.2-0.6-0.2-0.7
		c-0.2-0.7-0.4-1.2-0.5-1.7c-0.1-0.3-0.1-0.5-0.1-0.8c0-0.1,0-0.3-0.1-0.4c-0.2-3.5,0.3-7,0.4-10.4c0-0.1,0-0.1,0-0.2
		c0-0.5,0-1,0-1.5c0,0.4,0,0.7,0,1c0-0.5,0.1-1,0.2-1.5c0.2-1.1,0.5-2.1,0.8-3.2c0.2-0.9,0.5-1.6,0.8-2.4c-0.1,0-0.1,0.1-0.2,0.1
		c0.2-0.3,0.3-0.6,0.4-0.9c0-0.1,0.1-0.2,0.1-0.3c0.2-0.7,0.3-0.8,0.3-0.6c0,0,0-0.1,0.1-0.1c0.6-1.2,1.2-2.1,1.8-3.2
		c0.1-0.1,0.2-0.2,0.2-0.4l0,0c0.8-0.8,1.6-1.5,2.3-2.3l0,0c0.5-0.3,1.1-0.6,1.2-0.7c0.2-0.1,0.4-0.3,0.7-0.4c1.2-0.2,2.4-0.7,3.6-1
		c0.5,0,1-0.1,1.5-0.1c1.9-0.1,4,0,5.9,0.2c7.6,0.7,14.8-7.2,14.5-14.5c-0.4-8.4-6.4-13.7-14.5-14.5l0.2,0.1
		c-16.4-1.5-31.6,5.2-40.6,19c-3,4.6-5.1,9.9-6.6,15.3c-0.3-1.8-0.7-3.7-1.2-5.4c-5.5-20.8-23.5-32.8-44.8-31.9
		c-7.6,0.3-14.9,6.5-14.5,14.5c0.3,7.6,6.4,14.9,14.5,14.5c2-0.1,4.1,0,6,0c0.1,0,0.1,0,0.1,0c0.1,0,0.2,0.1,0.3,0.1
		c0.7,0.2,1.3,0.3,1.9,0.5c0.5,0.1,1.1,0.2,1.5,0.4c0.1,0,0.1,0.1,0.2,0.1c0.7,0.5,1.4,0.9,2.1,1.3c0.4,0.3,1.1,0.9,1.6,1.5
		c0.1,0.2,0.2,0.4,0.4,0.7c0.2,0.5,0.6,0.9,0.8,1.3c0.1,0.2,0.3,0.5,0.4,0.7c0-0.1,0-0.1,0.1-0.2c0,0,0,0.2,0.1,0.5
		c0.2,0.3,0.3,0.6,0.5,0.9c0.4,0.8,0.2,0.7-0.1,0.4c0.4,1,0.8,2.1,0.9,2.3c0.3,1.2,0.5,2.2,0.8,3.4c0.2,1.9,0.3,4,0.3,5.9
		c0,1.5-0.1,2.9-0.2,4.3c0,0.6,0,1.2-0.1,1.7c0.1-0.6,0.2-0.3-0.1,1.4l0,0c0,0.3-0.1,0.6-0.1,0.9c0-0.3,0-0.5,0-0.8
		c-0.4,1.8-0.9,3.7-1.5,5.5c-0.1,0.2-0.1,0.4-0.2,0.5c-0.7,0.9-1.2,2.6-1.7,3.6c-0.1,0.1-0.7,1.4-1.3,2.2c-0.1,0.1-0.3,0.3-0.5,0.5
		c-0.4,0.4-0.8,0.8-1.1,1.2c-0.5,0.6-1.4,1.5-2.1,2.2c-0.3,0.1-0.6,0.2-0.9,0.4c-0.8,0.5-1.5,1-2.4,1.5c-0.7,0.4-1.4,0.6-1.9,1h-0.1
		c-1.7,0.5-3.5,1.2-5.3,1.5c-1,0.2-1.9,0.3-2.8,0.6c-0.2,0-0.4,0-0.6,0c-2.5,0.1-5,0.3-7.6,0.2c-0.7,0-1.4-0.1-2-0.1
		c-1.5-0.4-3-0.6-4.5-1.1c-0.6-0.2-1.2-0.4-1.6-0.6c-0.6-0.2-0.9-0.2-1.1-0.3c-1.1-0.6-2.4-1.6-2.9-1.9c-0.2-0.1-0.4-0.2-0.5-0.3
		c-0.1-0.1-0.2-0.2-0.4-0.4c-1-1-1.9-1.7-2.8-2.7c-0.3-0.3-0.6-0.7-0.8-1c-0.7-1.2-1.5-2.3-2.2-3.5c-0.8-1.3-1.3-2.3-1.8-3.6
		c-0.1-0.1-0.1-0.2-0.2-0.3c0-0.1-0.1-0.2-0.1-0.3c-1.1-2.8-1.9-5.7-2.6-8.6c-0.6-2.5-1.1-5.1-1.5-7.7c0-0.4-0.1-0.9-0.2-1.3
		c-0.2-1.5-0.3-3.1-0.4-4.7c-0.6-8.4-0.4-16.9,0.6-25.4c0.1-1.4,0.5-4.4,0.2-2c0.1-1.2,0.3-2.2,0.4-3.4c0-0.2,0.1-0.5,0.1-0.8
		c0.1-0.8,0.3-1.5,0.4-2.2c0.4-1.7,1-3.5,1.5-5.2c0.1-0.3,0.3-0.9,0.5-1.3c0.2-0.3,0.3-0.7,0.5-1c0.9-1.6,1.8-3.1,2.8-4.6
		c0-0.1,0.1-0.1,0.1-0.1l0,0c0.7-0.7,1.3-1.5,1.9-2.1c1.4-1.4,2.7-2.6,4.2-3.9c1-0.6,1.8-1.4,2.8-1.9c1.5-1.1,3.2-1.9,4.8-2.9
		c1.6-1,3.4-1.8,5.1-2.6c1-0.5,1.9-0.9,2.9-1.4c0.1,0,0.1-0.1,0.2-0.1s0.2-0.1,0.4-0.1c4.3-1.6,8.5-3.2,12.8-4.6
		c18.4-6.2,37.2-11.3,54.4-20.4c5.6-3,8.3-10.5,6.7-16.4c-1.8-6.7-7.6-9.9-14-10.6c-1-0.1-1.3-0.2-1.1-0.2c-1.6-0.3-3.3-0.6-4.9-0.9
		c-4.1-0.8-8-1.5-12-2.5c-9.9-2.3-19.7-5.3-29.2-8.8c-2.4-0.9-4.7-1.8-7.2-2.8c3.7,1.5-0.6-0.2-1.3-0.6c-1.5-0.7-2.8-1.3-4.3-1.9
		c-4.6-2.2-9.2-4.6-13.6-7.3c6.6-0.4,13.2-2,19-4.7c23.5-10.8,27.6-39.9,27.7-62.8c0.1-35.4,0.1-70.9,0.2-106.2
		c0-16.7,0.1-33.3,0.2-50.1c0.2-23.2-0.4-49.5-16.1-68.3C1489.7,6.2,1467,5.3,1448.6,10c-9.6,2.4-18.6,7.6-24.8,15.3
		c-1.6-1.9-3.6-3.8-5.6-5.5c-27.2-22.9-75.8-10.2-86.1,24.7c-3.4,11.6-1.8,26.2,1.7,37.7c4.1,13.3,12.6,25.9,25.4,32
		c7.8,3.8,16.5,5.7,25.2,5.7c7.6,0.1,14.9-6.8,14.5-14.5c-0.4-7.9-6.4-14.4-14.5-14.5l0,0c-1.5,0-3-0.1-4.6-0.2
		c0.8,0-1.6-0.3-2.5-0.5c-1.3-0.3-2.4-0.7-3.7-1.1c-0.7-0.4-1.5-0.7-2.1-1.2c-0.7-0.4-1.3-0.8-1.9-1.3c0.2,0.1-1.3-1.1-1.9-1.7
		c-0.2-0.2-1-1.1-1.5-1.6c-0.5-0.9-1.1-1.6-1.5-2.4c-0.5-0.9-1.1-2-1.6-3c-0.1-0.1-0.1-0.3-0.2-0.4c0-0.1,0-0.1-0.1-0.2
		c-0.8-2.4-1.6-4.9-2.1-7.5c-0.2-1.1-0.4-2.2-0.7-3.3c0-0.1,0-0.2-0.1-0.3c0-0.1,0-0.3,0-0.5c-0.2-2.2-0.3-4.5-0.4-6.8
		c0-1.2,0-2.2,0-3.4c0-0.3,0-0.6,0.1-1c0.4-1.1,0.6-2.2,0.9-3.3v-0.1c0.3-0.7,0.7-1.3,1.1-1.9c0.4-0.7,1.5-2.2,1.4-2.1
		c0.8-0.9,1.6-1.8,2.5-2.6c0.5-0.5,1-0.9,1.5-1.3c1.6-1.1,3.2-2,4.9-2.9c0.2-0.1,1-0.5,1.3-0.6c0.3-0.1,0.7-0.2,1-0.3
		c1.5-0.6,3.2-1,4.8-1.4c0.9-0.2,1.7-0.4,2.6-0.5c0.3,0,0.6,0,1.1-0.1c1.9-0.1,3.9-0.2,5.8-0.1c0.6,0,1.2,0.1,1.7,0.1
		c0.1,0,0.3,0.1,0.5,0.1c1.3,0.5,2.5,0.8,3.9,1.1l0,0c0.3,0.2,0.7,0.3,1.1,0.5c0.7,0.3,1.3,0.7,1.8,1.1c0.1,0.1,0.6,0.4,1,0.7
		c0.5,0.5,1.5,1.4,1.9,1.6c1.1,1,1.9,2.1,2.8,3.2c-1.8-2.1-0.2-0.2,0.6,1c0.9,1.4,1.6,2.8,2.4,4.4c0.2,0.5,0.5,1,0.7,1.5
		c0.4,1.2,0.9,2.2,1.3,3.4c1,2.9,1.7,5.9,2.3,8.9c0.3,1.5,0.5,3,0.8,4.6c-0.5-2.9-0.1-0.2,0.1,1.3c0.3,2.9,0.4,5.8,0.4,8.7
		c0,4.4,0,8.7,0,13c0,7.2,0,14.4,0,21.6c-0.1,0.5-0.1,1-0.1,1.5c-0.3,31.5-0.5,62.8-0.2,94.3c-0.1,19.8-0.1,39.7-0.2,59.5l0,0v0.1
		c-0.1,20.9-0.1,41.9-0.1,62.8c0,28.3,0.1,56.5,0.2,84.8c0.1,12.4,0.2,24.8,0.3,37.2c0,3.1,0.1,6.3,0,9.4c-0.1,1.7-0.2,3.4-0.4,5.1
		c0-0.5-0.5,2.9-0.7,3.5c-0.4,1.5-0.8,3.1-1.3,4.6c-0.2,0.4-0.3,0.9-0.5,1.4c-0.6,1-1.1,2-1.6,3c-0.3,0.5-0.7,1-1,1.5
		c-0.8,0.7-1.5,1.5-2.1,2.2c-0.3,0.3-0.6,0.5-0.9,0.8c-0.8,0.5-1.5,1-2.3,1.5c-0.5,0.3-1.1,0.5-1.5,0.8c-0.4,0.2-0.6,0.4-0.8,0.6
		c-1.5,0.6-3.5,0.9-4.6,1.1c-1,0.2-1.8,0.4-2.8,0.6c-0.5,0.1-1.3,0.2-1.5,0.2c-2.3,0.2-4.6,0.3-7,0.4c-1.4,0-2.7,0-4.1-0.1
		c-0.1,0-0.2,0-0.3-0.1c-1.1-0.3-2.1-0.5-3.3-0.9c-0.6-0.2-1.2-0.4-1.8-0.6c-0.1-0.1-0.3-0.1-0.4-0.2c-1.5-0.9-3.1-1.7-4.6-2.6
		c0,0-0.3-0.2-0.5-0.4c-0.4-0.3-1.1-0.9-1.3-1.1c-1.3-1.2-2.5-2.4-3.7-3.7c-0.1-0.2-0.7-0.8-1-1.2c-0.3-0.4-0.5-0.8-0.6-0.9
		c-0.8-1.3-1.5-2.5-2.1-3.7c-0.1-0.1-0.1-0.3-0.2-0.4c0.1,0.2,0.1,0.4,0.2,0.7c-0.2-0.6-0.4-1.1-0.6-1.6c-0.2-0.8-0.4-1.5-0.6-2.2
		c0-0.2-0.1-0.3-0.1-0.5c-0.1-4.6,0-9.1,0.4-13.6c0-0.2,0-0.3,0-0.5c0-0.1,0-0.2,0.1-0.3c0.2-1.1,0.4-2.1,0.7-3.2s0.5-2,0.9-3.1
		c0.1-0.5,0.3-0.9,0.5-1.4c0.5-0.8,1-1.6,1.4-2.5c0.1-0.2,0.2-0.4,0.3-0.6l0,0c0.7-0.5,1.3-1.1,1.8-1.7c0.7-0.3,1.3-0.7,1.8-1.2
		c0.1-0.1,0.2-0.1,0.3-0.2c0.2,0,0.4-0.1,0.6-0.2c1.3-0.4,2.6-0.7,3.9-1.1c0.2,0,0.3-0.1,0.4-0.1c0.7-0.1,1.4-0.1,2.1-0.2
		c1.9-0.1,3.9-0.1,5.9,0c7.6,0.2,14.9-6.9,14.5-14.5c-0.2-7.9-6.6-14.3-14.5-14.5c-16.4-0.5-32.3,4.6-41.7,18.7
		c-6.9,10.5-8.1,23.7-8.3,35.9c-0.3,17.5,9.3,32.6,23.2,42.7c13.6,9.8,29.7,10.6,45.6,8.1c13.4-2.1,25.2-8.9,33-20
		c2.1-3,3.8-6.2,5.1-9.5c0.7,1.5,1.4,2.8,2.1,4.2c8.5,15.2,23,24.1,40.1,26c18.1,2,38.6-3.5,50.4-17.9c5.3-6.4,8.8-13.7,10.8-21.6
		c1.6,7.8,5.2,15.3,10.5,21.5c11.8,14.1,33.4,19.3,50.9,15.7c14.1-2.8,26.1-12.3,35-23.7c6,11.6,15.5,20.6,30.4,24.3
		c20.3,4.9,44.8-0.8,58.3-17.4c11.6-14.5,13-33.1,8.9-50.8C1728.5,428.7,1711.8,412.2,1689,414.2z M1694.6,87.9
		C1693.4,88.2,1693.5,88,1694.6,87.9L1694.6,87.9z M1617.2,50.1C1615.8,48.5,1616.7,49.6,1617.2,50.1L1617.2,50.1z M1574,448
		c-0.3,0.3-0.5,0.5-0.5,0.5C1573.5,448.4,1573.8,448.2,1574,448z M1572.7,449.2L1572.7,449.2
		C1572.8,449.1,1572.8,449.2,1572.7,449.2z M1509.1,447.9c0,0-0.3-0.4-0.5-0.9C1508.9,447.5,1509.2,447.8,1509.1,447.9z
		 M1373.6,89.7C1371.6,89.2,1372.8,89.5,1373.6,89.7L1373.6,89.7z M1381,38.2C1380.8,38.2,1380.7,38.2,1381,38.2L1381,38.2z
		 M1362.3,446.5c0.1-0.1,0.1-0.2,0.2-0.3C1362.6,446.2,1362.5,446.4,1362.3,446.5z M1357.8,472
		C1357.5,470.9,1357.7,470.9,1357.8,472L1357.8,472z M1373.2,489.8C1374.8,490.4,1373.9,490.1,1373.2,489.8L1373.2,489.8z
		 M1378.5,491.2C1379.2,491.2,1380.7,491.7,1378.5,491.2L1378.5,491.2z M1457.5,421.2C1457.6,420.5,1457.8,419.8,1457.5,421.2
		L1457.5,421.2z M1529.7,345.9c-0.4,0.2-0.8,0.3-1.1,0.5l0,0C1530,345.8,1530.1,345.7,1529.7,345.9z M1482.4,281.2L1482.4,281.2
		L1482.4,281.2z M1440.6,84.5c0.1-5.1,0.2-10.4,0.3-15.5c0.1-2.4,0.2-4.8,0.4-7.2c0.1-1.2,0.2-2.3,0.3-3.5c0-0.2,0-0.3,0-0.4
		c0-0.2,0.1-0.4,0.1-0.6c0.4-2.1,0.9-4.3,1.5-6.4c0.3-0.9,0.7-1.8,0.9-2.7c0.2-0.4,0.4-0.8,0.6-1.2c0.3-0.6,0.9-1.5,1.4-2.2
		c0.1-0.1,0.2-0.3,0.2-0.4c0,0,0.1-0.1,0.2-0.1c0.7-0.6,1.3-1.2,1.8-1.8l0.1-0.1c0.3-0.2,0.7-0.5,1-0.7c1-0.6,1.9-1.1,3-1.6
		c0.1,0,0.1-0.1,0.2-0.1c0.2-0.1,0.4-0.1,0.7-0.2c2.5-0.8,5.1-1.5,7.7-1.8c0,0.1,2.6-0.2,3.2-0.3c1.7-0.1,3.6-0.2,5.3-0.2
		c1.1,0,2.1,0.1,3.2,0.1c-0.4-0.1-0.8-0.1-1.1-0.2c0.4,0.1,0.9,0.2,1.3,0.3c0.1,0,0.2,0,0.3,0c1.5,0.1,1,0.1,0,0c0.1,0,0.1,0,0.2,0
		c1.2,0.3,2.2,0.6,3.4,1c0.4,0.2,0.8,0.4,1.2,0.6c0.5,0.3,0.9,0.6,1.4,0.9c0.9,1,1.7,1.9,2.7,2.8c0,0,0,0.1,0.1,0.1
		c0.6,0.9,1.2,1.7,1.6,2.7c0.5,0.9,0.8,1.7,1.3,2.5c0.1,0.2,0.2,0.4,0.2,0.6c0.9,2.4,1.6,4.9,2.2,7.5c0.7,2.7,1.2,5.4,1.5,8.1
		c0,0.1,0,0.2,0,0.4c0.1,0.7,0.2,1.5,0.2,2.1c0.2,1.9,0.4,4,0.5,5.9c0.3,5.2,0.3,10.6,0.3,15.8c-0.1,14.1-0.1,28.3-0.2,42.4
		c-0.1,36.2-0.2,72.5-0.2,108.7c0,4.4,0.1,8.6-0.1,13c-0.1,3.5-0.3,7.1-0.8,10.6c0,0.2,0,0.4-0.1,0.5c-0.1,0.6-0.2,1.1-0.3,1.6
		c-0.3,1.6-0.7,3.2-1.1,4.7c-0.4,1.5-0.8,2.9-1.3,4.4c-0.1,0.4-0.3,0.8-0.4,1.1c0.1-0.2,0.2-0.4,0.3-0.7c-0.4,0.8-1.5,3.8-2.6,5.4
		c0-0.2-0.2-0.1-1,0.8c-0.7,0.7-1.4,1.3-2,1.9c-1,0.5-1.9,1-2.8,1.5c-0.9,0.3-1.7,0.6-2.6,0.8c-0.9,0.2-1.8,0.4-2.7,0.6
		c-0.1,0-0.2,0-0.4,0c-2.4,0.1-4.7,0-7.1-0.1c2.8,0.1,0.2,0-1.3-0.4c-0.5-0.1-2-0.7-2.8-0.9c-0.7-0.3-1.8-0.9-2.1-1.1
		c-0.3-0.2-1.3-0.9-1.9-1.3c-0.6-0.5-1.5-1.3-1.8-1.5c-1.1-1-1.9-2-2.9-3c-0.2-0.2-0.3-0.3-0.3-0.3c-0.1-0.1-0.2-0.3-0.3-0.5
		c-0.7-1.1-1.4-2-2-3.1c-1.4-2.2-2.3-4.6-3.5-6.8c-0.1-0.4-0.3-0.8-0.5-1.2c-0.4-1.2-0.8-2.2-1.2-3.4c-0.8-2.3-1.4-4.7-1.9-7.2
		c-0.2-1.1-0.5-2.1-0.7-3.2c0-0.1,0-0.1,0-0.2c0.5-1.1-0.5-5.1-0.5-6.2c-0.2-4.6-0.2-9.1-0.3-13.7c-0.1-7.3-0.2-14.4-0.3-21.7
		c0-12.8,0.1-25.5,0.1-38.2c0.1-25.7,0.2-51.4,0.2-77.1c0-2.9,0-5.8-0.1-8.8c0.1-0.5,0.1-1.1,0.1-1.5L1440.6,84.5z M1443.2,385.8
		c-1.1,1.3-2.1,2.5-3.1,3.9c0-7.9,0-16-0.1-23.9c0-12.7,0-25.4,0-38c15.8,13.6,36.1,23.2,56,29.9c-2.1,0.7-4.3,1.4-6.4,2.1
		C1472.9,365.4,1455,372.4,1443.2,385.8z M1506.5,483.1c0,0,0.3-0.3,0.6-0.6C1506.8,482.8,1506.6,483.1,1506.5,483.1z M1585.9,489.2
		C1586.4,489.3,1586.2,489.3,1585.9,489.2L1585.9,489.2z M1598.3,488C1597.8,488.1,1597.4,488.2,1598.3,488L1598.3,488z
		 M1655.4,460.4C1655.3,459.6,1655.2,458.2,1655.4,460.4L1655.4,460.4z M1659.5,476.6c-0.1-0.2-0.2-0.5-0.3-0.7
		C1659.3,476.2,1659.4,476.4,1659.5,476.6z M1659.7,477.2C1660.1,477.9,1659.9,477.6,1659.7,477.2L1659.7,477.2z"/>
	<path class="st0" d="M1661.3,47.5C1661.3,47.6,1661.3,47.6,1661.3,47.5c0.6-0.6,0.8-0.9,0.8-0.9l0,0
		C1661.8,46.9,1661.6,47.2,1661.3,47.5z"/>
	<path class="st0" d="M1605.9,41.7c0.1,0,0.3,0.1,0.6,0.2l0,0C1606.3,41.8,1606.1,41.8,1605.9,41.7z"/>
	<path class="st0" d="M1592.9,489.4L1592.9,489.4L1592.9,489.4L1592.9,489.4z"/>
	<path class="st0" d="M1567.6,463.2c0,0.8,0.1,0.9,0-0.6c0,0.2,0,0.3,0,0.4S1567.6,463.2,1567.6,463.2z"/>
	<path class="st0" d="M1575.9,81.7L1575.9,81.7C1575.8,81.7,1575.8,81.7,1575.9,81.7L1575.9,81.7z"/>
	<path class="st0" d="M1569.3,455.5c0.4-0.3,0.7-1.4,0.7-1.6c-0.1,0.3-0.3,0.6-0.4,0.9C1569.4,455,1569.4,455.2,1569.3,455.5z"/>
	<path class="st0" d="M1595.7,169.5C1595.3,170.1,1595.2,170.2,1595.7,169.5L1595.7,169.5z"/>
	<path class="st0" d="M1624.5,448.6c0,0.2,0,0.5-0.1,1l0,0C1624.4,449.2,1624.4,448.9,1624.5,448.6z"/>
	<path class="st0" d="M1141.1,480.1C1141.1,480.1,1141.1,480.2,1141.1,480.1c0.1-0.5-0.1-1.1-0.4-1.4
		C1140.9,479.2,1141.1,479.8,1141.1,480.1z"/>
	<path class="st0" d="M1139.6,465.1c0.6-1.1,0.6-1.9,0.4-2.1C1139.8,463.7,1139.8,464.5,1139.6,465.1L1139.6,465.1z"/>
	<path class="st0" d="M1183.1,384.6c0.4,0.5,0.6,0.8,0.6,0.9C1183.5,385.1,1183.3,384.8,1183.1,384.6L1183.1,384.6z"/>
	<path class="st0" d="M1196.2,419.4c0,0.3,0.1,0.6,0.1,0.8C1196.3,419.9,1196.3,419.7,1196.2,419.4L1196.2,419.4z"/>
	<path class="st0" d="M1263.2,43c-0.7-0.5-1.4-0.8,0.3,0.3C1263.4,43.2,1263.4,43.2,1263.2,43L1263.2,43z"/>
	<path class="st0" d="M1282.9,479c-0.1,0.3-0.3,0.7-0.2,1l0,0C1282.8,479.7,1282.8,479.4,1282.9,479z"/>
	<path class="st0" d="M1284.7,420.5c-6.5-2.4-13.6-3.3-20.4-2.5c-7.6,0.7-14.9,6.2-14.5,14.5c0.3,7.3,6.4,15.3,14.5,14.5v0.1
		c1.6-0.2,3.2-0.3,4.7-0.2c0.4,0,1.7,0.1,2.5,0.1c0.8,0.2,2,0.4,2.3,0.5c0.5,0.1,0.8,0.3,1.2,0.4c0,0,0,0,0.1,0.1
		c0.8,0.6,1.5,1.1,2.4,1.5c0.1,0.1,0.2,0.1,0.2,0.2c0.2,0.2,1.1,1.1,1.6,1.6c0.3,0.5,0.7,1,1,1.5c0.5,0.8,1,1.6,1.4,2.5
		c0.1,0.1,0.1,0.2,0.1,0.3c0,0,0,0,0,0.1c0.6,2.1,1.4,4.2,1.8,6.3c0,0.2,0.2,1,0.4,1.6c0,0.3,0,0.6,0.1,1.2c0.2,1.9,0.3,3.9,0.3,5.8
		c0,1.5-0.1,3-0.2,4.6c-0.1,0.3-0.1,0.6-0.2,0.9c-0.2,0.6-0.9,2.1-1.3,3.2c0.4-0.8,1-1.3-0.1,0.8c0,0.1-0.1,0.1-0.1,0.2s0,0.2,0,0.2
		c0-0.1,0-0.1,0-0.2c-0.6,1-1.1,1.9-1.6,2.9c0,0.1-0.1,0.1-0.1,0.2c-0.9,0.8-1.7,1.6-2.5,2.5c-0.1,0.1-0.2,0.2-0.3,0.3
		c-0.1,0-0.1,0.1-0.2,0.1c-1.3,0.8-2.7,1.5-4.1,2.2c-0.8,0.2-1.5,0.5-2.3,0.8c-1.5,0.5-3,0.8-4.6,1.1c-2.8,0.6-1.2,0.2-0.6,0.1
		c-1.1,0.1-2.1,0.2-3.2,0.2c-1.7,0.1-3.5,0-5.2-0.1c3.3,0-0.8-0.3-2-0.6c-1.3-0.3-4.7-2.1-2.1-0.7c-1.3-0.7-2.5-1.3-3.8-2
		c-0.6-0.4-4.1-2.9-3.1-2.1c-2.3-1.9-4.6-4.1-6.5-6.4c-0.4-0.5-2.2-2.8-1.9-2.3c-1-1.5-2-2.9-2.9-4.4c-1.6-2.6-3.1-5.3-4.4-8.1
		c0.3,0.7-1.1-2.8-1.3-3.3c-0.6-1.6-1.1-3.3-1.5-4.9c-0.4-1.6-0.7-3.2-1.1-4.8c0-0.1,0-0.1,0-0.2c0-0.4-0.1-0.9-0.1-1.3
		c-0.1-1.2-0.2-2.3-0.2-3.6c-0.1-1-0.1-2-0.2-3c0.3-4.5,0.3-8.9,0-13.4c0.1-3,0.4-6,0.7-8.9c0-0.4,0.1-0.9,0.2-1.3
		c0-0.1,0-0.2,0-0.3c0.2-1.3,0.4-2.6,0.7-3.9c0.6-3.1,1.3-6.1,2.1-9.1c0.9-3,1.8-5.8,2.9-8.6c1-2.6,0.2-0.5,0,0.1
		c0.4-0.8,0.7-1.5,1.1-2.2c0.7-1.5,1.5-3,2.3-4.5c0.8-1.5,1.7-2.9,2.6-4.3c0.5-0.7,1-1.4,1.5-2l0.1-0.1c2.2-2.6,4.6-5.1,7.3-7.5
		c4.8-4.4,9.7-8.7,14.4-13.3c9.9-9.5,19.1-19.8,26.4-31.3c17.1-26.5,19.8-57.9,12-88c-8-31.2-23.9-59.6-40.3-87.1
		c-7.2-11.9-14.4-23.8-21-36.1c-1.5-2.7-2.8-5.4-4.2-8.2c-0.7-1.5-1.4-2.9-2-4.4l-0.7-1.6c-0.1-0.1-0.1-0.2-0.1-0.3
		c-0.1-0.1-0.1-0.3-0.2-0.5c-2.1-5.2-3.8-10.6-5-16.2c-0.3-1.2-0.5-2.3-0.7-3.5c0-0.4-0.1-0.8-0.1-1.3c-0.3-3.1-0.3-6.2-0.1-9.2
		c0.1-1.5,0.2-3.1,0.4-4.6c0,0.2,0.4-2.4,0.6-3c0.7-3.4,1.6-6.8,2.9-10c0.4-0.8,0.8-1.5,1.2-2.2c0.7-1.3,1.4-2.5,2.2-3.7
		c0.3-0.5,0.6-0.9,1-1.4c0.2-0.2,0.3-0.4,0.5-0.5c1.3-1.3,2.5-2.6,3.9-3.8c0.1-0.1,0.2-0.2,0.3-0.3c0.4-0.3,0.8-0.5,1.2-0.8
		c1.4-0.9,2.8-1.6,4.4-2.4c0.1-0.1,0.4-0.2,0.6-0.3c0.4-0.2,0.9-0.3,1.3-0.5c1.6-0.6,3.4-1,5.1-1.4c1.3-0.3,5.2-0.5,1.3-0.4
		c1.2,0,2.2-0.2,3.4-0.2c0.7,0.1,1.3,0.1,1.9,0.1c0.1,0,0.1,0,0.2,0c0.7,0.2,1.4,0.5,1.8,0.8c0.6,0.4,1.2,0.8,1.8,1.1
		c0.3,0.2,0.6,0.4,1,0.6l0.1,0.1c0.1,0.1,0.2,0.2,0.4,0.3c-0.1,0-0.1-0.1-0.2-0.1l0,0c2.1,1.9,5.7,5.7,6.6,6.8
		c2.2,2.8,4.1,5.8,5.7,8.9c0,0.2,0.8,1.9,1,2.6c0.4,1.5,0.8,2.8,1,4.3c0,0.1,0.2,2,0.2,2.8c0,1.5-0.2,3.1-0.2,4.6
		c-0.1,0.6-0.2,1.2-0.4,1.7c-0.2,0.8-0.4,1.5-0.6,2.3c-0.1,0.2-0.3,1-0.5,1.5c-0.4,0.7-1.1,2.2-1.3,2.5c-0.5,0.9-2.8,3.5-1.5,2.1
		c-0.7,0.7-1.4,1.5-2.1,2.1c0.1-0.2-1.9,1.3-2.7,1.6c-6.9,3.7-9.1,13.3-5.2,19.8c4.1,7,13,8.9,19.8,5.2c15.5-8.3,23.7-25.9,23.5-43
		c-0.2-18-9.7-35.4-23.3-47c-12.9-10.8-28.1-13-44-8c-11.3,3.6-20.5,10.3-27.5,19.1c-1.6-2.1-3.4-4.1-5.3-6
		c-12-11.4-30-17.8-46.5-15.1c-16.2,2.7-30.1,17.7-37.2,31.8c-7.9,16-8.3,35,0.2,50.9c4,7.3,10,13.3,17.2,17.3
		c6.9,3.7,15.8,1.7,19.8-5.2c3.9-6.6,1.7-16.2-5.2-19.8c-0.6-0.3-2.6-1.7-2.7-1.7c-0.7-0.7-1.4-1.5-2.1-1.9h-0.1
		c-0.4-0.6-0.8-1.1-1.1-1.6c-0.3-0.5-0.6-1-0.9-1.5c-0.4-0.8-1.3-3.8-0.5-0.8c-0.4-1.4-0.9-2.6-1.3-4c-0.3-1.2-0.6-3.6-0.5-2.3
		c-0.1-1.4-0.2-2.6-0.2-4c0-0.8,0.1-1.6,0.1-2.4c0-0.2,0-0.3,0-0.4l0,0c0.4-1.4,0.6-2.8,1-4.2c0.1-0.5,1.1-3,1.2-3.3
		c1.5-3.2,3.5-6.1,5.7-8.9c1.9-2.2,4-4.4,6.1-6.4c0.1-0.1,0.5-0.4,0.8-0.7c0.2-0.2,0.4-0.3,0.5-0.3c0.7-0.4,1.3-0.7,1.8-1.2l0.1-0.1
		c1.1-0.2,2.1-0.6,3.2-0.9c0.2,0,0.4,0,0.7,0c1.4,0,2.6,0.1,3.9,0.2c-3.4-0.2-0.3,0,1.3,0.4c1.5,0.4,3,0.8,4.5,1.2
		c0.8,0.2,1.5,0.5,2.2,0.8c0.1,0,0.2,0.1,0.3,0.1c1.3,0.7,2.6,1.4,3.8,2.1c0.7,0.4,1.4,0.9,2,1.4l0,0c0.1,0.1,0.2,0.2,0.4,0.4
		c1,1,2,1.9,3,3c0.1,0.1,0.6,0.6,0.9,1c0.3,0.3,0.5,0.7,0.6,0.9c0.8,1.2,1.5,2.4,2.2,3.7c0.4,0.8,0.8,1.5,1.2,2.2
		c0.1,0.2,0.2,0.3,0.3,0.5v0.1c1.2,3,2.1,6.2,2.8,9.3c0.1,0.5,0.6,3.6,0.7,3.7c0.2,1.5,0.3,3.1,0.4,4.6c0.2,3.1,0.1,6.2-0.1,9.2
		c0,0.4-0.1,0.7-0.1,1.1c-0.3,1.4-0.5,2.8-0.8,4.2c-1.3,5.6-3.3,10.7-5.1,16.2c0,0,0,0,0,0.1c-0.2,0.4-0.4,0.9-0.6,1.3
		c-0.7,1.5-1.4,2.9-2,4.4c-1.5,3-2.9,5.9-4.5,8.8c-3.3,6.2-6.8,12.2-10.3,18.2c-15.8,26.7-32.1,53-43.5,82
		c-11.4,29.4-17.1,62.6-4.8,92.8c10.6,25.8,30.4,44.9,50.7,63.2c2.4,2.2,4.6,4.6,6.8,7c0,0,0.1,0.1,0.1,0.2c0,0,0-0.1-0.1-0.1
		c0,0,0,0.1,0.1,0.1c0.3,0.4,0.8,1.2,0.6,0.9c0.1,0.2,0.3,0.4,0.4,0.6c1.1,1.5,2,3.2,3,4.8c0.8,1.5,1.5,2.9,2.3,4.5
		c0.3,0.6,0.5,1.2,0.8,1.6c0,0.1,0.1,0.1,0.1,0.2c1.2,2.9,2.1,5.9,3,8.9c0.8,2.8,1.5,5.7,2,8.6c0.3,1.5,0.5,3,0.8,4.5
		c0,0.1,0,0.2,0,0.3c0-0.3-0.1-0.5-0.1-0.9c0,0.3,0.1,0.6,0.1,0.9c0.1,0.7,0.2,1.5,0.1,0.7c0,0.2,0,0.4,0.1,0.5
		c0.6,5.1,0.9,10.2,0.9,15.3c0,3.4-0.1,6.9-0.3,10.3c-0.1,0.9-0.1,1.8-0.2,2.7c-0.1,0.7-0.1,1.3-0.2,1.8c0,0.1,0,0.2-0.1,0.3
		c-0.3,1.6-0.7,3.3-1.1,4.8c-0.4,1.5-1,3.3-1.5,4.9c-0.3,0.8-0.6,1.6-0.9,2.4c1.1-3.2-0.8-6.7-4-7.6c-3.2-1.1-6.7,0.8-7.6,4
		c-1.1,3.2,0.8,6.7,4,7.6c2.9,0.9,5.9-0.4,7.3-3c-0.2,0.5-0.4,1-0.5,1.1c-0.4,0.8-0.8,1.5-1.2,2.4c-1,1.7-1.9,3.5-3,5.2
		c-0.9,1.4-1.7,2.6-2.6,3.9c-0.1,0.1-0.1,0.2-0.2,0.3c-0.4,0.5-0.8,1-1.3,1.5c-1.2,1.4-2.3,2.6-3.6,3.8c-0.7,0.6-1.3,1.2-1.8,1.7
		c-0.1,0.1-0.6,0.5-1.1,0.9c1.5-1.5,1.6-4.1,0.3-5.8c-1.5-1.9-4.3-2.2-6.2-0.7s-2.2,4.3-0.7,6.2c1.4,1.7,3.8,2.1,5.6,1.1
		c-0.7,0.5-1.4,1-2.1,1.4c-1.2,0.7-2.3,1.4-3.6,1.9c1-0.5-1.5,0.6-2.3,0.9c-0.8,0.2-1.5,0.4-2.3,0.6c-0.3,0.1-0.5,0.1-0.7,0.2
		c-1.6,0.1-3.2,0.1-4.8,0.1c-0.8,0-1.6-0.1-2.4-0.2c-0.5,0-0.7,0-0.8,0c-1.5-0.2-3-0.6-4.5-1c-0.8-0.2-1.6-0.5-2.4-0.8
		c-0.1,0-0.3-0.1-0.4-0.1c-1.3-0.8-2.5-1.4-3.8-2.1c-0.2-0.1-0.4-0.2-0.6-0.3l-0.1-0.1c-0.8-0.9-1.7-1.8-2.6-2.6
		c-0.1-0.1-0.2-0.2-0.3-0.2c-0.2-0.3-0.3-0.5-0.3-0.6c-0.5-0.8-1-1.6-1.5-2.4c0,0,0-0.1-0.1-0.1c0,0.1,0,0.1,0,0.2
		c0-0.1,0-0.2,0-0.3c-0.2-0.4-0.4-0.9-0.6-1.2c-0.5-0.9-0.1-0.8,0.2-0.2c-0.4-1-0.9-2-1.1-2.6c-0.1-0.3-0.1-0.5-0.1-0.8
		c-0.1-1.5-0.2-3.1-0.2-4.6c0-1.7,0.1-3.7,0.2-5.5v-0.1c0,0,0,0.1-0.1,0.1c0,0,0-0.1,0.1-0.1c0-0.5,0.1-1,0.1-1.4
		c0-0.6,0.2-0.8,0.3-0.7c0-0.4,0.1-0.7,0.1-1c0.5-2.1,1.3-4.2,1.8-6.3c0.6-1.1,1.2-2.2,1.7-3.3c0.2-0.3,0.8-1.1,1.1-1.5
		c0.4-0.5,0.9-1,1.1-1.1c0.4-0.3,0.7-0.6,0.9-0.9c0.7-0.4,1.5-0.9,2-1.1c0.2-0.1,0.5-0.2,0.7-0.3c0.9-0.2,1.6-0.4,2.5-0.6
		c-0.3,0.1,1.7-0.2,2.9-0.2c1.5,0,3.2,0.1,4.7,0.2c7.6,0.7,14.8-7.2,14.5-14.5c-0.4-8.4-6.4-13.7-14.5-14.5l0.1-0.2
		c-15.5-1.5-29.8,4.5-39.1,16.9c-6.8,9.1-9.4,20.8-10.1,31.9c-1.4,24.3,13.5,46.4,38.1,51.2c19.1,3.8,36-0.8,50.4-13.7
		c4.7-4.3,9.1-9.4,12.8-14.9c8.4,13.2,20.4,23.6,35.5,28.2c26.7,8,60.8-7.7,65.1-36.9C1316.1,457.4,1308.6,429.8,1284.7,420.5z
		 M1279.8,451.6c0.2,0.2,0.3,0.4,0.3,0.4C1280,451.9,1279.9,451.7,1279.8,451.6z M1258,40.4c-0.6,0-1.2,0-1.1,0
		C1257.2,40.3,1257.6,40.3,1258,40.4z M1245.4,43C1246,42.7,1246.5,42.5,1245.4,43L1245.4,43z M1245.4,43c-0.1,0.1-0.3,0.1-0.5,0.2
		C1245,43.1,1245.2,43,1245.4,43z M1165.1,40.8L1165.1,40.8C1165.1,40.8,1165,40.8,1165.1,40.8z M1178.6,43.1
		C1178,42.8,1177.3,42.4,1178.6,43.1L1178.6,43.1z M1146.4,449.2c-0.4,0.4-0.8,0.7-0.8,0.6C1145.7,449.7,1146,449.5,1146.4,449.2z
		 M1143.8,484.5c-0.2,0-0.6-0.6-0.8-1.1C1143.4,483.9,1144,484.6,1143.8,484.5z M1165.3,490.7
		C1164.5,490.8,1164.4,490.8,1165.3,490.7L1165.3,490.7z M1240.8,384.4C1240.4,384.8,1239.2,386.3,1240.8,384.4L1240.8,384.4z
		 M1193.1,353.3c-5.4-4.9-10.8-9.9-16-15.1c-2.3-2.3-4.6-4.7-6.8-7.2c-1.1-1.3-2.1-2.4-3.2-3.7c-0.5-0.6-2.9-3.7-2.8-3.5
		c-3.9-5.2-7.3-10.7-10.2-16.6c-0.4-0.9-0.8-1.7-1.2-2.6l0,0c-0.5-1.5-1.2-3.1-1.6-4.6c-1.2-3.6-2.1-7.2-2.8-10.9
		c-0.2-1.1-0.4-2.1-0.6-3.2c0.1,0.6,0.3,2.8,0,0c-0.2-1.7-0.3-3.6-0.4-5.3c-0.2-4.3,0-8.5,0.4-12.8c0.1-0.9,0.2-1.6,0.3-2.5
		c0.1-0.4,0.1-1.1,0.2-1.3c0.4-2.1,0.8-4.3,1.2-6.3c1.1-4.7,2.3-9.5,3.8-14.1c1.3-4.2,2.7-8.3,4.3-12.4c0.8-2.1,1.6-4.3,2.5-6.4
		c-0.3,0.6-0.9,1.9,0.3-0.8c0.5-1.2,1-2.3,1.5-3.5c3.6-7.9,7.6-15.8,11.7-23.5c7.8-14.4,16.6-28.4,24.9-42.5
		c4.6-7.7,9.3-15.8,13.5-24.1c0.9,1.7,1.8,3.6,2.7,5.3c15.3,28.9,34.2,55.6,47.5,85.5c3.2,7.3,6,14.7,8.3,22.3
		c1.4,4.4,2.6,8.8,3.6,13.4c0.5,2.1,0.9,4.3,1.3,6.3c0.1,0.4,0.4,2.6,0.4,2.3c0.1,1,0.2,1.9,0.3,2.9c0.4,4,0.5,8,0.3,12.1
		c-0.1,1.7-0.2,3.6-0.4,5.3c0,0.6-0.4,2.9,0,0c-0.2,1.3-0.4,2.5-0.7,3.8c-0.7,3.3-1.5,6.5-2.5,9.7c-0.5,1.5-1.1,3.1-1.6,4.6
		c0,0.1-0.1,0.2-0.1,0.3c-0.4,1-0.9,1.9-1.4,2.9c-2.9,5.9-6.4,11.4-10.3,16.7c0.7-1-1.9,2.5-2.3,2.9c-1.1,1.3-2.1,2.5-3.2,3.7
		c-2.4,2.8-5,5.4-7.6,8.1c-10.8,10.9-23.5,20.2-32.2,33.1c-0.9,1.3-1.6,2.5-2.4,3.9C1206.8,367.3,1200.6,360.1,1193.1,353.3z
		 M1227.2,450.7C1227.1,449.9,1227,448.5,1227.2,450.7L1227.2,450.7z M1280.1,484.2L1280.1,484.2
		C1280,484.4,1280,484.3,1280.1,484.2z"/>
	<path class="st0" d="M930.3,475.5C930.3,475.5,930.3,475.4,930.3,475.5C930.3,475.4,930.3,475.5,930.3,475.5L930.3,475.5z"/>
	<path class="st0" d="M1058.8,444.9c0.1,0.1,0.2,0.1,0.2,0.2C1059,445,1058.9,444.9,1058.8,444.9L1058.8,444.9z"/>
	<path class="st0" d="M1056.7,444.1c0.1,0,0.3,0,0.5,0l0,0C1057,444.1,1056.9,444.1,1056.7,444.1z"/>
	<polygon class="st0" points="1058,444.1 1058,444.1 1058,444.1 	"/>
	<path class="st0" d="M1060.2,446.2L1060.2,446.2L1060.2,446.2C1060.2,446.2,1060.2,446.2,1060.2,446.2z"/>
	<path class="st0" d="M1064.3,477.1c0-0.1-0.2,0.2-0.5,1.4l0,0C1063.9,478,1064.1,477.5,1064.3,477.1z"/>
	<path class="st0" d="M1061.7,482c-0.5,0.5-0.7,0.7-0.7,0.8C1061.2,482.6,1061.4,482.3,1061.7,482
		C1061.7,482.1,1061.7,482,1061.7,482z"/>
	<path class="st0" d="M1055.9,415c-7.6-0.2-14.9,6.8-14.5,14.5c0.2,7.9,6.6,14.3,14.5,14.5l0,0c0.3,0,0.6,0,0.9,0
		c-1.3-0.1-0.3-0.2,0.4,0c0.3,0,0.6,0,0.9,0c-0.1-0.1-0.1-0.1-0.2-0.2c0.1,0.1,0.1,0.1,0.2,0.2l0,0l0,0c0.1,0.1,0.3,0.3,0.4,0.4l0,0
		c-0.1-0.1-0.3-0.2-0.4-0.4c-0.4,0-0.6,0-0.9,0h0.1c0.3,0.1,0.5,0.2,0.8,0.3c0.1,0.1,0.2,0.1,0.3,0.2c0.1,0.1,0.3,0.2,0.4,0.3
		c-0.1-0.1-0.2-0.2-0.3-0.3l0,0c0.1,0.1,0.2,0.2,0.4,0.3c0.5,0.3,0.8,0.7,0.2,0.2c0.1,0.1,0.2,0.2,0.3,0.3c0.3,0.3,0.6,0.6,0.9,0.9
		c-0.6-0.8-0.6-1,0.1,0.1c0.1,0.1,0.3,0.3,0.4,0.4c-0.1-0.1-0.3-0.3-0.4-0.4c0,0.1,0.1,0.2,0.2,0.3c0.7,1.2,1.3,2.3,1.9,3.5
		c0.2,0.6,0.4,1.2,0.6,1.6c0.9,2.7,1.5,5.4,1.9,8.2c-0.3-1.5,0.2,1.5,0.3,2.6c0.1,1.5,0.2,2.9,0.2,4.4c0,2.4-0.1,4.7-0.2,7.1
		c0.1-1.5-0.4,1.6-0.6,2.6c-0.1,0.2-0.1,0.3-0.2,0.5c0,0.1-0.1,0.6-0.3,1.1c0,0.1-0.1,0.1-0.1,0.2c0,0.1-0.1,0.2-0.1,0.3
		c0-0.1,0-0.2,0.1-0.2c-0.7,1.2-1.4,2.3-2,3.6c0,0,0,0.1-0.1,0.1c0.1-0.1,0.2-0.2,0.4-0.4c-0.1,0.1-0.3,0.3-0.4,0.4
		c-0.3,0.4-0.8,0.9-0.7,0.8c-0.3,0.3-0.6,0.6-0.9,0.9c-0.3,0.3-1.9,1.7-2.5,2.2c-0.8,0.5-2.5,1.6-2.9,1.8c-0.7,0.4-3.1,1.5-2.4,1.3
		c-1.8,0.7-3.7,1.3-5.6,1.6c-0.9,0.2-1.8,0.4-2.7,0.6c0.7-0.1,2.6-0.2-0.4,0c-1.9,0.2-3.9,0.3-5.9,0.3c-1.4,0-2.8-0.2-4.2-0.2l0,0
		c-0.9-0.3-1.9-0.4-2.8-0.7c-1-0.3-2-0.6-3-1c0.7,0.2-1.8-1-2.5-1.4c-1.2-0.7-3.6-3.2-1.3-0.8c-1.1-1.2-2.2-2.1-3.3-3.2
		c-0.2-0.2-0.4-0.4-0.5-0.5c-0.1-0.2-0.2-0.4-0.4-0.7c-0.8-1.3-1.5-2.4-2.1-3.7c-0.6-1.3-1.5-3.7-0.6-1.1c-0.6-1.8-1.3-3.6-1.7-5.4
		c-0.5-1.8-0.9-3.5-1.2-5.2c1.2,4.1,5.4,6.5,9.6,5.3c4.1-1.2,6.5-5.4,5.3-9.6c-1.2-4.1-5.4-6.5-9.6-5.3c-3.4,1-5.7,4.2-5.6,7.6
		c-0.1-0.5-0.1-1-0.1-1.1c-0.4-4-0.5-7.9-0.3-12c0.2-7,0-14,0-21c0-0.8-0.1-1.6-0.2-2.4c0.1-24.3,0.1-48.6,0.1-72.9
		c0-15.5,0-30.9,0-46.4c4.3,2.6,8.9,4.6,13.8,5.8c16.3,3.9,32.7,0.2,45.3-10.7c15.9-13.8,18.9-34.3,19-54
		c0.1-37.8,0.4-75.4,0.3-113.2c0-15.1,0.1-30.3-0.5-45.4c-0.8-22.8-3.6-49.9-18.9-68c-13-15.4-36-16.3-53.5-8.9
		c-8.7,3.7-15.3,9.4-20.2,16.4c-5.9-7.9-14-14.1-23.5-17.5c-15-5.3-33.4-2.4-47.1,5.3c-13.7,7.7-22.9,21-24.7,36.6
		c-1.6,14.3,0.9,31.6,9.2,43.5c4.6,6.7,10.7,12,17.9,15.7c7,3.5,15.7,1.8,19.8-5.2c3.8-6.5,1.8-16.4-5.2-19.8v0.1
		c-1.5-0.7-2.8-1.5-4.2-2.3c-0.3-0.2-0.6-0.4-0.9-0.6c-0.1-0.1-0.2-0.2-0.3-0.3c-0.9-0.9-1.6-1.6-2.4-2.5c0.5,0.5-1.4-2-1.7-2.7
		c-0.3-0.6-0.9-1.8-1-1.9c-0.4-1.1-0.8-2.1-1.1-3.2c-0.4-1.3-0.7-2.5-0.9-3.8c0-0.2-0.2-0.9-0.3-1.4s-0.2-1.3-0.2-1.4
		c-0.3-3-0.4-6.1-0.3-9.1c0-0.9,0.1-1.7,0.1-2.5c0.1-0.5,0.4-2.3,0.6-2.8c0.1-0.4,0.3-0.9,0.4-1.3c0.7-1.1,1.4-2.1,1.8-3.3
		c0.1-0.2,0.2-0.4,0.3-0.5s0.2-0.2,0.3-0.3c1.2-1.2,2.2-2.2,3.4-3.4c0.2-0.2,0.4-0.4,0.5-0.5s0.3-0.2,0.5-0.3
		c1.3-0.8,2.5-1.6,3.9-2.3c0.4-0.2,0.9-0.4,1.3-0.7c0.3-0.1,0.7-0.3,0.8-0.4c1.5-0.5,3.1-1.1,4.7-1.5c0.5-0.1,3.7-0.7,3.3-0.7
		c1.6-0.2,3.3-0.3,4.8-0.2c1.2,0,2.3,0.1,3.4,0.2c0.8,0.2,1.6,0.3,2.3,0.6c0.7,0.2,3,1.2,2.4,0.8c0.6,0.3,1.2,0.6,1.7,0.9
		c0.3,0.2,1.4,0.9,2,1.4c0.6,0.5,1.5,1.4,1.7,1.5c0.8,0.8,1.5,1.7,2.2,2.5c0.3,0.4,0.6,0.9,0.9,1.3c1.3,1.9,2.2,3.9,3.2,5.9
		c-1.5-2.4-4.6-3.5-7.3-2.4c-3,1.3-4.5,4.6-3.3,7.6c1.3,3,4.6,4.5,7.6,3.3c2.8-1.2,4.3-4.1,3.5-7c0.5,1.3,0.9,2.5,1.3,3.8
		c0.8,2.5,1.5,5.1,1.9,7.8c0.3,1.4,0.5,2.6,0.7,4c-0.4-2.5-0.1-0.8,0,0.7c0.3,2.8,0.4,5.5,0.4,8.3c0.1,8.4,0.1,16.8,0.1,25.3
		c0.1,21.3,0.1,42.6,0.1,64c0,9.5,0,19,0,28.5c-0.1,8.8-0.1,17.6-0.2,26.4c0,8-0.2,16.2,0.2,24.2c0,25.6,0,51,0,76.6
		c0,25.9,0,51.6-0.1,77.5c0,11.7,0,23.5-0.1,35.2c0,5.5,0,11.1,0,16.7c0,3,0,6-0.2,8.9c0,0.6-0.1,1.1-0.1,1.6c0,0.1,0,0.2-0.1,0.3
		c-0.3,1.6-0.7,3.5-1.2,5.2c-0.4,1.5-0.9,2.8-1.4,4.2c-0.1,0.2-0.1,0.3-0.1,0.5c-0.1,0.1-0.2,0.3-0.3,0.4c-0.7,1.2-1.3,2.3-1.9,3.4
		s-2.6,2.9-0.6,1c-0.9,0.9-1.6,1.8-2.5,2.7c-0.6,0.5-2.3,1.8-1.8,1.5c-1.5,1-3.1,1.9-4.7,2.8c-0.1,0-0.1,0.1-0.2,0.1h-0.1
		c-1.2,0.4-2.2,0.8-3.4,1.1c-1.2,0.3-2.3,0.6-3.5,0.9c-0.4,0.1-1.7,0.3-2.4,0.4c-0.8,0.1-1.6,0.2-1.8,0.2c-1.1,0.1-2,0.1-3.1,0.1
		c-1.6,0-3.3,0-4.9-0.1c-0.6,0-0.8-0.1-0.8,0c-0.9-0.2-1.7-0.3-2.6-0.5c-1.4-0.3-2.6-0.7-4-1.2c-0.2-0.1-1-0.4-1.5-0.6
		c-0.2-0.1-0.4-0.2-0.5-0.2c-1.2-0.7-2.4-1.5-3.6-2.1c-0.4-0.4-0.9-0.7-1.3-1.2c-0.3-0.4-1.3-1.5-1.8-1.9c-0.4-0.5-1-1.5-1.2-1.6
		c-0.4-0.8-0.8-1.5-1.2-2.2c0.2,0.4-0.6-1.7-0.9-2.7c-0.2-0.7-0.3-1.4-0.3-1.5c0,0.2,0,0.6,0.1,1.3c0-0.4,0-0.9-0.1-1.3
		c0-0.2,0-0.2,0,0c-0.1-1-0.1-1.9-0.1-2.9c0-3.3,0.1-6.6,0.4-9.8c0-0.1,0-0.2,0-0.2c0.1-0.6,0.2-1.3,0.3-1.8
		c0.3-1.3,0.6-2.5,0.9-3.8c0.4-1.3,0.8-2.5,1.3-3.8c0.5-0.9,0.9-1.7,1.4-2.5c0.2-0.3,1.1-1.6,1.4-2.1c0.1-0.2,0.3-0.3,0.3-0.4
		c0.6-0.6,1.2-1.2,1.7-1.7c0.6-0.6,2.7-1.9,1.4-1.2c1.5-0.9,2.9-1.8,4.4-2.5c7-3.6,9-13.4,5.2-19.8c-4.2-7.1-12.9-8.8-19.8-5.2
		c-14.2,7.3-23.6,21.2-26.3,36.8c-2.4,14.4-2.8,30.2,5.2,43c15.9,25.6,53.1,29.7,78,15.6c4.7-2.7,8.9-6.1,12.4-10.1
		c6.3,7.6,14.6,13.5,24.7,16.2c19.3,5,41.8,0.4,56.4-13.3c13.3-12.3,16.3-30.2,14.2-47.3C1091.1,436.8,1080,415.5,1055.9,415z
		 M1057.9,444.4C1057.1,444,1057.4,444.1,1057.9,444.4L1057.9,444.4z M933.1,452.4C933.5,451.6,933.3,451.9,933.1,452.4L933.1,452.4
		z M983.6,467.2c0,0.1,0,0.1,0,0.2C983.5,467.3,983.6,467.3,983.6,467.2z M1047.5,287.1C1046,287.9,1046.9,287.4,1047.5,287.1
		L1047.5,287.1z M1055.7,280.7C1056,280.3,1056,280.3,1055.7,280.7L1055.7,280.7z M1014,87.5c0-4,0.1-7.9,0.3-12c0-2,0.2-4,0.5-6
		c0.1-0.3,0.1-0.6,0.2-1c0.2-1.3,0.5-2.5,0.8-3.8c0.4-2,1-4.1,1.5-6.1c0.3-1.1,0.7-2.1,1.1-3.2c0.1-0.3,0.2-0.5,0.2-0.6
		c0.1-0.1,0.1-0.2,0.2-0.4c1-2,2.1-3.9,3.3-5.8c0.1-0.2,0.2-0.3,0.3-0.5l0,0c0.9-0.9,1.6-1.8,2.6-2.7c0.7-0.7,1.5-1.3,2.1-1.9
		c-2.8,2.5-0.2,0.3,0.7-0.2c0.9-0.5,2.1-1.1,3.1-1.6c-2.7,1.5,0,0,1.5-0.4c1.3-0.4,2.5-0.7,3.9-1c0.3-0.1,0.6-0.1,0.9-0.2
		c0.2,0,0.4,0,0.7,0c1.9-0.1,4-0.2,5.9-0.1c0.2,0,0.4,0,0.5,0l2.9,0.8c0.2,0.1,0.5,0.3,0.7,0.4c0.4,0.2,0.8,0.5,1.3,0.8
		c0.8,0.9,1.6,1.7,2.4,2.5l0,0c0.6,0.9,1.2,1.7,1.6,2.7c0.5,1,0.9,1.7,1.4,2.6c0.1,0.3,0.3,0.6,0.4,0.9c0.8,2.3,1.6,4.6,2.3,7
		c0.7,2.5,1.4,5.1,1.8,7.7c0.3,1.5,0.6,3.1,0.9,4.6c0.1,0.6,0.6,3.8,0.7,4c0.7,5.4,1.2,10.8,1.5,16.3c0.6,12.8,0.5,25.7,0.5,38.4
		c0.1,36.8-0.1,73.6-0.2,110.3c0,5.3,0,10.6-0.1,16c0,1.3,0,2.6,0,3.9c0,1.6-0.1,3.2-0.1,4.8c0,0.6-0.1,1.3-0.2,1.8
		c0-0.1,0-0.2,0-0.3c0,0.1,0,0.1,0,0.2c-0.4,1.6-0.7,3.3-1.2,4.8c-0.4,1.2-0.8,2.4-1.2,3.6c-0.9,2.6-0.2,0.5,0,0
		c-0.3,0.6-0.5,1.2-0.8,1.6c-0.7,1.3-1.4,2.5-2.1,3.8c-0.4,0.6-0.8,1.1-1.2,1.6c-0.1,0.1-0.2,0.2-0.3,0.3c-1,1-1.9,2-3,3
		c-0.3,0.3-0.6,0.5-0.9,0.8c-0.1,0.1-0.3,0.2-0.5,0.3c-1.1,0.6-2.1,1.2-3.1,1.8c-0.1,0-0.1,0.1-0.2,0.1c-0.7,0.2-1.4,0.5-2.1,0.7
		c-0.5,0.1-2.8,0.5-3.3,0.7c-0.9,0-2.7,0-3.2,0c-0.8,0-1.4-0.1-1.9-0.1c-0.1,0-0.1,0-0.2,0c-1.5-0.4-2.9-0.6-4.5-1.1
		c-1.1-0.3-4.1-2-1.3-0.4c-1-0.6-1.9-1-2.9-1.5c-0.2-0.1-1.4-0.9-2-1.4c-0.6-0.5-1.8-1.6-2.2-1.9c-0.9-0.9-1.6-1.8-2.5-2.7
		c-0.1-0.1-0.1-0.1-0.1-0.1c-0.1-0.2-0.2-0.4-0.4-0.7c-1.3-2-2.5-4.2-3.6-6.3c-0.2-0.3-0.3-0.5-0.4-0.7l0,0
		c-0.4-1.1-0.8-2.2-1.2-3.3c-0.8-2.3-1.4-4.6-1.8-7.1c-0.2-0.9-0.3-1.8-0.5-2.7v-0.1c-0.2-2.1-0.3-4.2-0.3-6.2c0-0.7,0-1.4,0-2
		c0-18.7,0-37.5,0-56.2c0.1-14.9,0.4-29.8,0.5-44.7c0.1-8.8,0.2-17.7,0.3-26.5c0-1.6-0.3-3.3-0.9-4.8c0-3,0-6.1,0-9.1
		c0-5.4,0-10.8,0-16.3C1013.6,90.9,1013.9,89.3,1014,87.5L1014,87.5z"/>
	<path class="st0" d="M1062,265.2C1062.1,264.5,1062.2,263,1062,265.2L1062,265.2z"/>
	<path class="st0" d="M1509.8,449.5c-0.2,0.5,0.3,1.3,0.6,1.6c-0.2-0.5-0.3-1-0.4-1.3C1510,449.7,1509.9,449.6,1509.8,449.5z"/>
	<path class="st0" d="M1546.7,340c-0.9-0.2-2.2-0.4-2.4-0.4c0.1,0,0.1,0,0.1,0C1545.2,339.8,1546,339.8,1546.7,340z"/>
	<path class="st0" d="M1512,469.2c0-0.1,0-0.2,0-0.4c-0.1,0.3-0.1,0.8-0.2,1.5v-0.1C1511.9,469.8,1511.9,469.6,1512,469.2z"/>
	<path class="st0" d="M1358.9,475.8C1358.5,474.4,1358.7,475.1,1358.9,475.8L1358.9,475.8z"/>
	<path class="st0" d="M1485.5,275.4C1485.1,276.3,1485.2,276.1,1485.5,275.4L1485.5,275.4z"/>
	<path class="st0" d="M1472.8,37.7c-0.1,0-0.1,0-0.2,0c0.2,0,0.3,0,0.5,0.1C1473,37.7,1472.9,37.7,1472.8,37.7z"/>
	<path class="st0" d="M1808.8,384.5c0.4,0.5,0.6,0.8,0.6,0.9C1809.2,385,1809,384.7,1808.8,384.5L1808.8,384.5z"/>
	<path class="st0" d="M1766.7,480.1L1766.7,480.1c0.1-0.5-0.1-1.1-0.4-1.4C1766.6,479.2,1766.6,479.7,1766.7,480.1z"/>
	<path class="st0" d="M1765.2,465.1c0.6-1.1,0.6-1.9,0.4-2.1C1765.5,463.7,1765.4,464.5,1765.2,465.1
		C1765.2,465,1765.2,465.1,1765.2,465.1z"/>
	<path class="st0" d="M1821.8,419.3c0,0.3,0.1,0.6,0.1,0.8C1821.9,419.8,1821.8,419.6,1821.8,419.3L1821.8,419.3z"/>
	<path class="st0" d="M1938.1,479c-0.1,0.3-0.3,0.7-0.2,1l0,0C1937.9,479.7,1938,479.4,1938.1,479z"/>
	<path class="st0" d="M1918.4,43c-0.7-0.5-1.4-0.8,0.3,0.3C1918.6,43.2,1918.6,43.2,1918.4,43C1918.5,43.1,1918.4,43,1918.4,43z"/>
	<path class="st0" d="M1991.4,215c-14-12.9-32.8-15.2-50.9-13.4c-7.3-15.3-15.8-30.1-24.4-44.5c-7.2-11.9-14.4-23.8-21-36.1
		c-1.5-2.7-2.8-5.4-4.2-8.2c-0.7-1.5-1.4-2.9-2-4.4l-0.7-1.6c-0.1-0.1-0.1-0.2-0.1-0.3c-0.1-0.1-0.1-0.3-0.2-0.5
		c-2.1-5.2-3.8-10.6-5-16.2c-0.3-1.2-0.5-2.3-0.7-3.5c0-0.4-0.1-0.8-0.1-1.3c-0.3-3.1-0.3-6.2-0.1-9.2c0.1-1.5,0.2-3.1,0.4-4.6
		c0,0.2,0.4-2.4,0.6-3c0.7-3.4,1.6-6.8,2.9-10c0.4-0.8,0.8-1.5,1.2-2.2c0.7-1.3,1.4-2.5,2.2-3.7c0.3-0.5,0.6-0.9,1-1.4
		c0.2-0.2,0.3-0.4,0.5-0.5c1.3-1.3,2.5-2.6,3.9-3.8c0.1-0.1,0.2-0.2,0.3-0.3c0.4-0.3,0.8-0.5,1.2-0.8c1.4-0.9,2.8-1.6,4.4-2.4
		c0.1-0.1,0.4-0.2,0.6-0.3c0.4-0.2,0.9-0.3,1.3-0.5c1.6-0.6,3.4-1,5.1-1.4c1.3-0.3,5.2-0.5,1.3-0.4c1.2,0,2.2-0.2,3.4-0.2
		c0.7,0.1,1.3,0.1,1.9,0.1c0.1,0,0.1,0,0.2,0c0.7,0.2,1.4,0.5,1.8,0.8c0.6,0.4,1.2,0.8,1.8,1.1c0.3,0.2,0.6,0.4,1,0.6l0.1,0.1
		c0.1,0.1,0.2,0.2,0.4,0.3c-0.1,0-0.1-0.1-0.2-0.1l0,0c2.1,1.9,5.7,5.7,6.6,6.8c2.2,2.7,4.1,5.7,5.7,8.9c0,0.2,0.8,1.9,1,2.6
		c0.4,1.5,0.8,2.8,1,4.3c0,0.1,0.2,2,0.2,2.8c0,1.5-0.2,3.1-0.2,4.6c-0.1,0.6-0.2,1.2-0.4,1.7c-0.2,0.8-0.4,1.5-0.6,2.3
		c-0.1,0.2-0.3,1-0.5,1.5c-0.4,0.7-1.1,2.2-1.3,2.5c-0.5,0.9-2.8,3.5-1.5,2.1c-0.7,0.7-1.4,1.5-2.1,2.1c0.1-0.2-1.9,1.3-2.7,1.6
		c-6.9,3.7-9.1,13.3-5.2,19.8c4.1,7,13,8.9,19.8,5.2c15.5-8.3,23.7-25.9,23.5-43c-0.1-18-9.7-35.4-23.3-47c-12.9-10.8-28.1-13-44-8
		c-17.4,5.4-29.9,18.3-36.6,35c-11.8,29.5-2.3,59.6,11.8,86.4c13,24.5,28.6,47.5,41.1,72.2c-9.6,2.9-19,6.4-28.2,9.8
		c-17.3,6.5-34.5,13.6-51.9,19.8c-17.1,6.2-34.8,11.5-52.8,14.5c-0.7,0.1-1.3,0.2-1.9,0.3c0.8-2.9,1.5-5.8,2.5-8.7
		c1.3-4.2,2.7-8.3,4.3-12.4c0.8-2.1,1.6-4.3,2.5-6.4c-0.3,0.6-0.9,1.9,0.3-0.8c0.5-1.2,1-2.3,1.5-3.5c3.6-7.9,7.6-15.8,11.7-23.5
		c7.8-14.4,16.6-28.4,24.9-42.5c14.3-24.3,29.8-51.4,27.7-80.6c-1.3-17-6.8-34.5-19.5-46.6c-12-11.4-30-17.8-46.5-15.1
		C1770,15,1756.1,30,1749,44.1c-7.9,16-8.3,35,0.2,50.9c4,7.3,10,13.3,17.3,17.2c6.9,3.8,15.8,1.7,19.8-5.2
		c3.9-6.6,1.7-16.2-5.2-19.8c-0.6-0.3-2.6-1.7-2.7-1.7c-0.7-0.7-1.4-1.5-2.1-1.9h-0.1c-0.4-0.6-0.8-1.1-1.1-1.6
		c-0.3-0.5-0.6-1-0.9-1.5c-0.4-0.8-1.3-3.8-0.5-0.8c-0.4-1.4-0.9-2.6-1.3-4c-0.3-1.2-0.6-3.6-0.5-2.3c-0.1-1.4-0.2-2.6-0.2-4
		c0-0.8,0.1-1.6,0.1-2.4c0-0.2,0-0.3,0-0.4l0,0c0.4-1.4,0.6-2.8,1-4.3c0.1-0.5,1.1-3,1.2-3.3c1.5-3.2,3.5-6.1,5.7-8.9
		c1.9-2.2,4-4.4,6.1-6.4c0.1-0.1,0.5-0.4,0.8-0.7c0.2-0.2,0.4-0.3,0.5-0.3c0.7-0.4,1.3-0.7,1.8-1.1l0.1-0.1c1.1-0.2,2.1-0.6,3.2-0.9
		c0.2,0,0.4,0,0.7,0c1.4,0,2.6,0.1,3.9,0.2c-3.4-0.2-0.3,0,1.3,0.4c1.5,0.4,3,0.8,4.5,1.2c0.8,0.2,1.5,0.5,2.2,0.8
		c0.1,0,0.2,0.1,0.3,0.1c1.3,0.7,2.6,1.4,3.8,2.1c0.7,0.5,1.4,0.9,2,1.4l0,0c0.1,0.1,0.2,0.2,0.4,0.4c1,1,2,1.9,3,3
		c0.1,0.1,0.6,0.6,0.9,1c0.3,0.3,0.5,0.7,0.6,0.9c0.8,1.2,1.5,2.4,2.2,3.7c0.4,0.8,0.8,1.5,1.2,2.2c0.1,0.2,0.2,0.3,0.3,0.5v0.1
		c1.2,3,2.1,6.2,2.8,9.3c0.1,0.5,0.6,3.6,0.7,3.7c0.2,1.5,0.3,3.1,0.4,4.6c0.2,3.1,0.1,6.2-0.1,9.2c0,0.4-0.1,0.7-0.1,1.1
		c-0.3,1.4-0.5,2.8-0.8,4.2c-1.3,5.6-3.3,10.7-5.1,16.2c0,0,0,0,0,0.1c-0.2,0.4-0.4,0.9-0.6,1.3c-0.7,1.5-1.4,2.9-2,4.4
		c-1.5,3-2.9,5.9-4.5,8.8c-3.3,6.2-6.8,12.2-10.3,18.2c-11.9,20.1-24.1,40.1-34.3,61.1c-4.8-4-10.5-7-16.6-8.3
		c-18.2-4.1-38.6,5.4-47.2,22.2c-8.8,17.3-5.1,38.9,8.4,52.9c9.2,9.5,21.7,13.7,34.6,15.2c0.5,10.7,2.6,21.4,6.8,31.8
		c10.6,25.8,30.4,44.9,50.7,63.2c2.4,2.2,4.6,4.6,6.8,7c0,0,0.1,0.1,0.1,0.2c0,0,0-0.1-0.1-0.1c0,0,0,0.1,0.1,0.1
		c0.3,0.4,0.8,1.2,0.6,0.9c0.1,0.2,0.3,0.4,0.4,0.6c1.1,1.5,2,3.2,3,4.8c0.8,1.5,1.5,2.9,2.3,4.5c0.3,0.6,0.5,1.2,0.8,1.6
		c0,0.1,0.1,0.1,0.1,0.2c1.2,2.9,2.1,5.9,3,8.9c0.8,2.8,1.5,5.7,2,8.6c0.3,1.5,0.5,3,0.8,4.5c0,0.1,0,0.2,0,0.3
		c0-0.3-0.1-0.5-0.1-0.9c0,0.3,0.1,0.6,0.1,0.9c0.1,0.7,0.2,1.5,0.1,0.7c0,0.2,0,0.4,0.1,0.5c0.6,5.1,0.9,10.2,0.9,15.3
		c0,3.4-0.1,6.9-0.3,10.3c-0.1,0.9-0.1,1.8-0.2,2.7c-0.1,0.7-0.1,1.3-0.2,1.8c0,0.1,0,0.2-0.1,0.3c-0.3,1.6-0.7,3.3-1.1,4.8
		c-0.4,1.5-1,3.3-1.5,4.9c-0.3,0.8-0.6,1.6-0.9,2.4c1.1-3.2-0.8-6.7-4-7.6c-3.2-1.1-6.7,0.8-7.6,4c-1.1,3.2,0.8,6.7,4,7.6
		c2.9,0.9,5.9-0.4,7.3-3c-0.2,0.5-0.4,1-0.5,1.1c-0.4,0.8-0.8,1.5-1.2,2.4c-1,1.7-1.9,3.5-3,5.2c-0.9,1.4-1.7,2.6-2.6,3.9
		c-0.1,0.1-0.1,0.2-0.2,0.3c-0.4,0.5-0.8,1-1.3,1.5c-1.2,1.4-2.3,2.6-3.6,3.8c-0.7,0.6-1.3,1.2-1.8,1.7c-0.1,0.1-0.6,0.5-1.1,0.9
		c1.5-1.5,1.6-4.1,0.3-5.8c-1.5-1.9-4.3-2.2-6.2-0.7c-1.9,1.5-2.2,4.3-0.7,6.2c1.4,1.7,3.8,2.1,5.6,1.1c-0.7,0.5-1.4,1-2.1,1.4
		c-1.2,0.7-2.3,1.4-3.6,1.9c1-0.5-1.5,0.6-2.3,0.9c-0.8,0.2-1.5,0.4-2.3,0.6c-0.3,0.1-0.5,0.1-0.7,0.2c-1.6,0.1-3.2,0.1-4.8,0.1
		c-0.8,0-1.6-0.1-2.4-0.2c-0.5,0-0.7,0-0.8,0c-1.5-0.2-3-0.6-4.5-1c-0.8-0.2-1.6-0.5-2.4-0.8c-0.1,0-0.3-0.1-0.4-0.1
		c-1.3-0.8-2.5-1.4-3.8-2.1c-0.2-0.1-0.4-0.2-0.6-0.3l-0.1-0.1c-0.8-0.9-1.7-1.8-2.6-2.6c-0.1-0.1-0.2-0.2-0.3-0.2
		c-0.2-0.3-0.3-0.5-0.3-0.6c-0.5-0.8-1-1.6-1.5-2.4c0,0,0-0.1-0.1-0.1c0,0.1,0,0.1,0,0.2c0-0.1,0-0.2,0-0.3
		c-0.2-0.4-0.4-0.9-0.6-1.2c-0.5-0.9-0.1-0.8,0.2-0.2c-0.4-1-0.9-2-1.1-2.6c-0.1-0.3-0.1-0.5-0.1-0.8c-0.1-1.5-0.2-3.1-0.2-4.6
		c0-1.7,0.1-3.7,0.2-5.5v-0.1c0,0,0,0.1-0.1,0.1c0,0,0-0.1,0.1-0.1c0-0.5,0.1-1,0.1-1.4c0-0.6,0.2-0.8,0.3-0.7c0-0.4,0.1-0.7,0.1-1
		c0.5-2.1,1.3-4.2,1.8-6.3c0.6-1.1,1.2-2.2,1.7-3.3c0.2-0.3,0.8-1.1,1.1-1.5c0.4-0.5,0.9-1,1.1-1.1c0.4-0.3,0.7-0.6,0.9-0.9
		c0.7-0.4,1.5-0.9,2-1.1c0.2-0.1,0.5-0.2,0.7-0.3c0.9-0.2,1.6-0.4,2.5-0.6c-0.3,0.1,1.7-0.2,2.9-0.2c1.5,0,3.2,0.1,4.7,0.2
		c7.6,0.7,14.8-7.2,14.5-14.5c-0.4-8.4-6.4-13.7-14.5-14.5l0.1-0.1c-15.5-1.5-29.8,4.5-39.1,16.9c-6.8,9.1-9.4,20.8-10.1,31.9
		c-1.4,24.3,13.5,46.4,38.1,51.2c19.1,3.8,36-0.8,50.4-13.7c12.3-11,21.5-27.2,25.1-43.4c4.8-21.6,2.8-47.3-4.4-68.1
		c-5.5-16-14.3-28.5-26.8-39.7c-5.4-4.9-10.8-9.9-16-15.1c-2.3-2.3-4.6-4.7-6.8-7.2c-1.1-1.3-2.1-2.4-3.2-3.7
		c-0.5-0.6-2.9-3.7-2.8-3.5c-3.9-5.2-7.3-10.7-10.2-16.6c-0.4-0.9-0.8-1.7-1.2-2.6l0,0c-0.5-1.5-1.2-3-1.6-4.6
		c-1.2-3.6-2.1-7.2-2.8-10.9c-0.2-1.1-0.4-2.1-0.6-3.2c0.1,0.6,0.3,2.8,0,0c-0.1-1.4-0.2-2.7-0.3-4.1c33.9-3.8,65.8-16.1,97.5-28.4
		c17.2-6.7,34.5-13.4,52.3-18.5c1.1,2.8,2,5.7,2.9,8.6c0.3,1,0.6,2,0.9,3c0,1,0.1,2,0.4,3c0.7,3.4,1.6,6.8,2.9,10.1
		c0.2,1.2,0.5,2.4,0.7,3.6c0.1,0.4,0.4,2.6,0.4,2.3c0.1,1,0.2,1.9,0.3,2.9c0.4,4,0.5,8,0.3,12.1c-0.1,1.7-0.2,3.6-0.4,5.3
		c0,0.6-0.4,2.9,0,0c-0.2,1.3-0.4,2.5-0.7,3.8c-0.7,3.3-1.5,6.5-2.5,9.7c-0.5,1.5-1.1,3.1-1.6,4.6c0,0.1-0.1,0.2-0.1,0.3
		c-0.4,1-0.9,1.9-1.4,2.9c-2.9,5.9-6.3,11.4-10.2,16.7c0.5-0.7-2,2.6-2.4,3c-1.1,1.3-2.1,2.5-3.2,3.7c-2.4,2.8-5,5.4-7.6,8.1
		c-10.8,10.9-23.5,20.1-32.2,33.1c-14.2,21.2-17.9,48.9-16.5,73.9c1.7,29.8,19.5,63,49.8,72.1c26.7,8,60.8-7.7,65.1-36.9
		c3.4-23.4-4-51-27.9-60.3c-6.5-2.4-13.6-3.3-20.4-2.5c-7.6,0.7-14.9,6.2-14.5,14.5c0.3,7.3,6.4,15.3,14.5,14.5l0,0
		c1.6-0.2,3.2-0.3,4.7-0.2c0.4,0,1.7,0.1,2.5,0.1c0.8,0.2,2,0.4,2.3,0.5c0.5,0.1,0.8,0.3,1.2,0.4c0,0,0,0,0.1,0.1
		c0.8,0.6,1.5,1.1,2.4,1.5c0.1,0.1,0.2,0.1,0.2,0.2c0.2,0.2,1.1,1.1,1.6,1.6c0.3,0.5,0.7,1,1,1.5c0.5,0.8,1,1.6,1.4,2.5
		c0.1,0.1,0.1,0.2,0.1,0.3c0,0,0,0,0,0.1c0.6,2.1,1.4,4.2,1.8,6.3c0,0.2,0.2,1,0.4,1.6c0,0.3,0,0.6,0.1,1.2c0.2,1.9,0.3,3.9,0.3,5.8
		c0,1.5-0.1,3-0.2,4.6c-0.1,0.3-0.1,0.6-0.2,0.9c-0.2,0.6-0.9,2.1-1.3,3.2c0.4-0.8,1-1.3-0.1,0.8c0,0.1-0.1,0.1-0.1,0.2
		c0,0.1,0,0.2,0,0.2c0-0.1,0-0.1,0-0.2c-0.6,1-1.1,1.9-1.6,2.9c0,0.1-0.1,0.1-0.1,0.2c-0.9,0.8-1.7,1.6-2.5,2.5
		c-0.1,0.1-0.2,0.2-0.3,0.3c-0.1,0-0.1,0.1-0.2,0.1c-1.3,0.8-2.7,1.5-4.1,2.2c-0.8,0.2-1.5,0.5-2.3,0.8c-1.5,0.5-3,0.8-4.6,1.1
		c-2.8,0.6-1.2,0.2-0.6,0.1c-1.1,0.1-2.1,0.2-3.2,0.2c-1.7,0.1-3.5,0-5.2-0.1c3.3,0-0.8-0.3-2-0.6s-4.7-2.1-2.1-0.7
		c-1.3-0.7-2.5-1.3-3.8-2c-0.6-0.4-4.1-2.9-3.1-2.1c-2.3-1.9-4.6-4.1-6.5-6.4c-0.4-0.5-2.2-2.8-1.9-2.3c-1-1.5-2-2.9-2.9-4.4
		c-1.6-2.6-3.1-5.3-4.4-8.1c0.3,0.7-1.1-2.8-1.3-3.3c-0.6-1.6-1.1-3.3-1.5-4.9c-0.4-1.6-0.7-3.2-1.1-4.8c0-0.1,0-0.1,0-0.2
		c0-0.4-0.1-0.9-0.1-1.3c-0.1-1.2-0.2-2.3-0.2-3.6c-0.5-8.4-0.3-16.9,0.6-25.4c0-0.4,0.1-0.9,0.2-1.3c0-0.1,0-0.2,0-0.3
		c0.2-1.3,0.4-2.6,0.7-3.9c0.6-3.1,1.3-6.1,2.1-9.1c0.9-3,1.8-5.8,2.9-8.6c1-2.6,0.2-0.5,0,0.1c0.4-0.8,0.7-1.5,1.1-2.2
		c0.7-1.5,1.5-3,2.3-4.5c0.8-1.5,1.7-2.9,2.6-4.3c0.5-0.7,1-1.4,1.5-2l0.1-0.1c2.2-2.6,4.6-5.1,7.3-7.5c4.8-4.4,9.7-8.7,14.4-13.3
		c9.9-9.5,19.1-19.8,26.4-31.3c8.9-13.7,13.8-28.9,15.5-44.3c1.1,0.2,2.1,0.4,3.3,0.5c18.1,1.6,38.1-11.1,42.6-29
		C2009.7,243.6,2003.2,225.9,1991.4,215z M1913.1,40.4c-0.6,0-1.2,0-1.1,0C1912.4,40.3,1912.7,40.3,1913.1,40.4z M1900.5,43
		C1901.1,42.7,1901.7,42.5,1900.5,43L1900.5,43z M1900.5,43c-0.1,0.1-0.3,0.1-0.5,0.2C1900.2,43.1,1900.4,43,1900.5,43z
		 M1790.7,40.8L1790.7,40.8L1790.7,40.8z M1804.2,43C1803.6,42.7,1803,42.3,1804.2,43L1804.2,43z M1772.1,449.1
		c-0.4,0.4-0.8,0.7-0.8,0.6C1771.3,449.7,1771.6,449.4,1772.1,449.1z M1769.4,484.5c-0.2,0-0.6-0.6-0.8-1.1
		C1769,483.9,1769.6,484.5,1769.4,484.5z M1790.9,490.6C1790.2,490.8,1790,490.7,1790.9,490.6L1790.9,490.6z M1736.7,251
		c-0.1-0.1-2.5-1.4-2.5-1.4c-0.7-0.4-1.4-0.8-2-1.3c0-0.1-1.1-1-1.5-1.4c-0.5-0.5-1-1-1.5-1.5c1.6,1.7-0.9-1.3-1.1-1.5
		c-0.5-0.8-0.9-1.6-1.4-2.4c-0.1-0.3-0.3-0.5-0.3-0.6c0,0,0-0.1-0.1-0.5c-0.3-0.9-0.6-1.7-0.8-2.7c-0.2-0.7-0.3-1.8-0.3-1.8
		c0-0.7-0.1-1.3-0.1-1.9c0-0.2,0.1-1.4,0.2-2.1c0.4-0.8,1.3-3.8,0.9-3.2c0.3-0.6,0.7-1.2,1-1.7c0.1-0.3,0.2-0.5,0.3-0.7
		c0,0,0.1-0.1,0.2-0.2c0.6-0.7,1.2-1.4,1.8-1.9c0.4-0.4,1.4-1.2,1.4-1.3c0.5-0.3,1.1-0.7,1.5-1c0.3-0.2,3.5-1.5,1.8-1
		c1.2-0.4,2.3-0.8,3.6-1c0.3,0,1.1-0.1,1.3-0.1c0.4,0,2.8,0.4,2.4,0.3c0.5,0.1,1.1,0.3,1.6,0.4c0.2,0.1,0.4,0.1,0.5,0.1
		c0,0,0.1,0.1,0.3,0.3c0.6,0.4,1.2,0.7,1.7,1.1c0.3,0.2,0.6,0.3,0.7,0.4c0.1,0.2,0.3,0.4,0.6,0.7c0.5,0.5,1,1,1.5,1.5
		c0.2,0.3,0.7,0.9,0.9,1.3c0.1,0.2,0.4,0.8,0.7,1.2c0.2,0.7,0.8,2,0.8,2c0.1,0.2,0.2,0.7,0.3,1.1c0,1,0,2,0,3c0,0.5,0,1.1,0,1.5
		c-1.8,6.1-3.5,12.2-4.6,18.5c-0.8-0.1-1.5-0.2-2.3-0.4c-1.7-0.4-3.5-0.8-5.1-1.3C1738.2,251.6,1737.4,251.3,1736.7,251z
		 M1934.9,451.6c0.2,0.2,0.3,0.4,0.3,0.4S1935.1,451.7,1934.9,451.6z M1935.3,484.2L1935.3,484.2
		C1935.2,484.4,1935.2,484.3,1935.3,484.2z M1882.3,450.7C1882.2,449.9,1882.2,448.5,1882.3,450.7L1882.3,450.7z M1896,384.4
		C1895.6,384.8,1894.4,386.3,1896,384.4L1896,384.4z M1960.5,256.6C1960.6,256.8,1960.7,256.9,1960.5,256.6L1960.5,256.6z
		 M1962.3,258.5C1961.5,258,1961.9,258.2,1962.3,258.5L1962.3,258.5z M1977.4,252.7c0,0.1,0,0.2,0,0.2c-0.3,0.4-0.5,0.8-0.7,1.3
		c-0.1,0.1-0.4,0.4-0.8,0.9c-0.1,0.1-0.5,0.5-0.8,0.8c-0.8,0.6-1.5,1.1-2.4,1.5c-0.2,0.1-1.4,0.7-1.8,1c-0.7,0.2-2,0.8-2.3,0.8
		c-0.7,0.2-1.4,0.4-2,0.5c-0.2-0.1-1.7,0-2,0c-0.1,0-0.2-0.1-0.4-0.1c-0.3-0.1-0.4-0.1-0.5-0.1c-0.1-0.1-0.3-0.2-0.6-0.3
		c-0.2-0.1-0.4-0.2-0.5-0.3c-0.9-0.8-1.6-1.5-2.3-2.4c-0.1-0.2-0.2-0.4-0.3-0.7c-0.5-1.1-1.2-2-1.6-3c-0.1-0.2-0.2-0.3-0.2-0.5
		c-0.5-2.6-1.1-5.2-1.7-7.7c-1.3-4.8-2.7-9.7-4.4-14.4c1,0,1.8,0,2.8,0.1c1.5,0,2.9,0.2,4.3,0.5c3.5,0.7,6.9,1.9,10,3.7
		c0.2,0.1,0.3,0.2,0.5,0.3c-0.2-0.1,1.5,1.2,1.8,1.5c0.6,0.6,1.1,1.2,1.7,1.7c0.2,0.2,0.3,0.3,0.4,0.4l0,0c1.1,1.5,1.9,3.1,2.8,4.6
		c0.1,0.1,0.1,0.2,0.2,0.3c0.3,0.8,0.6,1.5,0.8,2.3c0.1,0.8,0.3,1.5,0.6,2.3c0,0.1,0,0.1,0.1,0.1l0,0c0,0.8,0.1,1.5,0.1,2.2
		c0,0.4-0.1,0.8-0.1,1.1c0.1-0.2,0.1-0.3,0.2-0.5C1977.7,251.2,1977.5,251.9,1977.4,252.7z"/>
	<path class="st0" d="M1977.7,251C1977.2,252.4,1977.5,251.9,1977.7,251L1977.7,251z"/>
</g>
</svg>
