<?xml version="1.0" encoding="utf-8"?>
<!-- Generator: Adobe Illustrator 23.0.3, SVG Export Plug-In . SVG Version: 6.00 Build 0)  -->
<svg version="1.1" id="Layer_1" xmlns="http://www.w3.org/2000/svg" xmlns:xlink="http://www.w3.org/1999/xlink" x="0px" y="0px"
	 viewBox="0 0 219.6 438.8" style="enable-background:new 0 0 219.6 438.8;" xml:space="preserve">
<style type="text/css">
	.st0{fill:none;stroke:#000000;stroke-miterlimit:10;}
	.st1{fill:#FFFFFF;stroke:#000000;stroke-miterlimit:10;}
</style>
<g>
	<line class="st0" x1="110" y1="114.4" x2="110" y2="438.8"/>
	<g>
		
			<ellipse transform="matrix(0.9224 -0.3862 0.3862 0.9224 -9.5994 34.5047)" class="st1" cx="81.1" cy="41.1" rx="12.4" ry="43.4"/>
		
			<ellipse transform="matrix(0.9224 -0.3862 0.3862 0.9224 -58.1799 67.3701)" class="st1" cx="138.6" cy="178.5" rx="12.4" ry="43.4"/>
	</g>
	<g>
		
			<ellipse transform="matrix(0.9224 -0.3862 0.3862 0.9224 -17.4569 75.2276)" class="st1" cx="178.5" cy="81.1" rx="43.4" ry="12.4"/>
		
			<ellipse transform="matrix(0.9224 -0.3862 0.3862 0.9224 -50.3223 26.6472)" class="st1" cx="41.2" cy="138.6" rx="43.4" ry="12.4"/>
	</g>
	<g>
		
			<ellipse transform="matrix(0.3791 -0.9253 0.9253 0.3791 47.8141 153.1541)" class="st1" cx="138" cy="40.9" rx="43.4" ry="12.4"/>
		
			<ellipse transform="matrix(0.3791 -0.9253 0.9253 0.3791 -114.6828 186.4364)" class="st1" cx="81.6" cy="178.7" rx="43.4" ry="12.4"/>
	</g>
	<g>
		
			<ellipse transform="matrix(0.3791 -0.9253 0.9253 0.3791 -50.0754 88.5467)" class="st1" cx="40.9" cy="81.6" rx="12.4" ry="43.4"/>
		
			<ellipse transform="matrix(0.3791 -0.9253 0.9253 0.3791 -16.7932 251.0437)" class="st1" cx="178.7" cy="138" rx="12.4" ry="43.4"/>
	</g>
	<circle class="st1" cx="109.8" cy="109.8" r="55.8"/>
</g>
</svg>
