<?xml version="1.0" encoding="utf-8"?>
<!-- Generator: Adobe Illustrator 23.0.3, SVG Export Plug-In . SVG Version: 6.00 Build 0)  -->
<svg version="1.1" id="Layer_1" xmlns="http://www.w3.org/2000/svg" xmlns:xlink="http://www.w3.org/1999/xlink" x="0px" y="0px"
	 viewBox="0 0 1103.5 462" style="enable-background:new 0 0 1103.5 462;" xml:space="preserve">
<style type="text/css">
	.st0{fill:#FFFFFF;stroke:#000000;stroke-miterlimit:10;}
	.st1{fill:#FFFFFF;}
	.st2{fill:none;stroke:#000000;stroke-width:2;stroke-linecap:round;stroke-linejoin:round;stroke-miterlimit:10;}
</style>
<line class="st0" x1="163" y1="298.8" x2="163" y2="461.8"/>
<line class="st0" x1="940" y1="299.3" x2="940" y2="462.3"/>
<line class="st0" x1="552" y1="172.3" x2="552" y2="460.8"/>
<g>
	<g>
		<g>
			
				<ellipse transform="matrix(0.9224 -0.3862 0.3862 0.9224 -66.4134 61.8048)" class="st0" cx="120.6" cy="196.2" rx="18.5" ry="64.7"/>
			
				<ellipse transform="matrix(0.9224 -0.3862 0.3862 0.9224 -138.8092 110.784)" class="st0" cx="206.3" cy="400.8" rx="18.5" ry="64.7"/>
		</g>
		<g>
			
				<ellipse transform="matrix(0.9224 -0.3862 0.3862 0.9224 -78.1217 122.4923)" class="st0" cx="265.8" cy="255.7" rx="64.7" ry="18.5"/>
			
				<ellipse transform="matrix(0.9224 -0.3862 0.3862 0.9224 -127.1009 50.0965)" class="st0" cx="61.1" cy="341.4" rx="64.7" ry="18.5"/>
		</g>
		<g>
			
				<ellipse transform="matrix(0.3791 -0.9253 0.9253 0.3791 -53.6387 311.772)" class="st0" cx="205.5" cy="195.9" rx="64.7" ry="18.5"/>
			
				<ellipse transform="matrix(0.3791 -0.9253 0.9253 0.3791 -295.85 361.4036)" class="st0" cx="121.4" cy="401.2" rx="64.7" ry="18.5"/>
		</g>
		<g>
			
				<ellipse transform="matrix(0.3791 -0.9253 0.9253 0.3791 -199.5602 215.4822)" class="st0" cx="60.8" cy="256.5" rx="18.5" ry="64.7"/>
			
				<ellipse transform="matrix(0.3791 -0.9253 0.9253 0.3791 -149.9286 457.6934)" class="st0" cx="266.1" cy="340.6" rx="18.5" ry="64.7"/>
		</g>
		<circle class="st0" cx="163.5" cy="298.5" r="83.2"/>
	</g>
	<g>
		<g>
			
				<ellipse transform="matrix(0.9224 -0.3862 0.3862 0.9224 15.1083 201.4464)" class="st0" cx="508.9" cy="63.1" rx="18.5" ry="64.7"/>
			
				<ellipse transform="matrix(0.9224 -0.3862 0.3862 0.9224 -57.2874 250.4256)" class="st0" cx="594.6" cy="267.8" rx="18.5" ry="64.7"/>
		</g>
		<g>
			
				<ellipse transform="matrix(0.9224 -0.3862 0.3862 0.9224 3.4 262.1339)" class="st0" cx="654.1" cy="122.6" rx="64.7" ry="18.5"/>
			
				<ellipse transform="matrix(0.9224 -0.3862 0.3862 0.9224 -45.5791 189.7381)" class="st0" cx="449.4" cy="208.3" rx="64.7" ry="18.5"/>
		</g>
		<g>
			
				<ellipse transform="matrix(0.3791 -0.9253 0.9253 0.3791 310.5608 588.4543)" class="st0" cx="593.8" cy="62.8" rx="64.7" ry="18.5"/>
			
				<ellipse transform="matrix(0.3791 -0.9253 0.9253 0.3791 68.3496 638.0858)" class="st0" cx="509.7" cy="268.1" rx="64.7" ry="18.5"/>
		</g>
		<g>
			
				<ellipse transform="matrix(0.3791 -0.9253 0.9253 0.3791 164.6394 492.1644)" class="st0" cx="449.1" cy="123.4" rx="18.5" ry="64.7"/>
			
				<ellipse transform="matrix(0.3791 -0.9253 0.9253 0.3791 214.271 734.3757)" class="st0" cx="654.4" cy="207.5" rx="18.5" ry="64.7"/>
		</g>
		<circle class="st0" cx="551.7" cy="165.5" r="83.2"/>
	</g>
	<g>
		<g>
			
				<ellipse transform="matrix(0.9224 -0.3862 0.3862 0.9224 -6.1537 361.7383)" class="st0" cx="897.2" cy="196.2" rx="18.5" ry="64.7"/>
			
				<ellipse transform="matrix(0.9224 -0.3862 0.3862 0.9224 -78.5495 410.7174)" class="st0" cx="982.9" cy="400.8" rx="18.5" ry="64.7"/>
		</g>
		<g>
			
				<ellipse transform="matrix(0.9224 -0.3862 0.3862 0.9224 -17.8621 422.4258)" class="st0" cx="1042.3" cy="255.7" rx="64.7" ry="18.5"/>
			
				<ellipse transform="matrix(0.9224 -0.3862 0.3862 0.9224 -66.8412 350.03)" class="st0" cx="837.7" cy="341.4" rx="64.7" ry="18.5"/>
		</g>
		<g>
			
				<ellipse transform="matrix(0.3791 -0.9253 0.9253 0.3791 428.5074 1030.3627)" class="st0" cx="982.1" cy="195.9" rx="64.7" ry="18.5"/>
			
				<ellipse transform="matrix(0.3791 -0.9253 0.9253 0.3791 186.2962 1079.9941)" class="st0" cx="898" cy="401.2" rx="64.7" ry="18.5"/>
		</g>
		<g>
			
				<ellipse transform="matrix(0.3791 -0.9253 0.9253 0.3791 282.586 934.0728)" class="st0" cx="837.4" cy="256.5" rx="18.5" ry="64.7"/>
			
				<ellipse transform="matrix(0.3791 -0.9253 0.9253 0.3791 332.2176 1176.2841)" class="st0" cx="1042.7" cy="340.6" rx="18.5" ry="64.7"/>
		</g>
		<circle class="st0" cx="940" cy="298.5" r="83.2"/>
	</g>
</g>
</svg>
