<?xml version="1.0" encoding="utf-8"?>
<!-- Generator: Adobe Illustrator 23.0.3, SVG Export Plug-In . SVG Version: 6.00 Build 0)  -->
<svg version="1.1" xmlns="http://www.w3.org/2000/svg" xmlns:xlink="http://www.w3.org/1999/xlink" x="0px" y="0px"
	 viewBox="0 0 707.5 621.5" style="enable-background:new 0 0 707.5 621.5;" xml:space="preserve">
<style type="text/css">
	.st0{fill:#FFFFFF;stroke:#000000;stroke-miterlimit:10;}
	.st1{fill:url(#);}
	.st2{fill:none;stroke:#000000;stroke-miterlimit:10;}
	.st3{fill:#231F20;}
	.st4{fill:#FFFFFF;}
	.st5{fill:none;stroke:#231F20;stroke-linejoin:round;stroke-miterlimit:10;}
</style>
<g id="house_etc">
	<g>
		<g>
			<rect x="0.5" y="0.5" class="st0" width="353.1" height="620.5"/>
			<rect x="14.4" y="18" class="st0" width="325.3" height="583.6"/>
			<line class="st0" x1="339.7" y1="601.6" x2="353.6" y2="621"/>
			<line class="st0" x1="0.5" y1="0.5" x2="14.4" y2="18"/>
			<line class="st0" x1="14.4" y1="601.6" x2="0.5" y2="621"/>
			<line class="st0" x1="339.7" y1="18" x2="353.6" y2="0.5"/>
			<polygon class="st0" points="90.2,324.8 273.1,324.8 297.1,363.8 297.1,504.2 274.3,542.2 91.7,542.2 67.7,500.8 67.7,360.7 			
				"/>
			<polygon class="st0" points="101.2,337.8 262.3,337.8 283.4,372.1 283.4,495.8 263.4,529.3 102.5,529.3 81.3,492.8 81.3,369.3 
							"/>
			<polygon class="st0" points="90.2,50.9 273.1,50.9 297.1,89.9 297.1,230.3 274.3,268.3 91.7,268.3 67.7,226.9 67.7,86.8 			"/>
			<polygon class="st0" points="101.2,63.8 262.3,63.8 283.4,98.2 283.4,221.9 263.4,255.4 102.5,255.4 81.3,218.9 81.3,95.4 			"/>
			<circle class="st0" cx="311.1" cy="295.5" r="18.4"/>
		</g>
		<g>
			<rect x="353.9" y="0.5" class="st0" width="353.1" height="620.5"/>
			<rect x="367.8" y="17.9" class="st0" width="325.3" height="583.6"/>
			<line class="st0" x1="353.9" y1="0.5" x2="367.8" y2="18"/>
			<line class="st0" x1="367.8" y1="601.6" x2="353.9" y2="621"/>
			<line class="st0" x1="693.1" y1="601.6" x2="707" y2="621"/>
			<line class="st0" x1="693.1" y1="18" x2="707" y2="0.5"/>
			<polygon class="st0" points="438.3,324.8 621.1,324.8 645.1,363.8 645.1,504.2 622.4,542.2 439.8,542.2 415.8,500.8 415.8,360.7 
							"/>
			<polygon class="st0" points="449.2,337.8 610.4,337.8 631.5,372.1 631.5,495.8 611.5,529.3 450.5,529.3 429.4,492.8 429.4,369.3 
							"/>
			<polygon class="st0" points="438.3,50.9 621.1,50.9 645.1,89.9 645.1,230.3 622.4,268.3 439.8,268.3 415.8,226.9 415.8,86.8 			
				"/>
			<polygon class="st0" points="449.2,63.8 610.4,63.8 631.5,98.2 631.5,221.9 611.5,255.4 450.5,255.4 429.4,218.9 429.4,95.4 			
				"/>
			<circle class="st0" cx="397.4" cy="295.5" r="18.4"/>
			<g>
				<circle class="st0" cx="534.5" cy="93.7" r="10.2"/>
				<line class="st0" x1="525.3" y1="98.3" x2="459" y2="145.6"/>
				<line class="st0" x1="543.9" y1="97.7" x2="610" y2="145.6"/>
				<rect x="459" y="145.6" class="st0" width="151" height="90.1"/>
				<g>
					<path class="st0" d="M595.2,163.5c-5.3,4.1-10.2,4.1-15.5,0c-5.3-4.1-10.2-4.1-15.5,0c-5.3,4.1-10.2,4.1-15.5,0
						c-5.3-4.1-10.2-4.1-15.5,0c-5.3,4.1-10.2,4.1-15.5,0c-5.3-4.1-10.2-4.1-15.5,0c-5.3,4.1-10.2,4.1-15.5,0
						c-5.3-4.1-10.2-4.1-15.5,0"/>
				</g>
				<g>
					<path class="st0" d="M595.2,178.2c-5.3,4.1-10.2,4.1-15.5,0c-5.3-4.1-10.2-4.1-15.5,0c-5.3,4.1-10.2,4.1-15.5,0
						c-5.3-4.1-10.2-4.1-15.5,0c-5.3,4.1-10.2,4.1-15.5,0c-5.3-4.1-10.2-4.1-15.5,0c-5.3,4.1-10.2,4.1-15.5,0
						c-5.3-4.1-10.2-4.1-15.5,0"/>
				</g>
				<g>
					<path class="st0" d="M595.2,193c-5.3,4.1-10.2,4.1-15.5,0c-5.3-4.1-10.2-4.1-15.5,0c-5.3,4.1-10.2,4.1-15.5,0
						c-5.3-4.1-10.2-4.1-15.5,0c-5.3,4.1-10.2,4.1-15.5,0c-5.3-4.1-10.2-4.1-15.5,0c-5.3,4.1-10.2,4.1-15.5,0
						c-5.3-4.1-10.2-4.1-15.5,0"/>
				</g>
				<g>
					<path class="st0" d="M595.2,207.7c-5.3,4.1-10.2,4.1-15.5,0c-5.3-4.1-10.2-4.1-15.5,0c-5.3,4.1-10.2,4.1-15.5,0
						c-5.3-4.1-10.2-4.1-15.5,0c-5.3,4.1-10.2,4.1-15.5,0c-5.3-4.1-10.2-4.1-15.5,0c-5.3,4.1-10.2,4.1-15.5,0
						c-5.3-4.1-10.2-4.1-15.5,0"/>
				</g>
				<g>
					<path class="st0" d="M595.2,222.5c-5.3,4.1-10.2,4.1-15.5,0c-5.3-4.1-10.2-4.1-15.5,0c-5.3,4.1-10.2,4.1-15.5,0
						c-5.3-4.1-10.2-4.1-15.5,0c-5.3,4.1-10.2,4.1-15.5,0c-5.3-4.1-10.2-4.1-15.5,0c-5.3,4.1-10.2,4.1-15.5,0
						c-5.3-4.1-10.2-4.1-15.5,0"/>
				</g>
			</g>
		</g>
	</g>
</g>
<g id="logo">
</g>
</svg>
