<?xml version="1.0" encoding="utf-8"?>
<!-- Generator: Adobe Illustrator 23.0.3, SVG Export Plug-In . SVG Version: 6.00 Build 0)  -->
<svg version="1.1" id="Layer_1" xmlns="http://www.w3.org/2000/svg" xmlns:xlink="http://www.w3.org/1999/xlink" x="0px" y="0px"
	 viewBox="0 0 1446.8 133.5" style="enable-background:new 0 0 1446.8 133.5;" xml:space="preserve" preserveAspectRatio="none">
<style type="text/css">
	.st0{fill:#FFFFFF;}
	.st1{fill:none;stroke:#000000;stroke-miterlimit:10;}
	.st2{fill:#FFFFFF;stroke:#000000;stroke-miterlimit:10;}
</style>
<rect x="0.7" y="1" class="st0" width="1446.1" height="132.5"/>
<g id="house_etc">
	<g>
		<line class="st1" x1="1440.7" y1="1" x2="0.7" y2="1"/>
		<g>
			<line class="st1" x1="2.7" y1="1" x2="266.9" y2="133.1"/>
			<line class="st1" x1="170.3" y1="1" x2="434.5" y2="133.1"/>
			<line class="st1" x1="337.9" y1="1" x2="602" y2="133.1"/>
			<line class="st1" x1="170.3" y1="1" x2="434.5" y2="133.1"/>
			<line class="st1" x1="2.7" y1="1" x2="266.9" y2="133.1"/>
			<line class="st1" x1="0.2" y1="83.5" x2="99.3" y2="133.1"/>
			<line class="st1" x1="505.4" y1="1" x2="769.6" y2="133.1"/>
			<line class="st1" x1="673" y1="1" x2="937.2" y2="133.1"/>
			<line class="st1" x1="840.6" y1="1" x2="1104.7" y2="133.1"/>
			<line class="st1" x1="1008.2" y1="1" x2="1272.3" y2="133.1"/>
			<line class="st1" x1="1175.7" y1="1" x2="1439.9" y2="133.1"/>
			<line class="st1" x1="1343.3" y1="1" x2="1446.8" y2="52.8"/>
			<line class="st1" x1="1175.7" y1="1" x2="1439.9" y2="133.1"/>
		</g>
		<g>
			<line class="st1" x1="1444" y1="1" x2="1179.9" y2="133.1"/>
			<line class="st1" x1="1276.5" y1="1" x2="1012.3" y2="133.1"/>
			<line class="st1" x1="1108.9" y1="1" x2="844.7" y2="133.1"/>
			<line class="st1" x1="1276.5" y1="1" x2="1012.3" y2="133.1"/>
			<line class="st1" x1="1444" y1="1" x2="1179.9" y2="133.1"/>
			<line class="st1" x1="1446.5" y1="83.5" x2="1347.5" y2="133.1"/>
			<line class="st1" x1="941.3" y1="1" x2="677.2" y2="133.1"/>
			<line class="st1" x1="773.8" y1="1" x2="509.6" y2="133.1"/>
			<line class="st1" x1="606.2" y1="1" x2="342" y2="133.1"/>
			<line class="st1" x1="438.6" y1="1" x2="174.5" y2="133.1"/>
			<line class="st1" x1="271" y1="1" x2="6.9" y2="133.1"/>
			<line class="st1" x1="103.5" y1="1" x2="0.2" y2="52.6"/>
			<line class="st1" x1="271" y1="1" x2="6.9" y2="133.1"/>
		</g>
		<polygon class="st2" points="469.6,25 434.6,58.8 505,59.6 532.9,25 		"/>
		<polygon class="st2" points="535.6,49 500.6,82.8 571,83.6 598.9,49 		"/>
		<polygon class="st2" points="440.8,45 475.9,78.8 405.5,79.6 377.6,45 		"/>
		<polygon class="st2" points="497.8,74 532.9,107.8 462.5,108.6 434.6,74 		"/>
		<polygon class="st2" points="318.4,54.7 359.1,81.5 290,95.2 256.2,66.3 		"/>
	</g>
</g>
<g id="logo">
</g>
</svg>
