<?xml version="1.0" encoding="utf-8"?>
<!-- Generator: Adobe Illustrator 23.0.3, SVG Export Plug-In . SVG Version: 6.00 Build 0)  -->
<svg version="1.1" id="Layer_1" xmlns="http://www.w3.org/2000/svg" xmlns:xlink="http://www.w3.org/1999/xlink" x="0px" y="0px"
	 viewBox="0 0 299.3 564" style="enable-background:new 0 0 299.3 564;" xml:space="preserve">
<style type="text/css">
	.st0{fill:url(#SVGID_1_);}
	.st1{fill:url(#SVGID_2_);}
	.st2{fill:none;}
	.st3{fill:#8F2B76;}
	.st4{fill:#802769;}
	.st5{fill:#A43186;}
	.st6{fill:#84286C;}
	.st7{fill:#AB348C;}
	.st8{fill:#87296F;}
	.st9{fill:#992E7E;}
	.st10{fill:#808080;}
	.st11{fill:#B23692;}
	.st12{fill:#838383;}
	.st13{fill:#8E8E8E;}
	.st14{fill:#952D7A;}
	.st15{fill:#9C2F80;}
	.st16{fill:#A13184;}
	.st17{fill:url(#SVGID_3_);}
	.st18{fill:#8A8A8A;}
	.st19{fill:#959595;}
	.st20{fill:#892971;}
	.st21{fill:#DD43B5;}
	.st22{fill:url(#SVGID_4_);}
	.st23{fill:url(#SVGID_5_);}
	.st24{fill:url(#SVGID_6_);}
</style>
<radialGradient id="SVGID_1_" cx="149.65" cy="287" r="223.8706" gradientTransform="matrix(1 0 0 -1.0108 0 572.086)" gradientUnits="userSpaceOnUse">
	<stop  offset="0" style="stop-color:#FFFFFF;stop-opacity:0"/>
	<stop  offset="3.005344e-02" style="stop-color:#FFFFFF;stop-opacity:0.8602"/>
	<stop  offset="3.493813e-02" style="stop-color:#FFFFFF"/>
	<stop  offset="0.2592" style="stop-color:#FFFFFC"/>
	<stop  offset="0.3961" style="stop-color:#FDFFF4"/>
	<stop  offset="0.5096" style="stop-color:#FBFFE6"/>
	<stop  offset="0.6103" style="stop-color:#F8FFD1"/>
	<stop  offset="0.7025" style="stop-color:#F3FFB7"/>
	<stop  offset="0.7885" style="stop-color:#EEFF96"/>
	<stop  offset="0.8698" style="stop-color:#E8FF6F"/>
	<stop  offset="0.9452" style="stop-color:#E1FF44"/>
	<stop  offset="1" style="stop-color:#DBFF1F"/>
</radialGradient>
<path class="st0" d="M280.5,0H18.8C8.4,0,0,8.5,0,19v526.1C0,555.5,8.4,564,18.8,564h261.7c10.4,0,18.8-8.5,18.8-19V19
	C299.3,8.5,290.9,0,280.5,0z"/>
<image style="overflow:visible;" width="300" height="564" xlink:href="B6BE195D37CF9C0.png" >
</image>
<radialGradient id="SVGID_2_" cx="149.15" cy="273.6049" r="213.9254" gradientTransform="matrix(1 0 0 -0.9646 0 546.3764)" gradientUnits="userSpaceOnUse">
	<stop  offset="0" style="stop-color:#FFFFFF"/>
	<stop  offset="2.049065e-02" style="stop-color:#FFF4F5"/>
	<stop  offset="0.1353" style="stop-color:#FFBCC4"/>
	<stop  offset="0.2536" style="stop-color:#FF8A97"/>
	<stop  offset="0.3728" style="stop-color:#FF5F72"/>
	<stop  offset="0.493" style="stop-color:#FF3D54"/>
	<stop  offset="0.6147" style="stop-color:#FF223C"/>
	<stop  offset="0.7382" style="stop-color:#FF0F2B"/>
	<stop  offset="0.865" style="stop-color:#FF0421"/>
	<stop  offset="1" style="stop-color:#FF001E"/>
</radialGradient>
<path class="st1" d="M264.1,19.8H34.2c-9.4,0-17,7.3-17,16.4v492.4c0,9.1,7.6,16.4,17,16.4h229.9c9.4,0,17-7.3,17-16.4V36.3
	C281.1,27.2,273.5,19.8,264.1,19.8z"/>
<polygon class="st2" points="80.4,492.5 80.4,386.7 94.6,374 205.1,374 219.1,386.5 219.1,492.5 205.1,505 94.8,505 "/>
<polygon class="st3" points="99.8,181.4 102.4,178.2 199.2,178.2 201.9,181.4 "/>
<polygon class="st4" points="201.9,181.4 199.2,178.2 212.4,156.2 215.8,158.2 "/>
<polygon class="st5" points="85.2,156.4 88.6,154.5 102.4,178.2 99.8,181.4 "/>
<polygon class="st4" points="215.8,81 212.4,83 198.6,60.5 201.2,57.3 "/>
<polygon class="st6" points="99.1,57.3 101.8,60.5 88.6,81.3 85.2,79.2 "/>
<polygon class="st4" points="201.2,57.3 198.6,60.5 101.8,60.5 99.1,57.3 "/>
<polygon class="st4" points="203.1,183.2 204.7,186.3 97,186.3 98.6,183.2 "/>
<polygon class="st4" points="204.8,186.2 201.9,181.4 215.8,158.2 220.6,159.8 "/>
<polygon class="st7" points="202.4,55.5 204,52.4 220.7,79.6 217.6,80.2 "/>
<polygon class="st4" points="220.6,159.8 215.8,158.2 215.8,81 220.6,79.4 "/>
<polygon class="st8" points="217.6,159 220.7,159.5 204.7,186.3 203.1,183.2 "/>
<polygon class="st4" points="98.6,183.2 97,186.3 80.3,157.8 83.4,157.2 "/>
<polygon class="st9" points="96.8,186.2 99.8,181.4 201.9,181.4 204.8,186.2 "/>
<polygon class="st10" points="200.3,178.2 201.9,181.4 99.8,181.4 101.4,178.2 "/>
<polygon class="st11" points="80.4,158 85.2,156.4 99.8,181.4 96.8,186.2 "/>
<polygon class="st12" points="212.6,157.6 215.8,158.2 201.9,181.4 200.3,178.2 "/>
<polygon class="st10" points="101.4,178.2 99.8,181.4 85.2,156.4 88.4,155.8 "/>
<polygon class="st13" points="212.6,81.6 215.8,81 215.8,158.2 212.6,157.6 "/>
<polygon class="st14" points="97.9,55.5 96.4,52.4 204,52.4 202.4,55.5 "/>
<polygon class="st4" points="220.6,79.4 215.8,81 201.2,57.3 204.1,52.5 "/>
<polygon class="st15" points="217.6,80.2 220.7,79.6 220.7,159.5 217.6,159 "/>
<polygon class="st10" points="88.4,155.8 85.2,156.4 85.2,79.2 88.4,79.9 "/>
<polygon class="st4" points="83.4,157.2 80.3,157.8 80.3,77.8 83.4,78.4 "/>
<polygon class="st4" points="83.4,78.4 80.3,77.8 96.4,52.4 97.9,55.5 "/>
<polygon class="st16" points="80.4,77.6 85.2,79.2 85.2,156.4 80.4,158 "/>
<linearGradient id="SVGID_3_" gradientUnits="userSpaceOnUse" x1="88.4019" y1="119.3507" x2="212.6029" y2="119.3507">
	<stop  offset="0" style="stop-color:#D0E9FF"/>
	<stop  offset="1" style="stop-color:#1590FF"/>
</linearGradient>
<polygon class="st17" points="100.6,60.5 199.6,60.5 212.6,81.6 212.6,157.6 200.3,178.2 101.4,178.2 88.4,155.8 88.4,79.9 "/>
<polygon class="st18" points="100.6,60.5 99.1,57.3 201.2,57.3 199.6,60.5 "/>
<polygon class="st19" points="199.6,60.5 201.2,57.3 215.8,81 212.6,81.6 "/>
<polygon class="st10" points="88.4,79.9 85.2,79.2 99.1,57.3 100.6,60.5 "/>
<polygon class="st20" points="96.2,52.5 99.1,57.3 85.2,79.2 80.4,77.6 "/>
<polygon class="st4" points="204.1,52.5 201.2,57.3 99.1,57.3 96.2,52.5 "/>
<path class="st21" d="M202.4,55.5l15.2,24.7V159l-14.5,24.2H98.6l-15.2-26V78.4l14.5-22.9H202.4z M220.6,159.8V79.4l-16.5-26.9H96.2
	L80.4,77.6V158l16.4,28.2h108L220.6,159.8"/>
<polygon class="st3" points="99.8,344.5 102.4,341.3 199.2,341.3 201.9,344.5 "/>
<polygon class="st4" points="201.9,344.5 199.2,341.3 212.4,319.3 215.8,321.3 "/>
<polygon class="st5" points="85.2,319.5 88.6,317.6 102.4,341.3 99.8,344.5 "/>
<polygon class="st4" points="215.8,244.1 212.4,246.1 198.6,223.6 201.2,220.4 "/>
<polygon class="st6" points="99.1,220.4 101.8,223.6 88.6,244.4 85.2,242.3 "/>
<polygon class="st4" points="201.2,220.4 198.6,223.6 101.8,223.6 99.1,220.4 "/>
<polygon class="st4" points="203.1,346.3 204.7,349.4 97,349.4 98.6,346.3 "/>
<polygon class="st4" points="204.8,349.3 201.9,344.5 215.8,321.3 220.6,322.9 "/>
<polygon class="st7" points="202.4,218.6 204,215.5 220.7,242.7 217.6,243.3 "/>
<polygon class="st4" points="220.6,322.9 215.8,321.3 215.8,244.1 220.6,242.5 "/>
<polygon class="st8" points="217.6,322.1 220.7,322.7 204.7,349.4 203.1,346.3 "/>
<polygon class="st4" points="98.6,346.3 97,349.4 80.3,320.9 83.4,320.3 "/>
<polygon class="st9" points="96.8,349.3 99.8,344.5 201.9,344.5 204.8,349.3 "/>
<polygon class="st10" points="200.3,341.3 201.9,344.5 99.8,344.5 101.4,341.3 "/>
<polygon class="st11" points="80.4,321.1 85.2,319.5 99.8,344.5 96.8,349.3 "/>
<polygon class="st12" points="212.6,320.7 215.8,321.3 201.9,344.5 200.3,341.3 "/>
<polygon class="st10" points="101.4,341.3 99.8,344.5 85.2,319.5 88.4,318.9 "/>
<polygon class="st13" points="212.6,244.7 215.8,244.1 215.8,321.3 212.6,320.7 "/>
<polygon class="st14" points="97.9,218.6 96.4,215.5 204,215.5 202.4,218.6 "/>
<polygon class="st4" points="220.6,242.5 215.8,244.1 201.2,220.4 204.1,215.6 "/>
<polygon class="st15" points="217.6,243.3 220.7,242.7 220.7,322.7 217.6,322.1 "/>
<polygon class="st10" points="88.4,318.9 85.2,319.5 85.2,242.3 88.4,243 "/>
<polygon class="st4" points="83.4,320.3 80.3,320.9 80.3,240.9 83.4,241.5 "/>
<polygon class="st4" points="83.4,241.5 80.3,240.9 96.4,215.5 97.9,218.6 "/>
<polygon class="st16" points="80.4,240.7 85.2,242.3 85.2,319.5 80.4,321.1 "/>
<linearGradient id="SVGID_4_" gradientUnits="userSpaceOnUse" x1="88.4019" y1="282.4547" x2="212.6029" y2="282.4547">
	<stop  offset="0" style="stop-color:#D0E9FF"/>
	<stop  offset="1" style="stop-color:#1590FF"/>
</linearGradient>
<polygon class="st22" points="100.6,223.6 199.6,223.6 212.6,244.7 212.6,320.7 200.3,341.3 101.4,341.3 88.4,318.9 88.4,243 "/>
<polygon class="st18" points="100.6,223.6 99.1,220.4 201.2,220.4 199.6,223.6 "/>
<polygon class="st19" points="199.6,223.6 201.2,220.4 215.8,244.1 212.6,244.7 "/>
<polygon class="st10" points="88.4,243 85.2,242.3 99.1,220.4 100.6,223.6 "/>
<polygon class="st20" points="96.2,215.6 99.1,220.4 85.2,242.3 80.4,240.7 "/>
<polygon class="st4" points="204.1,215.6 201.2,220.4 99.1,220.4 96.2,215.6 "/>
<path class="st21" d="M202.4,218.6l15.2,24.7v78.7l-14.5,24.2H98.6l-15.2-26v-78.7l14.5-22.9H202.4z M220.6,322.9v-80.4l-16.5-26.9
	H96.2l-15.8,25.1v80.4l16.4,28.2h108L220.6,322.9"/>
<polygon class="st3" points="99.8,507.6 102.4,504.4 199.2,504.4 201.9,507.6 "/>
<polygon class="st4" points="201.9,507.6 199.2,504.4 212.4,482.4 215.8,484.4 "/>
<polygon class="st5" points="85.2,482.6 88.6,480.7 102.4,504.4 99.8,507.6 "/>
<polygon class="st4" points="215.8,407.2 212.4,409.2 198.6,386.7 201.2,383.5 "/>
<polygon class="st6" points="99.1,383.5 101.8,386.7 88.6,407.5 85.2,405.4 "/>
<polygon class="st4" points="201.2,383.5 198.6,386.7 101.8,386.7 99.1,383.5 "/>
<polygon class="st4" points="203.1,509.4 204.7,512.5 97,512.5 98.6,509.4 "/>
<polygon class="st4" points="204.8,512.4 201.9,507.6 215.8,484.4 220.6,486 "/>
<polygon class="st7" points="202.4,381.7 204,378.6 220.7,405.8 217.6,406.4 "/>
<polygon class="st4" points="220.6,486 215.8,484.4 215.8,407.2 220.6,405.6 "/>
<polygon class="st8" points="217.6,485.2 220.7,485.8 204.7,512.5 203.1,509.4 "/>
<polygon class="st4" points="98.6,509.4 97,512.5 80.3,484 83.4,483.4 "/>
<polygon class="st9" points="96.8,512.4 99.8,507.6 201.9,507.6 204.8,512.4 "/>
<polygon class="st10" points="200.3,504.4 201.9,507.6 99.8,507.6 101.4,504.4 "/>
<polygon class="st11" points="80.4,484.2 85.2,482.6 99.8,507.6 96.8,512.4 "/>
<polygon class="st12" points="212.6,483.8 215.8,484.4 201.9,507.6 200.3,504.4 "/>
<polygon class="st10" points="101.4,504.4 99.8,507.6 85.2,482.6 88.4,482 "/>
<polygon class="st13" points="212.6,407.8 215.8,407.2 215.8,484.4 212.6,483.8 "/>
<polygon class="st14" points="97.9,381.7 96.4,378.6 204,378.6 202.4,381.7 "/>
<polygon class="st4" points="220.6,405.6 215.8,407.2 201.2,383.5 204.1,378.7 "/>
<polygon class="st15" points="217.6,406.4 220.7,405.8 220.7,485.8 217.6,485.2 "/>
<polygon class="st10" points="88.4,482 85.2,482.6 85.2,405.4 88.4,406.1 "/>
<polygon class="st4" points="83.4,483.4 80.3,484 80.3,404 83.4,404.6 "/>
<polygon class="st4" points="83.4,404.6 80.3,404 96.4,378.6 97.9,381.7 "/>
<polygon class="st16" points="80.4,403.8 85.2,405.4 85.2,482.6 80.4,484.2 "/>
<linearGradient id="SVGID_5_" gradientUnits="userSpaceOnUse" x1="88.4019" y1="445.5588" x2="212.6029" y2="445.5588">
	<stop  offset="0" style="stop-color:#D0E9FF"/>
	<stop  offset="1" style="stop-color:#1590FF"/>
</linearGradient>
<polygon class="st23" points="100.6,386.7 199.6,386.7 212.6,407.8 212.6,483.8 200.3,504.4 101.4,504.4 88.4,482 88.4,406.1 "/>
<polygon class="st18" points="100.6,386.7 99.1,383.5 201.2,383.5 199.6,386.7 "/>
<polygon class="st19" points="199.6,386.7 201.2,383.5 215.8,407.2 212.6,407.8 "/>
<polygon class="st10" points="88.4,406.1 85.2,405.4 99.1,383.5 100.6,386.7 "/>
<polygon class="st20" points="96.2,378.7 99.1,383.5 85.2,405.4 80.4,403.8 "/>
<polygon class="st4" points="204.1,378.7 201.2,383.5 99.1,383.5 96.2,378.7 "/>
<path class="st21" d="M202.4,381.7l15.2,24.7v78.7l-14.5,24.2H98.6l-15.2-26v-78.7l14.5-22.9H202.4z M220.6,486v-80.4l-16.5-26.9
	H96.2l-15.8,25.1v80.4l16.4,28.2h108L220.6,486"/>
<linearGradient id="SVGID_6_" gradientUnits="userSpaceOnUse" x1="12.7" y1="282.4546" x2="285.6" y2="282.4546">
	<stop  offset="0" style="stop-color:#FF3D38"/>
	<stop  offset="0" style="stop-color:#EF3631"/>
	<stop  offset="0" style="stop-color:#D02724"/>
	<stop  offset="0" style="stop-color:#B41B19"/>
	<stop  offset="0" style="stop-color:#9E1110"/>
	<stop  offset="0" style="stop-color:#8D0909"/>
	<stop  offset="0" style="stop-color:#820404"/>
	<stop  offset="0" style="stop-color:#7B0101"/>
	<stop  offset="0" style="stop-color:#790000"/>
	<stop  offset="1.302836e-02" style="stop-color:#890707"/>
	<stop  offset="4.353504e-02" style="stop-color:#A81614"/>
	<stop  offset="7.808488e-02" style="stop-color:#C4221F"/>
	<stop  offset="0.1171" style="stop-color:#DA2C28"/>
	<stop  offset="0.1627" style="stop-color:#EB342F"/>
	<stop  offset="0.2191" style="stop-color:#F63934"/>
	<stop  offset="0.2982" style="stop-color:#FD3C37"/>
	<stop  offset="0.5178" style="stop-color:#FF3D38"/>
	<stop  offset="0.7223" style="stop-color:#FD3C37"/>
	<stop  offset="0.796" style="stop-color:#F63934"/>
	<stop  offset="0.8485" style="stop-color:#EB342F"/>
	<stop  offset="0.8909" style="stop-color:#DA2C28"/>
	<stop  offset="0.9273" style="stop-color:#C4221F"/>
	<stop  offset="0.9595" style="stop-color:#A81614"/>
	<stop  offset="0.9879" style="stop-color:#890707"/>
	<stop  offset="1" style="stop-color:#790000"/>
</linearGradient>
<path class="st24" d="M264.1,24.2c0-1.4,0-2.2,0-2.2c0-0.7,0-1.4,0-2.2s0-1.4,0-2.2c0,0,0-0.7,0-2.2c-153.3,0-229.9,0-229.9,0
	c0,0,0,0,0,0c-5.6,0-11.2,2.2-15.2,6.1c-4,3.8-6.3,9.2-6.3,14.7c0,0,0,0,0,0c0,164.1,0,328.2,0,492.4c0,0,0,0,0,0
	c0,5.4,2.3,10.8,6.3,14.7c4,3.9,9.6,6.1,15.2,6.1c0,0,0,0,0,0c76.6,0,153.3,0,229.9,0c0,0,0,0,0,0c5.6,0,11.2-2.2,15.2-6.1
	c4-3.8,6.3-9.2,6.3-14.7c0,0,0,0,0,0c0-164.1,0-328.2,0-492.4c0,0,0,0,0,0c0,0,0-0.7-0.1-2c-0.2-1.3-0.4-3.4-1.5-5.9
	c-1.1-2.5-3-5.5-6.2-8.1c-1.6-1.3-3.6-2.4-5.9-3.3c-2.3-0.9-4.9-1.4-7.7-1.4c0,1.4,0,2.2,0,2.2c0,0.7,0,1.4,0,2.2s0,1.4,0,2.2
	C264.1,22,264.1,22.7,264.1,24.2c3.3,0,6,1.3,7.9,2.7c1.9,1.5,3,3.2,3.6,4.7c0.6,1.5,0.8,2.7,0.9,3.4c0,0.8,0.1,1.2,0.1,1.2
	c0,0,0,0,0,0c0,164.1,0,328.2,0,492.4c0,0,0,0,0,0c0,3.2-1.3,6.3-3.7,8.5c-2.3,2.2-5.5,3.5-8.8,3.5c0,0,0,0,0,0
	c-76.6,0-153.3,0-229.9,0c0,0,0,0,0,0c-3.3,0-6.5-1.3-8.8-3.5c-2.3-2.2-3.7-5.3-3.7-8.5c0,0,0,0,0,0c0-164.1,0-328.2,0-492.4
	c0,0,0,0,0,0c0-3.2,1.3-6.3,3.7-8.5c2.3-2.2,5.5-3.5,8.8-3.5c0,0,0,0,0,0C34.2,24.2,110.8,24.2,264.1,24.2z"/>
</svg>
