<?xml version="1.0" encoding="utf-8"?>
<!-- Generator: Adobe Illustrator 23.0.3, SVG Export Plug-In . SVG Version: 6.00 Build 0)  -->
<svg version="1.1" xmlns="http://www.w3.org/2000/svg" xmlns:xlink="http://www.w3.org/1999/xlink" x="0px" y="0px"
	 viewBox="0 0 266.9 324.2" style="enable-background:new 0 0 266.9 324.2;" xml:space="preserve">
<style type="text/css">
	.st0{fill:#FFFFFF;stroke:#000000;stroke-miterlimit:10;}
	.st1{fill:url(#);}
	.st2{fill:none;stroke:#000000;stroke-miterlimit:10;}
	.st3{fill:#231F20;}
	.st4{fill:#FFFFFF;}
	.st5{fill:none;stroke:#231F20;stroke-linejoin:round;stroke-miterlimit:10;}
</style>
<g id="house_etc">
	<g>
		<rect x="29.9" y="0.5" class="st0" width="207.2" height="307.7"/>
		<rect x="38.1" y="8.7" class="st0" width="190.9" height="290.1"/>
		<polygon class="st0" points="235,323.7 36,323.7 1,277.7 266,277.7 		"/>
		<line class="st2" x1="29.9" y1="0.5" x2="38.1" y2="8.7"/>
		<line class="st2" x1="237.1" y1="0.5" x2="228.9" y2="8.7"/>
		<g>
			<line class="st0" x1="133.5" y1="188.7" x2="133.5" y2="277.7"/>
			<g>
				
					<ellipse transform="matrix(0.9224 -0.3862 0.3862 0.9224 -53.3588 61.5733)" class="st0" cx="126.6" cy="163.6" rx="3" ry="10.5"/>
				
					<ellipse transform="matrix(0.9224 -0.3862 0.3862 0.9224 -65.1052 69.5203)" class="st0" cx="140.5" cy="196.8" rx="3" ry="10.5"/>
			</g>
			<g>
				
					<ellipse transform="matrix(0.9224 -0.3862 0.3862 0.9224 -55.2585 71.42)" class="st0" cx="150.1" cy="173.2" rx="10.5" ry="3"/>
				
					<ellipse transform="matrix(0.9224 -0.3862 0.3862 0.9224 -63.2055 59.6736)" class="st0" cx="116.9" cy="187.1" rx="10.5" ry="3"/>
			</g>
			<g>
				
					<ellipse transform="matrix(0.3791 -0.9253 0.9253 0.3791 -64.1896 231.3847)" class="st0" cx="140.3" cy="163.5" rx="10.5" ry="3"/>
				
					<ellipse transform="matrix(0.3791 -0.9253 0.9253 0.3791 -103.489 239.4376)" class="st0" cx="126.7" cy="196.8" rx="10.5" ry="3"/>
			</g>
			<g>
				
					<ellipse transform="matrix(0.3791 -0.9253 0.9253 0.3791 -87.8658 215.7614)" class="st0" cx="116.9" cy="173.4" rx="3" ry="10.5"/>
				
					<ellipse transform="matrix(0.3791 -0.9253 0.9253 0.3791 -79.8129 255.0609)" class="st0" cx="150.2" cy="187" rx="3" ry="10.5"/>
			</g>
			<circle class="st0" cx="133.5" cy="180.2" r="13.5"/>
		</g>
		<g>
			<line class="st0" x1="70.5" y1="225.2" x2="70.5" y2="277.2"/>
			<g>
				
					<ellipse transform="matrix(0.9224 -0.3862 0.3862 0.9224 -72.3513 40.0744)" class="st0" cx="63.6" cy="200.1" rx="3" ry="10.5"/>
				
					<ellipse transform="matrix(0.9224 -0.3862 0.3862 0.9224 -84.0977 48.0214)" class="st0" cx="77.5" cy="233.3" rx="3" ry="10.5"/>
			</g>
			<g>
				
					<ellipse transform="matrix(0.9224 -0.3862 0.3862 0.9224 -74.251 49.9211)" class="st0" cx="87.1" cy="209.7" rx="10.5" ry="3"/>
				
					<ellipse transform="matrix(0.9224 -0.3862 0.3862 0.9224 -82.198 38.1747)" class="st0" cx="53.9" cy="223.7" rx="10.5" ry="3"/>
			</g>
			<g>
				
					<ellipse transform="matrix(0.3791 -0.9253 0.9253 0.3791 -137.0948 195.7602)" class="st0" cx="77.3" cy="200" rx="10.5" ry="3"/>
				
					<ellipse transform="matrix(0.3791 -0.9253 0.9253 0.3791 -176.3942 203.813)" class="st0" cx="63.7" cy="233.4" rx="10.5" ry="3"/>
			</g>
			<g>
				
					<ellipse transform="matrix(0.3791 -0.9253 0.9253 0.3791 -160.7709 180.1369)" class="st0" cx="53.9" cy="209.9" rx="3" ry="10.5"/>
				
					<ellipse transform="matrix(0.3791 -0.9253 0.9253 0.3791 -152.7181 219.4363)" class="st0" cx="87.2" cy="223.5" rx="3" ry="10.5"/>
			</g>
			<circle class="st0" cx="70.5" cy="216.7" r="13.5"/>
		</g>
		<g>
			<line class="st0" x1="196.5" y1="225.2" x2="196.5" y2="277.2"/>
			<g>
				
					<ellipse transform="matrix(0.9224 -0.3862 0.3862 0.9224 -62.574 88.7394)" class="st0" cx="189.6" cy="200.1" rx="3" ry="10.5"/>
				
					<ellipse transform="matrix(0.9224 -0.3862 0.3862 0.9224 -74.3204 96.6864)" class="st0" cx="203.5" cy="233.3" rx="3" ry="10.5"/>
			</g>
			<g>
				
					<ellipse transform="matrix(0.9224 -0.3862 0.3862 0.9224 -64.4737 98.5861)" class="st0" cx="213.1" cy="209.7" rx="10.5" ry="3"/>
				
					<ellipse transform="matrix(0.9224 -0.3862 0.3862 0.9224 -72.4207 86.8397)" class="st0" cx="179.9" cy="223.7" rx="10.5" ry="3"/>
			</g>
			<g>
				
					<ellipse transform="matrix(0.3791 -0.9253 0.9253 0.3791 -58.8653 312.3534)" class="st0" cx="203.3" cy="200" rx="10.5" ry="3"/>
				
					<ellipse transform="matrix(0.3791 -0.9253 0.9253 0.3791 -98.1647 320.4062)" class="st0" cx="189.7" cy="233.4" rx="10.5" ry="3"/>
			</g>
			<g>
				
					<ellipse transform="matrix(0.3791 -0.9253 0.9253 0.3791 -82.5414 296.7301)" class="st0" cx="179.9" cy="209.9" rx="3" ry="10.5"/>
				
					<ellipse transform="matrix(0.3791 -0.9253 0.9253 0.3791 -74.4886 336.0295)" class="st0" cx="213.2" cy="223.5" rx="3" ry="10.5"/>
			</g>
			<circle class="st0" cx="196.5" cy="216.7" r="13.5"/>
		</g>
	</g>
</g>
<g id="logo">
</g>
</svg>
