<?xml version="1.0" encoding="utf-8"?>
<!-- Generator: Adobe Illustrator 23.0.3, SVG Export Plug-In . SVG Version: 6.00 Build 0)  -->
<svg version="1.1" id="Layer_1" xmlns="http://www.w3.org/2000/svg" xmlns:xlink="http://www.w3.org/1999/xlink" x="0px" y="0px"
	 viewBox="0 0 1646.1 240" style="enable-background:new 0 0 1646.1 240;" xml:space="preserve">
<style type="text/css">
	.st0{fill:#FFFFFF;stroke:#000000;stroke-miterlimit:10;}
	.st1{fill:#FFFFFF;}
	.st2{fill:none;stroke:#000000;stroke-width:2;stroke-linecap:round;stroke-linejoin:round;stroke-miterlimit:10;}
</style>
<g>
	<path class="st0" d="M155.6,128.6c-2.9-12-7.5-23.5-12.8-34.5c-5-10.5-11.8-20.6-15.9-31.5c-1.4-3.6-1.9-7.6-2.1-11.5
		c0-1.2,0-2.4,0-3.6c0.1-2,0.2-4.1,0.4-6c0.5-4.7,1.7-11.3,6.6-13.1c11.4-4.4,17.5,17.5,4,17.6c-7.1,0-7.1,11.7,0,11.7
		c9,0,17.2-6.2,19-15.8c1.4-8-3.4-18.6-10-23c-7.2-4.7-17.6-3.1-23.5,3.2c-0.8,0.8-1.5,1.7-2.1,2.6c-4-6.4-10.3-10.2-19.9-8
		C91,18.5,83.2,28.4,82.6,37.1c-0.8,11.6,6.9,20.5,18,20.5c6.6,0,6.6-11.7,0-11.7c-11.1,0-8.1-17.2,1.1-18
		c8.8-0.8,11.3,9.2,11.5,17.7c0,0.9,0.3,1.7,0.3,2.6c0,0.6,0.2,1.3,0.2,1.9c0,1.1,0,2.1-0.1,3c-0.8,11.9-8.3,22.3-13.5,32.5
		c-5.5,10.8-10.6,21.9-14.3,33.5c-3.7,11.7-5.5,23.9-6.6,36.2c-0.9,10.4-1,22.6,6.7,30.4c5.9,6,15.7,8.4,22.9,3.7
		c5-3.2,8.4-8.8,10.6-14.9c4.7,12.4,14.4,22,27.8,15.1c9.3-4.7,12.4-14.9,12.6-25.1C160.1,152.8,158.3,140,155.6,128.6z
		 M145.9,176.4c-8.9,11.2-16.4-4.2-18-12.7c-0.5-2.7-2-13.6,1.6-14.9c3-1.1,3.2,3.1,3.2,5.3c0,7.5,11,7.5,11.1,0
		c0-8.2-4-16.7-12.7-17.1c-5.4-0.2-9.2,2.6-11.6,6.7c-2-3.5-5.1-6.1-9.6-6.6c-9.6-1-14.9,7.8-14.8,17c0,7.5,11.1,7.5,11.1,0
		c0-1.7,0.1-6.2,2.9-5.4c2.6,0.8,2.5,7,2.5,9.1c-0.1,7.4-3.9,25.4-14,21.8c-9.8-3.5-7.8-17.9-7-26.3c1.2-11.6,3.2-23,6.9-34
		c3.9-11.5,9.3-22.3,14.8-33c2.3-4.5,5-9,7.2-13.7c1.1,2.3,2.2,4.7,3.5,7.1c5.3,10.1,10.6,20.2,15,30.8c4.6,11.1,7.7,22.6,9.3,34.5
		C148.4,153.9,151.9,168.9,145.9,176.4z"/>
	<path class="st0" d="M311.3,128.6c-2.9-12-7.5-23.5-12.8-34.5c-5-10.5-11.8-20.6-15.9-31.5c-1.4-3.6-1.9-7.6-2.1-11.5
		c0-1.2,0-2.4,0-3.6c0.1-2,0.2-4.1,0.4-6c0.5-4.7,1.7-11.3,6.6-13.1c11.4-4.4,17.5,17.5,4,17.6c-7.1,0-7.1,11.7,0,11.7
		c9,0,17.2-6.2,19-15.8c1.4-8-3.4-18.6-10-23c-7.2-4.7-17.6-3.1-23.5,3.2c-0.8,0.8-1.5,1.7-2.1,2.6c-4-6.4-10.3-10.2-19.9-8
		c-8.3,1.9-16.1,11.8-16.7,20.4c-0.8,11.6,6.9,20.5,18,20.5c6.6,0,6.6-11.7,0-11.7c-11.1,0-8.1-17.2,1.1-18
		c8.8-0.8,11.3,9.2,11.5,17.7c0,0.9,0.3,1.7,0.3,2.6c0,0.6,0.2,1.3,0.2,1.9c0,1.1,0,2.1-0.1,3c-0.8,11.9-8.3,22.3-13.5,32.5
		c-5.5,10.8-10.6,21.9-14.3,33.5c-3.7,11.7-5.5,23.9-6.6,36.2c-0.9,10.4-1,22.6,6.7,30.4c5.9,6,15.7,8.4,22.9,3.7
		c5-3.2,8.4-8.8,10.6-14.9c4.7,12.4,14.4,22,27.8,15.1c9.3-4.7,12.4-14.9,12.6-25.1C315.8,152.8,314,140,311.3,128.6z M301.6,176.4
		c-8.9,11.2-16.4-4.2-18-12.7c-0.5-2.7-2-13.6,1.6-14.9c3-1.1,3.2,3.1,3.2,5.3c0,7.5,11,7.5,11.1,0c0-8.2-4-16.7-12.7-17.1
		c-5.4-0.2-9.2,2.6-11.6,6.7c-2-3.5-5.1-6.1-9.6-6.6c-9.6-1-14.9,7.8-14.8,17c0,7.5,11.1,7.5,11.1,0c0-1.7,0.1-6.2,2.9-5.4
		c2.6,0.8,2.5,7,2.5,9.1c-0.1,7.4-3.9,25.4-14,21.8c-9.8-3.5-7.8-17.9-7-26.3c1.2-11.6,3.2-23,6.9-34c3.9-11.5,9.3-22.3,14.8-33
		c2.3-4.5,5-9,7.2-13.7c1.1,2.3,2.2,4.7,3.5,7.1c5.3,10.1,10.6,20.2,15,30.8c4.6,11.1,7.7,22.6,9.3,34.5
		C304.1,153.9,307.6,168.9,301.6,176.4z"/>
	<path class="st0" d="M469.1,128.6c-2.9-12-7.5-23.5-12.8-34.5c-5-10.5-11.8-20.6-15.9-31.5c-1.4-3.6-1.9-7.6-2.1-11.5
		c0-1.2,0-2.4,0-3.6c0.1-2,0.2-4.1,0.4-6c0.5-4.7,1.7-11.3,6.6-13.1c11.4-4.4,17.5,17.5,4,17.6c-7.1,0-7.1,11.7,0,11.7
		c9,0,17.2-6.2,19-15.8c1.4-8-3.4-18.6-10-23c-7.2-4.7-17.6-3.1-23.5,3.2c-0.8,0.8-1.5,1.7-2.1,2.6c-4-6.4-10.3-10.2-19.9-8
		c-8.3,1.9-16.1,11.8-16.7,20.4c-0.8,11.6,6.9,20.5,18,20.5c6.6,0,6.6-11.7,0-11.7c-11.1,0-8.1-17.2,1.1-18
		c8.8-0.8,11.3,9.2,11.5,17.7c0,0.9,0.3,1.7,0.3,2.6c0,0.6,0.2,1.3,0.2,1.9c0,1.1,0,2.1-0.1,3c-0.8,11.9-8.3,22.3-13.5,32.5
		c-5.5,10.8-10.6,21.9-14.3,33.5c-3.7,11.7-5.5,23.9-6.6,36.2c-0.9,10.4-1,22.6,6.7,30.4c5.9,6,15.7,8.4,22.9,3.7
		c5-3.2,8.4-8.8,10.6-14.9c4.7,12.4,14.4,22,27.8,15.1c9.3-4.7,12.4-14.9,12.6-25.1C473.6,152.8,471.8,140,469.1,128.6z
		 M459.4,176.4c-8.9,11.2-16.4-4.2-18-12.7c-0.5-2.7-2-13.6,1.6-14.9c3-1.1,3.2,3.1,3.2,5.3c0,7.5,11,7.5,11.1,0
		c0-8.2-4-16.7-12.7-17.1c-5.4-0.2-9.2,2.6-11.6,6.7c-2-3.5-5.1-6.1-9.6-6.6c-9.6-1-14.9,7.8-14.8,17c0,7.5,11.1,7.5,11.1,0
		c0-1.7,0.1-6.2,2.9-5.4c2.6,0.8,2.5,7,2.5,9.1c-0.1,7.4-3.9,25.4-14,21.8c-9.8-3.5-7.8-17.9-7-26.3c1.2-11.6,3.2-23,6.9-34
		c3.9-11.5,9.3-22.3,14.8-33c2.3-4.5,5-9,7.2-13.7c1.1,2.3,2.2,4.7,3.5,7.1c5.3,10.1,10.6,20.2,15,30.8c4.6,11.1,7.7,22.6,9.3,34.5
		C461.9,153.9,465.4,168.9,459.4,176.4z"/>
	<path class="st0" d="M625.2,128.6c-2.9-12-7.5-23.5-12.8-34.5c-5-10.5-11.8-20.6-15.9-31.5c-1.4-3.6-1.9-7.6-2.1-11.5
		c0-1.2,0-2.4,0-3.6c0.1-2,0.2-4.1,0.4-6c0.5-4.7,1.7-11.3,6.6-13.1c11.4-4.4,17.5,17.5,4,17.6c-7.1,0-7.1,11.7,0,11.7
		c9,0,17.2-6.2,19-15.8c1.4-8-3.4-18.6-10-23c-7.2-4.7-17.6-3.1-23.5,3.2c-0.8,0.8-1.5,1.7-2.1,2.6c-4-6.4-10.3-10.2-19.9-8
		c-8.3,1.9-16.1,11.8-16.7,20.4c-0.8,11.6,6.9,20.5,18,20.5c6.6,0,6.6-11.7,0-11.7c-11.1,0-8.1-17.2,1.1-18
		c8.8-0.8,11.3,9.2,11.5,17.7c0,0.9,0.3,1.7,0.3,2.6c0,0.6,0.2,1.3,0.2,1.9c0,1.1,0,2.1-0.1,3c-0.8,11.9-8.3,22.3-13.5,32.5
		c-5.5,10.8-10.6,21.9-14.3,33.5c-3.7,11.7-5.5,23.9-6.6,36.2c-0.9,10.4-1,22.6,6.7,30.4c5.9,6,15.7,8.4,22.9,3.7
		c5-3.2,8.4-8.8,10.6-14.9c4.7,12.4,14.4,22,27.8,15.1c9.3-4.7,12.4-14.9,12.6-25.1C629.7,152.8,627.9,140,625.2,128.6z
		 M615.5,176.4c-8.9,11.2-16.4-4.2-18-12.7c-0.5-2.7-2-13.6,1.6-14.9c3-1.1,3.2,3.1,3.2,5.3c0,7.5,11,7.5,11.1,0
		c0-8.2-4-16.7-12.7-17.1c-5.4-0.2-9.2,2.6-11.6,6.7c-2-3.5-5.1-6.1-9.6-6.6c-9.6-1-14.9,7.8-14.8,17c0,7.5,11.1,7.5,11.1,0
		c0-1.7,0.1-6.2,2.9-5.4c2.6,0.8,2.5,7,2.5,9.1c-0.1,7.4-3.9,25.4-14,21.8c-9.8-3.5-7.8-17.9-7-26.3c1.2-11.6,3.2-23,6.9-34
		c3.9-11.5,9.3-22.3,14.8-33c2.3-4.5,5-9,7.2-13.7c1.1,2.3,2.2,4.7,3.5,7.1c5.3,10.1,10.6,20.2,15,30.8c4.6,11.1,7.7,22.6,9.3,34.5
		C618,153.9,621.5,168.9,615.5,176.4z"/>
	<path class="st0" d="M780.4,128.6c-2.9-12-7.5-23.5-12.8-34.5c-5-10.5-11.8-20.6-15.9-31.5c-1.4-3.6-1.9-7.6-2.1-11.5
		c0-1.2,0-2.4,0-3.6c0.1-2,0.2-4.1,0.4-6c0.5-4.7,1.7-11.3,6.6-13.1c11.4-4.4,17.5,17.5,4,17.6c-7.1,0-7.1,11.7,0,11.7
		c9,0,17.2-6.2,19-15.8c1.4-8-3.4-18.6-10-23c-7.2-4.7-17.6-3.1-23.5,3.2c-0.8,0.8-1.5,1.7-2.1,2.6c-4-6.4-10.3-10.2-19.9-8
		c-8.3,1.9-16.1,11.8-16.7,20.4c-0.8,11.6,6.9,20.5,18,20.5c6.6,0,6.6-11.7,0-11.7c-11.1,0-8.1-17.2,1.1-18
		c8.8-0.8,11.3,9.2,11.5,17.7c0,0.9,0.3,1.7,0.3,2.6c0,0.6,0.2,1.3,0.2,1.9c0,1.1,0,2.1-0.1,3c-0.8,11.9-8.3,22.3-13.5,32.5
		c-5.5,10.8-10.6,21.9-14.3,33.5c-3.7,11.7-5.5,23.9-6.6,36.2c-0.9,10.4-1,22.6,6.7,30.4c5.9,6,15.7,8.4,22.9,3.7
		c5-3.2,8.4-8.8,10.6-14.9c4.7,12.4,14.4,22,27.8,15.1c9.3-4.7,12.4-14.9,12.6-25.1C784.9,152.8,783.1,140,780.4,128.6z
		 M770.8,176.4c-8.9,11.2-16.4-4.2-18-12.7c-0.5-2.7-2-13.6,1.6-14.9c3-1.1,3.2,3.1,3.2,5.3c0,7.5,11,7.5,11.1,0
		c0-8.2-4-16.7-12.7-17.1c-5.4-0.2-9.2,2.6-11.6,6.7c-2-3.5-5.1-6.1-9.6-6.6c-9.6-1-14.9,7.8-14.8,17c0,7.5,11.1,7.5,11.1,0
		c0-1.7,0.1-6.2,2.9-5.4c2.6,0.8,2.5,7,2.5,9.1c-0.1,7.4-3.9,25.4-14,21.8c-9.8-3.5-7.8-17.9-7-26.3c1.2-11.6,3.2-23,6.9-34
		c3.9-11.5,9.3-22.3,14.8-33c2.3-4.5,5-9,7.2-13.7c1.1,2.3,2.2,4.7,3.5,7.1c5.3,10.1,10.6,20.2,15,30.8c4.6,11.1,7.7,22.6,9.3,34.5
		C773.3,153.9,776.7,168.9,770.8,176.4z"/>
	<path class="st0" d="M938.2,128.6c-2.9-12-7.5-23.5-12.8-34.5c-5-10.5-11.8-20.6-15.9-31.5c-1.4-3.6-1.9-7.6-2.1-11.5
		c0-1.2,0-2.4,0-3.6c0.1-2,0.2-4.1,0.4-6c0.5-4.7,1.7-11.3,6.6-13.1c11.4-4.4,17.5,17.5,4,17.6c-7.1,0-7.1,11.7,0,11.7
		c9,0,17.2-6.2,19-15.8c1.4-8-3.4-18.6-10-23c-7.2-4.7-17.6-3.1-23.5,3.2c-0.8,0.8-1.5,1.7-2.1,2.6c-4-6.4-10.3-10.2-19.9-8
		c-8.3,1.9-16.1,11.8-16.7,20.4c-0.8,11.6,6.9,20.5,18,20.5c6.6,0,6.6-11.7,0-11.7c-11.1,0-8.1-17.2,1.1-18
		c8.8-0.8,11.3,9.2,11.5,17.7c0,0.9,0.3,1.7,0.3,2.6c0,0.6,0.2,1.3,0.2,1.9c0,1.1,0,2.1-0.1,3c-0.8,11.9-8.3,22.3-13.5,32.5
		c-5.5,10.8-10.6,21.9-14.3,33.5c-3.7,11.7-5.5,23.9-6.6,36.2c-0.9,10.4-1,22.6,6.7,30.4c5.9,6,15.7,8.4,22.9,3.7
		c5-3.2,8.4-8.8,10.6-14.9c4.7,12.4,14.4,22,27.8,15.1c9.3-4.7,12.4-14.9,12.6-25.1C942.7,152.8,940.9,140,938.2,128.6z
		 M928.6,176.4c-8.9,11.2-16.4-4.2-18-12.7c-0.5-2.7-2-13.6,1.6-14.9c3-1.1,3.2,3.1,3.2,5.3c0,7.5,11,7.5,11.1,0
		c0-8.2-4-16.7-12.7-17.1c-5.4-0.2-9.2,2.6-11.6,6.7c-2-3.5-5.1-6.1-9.6-6.6c-9.6-1-14.9,7.8-14.8,17c0,7.5,11.1,7.5,11.1,0
		c0-1.7,0.1-6.2,2.9-5.4c2.6,0.8,2.5,7,2.5,9.1c-0.1,7.4-3.9,25.4-14,21.8c-9.8-3.5-7.8-17.9-7-26.3c1.2-11.6,3.2-23,6.9-34
		c3.9-11.5,9.3-22.3,14.8-33c2.3-4.5,5-9,7.2-13.7c1.1,2.3,2.2,4.7,3.5,7.1c5.3,10.1,10.6,20.2,15,30.8c4.6,11.1,7.7,22.6,9.3,34.5
		C931.1,153.9,934.5,168.9,928.6,176.4z"/>
	<path class="st0" d="M1095.6,128.6c-2.9-12-7.5-23.5-12.8-34.5c-5-10.5-11.8-20.6-15.9-31.5c-1.4-3.6-1.9-7.6-2.1-11.5
		c0-1.2,0-2.4,0-3.6c0.1-2,0.2-4.1,0.4-6c0.5-4.7,1.7-11.3,6.6-13.1c11.4-4.4,17.5,17.5,4,17.6c-7.1,0-7.1,11.7,0,11.7
		c9,0,17.2-6.2,19-15.8c1.4-8-3.4-18.6-10-23c-7.2-4.7-17.6-3.1-23.5,3.2c-0.8,0.8-1.5,1.7-2.1,2.6c-4-6.4-10.3-10.2-19.9-8
		c-8.3,1.9-16.1,11.8-16.7,20.4c-0.8,11.6,6.9,20.5,18,20.5c6.6,0,6.6-11.7,0-11.7c-11.1,0-8.1-17.2,1.1-18
		c8.8-0.8,11.3,9.2,11.5,17.7c0,0.9,0.3,1.7,0.3,2.6c0,0.6,0.2,1.3,0.2,1.9c0,1.1,0,2.1-0.1,3c-0.8,11.9-8.3,22.3-13.5,32.5
		c-5.5,10.8-10.6,21.9-14.3,33.5c-3.7,11.7-5.5,23.9-6.6,36.2c-0.9,10.4-1,22.6,6.7,30.4c5.9,6,15.7,8.4,22.9,3.7
		c5-3.2,8.4-8.8,10.6-14.9c4.7,12.4,14.4,22,27.8,15.1c9.3-4.7,12.4-14.9,12.6-25.1C1100.1,152.8,1098.3,140,1095.6,128.6z
		 M1085.9,176.4c-8.9,11.2-16.4-4.2-18-12.7c-0.5-2.7-2-13.6,1.6-14.9c3-1.1,3.2,3.1,3.2,5.3c0,7.5,11,7.5,11.1,0
		c0-8.2-4-16.7-12.7-17.1c-5.4-0.2-9.2,2.6-11.6,6.7c-2-3.5-5.1-6.1-9.6-6.6c-9.6-1-14.9,7.8-14.8,17c0,7.5,11.1,7.5,11.1,0
		c0-1.7,0.1-6.2,2.9-5.4c2.6,0.8,2.5,7,2.5,9.1c-0.1,7.4-3.9,25.4-14,21.8c-9.8-3.5-7.8-17.9-7-26.3c1.2-11.6,3.2-23,6.9-34
		c3.9-11.5,9.3-22.3,14.8-33c2.3-4.5,5-9,7.2-13.7c1.1,2.3,2.2,4.7,3.5,7.1c5.3,10.1,10.6,20.2,15,30.8c4.6,11.1,7.7,22.6,9.3,34.5
		C1088.4,153.9,1091.9,168.9,1085.9,176.4z"/>
	<path class="st0" d="M1250,128.6c-2.9-12-7.5-23.5-12.8-34.5c-5-10.5-11.8-20.6-15.9-31.5c-1.4-3.6-1.9-7.6-2.1-11.5
		c0-1.2,0-2.4,0-3.6c0.1-2,0.2-4.1,0.4-6c0.5-4.7,1.7-11.3,6.6-13.1c11.4-4.4,17.5,17.5,4,17.6c-7.1,0-7.1,11.7,0,11.7
		c9,0,17.2-6.2,19-15.8c1.4-8-3.4-18.6-10-23c-7.2-4.7-17.6-3.1-23.5,3.2c-0.8,0.8-1.5,1.7-2.1,2.6c-4-6.4-10.3-10.2-19.9-8
		c-8.3,1.9-16.1,11.8-16.7,20.4c-0.8,11.6,6.9,20.5,18,20.5c6.6,0,6.6-11.7,0-11.7c-11.1,0-8.1-17.2,1.1-18
		c8.8-0.8,11.3,9.2,11.5,17.7c0,0.9,0.3,1.7,0.3,2.6c0,0.6,0.2,1.3,0.2,1.9c0,1.1,0,2.1-0.1,3c-0.8,11.9-8.3,22.3-13.5,32.5
		c-5.5,10.8-10.6,21.9-14.3,33.5c-3.7,11.7-5.5,23.9-6.6,36.2c-0.9,10.4-1,22.6,6.7,30.4c5.9,6,15.7,8.4,22.9,3.7
		c5-3.2,8.4-8.8,10.6-14.9c4.7,12.4,14.4,22,27.8,15.1c9.3-4.7,12.4-14.9,12.6-25.1C1254.5,152.8,1252.7,140,1250,128.6z
		 M1240.3,176.4c-8.9,11.2-16.4-4.2-18-12.7c-0.5-2.7-2-13.6,1.6-14.9c3-1.1,3.2,3.1,3.2,5.3c0,7.5,11,7.5,11.1,0
		c0-8.2-4-16.7-12.7-17.1c-5.4-0.2-9.2,2.6-11.6,6.7c-2-3.5-5.1-6.1-9.6-6.6c-9.6-1-14.9,7.8-14.8,17c0,7.5,11.1,7.5,11.1,0
		c0-1.7,0.1-6.2,2.9-5.4c2.6,0.8,2.5,7,2.5,9.1c-0.1,7.4-3.9,25.4-14,21.8c-9.8-3.5-7.8-17.9-7-26.3c1.2-11.6,3.2-23,6.9-34
		c3.9-11.5,9.3-22.3,14.8-33c2.3-4.5,5-9,7.2-13.7c1.1,2.3,2.2,4.7,3.5,7.1c5.3,10.1,10.6,20.2,15,30.8c4.6,11.1,7.7,22.6,9.3,34.5
		C1242.8,153.9,1246.3,168.9,1240.3,176.4z"/>
	<path class="st0" d="M1407.8,128.6c-2.9-12-7.5-23.5-12.8-34.5c-5-10.5-11.8-20.6-15.9-31.5c-1.4-3.6-1.9-7.6-2.1-11.5
		c0-1.2,0-2.4,0-3.6c0.1-2,0.2-4.1,0.4-6c0.5-4.7,1.7-11.3,6.6-13.1c11.4-4.4,17.5,17.5,4,17.6c-7.1,0-7.1,11.7,0,11.7
		c9,0,17.2-6.2,19-15.8c1.4-8-3.4-18.6-10-23c-7.2-4.7-17.6-3.1-23.5,3.2c-0.8,0.8-1.5,1.7-2.1,2.6c-4-6.4-10.3-10.2-19.9-8
		c-8.3,1.9-16.1,11.8-16.7,20.4c-0.8,11.6,6.9,20.5,18,20.5c6.6,0,6.6-11.7,0-11.7c-11.1,0-8.1-17.2,1.1-18
		c8.8-0.8,11.3,9.2,11.5,17.7c0,0.9,0.3,1.7,0.3,2.6c0,0.6,0.2,1.3,0.2,1.9c0,1.1,0,2.1-0.1,3c-0.8,11.9-8.3,22.3-13.5,32.5
		c-5.5,10.8-10.6,21.9-14.3,33.5c-3.7,11.7-5.5,23.9-6.6,36.2c-0.9,10.4-1,22.6,6.7,30.4c5.9,6,15.7,8.4,22.9,3.7
		c5-3.2,8.4-8.8,10.6-14.9c4.7,12.4,14.4,22,27.8,15.1c9.3-4.7,12.4-14.9,12.6-25.1C1412.3,152.8,1410.5,140,1407.8,128.6z
		 M1398.1,176.4c-8.9,11.2-16.4-4.2-18-12.7c-0.5-2.7-2-13.6,1.6-14.9c3-1.1,3.2,3.1,3.2,5.3c0,7.5,11,7.5,11.1,0
		c0-8.2-4-16.7-12.7-17.1c-5.4-0.2-9.2,2.6-11.6,6.7c-2-3.5-5.1-6.1-9.6-6.6c-9.6-1-14.9,7.8-14.8,17c0,7.5,11.1,7.5,11.1,0
		c0-1.7,0.1-6.2,2.9-5.4c2.6,0.8,2.5,7,2.5,9.1c-0.1,7.4-3.9,25.4-14,21.8c-9.8-3.5-7.8-17.9-7-26.3c1.2-11.6,3.2-23,6.9-34
		c3.9-11.5,9.3-22.3,14.8-33c2.3-4.5,5-9,7.2-13.7c1.1,2.3,2.2,4.7,3.5,7.1c5.3,10.1,10.6,20.2,15,30.8c4.6,11.1,7.7,22.6,9.3,34.5
		C1400.6,153.9,1404.1,168.9,1398.1,176.4z"/>
	<path class="st0" d="M1564.7,128.6c-2.9-12-7.5-23.5-12.8-34.5c-5-10.5-11.8-20.6-15.9-31.5c-1.4-3.6-1.9-7.6-2.1-11.5
		c0-1.2,0-2.4,0-3.6c0.1-2,0.2-4.1,0.4-6c0.5-4.7,1.7-11.3,6.6-13.1c11.4-4.4,17.5,17.5,4,17.6c-7.1,0-7.1,11.7,0,11.7
		c9,0,17.2-6.2,19-15.8c1.4-8-3.4-18.6-10-23c-7.2-4.7-17.6-3.1-23.5,3.2c-0.8,0.8-1.5,1.7-2.1,2.6c-4-6.4-10.3-10.2-19.9-8
		c-8.3,1.9-16.1,11.8-16.7,20.4c-0.8,11.6,6.9,20.5,18,20.5c6.6,0,6.6-11.7,0-11.7c-11.1,0-8.1-17.2,1.1-18
		c8.8-0.8,11.3,9.2,11.5,17.7c0,0.9,0.3,1.7,0.3,2.6c0,0.6,0.2,1.3,0.2,1.9c0,1.1,0,2.1-0.1,3c-0.8,11.9-8.3,22.3-13.5,32.5
		c-5.5,10.8-10.6,21.9-14.3,33.5c-3.7,11.7-5.5,23.9-6.6,36.2c-0.9,10.4-1,22.6,6.7,30.4c5.9,6,15.7,8.4,22.9,3.7
		c5-3.2,8.4-8.8,10.6-14.9c4.7,12.4,14.4,22,27.8,15.1c9.3-4.7,12.4-14.9,12.6-25.1C1569.3,152.8,1567.5,140,1564.7,128.6z
		 M1555.1,176.4c-8.9,11.2-16.4-4.2-18-12.7c-0.5-2.7-2-13.6,1.6-14.9c3-1.1,3.2,3.1,3.2,5.3c0,7.5,11,7.5,11.1,0
		c0-8.2-4-16.7-12.7-17.1c-5.4-0.2-9.2,2.6-11.6,6.7c-2-3.5-5.1-6.1-9.6-6.6c-9.6-1-14.9,7.8-14.8,17c0,7.5,11.1,7.5,11.1,0
		c0-1.7,0.1-6.2,2.9-5.4c2.6,0.8,2.5,7,2.5,9.1c-0.1,7.4-3.9,25.4-14,21.8c-9.8-3.5-7.8-17.9-7-26.3c1.2-11.6,3.2-23,6.9-34
		c3.9-11.5,9.3-22.3,14.8-33c2.3-4.5,5-9,7.2-13.7c1.1,2.3,2.2,4.7,3.5,7.1c5.3,10.1,10.6,20.2,15,30.8c4.6,11.1,7.7,22.6,9.3,34.5
		C1557.6,153.9,1561,168.9,1555.1,176.4z"/>
	<path class="st0" d="M1645.6,1.6h-37.4l0-1.1h-0.1h-3.2h-0.1l0,1.1h-75.1V0.5h-3.3v1.1h-13.2h-2.3h-60.3V0.5h-3.3v1.1h-36.8h-0.8
		H1373l0-1.1h-0.1h-3.2h-0.1l0,1.1h-75.1V0.5h-3.3v1.1h-13.2h-2.3h-60.3V0.5h-3.3v1.1h-35.6h-2.1h-35.4l0-1.1h-0.1h-3.2h-0.1l0,1.1
		h-75.1V0.5h-3.3v1.1H1044h-2.3h-60.3V0.5h-3.3v1.1h-37.3h-0.4h-37.1l0-1.1h-0.1h-3.2H900l0,1.1h-75.1V0.5h-3.3v1.1h-13.2h-2.3
		h-60.3V0.5h-3.3v1.1h-36.4h-1.2h-36.2l0-1.1h-0.1h-3.2h-0.1l0,1.1h-75.1V0.5h-3.3v1.1h-13.2h-2.3H511V0.5h-3.3v1.1h-36h-1.6h-35.8
		l0-1.1h-0.1H431h-0.1l0,1.1h-75.1V0.5h-3.3v1.1h-13.2h-2.3h-60.3V0.5h-3.3v1.1h-36.8h-0.8h-36.6l0-1.1h-0.1h-3.2h-0.1l0,1.1h-75.1
		V0.5h-3.3v1.1H104h-2.3H41.4V0.5h-3.3v1.1H0.5v3.3h37.6v211.3H0.5v3.3h37.6v19.9h3.3v-19.9h60.3h2.3h13.2v19.9h3.3v-19.9h75.1v19.9
		h0.1h3.2h0.1v-19.9h36.6h0.8h36.8v19.9h3.3v-19.9h60.3h2.3h13.2v19.9h3.3v-19.9h75.1v19.9h0.1h3.2h0.1v-19.9h35.8h1.6h36v19.9h3.3
		v-19.9h60.3h2.3h13.2v19.9h3.3v-19.9h75.1v19.9h0.1h3.2h0.1v-19.9h36.2h1.2h36.4v19.9h3.3v-19.9h60.3h2.3h13.2v19.9h3.3v-19.9H900
		v19.9h0.1h3.2h0.1v-19.9h37.1h0.4h37.3v19.9h3.3v-19.9h60.3h2.3h13.2v19.9h3.3v-19.9h75.1v19.9h0.1h3.2h0.1v-19.9h35.4h2.1h35.6
		v19.9h3.3v-19.9h60.3h2.3h13.2v19.9h3.3v-19.9h75.1v19.9h0.1h3.2h0.1v-19.9h36.6h0.8h36.8v19.9h3.3v-19.9h60.3h2.3h13.2v19.9h3.3
		v-19.9h75.1v19.9h0.1h3.2h0.1v-19.9h37.4v-3.3h-37.4l0-211.3h37.4V1.6z M117.2,216.3H104h-2.3H41.4V4.9h60.3h2.3h13.2V216.3z
		 M195.6,216.3h-75.1V4.9h75.1L195.6,216.3z M273.3,216.3h-36.8h-0.8h-36.6l0-211.3h36.6h0.8h36.8V216.3z M352.4,216.3h-13.2h-2.3
		h-60.3V4.9h60.3h2.3h13.2V216.3z M430.8,216.3h-75.1V4.9h75.1L430.8,216.3z M507.7,216.3h-36h-1.6h-35.8l0-211.3h35.8h1.6h36V216.3
		z M586.8,216.3h-13.2h-2.3H511V4.9h60.3h2.3h13.2V216.3z M665.2,216.3h-75.1V4.9h75.1L665.2,216.3z M742.5,216.3h-36.4h-1.2h-36.2
		l0-211.3h36.2h1.2h36.4V216.3z M821.5,216.3h-13.2h-2.3h-60.3V4.9h60.3h2.3h13.2V216.3z M900,216.3h-75.1V4.9H900L900,216.3z
		 M978.1,216.3h-37.3h-0.4h-37.1l0-211.3h37.1h0.4h37.3V216.3z M1057.2,216.3H1044h-2.3h-60.3V4.9h60.3h2.3h13.2V216.3z
		 M1135.6,216.3h-75.1V4.9h75.1L1135.6,216.3z M1212,216.3h-35.6h-2.1h-35.4l0-211.3h35.4h2.1h35.6V216.3z M1291.1,216.3h-13.2h-2.3
		h-60.3V4.9h60.3h2.3h13.2V216.3z M1369.5,216.3h-75.1V4.9h75.1L1369.5,216.3z M1447.2,216.3h-36.8h-0.8H1373l0-211.3h36.6h0.8h36.8
		V216.3z M1526.3,216.3h-13.2h-2.3h-60.3V4.9h60.3h2.3h13.2V216.3z M1604.8,216.3h-75.1V4.9h75.1L1604.8,216.3z"/>
</g>
</svg>
