<?xml version="1.0" encoding="utf-8"?>
<!-- Generator: Adobe Illustrator 23.0.3, SVG Export Plug-In . SVG Version: 6.00 Build 0)  -->
<svg version="1.1" id="Layer_1" xmlns="http://www.w3.org/2000/svg" xmlns:xlink="http://www.w3.org/1999/xlink" x="0px" y="0px"
	 viewBox="0 0 886.6 271.3" style="enable-background:new 0 0 886.6 271.3;" xml:space="preserve">
<style type="text/css">
	.st0{fill:#FFFFFF;stroke:#000000;stroke-miterlimit:10;}
	.st1{fill:#FFFFFF;}
	.st2{fill:none;stroke:#000000;stroke-width:2;stroke-linecap:round;stroke-linejoin:round;stroke-miterlimit:10;}
</style>
<g>
	<g>
		<line class="st0" x1="491.4" y1="27.6" x2="491.4" y2="67.9"/>
		<g>
			<ellipse transform="matrix(0.9224 -0.3862 0.3862 0.9224 34.5761 188.3474)" class="st0" cx="486" cy="8.1" rx="2.3" ry="8.1"/>
			
				<ellipse transform="matrix(0.9224 -0.3862 0.3862 0.9224 25.4703 194.5079)" class="st0" cx="496.8" cy="33.9" rx="2.3" ry="8.1"/>
		</g>
		<g>
			
				<ellipse transform="matrix(0.9224 -0.3862 0.3862 0.9224 33.1034 195.9806)" class="st0" cx="504.3" cy="15.6" rx="8.1" ry="2.3"/>
			
				<ellipse transform="matrix(0.9224 -0.3862 0.3862 0.9224 26.9429 186.8748)" class="st0" cx="478.5" cy="26.4" rx="8.1" ry="2.3"/>
		</g>
		<g>
			
				<ellipse transform="matrix(0.3791 -0.9253 0.9253 0.3791 300.907 464.6398)" class="st0" cx="496.7" cy="8.1" rx="8.1" ry="2.3"/>
			
				<ellipse transform="matrix(0.3791 -0.9253 0.9253 0.3791 270.4421 470.8824)" class="st0" cx="486.1" cy="33.9" rx="8.1" ry="2.3"/>
		</g>
		<g>
			
				<ellipse transform="matrix(0.3791 -0.9253 0.9253 0.3791 282.5533 452.5287)" class="st0" cx="478.5" cy="15.7" rx="2.3" ry="8.1"/>
			
				<ellipse transform="matrix(0.3791 -0.9253 0.9253 0.3791 288.7958 482.9935)" class="st0" cx="504.3" cy="26.3" rx="2.3" ry="8.1"/>
		</g>
		<circle class="st0" cx="491.4" cy="21" r="10.5"/>
	</g>
	<g>
		<g>
			<path class="st1" d="M443.3,270.8c-125.3,0-224.9-10.2-313.3-32.1c-1.7-0.4-3.6-0.9-5.6-1.4C87.2,228.3,0.1,207,0.5,161.7
				c0.2-24.3,28.3-46.8,43.4-58.9c28.1-22.5,62.7-41.7,102.8-57c47.6-18.2,98.3-27.8,146.6-27.8c54.4,0,104.8,11.6,149.7,34.6
				c83.4,42.5,180,66.3,304.1,74.7c9.2,0.6,18.7,1.1,27.9,1.6c23.2,1.2,47.2,2.4,70.3,6.2c14.3,2.4,41,6.8,40.8,26.7
				c-0.2,19.7-16,37-47,51.3c-25.9,12-57,19.5-75.7,24c-2.5,0.6-4.7,1.1-6.8,1.7C668.2,260.6,568.6,270.8,443.3,270.8z"/>
			<path d="M293.3,18.4c54.3,0,104.6,11.6,149.5,34.5c83.4,42.6,180.1,66.3,304.3,74.8c9.3,0.6,18.7,1.1,27.9,1.6
				c23.2,1.2,47.2,2.4,70.3,6.2c14.2,2.4,40.6,6.8,40.3,26.2c-0.2,19.5-15.9,36.6-46.7,50.9c-25.8,12-57,19.5-75.6,24
				c-2.5,0.6-4.7,1.1-6.8,1.7c-88.4,21.9-187.9,32.1-313.2,32.1c-125.3,0-224.8-10.2-313.2-32.1c-1.7-0.4-3.6-0.9-5.6-1.4
				C87.4,227.8,0.6,206.6,1,161.7c0.2-24.1,28.2-46.5,43.3-58.5c28.1-22.5,62.6-41.6,102.6-56.9C194.4,28,245,18.4,293.3,18.4
				L293.3,18.4 M293.3,17.4c-49.9,0-100.1,10-146.8,27.8c-36.6,14-72.2,32.6-102.9,57.1C26.4,116.1,0.2,137.8,0,161.7
				c-0.5,48.2,95.8,69.1,129.9,77.5c102,25.3,209.1,32.1,313.4,32.1c104.3,0,211.4-6.9,313.4-32.1c34.1-8.4,129.3-28.3,129.9-77.5
				c0.2-20.2-26.2-24.7-41.2-27.2c-32.3-5.4-65.6-5.6-98.2-7.8c-105.7-7.2-209.3-26.5-303.9-74.7C396.5,28.2,345.1,17.4,293.3,17.4
				L293.3,17.4z"/>
		</g>
	</g>
	<g>
		<line class="st0" x1="449.1" y1="33.2" x2="449.1" y2="73.5"/>
		<g>
			<ellipse transform="matrix(0.9224 -0.3862 0.3862 0.9224 29.122 172.436)" class="st0" cx="443.7" cy="13.7" rx="2.3" ry="8.1"/>
			
				<ellipse transform="matrix(0.9224 -0.3862 0.3862 0.9224 20.0162 178.5965)" class="st0" cx="454.5" cy="39.5" rx="2.3" ry="8.1"/>
		</g>
		<g>
			<ellipse transform="matrix(0.9224 -0.3862 0.3862 0.9224 27.6493 180.0691)" class="st0" cx="462" cy="21.2" rx="8.1" ry="2.3"/>
			<ellipse transform="matrix(0.9224 -0.3862 0.3862 0.9224 21.4888 170.9633)" class="st0" cx="436.2" cy="32" rx="8.1" ry="2.3"/>
		</g>
		<g>
			
				<ellipse transform="matrix(0.3791 -0.9253 0.9253 0.3791 269.4301 428.9622)" class="st0" cx="454.4" cy="13.7" rx="8.1" ry="2.3"/>
			
				<ellipse transform="matrix(0.3791 -0.9253 0.9253 0.3791 238.9652 435.2047)" class="st0" cx="443.8" cy="39.5" rx="8.1" ry="2.3"/>
		</g>
		<g>
			
				<ellipse transform="matrix(0.3791 -0.9253 0.9253 0.3791 251.0764 416.851)" class="st0" cx="436.2" cy="21.3" rx="2.3" ry="8.1"/>
			
				<ellipse transform="matrix(0.3791 -0.9253 0.9253 0.3791 257.3189 447.3159)" class="st0" cx="462" cy="31.9" rx="2.3" ry="8.1"/>
		</g>
		<circle class="st0" cx="449.1" cy="26.6" r="10.5"/>
	</g>
</g>
</svg>
