<?xml version="1.0" encoding="utf-8"?>
<!-- Generator: Adobe Illustrator 23.0.3, SVG Export Plug-In . SVG Version: 6.00 Build 0)  -->
<svg version="1.1" id="Layer_1" xmlns="http://www.w3.org/2000/svg" xmlns:xlink="http://www.w3.org/1999/xlink" x="0px" y="0px"
	 viewBox="0 0 1448.9 133" style="enable-background:new 0 0 1448.9 133;" xml:space="preserve" preserveAspectRatio="none">
<style type="text/css">
	.st0{fill:#FFFFFF;stroke:#000000;stroke-miterlimit:10;}
	.st1{fill:#FFFFFF;}
	.st2{fill:none;stroke:#000000;stroke-width:2;stroke-linecap:round;stroke-linejoin:round;stroke-miterlimit:10;}
</style>
<g>
	<g>
		<line class="st0" x1="4.8" y1="0.4" x2="269" y2="132.5"/>
		<line class="st0" x1="172.4" y1="0.4" x2="436.6" y2="132.5"/>
		<line class="st0" x1="340" y1="0.4" x2="604.1" y2="132.5"/>
		<line class="st0" x1="172.4" y1="0.4" x2="436.6" y2="132.5"/>
		<line class="st0" x1="269" y1="132.5" x2="4.8" y2="0.4"/>
		<line class="st0" x1="2.3" y1="83" x2="101.4" y2="132.5"/>
		<line class="st0" x1="507.5" y1="0.4" x2="771.7" y2="132.5"/>
		<line class="st0" x1="675.1" y1="0.4" x2="939.3" y2="132.5"/>
		<line class="st0" x1="842.7" y1="0.4" x2="1106.8" y2="132.5"/>
		<line class="st0" x1="1010.2" y1="0.4" x2="1274.4" y2="132.5"/>
		<line class="st0" x1="1177.8" y1="0.4" x2="1442" y2="132.5"/>
		<line class="st0" x1="1345.4" y1="0.4" x2="1442" y2="48.7"/>
		<line class="st0" x1="1177.8" y1="0.4" x2="1442" y2="132.5"/>
	</g>
	<g>
		<line class="st0" x1="1446.1" y1="0.4" x2="1182" y2="132.5"/>
		<line class="st0" x1="1278.6" y1="0.4" x2="1014.4" y2="132.5"/>
		<line class="st0" x1="1111" y1="0.4" x2="846.8" y2="132.5"/>
		<line class="st0" x1="1278.6" y1="0.4" x2="1014.4" y2="132.5"/>
		<line class="st0" x1="1446.1" y1="0.4" x2="1182" y2="132.5"/>
		<line class="st0" x1="1448.6" y1="83" x2="1349.5" y2="132.5"/>
		<line class="st0" x1="943.4" y1="0.4" x2="679.3" y2="132.5"/>
		<line class="st0" x1="775.9" y1="0.4" x2="511.7" y2="132.5"/>
		<line class="st0" x1="608.3" y1="0.4" x2="344.1" y2="132.5"/>
		<line class="st0" x1="440.7" y1="0.4" x2="176.5" y2="132.5"/>
		<line class="st0" x1="273.1" y1="0.4" x2="9" y2="132.5"/>
		<line class="st0" x1="105.6" y1="0.4" x2="0.2" y2="52.6"/>
		<line class="st0" x1="273.1" y1="0.4" x2="9" y2="132.5"/>
	</g>
	<line class="st0" x1="2.7" y1="0.6" x2="1448.7" y2="0.6"/>
</g>
</svg>
