<?xml version="1.0" encoding="utf-8"?>
<!-- Generator: Adobe Illustrator 23.0.3, SVG Export Plug-In . SVG Version: 6.00 Build 0)  -->
<svg version="1.1" id="Layer_1" xmlns="http://www.w3.org/2000/svg" xmlns:xlink="http://www.w3.org/1999/xlink" x="0px" y="0px"
	 viewBox="0 0 29.3 29.3" style="enable-background:new 0 0 29.3 29.3;" xml:space="preserve">
<style type="text/css">
	.st0{fill:#FFFFFF;stroke:#000000;stroke-miterlimit:10;}
	.st1{fill:#FFFFFF;}
</style>
<g>
	<path class="st0" d="M14.6,10.2c0,0,5.8-9.7,0-9.7C9.7,0.5,14.6,10.2,14.6,10.2"/>
	<path class="st0" d="M17.8,11.5c0,0,11-2.8,6.9-6.9C21.2,1.2,17.8,11.5,17.8,11.5"/>
	<path class="st0" d="M19.1,14.6c0,0,9.7,5.8,9.7,0C28.8,9.7,19.1,14.6,19.1,14.6"/>
	<path class="st0" d="M17.8,17.8c0,0,2.8,11,6.9,6.9C28.2,21.2,17.8,17.8,17.8,17.8"/>
	<path class="st0" d="M14.7,19.1c0,0-5.8,9.7,0,9.7C19.6,28.8,14.7,19.1,14.7,19.1"/>
	<path class="st0" d="M11.6,17.8c0,0-11,2.8-6.9,6.9C8.1,28.2,11.6,17.8,11.6,17.8"/>
	<path class="st0" d="M10.2,14.7c0,0-9.7-5.8-9.7,0C0.5,19.6,10.2,14.7,10.2,14.7"/>
	<path class="st0" d="M11.5,11.6c0,0-2.8-11-6.9-6.9C1.2,8.1,11.5,11.6,11.5,11.6"/>
	<g>
		<path class="st1" d="M14.7,22.3c-1,0-2-0.2-2.9-0.6c-1.9-0.8-3.4-2.2-4.2-4.1c-0.8-1.9-0.8-4,0-5.9c1.2-2.9,4-4.8,7.1-4.8
			c1,0,2,0.2,2.9,0.6c3.9,1.6,5.8,6.1,4.2,10C20.6,20.5,17.8,22.3,14.7,22.3z"/>
		<path d="M14.7,7.5L14.7,7.5c0.9,0,1.8,0.2,2.7,0.5c1.8,0.7,3.2,2.1,3.9,3.9c0.7,1.8,0.7,3.7,0,5.5c-1.1,2.7-3.7,4.5-6.6,4.5
			c-0.9,0-1.8-0.2-2.7-0.5c-1.8-0.7-3.2-2.1-3.9-3.9c-0.7-1.8-0.7-3.7,0-5.5C9.1,9.2,11.8,7.5,14.7,7.5 M14.7,6.5
			c-3.2,0-6.3,1.9-7.6,5.1c-1.7,4.2,0.3,8.9,4.5,10.7c1,0.4,2.1,0.6,3.1,0.6c3.2,0,6.3-1.9,7.6-5.1c1.7-4.2-0.3-8.9-4.5-10.7
			C16.8,6.7,15.7,6.5,14.7,6.5L14.7,6.5z"/>
	</g>
</g>
</svg>
