<?xml version="1.0" encoding="utf-8"?>
<!-- Generator: Adobe Illustrator 23.0.3, SVG Export Plug-In . SVG Version: 6.00 Build 0)  -->
<svg version="1.1" id="Layer_1" xmlns="http://www.w3.org/2000/svg" xmlns:xlink="http://www.w3.org/1999/xlink" x="0px" y="0px"
	 viewBox="0 0 625.2 629" style="enable-background:new 0 0 625.2 629;" xml:space="preserve">
<style type="text/css">
	.st0{clip-path:url(#SVGID_2_);}
	.st1{fill:#FFDA00;}
</style>
<g>
	<defs>
		<rect id="SVGID_1_" x="0.4" y="0.1" width="625" height="629"/>
	</defs>
	<clipPath id="SVGID_2_">
		<use xlink:href="#SVGID_1_"  style="overflow:visible;"/>
	</clipPath>
	<g class="st0">
		<g>
			<rect x="-315" y="157.5" class="st1" width="623" height="314.1"/>
			<path d="M305,160.5v308.1h-617V160.5H305 M311,154.5h-629v320.1h629V154.5L311,154.5z"/>
		</g>
		<g>
			<rect x="310.2" y="157.5" class="st1" width="623" height="314.1"/>
			<path d="M930.2,160.5v308.1h-617V160.5H930.2 M936.2,154.5h-629v320.1h629V154.5L936.2,154.5z"/>
		</g>
		<g>
			<rect x="-0.5" y="-157" class="st1" width="623" height="314.1"/>
			<path d="M619.5-154v308.1H2.5V-154H619.5 M625.5-160h-629v320.1h629V-160L625.5-160z"/>
		</g>
		<g>
			<rect x="-0.6" y="473.9" class="st1" width="623" height="314.1"/>
			<path d="M619.4,476.9V785H2.4V476.9H619.4 M625.4,470.9h-629V791h629V470.9L625.4,470.9z"/>
		</g>
	</g>
</g>
</svg>
